# Blender 5.1.1
# www.blender.org
mtllib StandCentro3.mtl
o information_counter
v -60.000000 90.394737 150.000000
v -60.000004 60.000023 150.000000
v -40.000000 40.000023 150.000000
v 40.000000 40.000023 150.000000
v 60.000000 60.000023 150.000000
v 60.000000 90.394737 150.000000
v -60.000000 90.394737 150.500000
v -60.000004 60.000023 150.500000
v -40.000000 40.000023 150.500000
v 40.000000 40.000023 150.500000
v 60.000000 60.000023 150.500000
v 60.000000 90.394737 150.500000
v -60.000000 90.000015 150.000000
v -60.000000 90.000015 150.500000
v 60.000000 90.000015 150.000000
v 60.000000 90.000015 150.500000
v 50.000000 50.000023 149.750000
v 50.000000 50.000023 150.250000
v 50.000000 90.394737 150.000000
v 50.000000 90.394737 150.500000
v 50.000000 90.000015 150.500000
v 50.000000 60.000023 150.500000
v -50.000004 50.000023 150.000000
v -50.000000 50.000023 150.500000
v -50.000000 90.394737 150.500000
v -50.000000 90.394737 150.000000
v -50.000000 90.000015 150.500000
v -50.000000 60.000023 150.500000
v 40.000000 40.000023 150.000000
v 40.000000 40.000023 150.500000
v 40.000000 60.000023 150.500000
v -40.000000 40.000023 150.000000
v -40.000000 40.000023 150.500000
v -40.000000 60.000023 150.500000
v -60.000000 70.000015 150.500000
v 60.000000 70.000015 150.000000
v -60.000000 70.000015 150.000000
v 60.000000 70.000015 150.500000
v 50.000000 70.000015 150.500000
v -50.000000 70.000015 150.500000
v -60.000000 90.000244 99.999985
v -60.000000 90.394966 99.999985
v -50.000000 90.394966 99.999985
v -50.000000 90.000244 99.999985
v 50.000000 90.394966 99.999985
v 60.000000 90.394966 99.999985
v 60.000000 90.000244 99.999985
v 50.000000 90.000244 99.999985
v -50.000004 95.000023 100.000000
v -50.000004 70.000031 155.000015
v -50.000004 95.000031 155.000015
v -40.000004 60.000023 155.000000
v 49.999996 70.000031 155.000015
v 49.999996 95.000023 100.000000
v 49.999996 95.000031 155.000015
v 49.999996 70.000015 150.000015
v -40.000004 60.000023 150.000015
v 49.999996 90.000008 100.000000
v -50.000004 90.000008 100.000000
v 49.999996 95.000015 150.000000
v -50.000004 95.000015 150.000000
v -50.000004 90.000015 150.000015
v 49.999996 90.000031 155.000015
v 49.999996 90.000015 150.000015
v -50.000004 90.000031 155.000015
v 40.000000 95.000031 155.000015
v 39.999996 60.000023 150.000015
v 40.000000 95.000023 100.000000
v 40.000000 90.000008 100.000000
v 39.999996 60.000023 155.000000
v 40.000000 95.000015 150.000015
v 40.000000 90.000031 155.000015
v -40.000000 95.000031 155.000015
v -40.000000 95.000023 100.000000
v -40.000000 90.000008 100.000000
v -40.000000 95.000015 150.000015
v -39.999996 90.000031 155.000015
v -50.000004 70.000015 150.000015
v 40.000004 70.000031 155.000015
v -39.999996 70.000031 155.000015
v 75.000000 2.000016 100.000015
v -75.000000 2.000016 100.000015
v -75.000000 2.000022 150.000015
v 75.000000 2.000022 150.000015
v 75.000000 90.000015 100.000000
v -75.000000 90.000015 100.000000
v -75.000000 90.000015 150.000015
v 75.000000 90.000015 150.000015
v -75.000000 4.000016 100.000015
v 75.000000 4.000016 100.000015
v -75.000000 4.000022 150.000015
v 75.000000 4.000022 150.000015
v 75.000000 88.000015 100.000000
v -75.000000 88.000015 100.000000
v -75.000000 88.000015 150.000015
v 75.000000 88.000015 150.000015
v -75.000000 75.000015 100.000000
v -75.000000 75.000015 150.000015
v 75.000000 75.000015 150.000015
v 75.000000 75.000015 100.000000
v -75.000000 73.000015 100.000000
v -75.000000 73.000015 150.000015
v 75.000000 73.000015 150.000015
v 75.000000 73.000015 100.000000
v 72.000008 2.000016 100.000015
v 72.000008 90.000015 100.000000
v 72.000008 2.000022 150.000015
v 72.000008 90.000015 150.000015
v 72.000008 4.000016 100.000015
v 72.000008 4.000022 150.000015
v 72.000008 88.000015 100.000000
v 72.000008 88.000015 150.000015
v 72.000008 75.000015 100.000000
v 72.000008 75.000015 150.000015
v 72.000008 73.000015 100.000000
v 72.000008 73.000015 150.000015
v -72.000015 90.000015 100.000000
v -72.000015 2.000022 150.000015
v -72.000015 4.000016 100.000015
v -72.000015 88.000015 100.000000
v -72.000015 75.000015 100.000000
v -72.000015 73.000015 100.000000
v -72.000000 2.000016 100.000015
v -72.000000 90.000015 150.000015
v -72.000000 4.000022 150.000015
v -72.000000 88.000015 150.000015
v -72.000000 75.000015 150.000015
v -72.000000 73.000015 150.000015
v -75.000000 2.000022 148.000000
v -75.000000 90.000015 148.000000
v 75.000000 2.000022 148.000000
v 75.000000 90.000015 148.000000
v -75.000000 4.000022 148.000000
v 75.000000 4.000022 148.000000
v -75.000000 88.000015 148.000000
v 75.000000 88.000015 148.000000
v -75.000000 75.000015 148.000000
v 75.000000 75.000015 148.000000
v -75.000000 73.000015 148.000000
v 75.000000 73.000015 148.000000
v 72.000008 2.000022 148.000000
v 72.000008 90.000015 148.000000
v -72.000008 2.000022 148.000000
v -72.000008 90.000015 148.000000
v 73.500000 2.000016 100.000015
v -73.500008 90.000015 100.000000
v -73.500008 2.000022 150.000015
v 73.500000 90.000015 150.000015
v -73.500008 4.000016 100.000015
v 73.500000 4.000022 150.000015
v -73.500008 88.000015 100.000000
v 73.500000 88.000015 150.000015
v -73.500008 75.000015 100.000000
v 73.500000 75.000015 150.000015
v -73.500008 73.000015 100.000000
v 73.500000 73.000015 150.000015
v 73.500000 90.000015 100.000000
v 73.500000 2.000022 150.000015
v 73.500000 4.000016 100.000015
v 73.500000 88.000015 100.000000
v 73.500000 75.000015 100.000000
v 73.500000 73.000015 100.000000
v -73.500000 2.000016 100.000015
v -73.500000 90.000015 150.000015
v -73.500000 4.000022 150.000015
v -73.500000 88.000015 150.000015
v -73.500000 75.000015 150.000015
v -73.500000 73.000015 150.000015
v -73.500000 2.000022 148.000000
v -73.500000 90.000015 148.000000
v 73.500000 2.000022 148.000000
v 73.500000 90.000015 148.000000
v -72.000000 0.000016 100.000015
v 72.000008 0.000016 100.000015
v 73.500000 0.000016 100.000015
v 73.500000 0.000022 148.000000
v 72.000008 0.000022 148.000000
v -72.000008 0.000022 148.000000
v -73.500000 0.000022 148.000000
v -73.500000 0.000016 100.000015
v 72.000008 73.000015 145.000015
v 72.000008 4.000022 145.000015
v -72.000015 4.000022 145.000015
v -72.000015 73.000015 145.000015
v 72.000008 88.000015 145.000015
v 72.000008 75.000015 145.000015
v -72.000015 75.000015 145.000015
v -72.000015 88.000015 145.000015
v 36.356258 72.847511 103.000000
v 1.140007 72.847511 103.000000
v 1.140007 4.266949 103.000046
v 36.356258 4.266949 103.000015
v 36.356258 72.847511 102.000000
v 1.140007 72.847511 102.000000
v 1.140007 4.266949 102.000046
v 36.356258 4.266949 102.000015
v 1.140007 67.872513 103.000000
v 1.140007 67.872513 102.000000
v 36.356258 67.872513 103.000000
v 36.356258 67.872513 102.000000
v 1.140007 67.872513 101.000000
v 1.139992 4.266949 101.000046
v 36.356258 4.266949 101.000015
v 36.356258 67.872513 101.000000
v 1.140007 67.872513 100.000000
v 1.139992 4.266949 100.000046
v 36.356258 4.266949 100.000015
v 36.356258 67.872513 100.000000
v 36.356258 70.857513 101.000000
v 1.140007 70.857513 101.000000
v 1.140007 70.857513 100.000000
v 36.356258 70.857513 100.000000
v 36.523762 72.847511 103.000000
v 71.860001 72.847511 102.999969
v 71.860001 4.266949 103.000015
v 36.523762 4.266949 103.000015
v 36.523762 72.847511 102.000000
v 71.860001 72.847511 101.999969
v 71.860001 4.266949 102.000015
v 36.523762 4.266949 102.000015
v 71.860001 67.872513 102.999992
v 71.860001 67.872513 101.999992
v 36.523762 67.872513 103.000000
v 36.523762 67.872513 102.000000
v 71.860001 67.872513 100.999992
v 71.860001 4.266949 101.000015
v 36.523762 4.266949 101.000015
v 36.523762 67.872513 101.000000
v 71.860001 67.872513 99.999992
v 71.860001 4.266949 100.000015
v 36.523762 4.266949 100.000015
v 36.523762 67.872513 100.000000
v 36.523762 70.857513 101.000000
v 71.860001 70.857513 100.999969
v 71.860001 70.857513 99.999969
v 36.523762 70.857513 100.000000
v -36.643730 72.847511 102.999992
v -71.859970 72.847511 103.000000
v -71.859970 4.266949 103.000046
v -36.643730 4.266949 103.000015
v -36.643730 72.847511 101.999992
v -71.859970 72.847511 102.000000
v -71.859970 4.266949 102.000046
v -36.643730 4.266949 102.000015
v -71.859970 67.872513 103.000000
v -71.859970 67.872513 102.000000
v -36.643730 67.872513 102.999992
v -36.643730 67.872513 101.999992
v -71.859970 67.872513 101.000000
v -71.860001 4.266949 101.000046
v -36.643730 4.266949 101.000015
v -36.643730 67.872513 100.999992
v -71.859970 67.872513 100.000000
v -71.860001 4.266949 100.000046
v -36.643730 4.266949 100.000015
v -36.643730 67.872513 99.999992
v -36.643730 70.857513 100.999992
v -71.859970 70.857513 101.000000
v -71.859970 70.857513 100.000000
v -36.643730 70.857513 99.999992
v -36.476234 72.847511 102.999992
v -1.139992 72.847511 102.999962
v -1.139992 4.266949 103.000015
v -36.476234 4.266949 103.000015
v -36.476234 72.847511 101.999992
v -1.139992 72.847511 101.999962
v -1.139992 4.266949 102.000015
v -36.476234 4.266949 102.000015
v -1.139992 67.872513 102.999985
v -1.139992 67.872513 101.999985
v -36.476234 67.872513 102.999992
v -36.476234 67.872513 101.999992
v -1.139992 67.872513 100.999985
v -1.139992 4.266949 101.000015
v -36.476234 4.266949 101.000015
v -36.476234 67.872513 100.999992
v -1.139992 67.872513 99.999985
v -1.139992 4.266949 100.000015
v -36.476234 4.266949 100.000015
v -36.476234 67.872513 99.999992
v -36.476234 70.857513 100.999992
v -1.139992 70.857513 100.999969
v -1.139992 70.857513 99.999969
v -36.476234 70.857513 99.999992
v -1.000008 73.000015 104.999985
v 0.999992 73.000015 104.999985
v 0.999992 4.114453 105.000015
v -1.000008 4.114453 105.000015
v -1.000008 73.000008 99.999985
v 0.999992 73.000008 99.999985
v 0.999992 4.114441 100.000015
v -1.000008 4.114441 100.000015
vn -1.0000 -0.0000 -0.0000
vn -0.7071 -0.7071 -0.0000
vn 0.7071 -0.7071 -0.0000
vn 1.0000 -0.0000 -0.0000
vn -0.0000 1.0000 -0.0000
vn -0.0000 -0.0250 0.9997
vn -0.0000 -0.0000 -1.0000
vn -0.0000 -0.0000 1.0000
vn 0.0250 -0.0000 0.9997
vn -0.0000 -0.0000 -0.0000
vn -0.0000 -1.0000 -0.0000
vt 0.649525 0.399212
vt 0.650476 0.398006
vt 0.650477 0.399212
vt 0.673749 0.299701
vt 0.650477 0.324678
vt 0.649624 0.323825
vt 0.892586 0.275584
vt 0.915856 0.300551
vt 0.891722 0.276426
vt 0.941185 0.348810
vt 0.939981 0.324686
vt 0.941187 0.324686
vt 0.915855 0.399220
vt 0.939979 0.398014
vt 0.939979 0.399220
vt 0.915852 0.324683
vt 0.649269 0.348803
vt 0.650475 0.397052
vt 0.649269 0.397052
vt 0.940931 0.398014
vt 0.940931 0.399220
vt 0.650478 0.519835
vt 0.674603 0.520787
vt 0.650478 0.520787
vt 0.915854 0.397060
vt 0.939979 0.397060
vt 0.939979 0.348810
vt 0.940823 0.323823
vt 0.916710 0.299698
vt 0.891726 0.324679
vt 0.891726 0.276429
vt 0.939979 0.519843
vt 0.915854 0.520796
vt 0.915854 0.519843
vt 0.697874 0.275576
vt 0.674602 0.300554
vt 0.674601 0.398005
vt 0.674601 0.399212
vt 0.674602 0.324678
vt 0.674600 0.397052
vt 0.674601 0.348803
vt 0.698728 0.324678
vt 0.891725 0.275223
vt 0.698728 0.276429
vt 0.698729 0.275223
vt 0.698727 0.276429
vt 0.941185 0.397059
vt 0.649270 0.324678
vt 0.650476 0.348803
vt 0.915853 0.348808
vt 0.649525 0.519835
vt 0.940931 0.519844
vt 0.649524 0.398006
vt 0.915854 0.398013
vt 0.674603 0.519835
vt 0.939979 0.520796
vt 0.889390 0.707877
vt 0.913516 0.587253
vt 0.913515 0.707877
vt 0.889391 0.490753
vt 0.923507 0.478686
vt 0.923509 0.490748
vt 0.696393 0.490753
vt 0.662277 0.478686
vt 0.696394 0.478691
vt 0.913515 0.719939
vt 0.672268 0.514878
vt 0.696393 0.514878
vt 0.925578 0.707877
vt 0.672268 0.575190
vt 0.660205 0.587253
vt 0.660205 0.575191
vt 0.696393 0.587253
vt 0.672268 0.587253
vt 0.913516 0.575191
vt 0.925578 0.587253
vt 0.660205 0.707876
vt 0.889391 0.563127
vt 0.913516 0.563127
vt 0.660206 0.514878
vt 0.672268 0.563127
vt 0.660206 0.563127
vt 0.913516 0.514878
vt 0.925579 0.563127
vt 0.696393 0.707877
vt 0.889390 0.587253
vt 0.889390 0.478691
vt 0.696393 0.719939
vt 0.889390 0.719939
vt 0.889391 0.514878
vt 0.889391 0.575190
vt 0.696393 0.575190
vt 0.672268 0.719939
vt 0.696393 0.563127
vt 0.493306 0.575728
vt 0.496925 0.570903
vt 0.496925 0.575728
vt 0.019255 0.575728
vt 0.135054 0.570903
vt 0.135054 0.575728
vt 0.138672 0.030508
vt 0.135054 0.035333
vt 0.135054 0.030508
vt 0.612724 0.575728
vt 0.617549 0.570903
vt 0.617549 0.575728
vt 0.135054 0.025683
vt 0.138672 0.242806
vt 0.135053 0.247631
vt 0.135054 0.242806
vt 0.135054 0.404442
vt 0.138672 0.570903
vt 0.014430 0.404442
vt 0.019255 0.570903
vt 0.014430 0.570903
vt 0.496925 0.201794
vt 0.493307 0.035333
vt 0.496925 0.035333
vt 0.496925 0.404442
vt 0.612724 0.570903
vt 0.135054 0.363430
vt 0.138672 0.368255
vt 0.135054 0.368255
vt 0.014430 0.363430
vt 0.019255 0.368255
vt 0.014430 0.368255
vt 0.496925 0.242806
vt 0.493307 0.237981
vt 0.496925 0.237981
vt 0.496925 0.363430
vt 0.612724 0.368255
vt 0.496925 0.368255
vt 0.138672 0.399617
vt 0.135054 0.399617
vt 0.019255 0.399617
vt 0.014430 0.399617
vt 0.493307 0.206619
vt 0.496925 0.206619
vt 0.612724 0.399617
vt 0.496925 0.399617
vt 0.138672 0.404442
vt 0.019255 0.404442
vt 0.493307 0.201794
vt 0.612724 0.404442
vt 0.142291 0.575728
vt 0.489688 0.570903
vt 0.489688 0.575728
vt 0.493307 0.030508
vt 0.489688 0.035333
vt 0.489688 0.030508
vt 0.493307 0.242806
vt 0.489688 0.247631
vt 0.489688 0.242806
vt 0.493307 0.404442
vt 0.489688 0.404442
vt 0.142291 0.201794
vt 0.489688 0.201794
vt 0.493307 0.363430
vt 0.489688 0.368255
vt 0.489688 0.363430
vt 0.142291 0.242806
vt 0.489688 0.237981
vt 0.493307 0.368255
vt 0.489688 0.399617
vt 0.142291 0.237981
vt 0.489688 0.206619
vt 0.493307 0.399617
vt 0.142291 0.206619
vt 0.142291 0.035333
vt 0.142291 0.030508
vt 0.142291 0.247631
vt 0.490207 0.697525
vt 0.142810 0.863986
vt 0.142810 0.697525
vt 0.142291 0.368255
vt 0.142291 0.363430
vt 0.960064 0.844421
vt 0.612667 0.875783
vt 0.612667 0.844421
vt 0.142291 0.404442
vt 0.142291 0.399617
vt 0.138672 0.575728
vt 0.142291 0.570903
vt 0.138672 0.201794
vt 0.138672 0.237981
vt 0.138672 0.206619
vt 0.014430 0.575728
vt 0.019255 0.579347
vt 0.138672 0.247631
vt 0.617549 0.404442
vt 0.019255 0.363430
vt 0.617549 0.363430
vt 0.612724 0.363430
vt 0.617549 0.368255
vt 0.617549 0.399617
vt 0.496925 0.030508
vt 0.493307 0.025683
vt 0.496925 0.025683
vt 0.493307 0.247631
vt 0.496925 0.247631
vt 0.142291 0.025683
vt 0.489688 0.025683
vt 0.493306 0.570903
vt 0.138672 0.035333
vt 0.138672 0.025683
vt 0.138672 0.363430
vt 0.612724 0.579347
vt 0.496925 0.579347
vt 0.135054 0.201794
vt 0.135054 0.237981
vt 0.135054 0.206619
vt 0.142291 0.580553
vt 0.489688 0.580553
vt 0.496925 0.584172
vt 0.493307 0.020858
vt 0.489688 0.020858
vt 0.142291 0.020858
vt 0.135053 0.579347
vt 0.019255 0.584172
vt 0.138672 0.580553
vt 0.598768 0.863986
vt 0.598768 0.697525
vt 0.142810 0.972548
vt 0.490207 0.863986
vt 0.490208 0.972548
vt 0.034249 0.697525
vt 0.034249 0.863986
vt 0.490208 0.588964
vt 0.142810 0.588964
vt 0.960064 0.984345
vt 0.991426 0.875783
vt 0.991426 0.984345
vt 0.612667 0.984345
vt 0.960064 0.875783
vt 0.581305 0.984345
vt 0.960064 0.735860
vt 0.612667 0.735860
vt 0.839858 0.219524
vt 0.751664 0.222157
vt 0.839858 0.222157
vt 0.746399 0.198463
vt 0.743766 0.185300
vt 0.743766 0.198463
vt 0.751664 0.032607
vt 0.839858 0.029975
vt 0.751664 0.029975
vt 0.845123 0.037873
vt 0.847755 0.185300
vt 0.847755 0.037873
vt 0.751664 0.185300
vt 0.839858 0.037873
vt 0.751664 0.037873
vt 0.746399 0.185300
vt 0.743766 0.037873
vt 0.845123 0.185300
vt 0.847755 0.198463
vt 0.751664 0.206361
vt 0.839858 0.206361
vt 0.749032 0.185300
vt 0.746399 0.037873
vt 0.839858 0.035240
vt 0.839858 0.032607
vt 0.842490 0.037873
vt 0.839858 0.203728
vt 0.749032 0.037873
vt 0.751664 0.035240
vt 0.842490 0.185300
vt 0.839858 0.193198
vt 0.751664 0.195830
vt 0.839858 0.195830
vt 0.751664 0.203728
vt 0.749032 0.193198
vt 0.751664 0.193198
vt 0.839858 0.185300
vt 0.865575 0.222145
vt 0.953893 0.219509
vt 0.953893 0.222145
vt 0.857665 0.198418
vt 0.860302 0.185236
vt 0.860302 0.198418
vt 0.953893 0.029689
vt 0.865575 0.032325
vt 0.865575 0.029689
vt 0.961803 0.185236
vt 0.959166 0.037598
vt 0.961803 0.037598
vt 0.953893 0.037598
vt 0.865575 0.185236
vt 0.865575 0.037598
vt 0.857665 0.037598
vt 0.857665 0.185236
vt 0.961803 0.198418
vt 0.959166 0.185236
vt 0.865575 0.206327
vt 0.953893 0.206327
vt 0.860302 0.037598
vt 0.862938 0.185236
vt 0.953893 0.032325
vt 0.865575 0.034962
vt 0.956530 0.037598
vt 0.953893 0.203691
vt 0.862938 0.037598
vt 0.953893 0.034962
vt 0.956530 0.185236
vt 0.865575 0.195782
vt 0.953893 0.193145
vt 0.953893 0.195782
vt 0.865575 0.203691
vt 0.862938 0.193145
vt 0.953893 0.185236
vt 0.865575 0.193145
vt 0.613612 0.219524
vt 0.525419 0.222156
vt 0.613612 0.222156
vt 0.520153 0.198463
vt 0.517521 0.185300
vt 0.517521 0.198463
vt 0.525419 0.032607
vt 0.613612 0.029975
vt 0.525419 0.029975
vt 0.618877 0.037873
vt 0.621510 0.185300
vt 0.621510 0.037873
vt 0.525419 0.185300
vt 0.613612 0.037873
vt 0.525419 0.037873
vt 0.520153 0.185300
vt 0.517521 0.037873
vt 0.618877 0.185300
vt 0.621510 0.198463
vt 0.525419 0.206361
vt 0.613612 0.206361
vt 0.522786 0.185300
vt 0.520153 0.037873
vt 0.613612 0.035240
vt 0.613612 0.032607
vt 0.616244 0.037873
vt 0.613612 0.203728
vt 0.522786 0.037873
vt 0.525419 0.035240
vt 0.616244 0.185300
vt 0.613612 0.193198
vt 0.525419 0.195830
vt 0.613612 0.195830
vt 0.525419 0.203728
vt 0.522786 0.193198
vt 0.525419 0.193198
vt 0.613612 0.185300
vt 0.639329 0.222420
vt 0.727648 0.219783
vt 0.727648 0.222420
vt 0.631420 0.198692
vt 0.634056 0.185510
vt 0.634056 0.198692
vt 0.727648 0.029963
vt 0.639329 0.032600
vt 0.639329 0.029963
vt 0.735557 0.185510
vt 0.732921 0.037873
vt 0.735557 0.037873
vt 0.727648 0.037873
vt 0.639329 0.185510
vt 0.639329 0.037873
vt 0.631420 0.037873
vt 0.631420 0.185510
vt 0.735557 0.198692
vt 0.732921 0.185510
vt 0.639329 0.206601
vt 0.727648 0.206601
vt 0.634056 0.037873
vt 0.636693 0.185510
vt 0.727648 0.032600
vt 0.639329 0.035236
vt 0.730284 0.037873
vt 0.727648 0.203965
vt 0.636693 0.037873
vt 0.727648 0.035236
vt 0.730284 0.185510
vt 0.639329 0.196056
vt 0.727648 0.193419
vt 0.727648 0.196056
vt 0.639329 0.203965
vt 0.636693 0.193419
vt 0.727648 0.185510
vt 0.639329 0.193419
vt 0.524503 0.265029
vt 0.689518 0.251503
vt 0.689518 0.265029
vt 0.524503 0.232567
vt 0.689518 0.246093
vt 0.524503 0.246092
vt 0.524503 0.251503
vt 0.662276 0.490748
vt 0.925578 0.575191
vt 0.672268 0.707877
vt 0.925579 0.514878
vt 0.493306 0.580553
vt 0.612724 0.584172
vt 0.138672 0.020858
vt 0.135053 0.584172
vt 0.581305 0.875783
vt 0.751664 0.219524
vt 0.845123 0.198463
vt 0.842490 0.193198
vt 0.865575 0.219509
vt 0.959166 0.198418
vt 0.956530 0.193145
vt 0.525419 0.219524
vt 0.618877 0.198463
vt 0.616244 0.193198
vt 0.639329 0.219783
vt 0.732921 0.198692
vt 0.730284 0.193419
vt 0.689518 0.232567
s 1
usemtl grey.002
f 13/1/1 7/2/1 1/3/1
f 23/4/2 8/5/2 2/6/2
f 4/7/3 18/8/3 10/9/3
f 36/10/4 11/11/4 5/12/4
f 19/13/5 12/14/5 6/15/5
f 11/11/6 22/16/6 18/8/6
f 37/17/1 14/18/1 13/19/1
f 6/15/4 16/20/4 15/21/4
f 42/22/7 44/23/7 41/24/7
f 12/14/8 21/25/8 16/26/8
f 38/27/8 22/16/8 11/11/8
f 5/28/3 18/8/3 17/29/3
f 31/30/9 30/31/9 18/8/9
f 46/32/7 48/33/7 45/34/7
f 3/35/2 24/36/2 23/4/2
f 1/3/5 25/37/5 26/38/5
f 28/39/8 8/5/8 24/36/8
f 7/2/8 27/40/8 25/37/8
f 14/18/8 40/41/8 27/40/8
s 0
f 29/7/10 10/9/10 30/9/10
s 1
f 34/42/8 30/31/8 31/30/8
f 29/43/11 33/44/11 32/45/11
f 34/42/8 24/36/8 9/46/8
f 15/47/4 38/27/4 36/10/4
f 2/48/1 35/49/1 37/17/1
f 16/26/8 39/50/8 38/27/8
f 35/49/8 28/39/8 40/41/8
f 31/30/8 22/16/8 39/50/8
f 40/41/8 28/39/8 34/42/8
f 1/3/1 41/51/1 13/1/1
f 26/38/5 42/22/5 1/3/5
f 6/15/5 45/34/5 19/13/5
f 6/15/4 47/52/4 46/32/4
f 13/1/1 14/53/1 7/2/1
f 23/4/2 24/36/2 8/5/2
f 4/7/3 17/29/3 18/8/3
f 36/10/4 38/27/4 11/11/4
f 19/13/5 20/54/5 12/14/5
f 37/17/1 35/49/1 14/18/1
f 6/15/4 12/14/4 16/20/4
f 42/22/7 43/55/7 44/23/7
f 12/14/8 20/54/8 21/25/8
f 38/27/8 39/50/8 22/16/8
f 5/28/3 11/11/3 18/8/3
f 18/8/6 22/16/6 31/30/6
s 0
f 30/31/8 10/9/8 18/8/8
s 1
f 46/32/7 47/56/7 48/33/7
f 3/35/2 9/46/2 24/36/2
f 1/3/5 7/2/5 25/37/5
f 7/2/8 14/18/8 27/40/8
f 14/18/8 35/49/8 40/41/8
s 0
f 29/7/10 4/7/10 10/9/10
s 1
f 34/42/8 33/44/8 30/31/8
f 29/43/11 30/31/11 33/44/11
f 34/42/8 28/39/8 24/36/8
s 0
f 9/46/8 33/44/8 34/42/8
s 1
f 15/47/4 16/26/4 38/27/4
f 2/48/1 8/5/1 35/49/1
f 16/26/8 21/25/8 39/50/8
f 35/49/8 8/5/8 28/39/8
f 1/3/1 42/22/1 41/51/1
f 26/38/5 43/55/5 42/22/5
f 6/15/5 46/32/5 45/34/5
f 6/15/4 15/21/4 47/52/4
usemtl white.002
f 68/57/5 60/58/5 54/59/5
f 70/60/3 56/61/3 53/62/3
f 52/63/2 78/64/2 57/65/2
f 58/66/7 68/57/7 54/59/7
f 50/67/8 52/63/8 80/68/8
f 60/58/4 58/69/4 54/59/4
f 51/70/1 62/71/1 65/72/1
f 51/70/5 76/73/5 61/74/5
f 55/75/4 64/76/4 60/58/4
f 61/74/1 59/77/1 62/71/1
f 55/75/8 72/78/8 63/79/8
f 78/80/1 65/81/1 62/82/1
f 53/83/4 64/84/4 63/79/4
f 74/85/5 71/86/5 68/57/5
f 52/63/11 67/87/11 70/60/11
f 75/88/7 68/57/7 69/89/7
f 70/60/8 53/83/8 79/90/8
f 55/75/5 71/86/5 66/91/5
f 73/92/8 72/78/8 66/91/8
f 70/60/8 80/68/8 52/63/8
f 66/91/5 76/73/5 73/92/5
f 74/85/5 61/74/5 76/73/5
f 59/93/7 74/85/7 75/88/7
f 73/92/8 65/81/8 77/94/8
f 77/94/8 50/67/8 80/68/8
f 63/79/8 79/90/8 53/83/8
f 72/78/8 80/68/8 79/90/8
f 145/95/7 90/96/7 81/97/7
f 129/98/1 89/99/1 82/100/1
f 147/101/8 91/102/8 83/103/8
f 131/104/4 92/105/4 84/106/4
f 129/107/11 147/101/11 83/103/11
f 164/108/5 130/109/5 87/110/5
f 101/111/7 149/112/7 89/99/7
f 102/113/1 133/114/1 91/115/1
f 103/116/8 150/117/8 92/118/8
f 104/119/4 134/120/4 90/96/4
f 86/121/7 151/122/7 94/123/7
f 87/124/1 135/125/1 95/126/1
f 88/127/8 152/128/8 96/129/8
f 85/130/4 136/131/4 93/132/4
f 94/123/7 153/133/7 97/134/7
f 95/126/1 137/135/1 98/136/1
f 96/129/8 154/137/8 99/138/8
f 93/132/4 138/139/4 100/140/4
f 97/134/7 155/141/7 101/111/7
f 98/136/1 139/142/1 102/113/1
f 99/138/8 156/143/8 103/116/8
f 100/140/4 140/144/4 104/119/4
f 123/145/7 109/146/7 105/147/7
f 158/148/8 110/149/8 107/150/8
f 148/151/5 142/152/5 108/153/5
f 162/154/7 109/146/7 115/155/7
f 128/156/8 110/149/8 116/157/8
f 157/158/7 111/159/7 106/160/7
f 124/161/8 112/162/8 108/153/8
f 160/163/7 113/164/7 111/159/7
f 126/165/8 114/166/8 112/162/8
f 161/167/7 115/155/7 113/164/7
f 127/168/8 116/157/8 114/166/8
f 107/150/8 125/169/8 118/170/8
f 108/153/5 144/171/5 124/161/5
f 181/172/7 183/173/7 184/174/7
f 106/160/7 120/175/7 117/176/7
f 185/177/7 187/178/7 188/179/7
f 113/164/7 122/180/7 121/181/7
f 163/182/7 119/183/7 123/145/7
f 168/184/8 125/169/8 128/156/8
f 164/108/8 126/165/8 124/161/8
f 166/185/8 127/168/8 126/165/8
f 167/186/8 128/156/8 127/168/8
f 83/187/1 133/114/1 129/98/1
f 81/97/4 134/120/4 131/104/4
f 82/100/11 169/188/11 129/98/11
f 117/176/5 170/189/5 144/171/5
f 101/111/1 133/114/1 139/142/1
f 103/190/4 134/120/4 140/144/4
f 86/121/1 135/125/1 130/191/1
f 88/192/4 136/131/4 132/193/4
f 94/123/1 137/135/1 135/125/1
f 96/194/4 138/139/4 136/131/4
f 97/134/1 139/142/1 137/135/1
f 99/195/4 140/144/4 138/139/4
f 84/196/11 171/197/11 131/198/11
f 85/130/5 172/199/5 132/200/5
f 107/150/11 143/201/11 141/202/11
f 106/160/5 144/171/5 142/152/5
f 105/147/7 159/203/7 145/95/7
f 118/170/8 165/204/8 147/101/8
f 169/205/11 118/170/11 147/101/11
f 164/108/5 144/171/5 170/189/5
f 122/180/7 149/112/7 155/141/7
f 116/157/8 150/117/8 156/143/8
f 117/176/7 151/122/7 146/206/7
f 108/153/8 152/128/8 148/151/8
f 120/175/7 153/133/7 151/122/7
f 112/162/8 154/137/8 152/128/8
f 121/181/7 155/141/7 153/133/7
f 114/166/8 156/143/8 154/137/8
f 84/196/8 150/117/8 158/148/8
f 81/97/11 171/207/11 145/208/11
f 88/127/5 172/199/5 148/151/5
f 104/119/7 159/203/7 162/154/7
f 85/130/7 160/163/7 157/158/7
f 93/132/7 161/167/7 160/163/7
f 100/140/7 162/154/7 161/167/7
f 82/100/7 149/112/7 163/182/7
f 102/209/8 165/204/8 168/184/8
f 87/110/8 166/185/8 164/108/8
f 95/210/8 167/186/8 166/185/8
f 98/211/8 168/184/8 167/186/8
f 86/121/5 170/189/5 146/206/5
f 107/150/11 171/197/11 158/148/11
f 106/160/5 172/199/5 157/158/5
f 105/147/7 173/212/7 123/145/7
f 145/95/7 174/213/7 105/147/7
f 171/207/4 175/214/4 145/208/4
f 141/202/8 176/215/8 171/197/8
f 143/201/8 177/216/8 141/202/8
f 169/205/8 178/217/8 143/201/8
f 163/218/1 179/219/1 169/188/1
f 123/145/7 180/220/7 163/182/7
f 109/221/1 181/172/1 115/222/1
f 119/223/5 182/224/5 109/225/5
f 122/226/4 183/173/4 119/227/4
f 115/228/11 184/174/11 122/229/11
f 113/230/1 185/231/1 111/232/1
f 121/233/5 186/234/5 113/230/5
f 120/235/4 187/178/4 121/233/4
f 111/236/11 188/179/11 120/237/11
f 193/238/5 190/239/5 189/240/5
f 194/241/1 197/242/1 190/243/1
f 195/244/11 192/245/11 191/246/11
f 196/247/4 199/248/4 192/249/4
f 205/250/7 207/251/7 206/252/7
f 198/253/1 191/254/1 197/242/1
f 200/255/4 189/256/4 199/248/4
f 198/257/7 193/238/7 200/258/7
f 201/259/1 195/260/1 198/253/1
f 195/244/11 203/261/11 196/262/11
f 203/263/4 200/255/4 196/247/4
f 204/264/5 198/257/5 200/258/5
f 205/250/1 202/265/1 201/259/1
f 206/252/11 203/261/11 202/266/11
f 207/251/4 204/267/4 203/263/4
f 212/268/5 210/269/5 209/270/5
f 209/270/8 201/271/8 204/264/8
f 210/272/1 205/250/1 201/259/1
f 211/273/7 208/274/7 205/250/7
f 212/268/4 204/267/4 208/274/4
f 214/275/5 217/276/5 213/277/5
f 214/278/4 222/279/4 218/280/4
f 216/281/11 219/282/11 215/283/11
f 223/284/1 220/285/1 216/286/1
f 231/287/7 229/288/7 230/289/7
f 215/290/4 222/279/4 221/291/4
f 213/292/1 224/293/1 223/284/1
f 217/276/7 222/294/7 224/295/7
f 219/296/4 225/297/4 222/279/4
f 220/298/11 226/299/11 219/282/11
f 224/293/1 227/300/1 220/285/1
f 222/294/5 228/301/5 224/295/5
f 226/302/4 229/288/4 225/297/4
f 227/303/11 230/289/11 226/299/11
f 228/304/1 231/287/1 227/300/1
f 234/305/5 236/306/5 233/307/5
f 225/308/8 233/307/8 228/301/8
f 229/288/4 234/309/4 225/297/4
f 232/310/7 235/311/7 229/288/7
f 228/304/1 236/306/1 232/310/1
f 241/312/5 238/313/5 237/314/5
f 242/315/1 245/316/1 238/317/1
f 243/318/11 240/319/11 239/320/11
f 244/321/4 247/322/4 240/323/4
f 253/324/7 255/325/7 254/326/7
f 246/327/1 239/328/1 245/316/1
f 248/329/4 237/330/4 247/322/4
f 246/331/7 241/312/7 248/332/7
f 249/333/1 243/334/1 246/327/1
f 243/318/11 251/335/11 244/336/11
f 251/337/4 248/329/4 244/321/4
f 252/338/5 246/331/5 248/332/5
f 253/324/1 250/339/1 249/333/1
f 254/326/11 251/335/11 250/340/11
f 255/325/4 252/341/4 251/337/4
f 260/342/5 258/343/5 257/344/5
f 257/344/8 249/345/8 252/338/8
f 258/346/1 253/324/1 249/333/1
f 259/347/7 256/348/7 253/324/7
f 260/342/4 252/341/4 256/348/4
f 262/349/5 265/350/5 261/351/5
f 262/352/4 270/353/4 266/354/4
f 264/355/11 267/356/11 263/357/11
f 271/358/1 268/359/1 264/360/1
f 279/361/7 277/362/7 278/363/7
f 263/364/4 270/353/4 269/365/4
f 261/366/1 272/367/1 271/358/1
f 265/350/7 270/368/7 272/369/7
f 267/370/4 273/371/4 270/353/4
f 268/372/11 274/373/11 267/356/11
f 272/367/1 275/374/1 268/359/1
f 270/368/5 276/375/5 272/369/5
f 274/376/4 277/362/4 273/371/4
f 275/377/11 278/363/11 274/373/11
f 276/378/1 279/361/1 275/374/1
f 282/379/5 284/380/5 281/381/5
f 273/382/8 281/381/8 276/375/8
f 277/362/4 282/383/4 273/371/4
f 280/384/7 283/385/7 277/362/7
f 276/378/1 284/380/1 280/384/1
f 287/386/4 290/387/4 286/388/4
f 288/389/1 289/390/1 292/391/1
f 292/391/7 290/387/7 291/392/7
f 68/57/5 71/86/5 60/58/5
f 70/60/3 67/87/3 56/61/3
f 52/63/2 50/393/2 78/64/2
f 58/66/7 69/89/7 68/57/7
f 60/58/4 64/76/4 58/69/4
f 51/70/1 61/74/1 62/71/1
f 51/70/5 73/92/5 76/73/5
f 55/75/4 63/394/4 64/76/4
f 61/74/1 49/395/1 59/77/1
f 55/75/8 66/91/8 72/78/8
f 78/80/1 50/67/1 65/81/1
f 53/83/4 56/396/4 64/84/4
f 74/85/5 76/73/5 71/86/5
f 52/63/11 57/65/11 67/87/11
f 75/88/7 74/85/7 68/57/7
f 55/75/5 60/58/5 71/86/5
f 73/92/8 77/94/8 72/78/8
f 70/60/8 79/90/8 80/68/8
f 66/91/5 71/86/5 76/73/5
f 74/85/5 49/395/5 61/74/5
f 59/93/7 49/395/7 74/85/7
f 73/92/8 51/70/8 65/81/8
f 77/94/8 65/81/8 50/67/8
f 63/79/8 72/78/8 79/90/8
f 72/78/8 77/94/8 80/68/8
f 145/95/7 159/203/7 90/96/7
f 129/98/1 133/114/1 89/99/1
f 147/101/8 165/204/8 91/102/8
f 131/104/4 134/120/4 92/105/4
f 129/107/11 169/205/11 147/101/11
f 164/108/5 170/189/5 130/109/5
f 101/111/7 155/141/7 149/112/7
f 102/113/1 139/142/1 133/114/1
f 103/116/8 156/143/8 150/117/8
f 104/119/4 140/144/4 134/120/4
f 86/121/7 146/206/7 151/122/7
f 87/124/1 130/191/1 135/125/1
f 88/127/8 148/151/8 152/128/8
f 85/130/4 132/193/4 136/131/4
f 94/123/7 151/122/7 153/133/7
f 95/126/1 135/125/1 137/135/1
f 96/129/8 152/128/8 154/137/8
f 93/132/4 136/131/4 138/139/4
f 97/134/7 153/133/7 155/141/7
f 98/136/1 137/135/1 139/142/1
f 99/138/8 154/137/8 156/143/8
f 100/140/4 138/139/4 140/144/4
f 123/145/7 119/183/7 109/146/7
f 158/148/8 150/117/8 110/149/8
f 148/151/5 172/199/5 142/152/5
f 162/154/7 159/203/7 109/146/7
f 128/156/8 125/169/8 110/149/8
f 157/158/7 160/163/7 111/159/7
f 124/161/8 126/165/8 112/162/8
f 160/163/7 161/167/7 113/164/7
f 126/165/8 127/168/8 114/166/8
f 161/167/7 162/154/7 115/155/7
f 127/168/8 128/156/8 116/157/8
f 107/150/8 110/149/8 125/169/8
f 108/153/5 142/152/5 144/171/5
f 181/172/7 182/224/7 183/173/7
f 106/160/7 111/159/7 120/175/7
f 185/177/7 186/234/7 187/178/7
f 113/164/7 115/155/7 122/180/7
f 163/182/7 149/112/7 119/183/7
f 168/184/8 165/204/8 125/169/8
f 164/108/8 166/185/8 126/165/8
f 166/185/8 167/186/8 127/168/8
f 167/186/8 168/184/8 128/156/8
f 83/187/1 91/115/1 133/114/1
f 81/97/4 90/96/4 134/120/4
f 82/100/11 163/218/11 169/188/11
f 117/176/5 146/206/5 170/189/5
f 101/111/1 89/99/1 133/114/1
f 103/190/4 92/105/4 134/120/4
f 86/121/1 94/123/1 135/125/1
f 88/192/4 96/194/4 136/131/4
f 94/123/1 97/134/1 137/135/1
f 96/194/4 99/195/4 138/139/4
f 97/134/1 101/111/1 139/142/1
f 99/195/4 103/190/4 140/144/4
f 84/196/11 158/148/11 171/197/11
f 85/130/5 157/158/5 172/199/5
f 107/150/11 118/170/11 143/201/11
f 106/160/5 117/176/5 144/171/5
f 105/147/7 109/146/7 159/203/7
f 118/170/8 125/169/8 165/204/8
f 169/205/11 143/201/11 118/170/11
f 164/108/5 124/161/5 144/171/5
f 122/180/7 119/183/7 149/112/7
f 116/157/8 110/149/8 150/117/8
f 117/176/7 120/175/7 151/122/7
f 108/153/8 112/162/8 152/128/8
f 120/175/7 121/181/7 153/133/7
f 112/162/8 114/166/8 154/137/8
f 121/181/7 122/180/7 155/141/7
f 114/166/8 116/157/8 156/143/8
f 84/196/8 92/118/8 150/117/8
f 81/97/11 131/104/11 171/207/11
f 88/127/5 132/200/5 172/199/5
f 104/119/7 90/96/7 159/203/7
f 85/130/7 93/132/7 160/163/7
f 93/132/7 100/140/7 161/167/7
f 100/140/7 104/119/7 162/154/7
f 82/100/7 89/99/7 149/112/7
f 102/209/8 91/102/8 165/204/8
f 87/110/8 95/210/8 166/185/8
f 95/210/8 98/211/8 167/186/8
f 98/211/8 102/209/8 168/184/8
f 86/121/5 130/109/5 170/189/5
f 107/150/11 141/202/11 171/197/11
f 106/160/5 142/152/5 172/199/5
f 105/147/7 174/213/7 173/212/7
f 145/95/7 175/397/7 174/213/7
f 171/207/4 176/398/4 175/214/4
f 141/202/8 177/216/8 176/215/8
f 143/201/8 178/217/8 177/216/8
f 169/205/8 179/399/8 178/217/8
f 163/218/1 180/400/1 179/219/1
f 123/145/7 173/212/7 180/220/7
f 109/221/1 182/224/1 181/172/1
f 119/223/5 183/173/5 182/224/5
f 122/226/4 184/174/4 183/173/4
f 115/228/11 181/172/11 184/174/11
f 113/230/1 186/234/1 185/231/1
f 121/233/5 187/178/5 186/234/5
f 120/235/4 188/401/4 187/178/4
f 111/236/11 185/177/11 188/179/11
f 193/238/5 194/402/5 190/239/5
f 194/241/1 198/253/1 197/242/1
f 195/244/11 196/262/11 192/245/11
f 196/247/4 200/255/4 199/248/4
f 205/250/7 208/274/7 207/251/7
f 198/253/1 195/260/1 191/254/1
f 200/255/4 193/403/4 189/256/4
f 198/257/7 194/402/7 193/238/7
f 201/259/1 202/265/1 195/260/1
f 195/244/11 202/266/11 203/261/11
f 203/263/4 204/267/4 200/255/4
f 204/264/5 201/271/5 198/257/5
f 205/250/1 206/252/1 202/265/1
f 206/252/11 207/251/11 203/261/11
f 207/251/4 208/274/4 204/267/4
f 212/268/5 211/273/5 210/269/5
f 209/270/8 210/269/8 201/271/8
f 210/272/1 211/273/1 205/250/1
f 211/273/7 212/268/7 208/274/7
f 212/268/4 209/404/4 204/267/4
f 214/275/5 218/405/5 217/276/5
f 214/278/4 221/291/4 222/279/4
f 216/281/11 220/298/11 219/282/11
f 223/284/1 224/293/1 220/285/1
f 231/287/7 232/310/7 229/288/7
f 215/290/4 219/296/4 222/279/4
f 213/292/1 217/406/1 224/293/1
f 217/276/7 218/405/7 222/294/7
f 219/296/4 226/302/4 225/297/4
f 220/298/11 227/303/11 226/299/11
f 224/293/1 228/304/1 227/300/1
f 222/294/5 225/308/5 228/301/5
f 226/302/4 230/289/4 229/288/4
f 227/303/11 231/287/11 230/289/11
f 228/304/1 232/310/1 231/287/1
f 234/305/5 235/311/5 236/306/5
f 225/308/8 234/305/8 233/307/8
f 229/288/4 235/311/4 234/309/4
f 232/310/7 236/306/7 235/311/7
f 228/304/1 233/407/1 236/306/1
f 241/312/5 242/408/5 238/313/5
f 242/315/1 246/327/1 245/316/1
f 243/318/11 244/336/11 240/319/11
f 244/321/4 248/329/4 247/322/4
f 253/324/7 256/348/7 255/325/7
f 246/327/1 243/334/1 239/328/1
f 248/329/4 241/409/4 237/330/4
f 246/331/7 242/408/7 241/312/7
f 249/333/1 250/339/1 243/334/1
f 243/318/11 250/340/11 251/335/11
f 251/337/4 252/341/4 248/329/4
f 252/338/5 249/345/5 246/331/5
f 253/324/1 254/326/1 250/339/1
f 254/326/11 255/325/11 251/335/11
f 255/325/4 256/348/4 252/341/4
f 260/342/5 259/347/5 258/343/5
f 257/344/8 258/343/8 249/345/8
f 258/346/1 259/347/1 253/324/1
f 259/347/7 260/342/7 256/348/7
f 260/342/4 257/410/4 252/341/4
f 262/349/5 266/411/5 265/350/5
f 262/352/4 269/365/4 270/353/4
f 264/355/11 268/372/11 267/356/11
f 271/358/1 272/367/1 268/359/1
f 279/361/7 280/384/7 277/362/7
f 263/364/4 267/370/4 270/353/4
f 261/366/1 265/412/1 272/367/1
f 265/350/7 266/411/7 270/368/7
f 267/370/4 274/376/4 273/371/4
f 268/372/11 275/377/11 274/373/11
f 272/367/1 276/378/1 275/374/1
f 270/368/5 273/382/5 276/375/5
f 274/376/4 278/363/4 277/362/4
f 275/377/11 279/361/11 278/363/11
f 276/378/1 280/384/1 279/361/1
f 282/379/5 283/385/5 284/380/5
f 273/382/8 282/379/8 281/381/8
f 277/362/4 283/385/4 282/383/4
f 280/384/7 284/380/7 283/385/7
f 276/378/1 281/413/1 284/380/1
f 287/386/4 291/392/4 290/387/4
f 288/389/1 285/414/1 289/390/1
f 292/391/7 289/390/7 290/387/7
