# Blender 4.5.3 LTS
# www.blender.org
mtllib cuadros32.mtl
o cuadro1.001
v -8.305065 2.774770 -1.603141
v -10.242276 2.772077 -1.573377
v -8.301766 0.274798 -1.614355
v -10.238977 0.272111 -1.584589
v -8.299256 0.275346 -1.735816
v -10.236466 0.272659 -1.706052
v -8.302555 2.775319 -1.724603
v -10.239765 2.772625 -1.694838
vn 0.0154 -0.0045 0.9999
vn 0.0013 -1.0000 -0.0045
vn -0.9998 -0.0012 -0.0207
vn -0.0154 0.0045 -0.9999
vn -0.0013 1.0000 0.0045
vn 0.9998 0.0012 0.0207
vt 0.625000 0.000000
vt 0.375000 0.250000
vt 0.375000 0.000000
vt 0.625000 0.250000
vt 1.000850 -0.002052
vt -0.000850 -0.002052
vt 0.875000 0.000000
vt 0.875000 0.250000
vt -0.000850 0.997456
vt 1.000850 0.997456
vt 0.375000 1.000000
vt 0.125000 0.250000
vt 0.125000 0.000000
vt 0.625000 1.000000
s 1
usemtl casa2:pasted__lambert35SG
f 2/1/1 3/2/1 1/3/1
f 2/1/1 4/4/1 3/2/1
usemtl casa2:lambert59SG
f 3/2/2 6/5/2 5/6/2
f 8/7/3 4/4/3 2/1/3
f 3/2/2 4/4/2 6/5/2
f 8/7/3 6/8/3 4/4/3
usemtl lambert4SG.001
f 6/5/4 7/9/4 5/6/4
f 6/5/4 8/10/4 7/9/4
usemtl casa2:initialShadingGroup6
f 8/10/5 1/11/5 7/9/5
f 1/3/6 5/12/6 7/13/6
f 8/10/5 2/14/5 1/11/5
f 1/3/6 3/2/6 5/12/6
