# Blender 4.5.3 LTS
# www.blender.org
mtllib cuadros3.mtl.mtl
o cuadros3
v -1.849211 2.719109 -5.405113
v -0.717762 2.719106 -5.447958
v -1.849211 1.565977 -5.405113
v -0.717762 1.565978 -5.447958
v -1.849082 1.565977 -5.334114
v -0.717633 1.565978 -5.376959
v -1.849082 2.719109 -5.334114
v -0.717633 2.719106 -5.376959
v -0.269570 2.719109 -5.405113
v 0.861878 2.719106 -5.447958
v -0.269570 1.565977 -5.405113
v 0.861878 1.565978 -5.447958
v -0.269441 1.565977 -5.334114
v 0.862007 1.565978 -5.376959
v -0.269441 2.719109 -5.334114
v 0.862007 2.719106 -5.376959
v -3.377372 2.719109 -5.405112
v -2.245924 2.719106 -5.447958
v -3.377372 1.565977 -5.405112
v -2.245924 1.565978 -5.447958
v -3.377244 1.565977 -5.334113
v -2.245796 1.565978 -5.376959
v -3.377244 2.719109 -5.334113
v -2.245796 2.719106 -5.376959
vn -0.0378 -0.0000 -0.9993
vn -0.0000 -1.0000 -0.0000
vn 1.0000 -0.0000 -0.0018
vn 0.0378 -0.0000 0.9993
vn -0.0000 1.0000 -0.0000
vn -1.0000 -0.0000 0.0018
vt 0.375000 0.000000
vt 0.625000 0.250000
vt 0.375000 0.250000
vt 0.625000 0.000000
vt 1.000850 -0.002052
vt -0.000850 -0.002052
vt 0.875000 0.000000
vt 0.875000 0.250000
vt -0.000850 0.997456
vt 1.000850 0.997456
vt 0.375000 1.000000
vt 0.125000 0.250000
vt 0.125000 0.000000
vt 0.625000 1.000000
s 1
usemtl casa1:pasted__lambert35SG.002
f 1/1/1 4/2/1 3/3/1
f 1/1/1 2/4/1 4/2/1
usemtl casa1:lambert59SG.002
f 3/3/2 6/5/2 5/6/2
f 8/7/3 4/2/3 2/4/3
f 3/3/2 4/2/2 6/5/2
f 8/7/3 6/8/3 4/2/3
usemtl lambert3SG.004
f 6/5/4 7/9/4 5/6/4
f 6/5/4 8/10/4 7/9/4
usemtl casa1:initialShadingGroup6.003
f 8/10/5 1/11/5 7/9/5
f 1/1/6 5/12/6 7/13/6
f 8/10/5 2/14/5 1/11/5
f 1/1/6 3/3/6 5/12/6
usemtl casa2:pasted__lambert35SG.004
f 10/4/1 11/3/1 9/1/1
f 10/4/1 12/2/1 11/3/1
usemtl casa2:lambert59SG.004
f 11/3/2 14/5/2 13/6/2
f 16/7/3 12/2/3 10/4/3
f 11/3/2 12/2/2 14/5/2
f 16/7/3 14/8/3 12/2/3
usemtl lambert4SG.006
f 14/5/4 15/9/4 13/6/4
f 14/5/4 16/10/4 15/9/4
usemtl casa2:initialShadingGroup6.004
f 16/10/5 9/11/5 15/9/5
f 9/1/6 13/12/6 15/13/6
f 16/10/5 10/14/5 9/11/5
f 9/1/6 11/3/6 13/12/6
usemtl casa3:pasted__lambert35SG.002
f 18/4/1 19/3/1 17/1/1
f 18/4/1 20/2/1 19/3/1
usemtl casa3:lambert59SG.002
f 19/3/2 22/5/2 21/6/2
f 24/7/3 20/2/3 18/4/3
f 19/3/2 20/2/2 22/5/2
f 24/7/3 22/8/3 20/2/3
usemtl lambert5SG.003
f 22/5/4 23/9/4 21/6/4
f 22/5/4 24/10/4 23/9/4
usemtl casa3:initialShadingGroup6.003
f 24/10/5 17/11/5 23/9/5
f 17/1/6 21/12/6 23/13/6
f 24/10/5 18/14/5 17/11/5
f 17/1/6 19/3/6 21/12/6
