# Blender 4.5.3 LTS
# www.blender.org
mtllib cuadro1.mtl
g CuadroUno_Malla
v -6.936122 2.887826 1.547550
v -7.009434 2.887822 -0.388504
v -6.936122 0.387826 1.547550
v -7.009435 0.387828 -0.388504
v -6.814634 0.387826 1.547329
v -6.887946 0.387828 -0.388724
v -6.814634 2.887826 1.547329
v -6.887946 2.887822 -0.388724
vn -0.9993 -0.0000 0.0378
vn -0.0000 -1.0000 -0.0000
vn 0.9993 -0.0000 -0.0378
vn -0.0000 1.0000 -0.0000
vn -0.0018 -0.0000 -1.0000
vn 0.0018 -0.0000 1.0000
vt 0.625000 0.000000
vt 0.375000 0.250000
vt 0.375000 0.000000
vt 1.000850 -0.002052
vt -0.000850 -0.002052
vt -0.000850 0.997456
vt 1.000850 0.997456
vt 0.375000 1.000000
vt 0.875000 0.000000
vt 0.625000 0.250000
vt 0.125000 0.250000
vt 0.125000 0.000000
vt 0.625000 1.000000
vt 0.875000 0.250000
s 1
g CuadroUno_casa2:pasted__lambert35SG
usemtl casa2:pasted__lambert35SG
f 2/1/1 3/2/1 1/3/1
f 2/1/1 4/10/1 3/2/1
g CuadroUno_casa2:lambert59SG
usemtl casa2:lambert59SG
f 3/2/2 6/4/2 5/5/2
f 8/9/5 4/10/5 2/1/5
f 3/2/2 4/10/2 6/4/2
f 8/9/5 6/14/5 4/10/5
g CuadroUno_lambert4SG.001
usemtl lambert4SG.001
f 6/4/3 7/6/3 5/5/3
f 6/4/3 8/7/3 7/6/3
g CuadroUno_casa2:initialShadingGroup6
usemtl casa2:initialShadingGroup6
f 8/7/4 1/8/4 7/6/4
f 1/3/6 5/11/6 7/12/6
f 8/7/4 2/13/4 1/8/4
f 1/3/6 3/2/6 5/11/6
