# This file uses centimeters as units for non-parametric coordinates.

mtllib cuadros.mtl
g default
v -1.269787 5.383767 -1.256212
v -3.237306 5.383770 -1.330716
v -1.269787 7.388992 -1.256212
v -3.237306 7.388990 -1.330716
v -1.270011 7.388992 -1.132750
v -3.237530 7.388990 -1.207253
v -1.270011 5.383767 -1.132750
v -3.237530 5.383770 -1.207253
vt 0.375000 0.000000
vt 0.625000 0.000000
vt 0.625000 0.250000
vt 0.375000 0.250000
vt 1.000850 -0.002052
vt -0.000850 -0.002052
vt 1.000850 0.997456
vt -0.000850 0.997456
vt 0.625000 1.000000
vt 0.375000 1.000000
vt 0.875000 0.000000
vt 0.875000 0.250000
vt 0.125000 0.000000
vt 0.125000 0.250000
vn 0.037840 0.000000 -0.999284
vn 0.037840 0.000000 -0.999284
vn 0.037840 0.000000 -0.999284
vn 0.037840 0.000000 -0.999284
vn 0.000000 1.000000 0.000000
vn 0.000000 1.000000 0.000000
vn 0.000000 1.000000 0.000000
vn 0.000000 1.000000 0.000000
vn -0.037840 0.000000 0.999284
vn -0.037840 0.000000 0.999284
vn -0.037840 0.000000 0.999284
vn -0.037840 0.000000 0.999284
vn 0.000000 -1.000000 0.000000
vn 0.000000 -1.000000 0.000000
vn 0.000000 -1.000000 0.000000
vn 0.000000 -1.000000 0.000000
vn -0.999998 0.000000 -0.001815
vn -0.999998 0.000000 -0.001815
vn -0.999998 0.000000 -0.001815
vn -0.999998 0.000000 -0.001815
vn 0.999998 0.000000 0.001815
vn 0.999998 0.000000 0.001815
vn 0.999998 0.000000 0.001815
vn 0.999998 0.000000 0.001815
s off
g casa1:pasted__pasted__pasted__pCube1pasted__pasted__group85pasted__group105group112polySurface49 group7
usemtl casa1:pasted__lambert35SG
f 1/1/1 2/2/2 4/3/3 3/4/4
usemtl casa1:lambert59SG
f 3/4/5 4/3/6 6/5/7 5/6/8
usemtl lambert3SG
f 5/6/9 6/5/10 8/7/11 7/8/12
usemtl casa1:initialShadingGroup6
f 7/8/13 8/7/14 2/9/15 1/10/16
usemtl casa1:lambert59SG
f 2/2/17 8/11/18 6/12/19 4/3/20
usemtl casa1:initialShadingGroup6
f 7/13/21 1/1/22 3/4/23 5/14/24
g default
v -4.016687 5.383767 -1.256212
v -5.984206 5.383770 -1.330716
v -4.016687 7.388992 -1.256212
v -5.984206 7.388990 -1.330716
v -4.016911 7.388992 -1.132750
v -5.984430 7.388990 -1.207253
v -4.016911 5.383767 -1.132750
v -5.984430 5.383770 -1.207253
vt 0.375000 0.000000
vt 0.625000 0.000000
vt 0.625000 0.250000
vt 0.375000 0.250000
vt 1.000850 -0.002052
vt -0.000850 -0.002052
vt 1.000850 0.997456
vt -0.000850 0.997456
vt 0.625000 1.000000
vt 0.375000 1.000000
vt 0.875000 0.000000
vt 0.875000 0.250000
vt 0.125000 0.000000
vt 0.125000 0.250000
vn 0.037840 0.000000 -0.999284
vn 0.037840 0.000000 -0.999284
vn 0.037840 0.000000 -0.999284
vn 0.037840 0.000000 -0.999284
vn 0.000000 1.000000 0.000000
vn 0.000000 1.000000 0.000000
vn 0.000000 1.000000 0.000000
vn 0.000000 1.000000 0.000000
vn -0.037840 0.000000 0.999284
vn -0.037840 0.000000 0.999284
vn -0.037840 0.000000 0.999284
vn -0.037840 0.000000 0.999284
vn 0.000000 -1.000000 0.000000
vn 0.000000 -1.000000 0.000000
vn 0.000000 -1.000000 0.000000
vn 0.000000 -1.000000 0.000000
vn -0.999998 0.000000 -0.001815
vn -0.999998 0.000000 -0.001815
vn -0.999998 0.000000 -0.001815
vn -0.999998 0.000000 -0.001815
vn 0.999998 0.000000 0.001815
vn 0.999998 0.000000 0.001815
vn 0.999998 0.000000 0.001815
vn 0.999998 0.000000 0.001815
s off
g casa2:pasted__pasted__pasted__pCube1pasted__pasted__group85pasted__group105group112polySurface49 pasted__group7 group8
usemtl casa2:pasted__lambert35SG
f 9/15/25 10/16/26 12/17/27 11/18/28
usemtl casa2:lambert59SG
f 11/18/29 12/17/30 14/19/31 13/20/32
usemtl lambert4SG
f 13/20/33 14/19/34 16/21/35 15/22/36
usemtl casa2:initialShadingGroup6
f 15/22/37 16/21/38 10/23/39 9/24/40
usemtl casa2:lambert59SG
f 10/16/41 16/25/42 14/26/43 12/17/44
usemtl casa2:initialShadingGroup6
f 15/27/45 9/15/46 11/18/47 13/28/48
g default
v 1.387591 5.383767 -1.256212
v -0.579928 5.383770 -1.330716
v 1.387591 7.388992 -1.256212
v -0.579928 7.388990 -1.330716
v 1.387367 7.388992 -1.132750
v -0.580152 7.388990 -1.207253
v 1.387367 5.383767 -1.132750
v -0.580152 5.383770 -1.207253
vt 0.375000 0.000000
vt 0.625000 0.000000
vt 0.625000 0.250000
vt 0.375000 0.250000
vt 1.000850 -0.002052
vt -0.000850 -0.002052
vt 1.000850 0.997456
vt -0.000850 0.997456
vt 0.625000 1.000000
vt 0.375000 1.000000
vt 0.875000 0.000000
vt 0.875000 0.250000
vt 0.125000 0.000000
vt 0.125000 0.250000
vn 0.037840 0.000000 -0.999284
vn 0.037840 0.000000 -0.999284
vn 0.037840 0.000000 -0.999284
vn 0.037840 0.000000 -0.999284
vn 0.000000 1.000000 0.000000
vn 0.000000 1.000000 0.000000
vn 0.000000 1.000000 0.000000
vn 0.000000 1.000000 0.000000
vn -0.037840 0.000000 0.999284
vn -0.037840 0.000000 0.999284
vn -0.037840 0.000000 0.999284
vn -0.037840 0.000000 0.999284
vn 0.000000 -1.000000 0.000000
vn 0.000000 -1.000000 0.000000
vn 0.000000 -1.000000 0.000000
vn 0.000000 -1.000000 0.000000
vn -0.999998 0.000000 -0.001815
vn -0.999998 0.000000 -0.001815
vn -0.999998 0.000000 -0.001815
vn -0.999998 0.000000 -0.001815
vn 0.999998 0.000000 0.001815
vn 0.999998 0.000000 0.001815
vn 0.999998 0.000000 0.001815
vn 0.999998 0.000000 0.001815
s off
g casa3:pasted__pasted__pasted__pCube1pasted__pasted__group85pasted__group105group112polySurface49 pasted__pasted__group7 pasted__group8 group9
usemtl casa3:pasted__lambert35SG
f 17/29/49 18/30/50 20/31/51 19/32/52
usemtl casa3:lambert59SG
f 19/32/53 20/31/54 22/33/55 21/34/56
usemtl lambert5SG
f 21/34/57 22/33/58 24/35/59 23/36/60
usemtl casa3:initialShadingGroup6
f 23/36/61 24/35/62 18/37/63 17/38/64
usemtl casa3:lambert59SG
f 18/30/65 24/39/66 22/40/67 20/31/68
usemtl casa3:initialShadingGroup6
f 23/41/69 17/29/70 19/32/71 21/42/72
