# Blender 4.5.3 LTS
# www.blender.org
mtllib piso.mtl
o EstructuraPiso
v 65.000000 0.999995 115.000000
v 65.000000 1.000005 -115.000000
v 65.000000 -1.000005 115.000000
v 65.000000 -0.999995 -115.000000
v -65.000000 0.999995 115.000000
v -65.000000 1.000005 -115.000000
v -65.000000 -1.000005 115.000000
v -65.000000 -0.999995 -115.000000
vn -0.0000 -0.0000 1.0000
vn -0.0000 -1.0000 -0.0000
vn -1.0000 -0.0000 -0.0000
vn -0.0000 -0.0000 -1.0000
vn 1.0000 -0.0000 -0.0000
vn -0.0000 1.0000 -0.0000
vt 0.333333 -4.500000
vt 0.333333 -1.166667
vt -3.000000 -1.166667
vt -3.000000 -4.500000
vt 0.333333 2.166667
vt -3.000000 2.166666
vt -3.000000 -1.166666
vt 0.333333 -1.166666
vt 3.666666 -1.166667
vt 0.333333 -1.166667
vt 0.333334 -4.500000
vt 3.666666 -4.500000
vt 3.666667 -1.166666
vt 3.666666 2.166667
vt 0.333333 2.166666
vt 0.333334 -1.166667
vt 0.333333 5.500000
vt -3.000000 5.500000
vt -3.000000 2.166666
vt 0.333333 2.166667
vt 3.666666 5.500000
vt 0.333334 5.500000
vt 0.333334 2.166667
vt 3.666667 2.166667
s 0
usemtl PisoPasto
f 1/1/1 5/2/1 7/3/1 3/4/1
f 4/5/2 3/6/2 7/7/2 8/8/2
f 8/9/3 7/10/3 5/11/3 6/12/3
f 6/13/4 2/14/4 4/15/4 8/16/4
f 2/17/5 1/18/5 3/19/5 4/20/5
f 6/21/6 5/22/6 1/23/6 2/24/6
o Pared2
v 59.000000 1.000000 101.000000
v 59.000000 16.000000 101.000000
v 61.000000 1.000000 101.000000
v 61.000000 16.000000 101.000000
v 59.000000 16.000000 -105.781998
v 59.000000 1.000000 -105.781998
v 61.000000 1.000000 -105.781998
v 61.000000 16.000000 -105.781998
vn -0.0000 1.0000 -0.0000
vn -0.0000 -1.0000 -0.0000
vn -1.0000 -0.0000 -0.0000
vn 1.0000 -0.0000 0.0097
vn -0.0000 -0.0000 -1.0000
vt -7.412956 -0.370442
vt -7.412956 -0.515516
vt 7.586341 -0.515517
vt 7.586341 -0.370443
vt -7.412956 -0.660589
vt 7.586341 -0.660590
vt 7.586341 0.717610
vt -7.412956 0.717609
vt 7.586341 -0.370441
vt -7.411552 1.805662
vt -7.412956 1.805662
vt -7.412955 0.717610
vt -7.411552 0.717610
vt 7.587044 0.717611
vt 7.587044 1.805663
vt -6.324903 -0.660589
vt -7.412956 -0.805663
vt -6.324903 -0.805663
s 0
usemtl Pared
f 10/25/7 12/26/7 16/27/7 13/28/7
f 9/29/8 14/30/8 15/27/8 11/26/8
f 10/31/9 13/32/9 14/25/9 9/33/9
f 12/34/10 10/35/10 9/36/10 11/37/10 15/38/10 16/39/10
f 14/40/11 13/29/11 16/41/11 15/42/11
o Pared3
v -61.000000 1.000000 -104.000000
v -61.000000 16.000000 -104.000000
v -61.000000 1.000000 -106.000000
v -61.000000 16.000000 -106.000000
v 60.926659 16.000000 -106.000000
v 60.926659 1.000000 -106.000000
v 60.926659 1.000000 -104.000000
v 60.926659 16.000000 -104.000000
vn -1.0000 -0.0000 -0.0000
vn -0.0000 -1.0000 -0.0000
vn -0.0000 -0.0000 -1.0000
vn -0.0000 1.0000 -0.0000
vn 1.0000 -0.0000 -0.0000
vn -0.0000 -0.0000 1.0000
vt -3.622123 -0.812265
vt -4.852371 -0.812265
vt -4.852371 -0.976299
vt -3.622123 -0.976299
vt -4.852370 -0.648232
vt 5.147629 -0.648232
vt 5.147629 -0.484198
vt -4.852371 -0.484199
vt 5.147629 1.976299
vt -4.852371 1.976298
vt -4.852371 0.746050
vt 5.147629 0.746051
vt 5.147631 -0.812265
vt 5.147631 -0.648232
vt -4.852371 -0.648232
vt -2.391875 -0.812265
vt -2.391875 -0.976299
vt -4.852371 -0.484198
vt 5.147629 -0.484198
vt 5.147629 0.746050
vt -4.852371 0.746050
s 0
usemtl Pared
f 17/43/12 18/44/12 20/45/12 19/46/12
f 19/47/13 22/48/13 23/49/13 17/50/13
f 20/51/14 21/52/14 22/53/14 19/54/14
f 20/55/15 18/56/15 24/57/15 21/44/15
f 22/58/16 21/43/16 24/46/16 23/59/16
f 17/60/17 23/61/17 24/62/17 18/63/17
o Pared4
v -61.000000 1.000000 101.000000
v -61.000000 16.000000 101.000000
v -59.000000 1.000000 101.000000
v -59.000000 16.000000 101.000000
v -61.000000 16.000000 -105.781998
v -61.000000 1.000000 -105.781998
v -59.000000 1.000000 -105.781998
v -59.000000 16.000000 -105.781998
vn -0.0000 1.0000 -0.0000
vn -0.0000 -1.0000 -0.0000
vn -1.0000 -0.0000 0.0097
vn -0.0000 -0.0000 -1.0000
vn 1.0000 -0.0000 -0.0000
vt -7.412956 -0.370442
vt -7.412956 -0.515516
vt 7.586341 -0.515517
vt 7.586341 -0.370443
vt -7.412956 -0.660589
vt 7.586341 -0.660590
vt 7.585641 1.805663
vt -7.412956 1.805662
vt -7.412956 0.717610
vt 7.585641 0.717611
vt 7.587044 0.717611
vt 7.587044 1.805663
vt -6.324903 -0.660589
vt -7.412956 -0.805663
vt -6.324903 -0.805663
vt 7.586341 -0.370441
vt 7.586341 0.717610
vt -7.412956 0.717609
s 0
usemtl Pared
f 26/64/18 28/65/18 32/66/18 29/67/18
f 25/68/19 30/69/19 31/66/19 27/65/19
f 26/70/20 29/71/20 30/72/20 25/73/20 27/74/20 28/75/20
f 30/76/21 29/68/21 32/77/21 31/78/21
f 27/64/22 31/79/22 32/80/22 28/81/22
o Pared5
v -1.000000 1.000000 101.009674
v -1.000000 16.000000 101.009674
v -1.000000 1.000000 100.990326
v -1.000000 16.000000 100.990326
v 1.000000 1.000000 101.009674
v 1.000000 16.000000 101.009674
v 1.000000 1.000000 100.990326
v 1.000000 16.000000 100.990326
v -1.000000 16.000000 99.009674
v -1.000000 1.000000 99.009674
v 1.000000 1.000000 99.009674
v 1.000000 16.000000 99.009674
v -41.206387 16.000000 100.990326
v -41.206387 1.000000 100.990326
v -41.206387 16.000000 99.009674
v -41.206387 1.000000 99.009674
vn -1.0000 -0.0000 -0.0000
vn -0.0000 1.0000 -0.0000
vn 1.0000 -0.0000 -0.0000
vn -0.0000 -0.0000 1.0000
vn -0.0000 -1.0000 -0.0000
vn -0.0000 -0.0000 -1.0000
vt 1.503904 -1.515059
vt -0.273078 -1.515059
vt -0.273078 -1.517351
vt 1.503904 -1.517351
vt -1.813129 -1.043489
vt -2.050060 -1.043489
vt -2.050060 -1.278128
vt -1.813129 -1.278128
vt -0.273078 -1.512768
vt -2.050060 -1.512768
vt -2.050060 -1.515059
vt -0.273078 -1.515059
vt 1.503904 -1.278128
vt -0.273078 -1.278128
vt 2.713008 -0.806558
vt 2.949939 -0.806558
vt 2.949939 -0.804267
vt 2.713008 -0.804266
vt -1.813129 -1.041197
vt -2.050060 -1.041197
vt -1.813129 0.972717
vt -1.813129 2.749699
vt -2.050060 2.749699
vt -2.050060 0.972717
vt 2.713008 -1.041197
vt -2.050060 -0.806558
vt -2.050060 -1.041198
vt -0.273078 -1.278129
vt -2.050060 -1.278129
vt 2.949939 -1.041197
vt -2.050060 -1.749699
vt -0.273078 -1.749699
vt 2.713009 -0.804266
vt 2.713008 0.972716
vt -2.050060 0.972716
vt -2.050060 -0.804266
vt 2.949940 0.972717
vt 2.949940 2.749699
vt 2.949939 -1.278128
vt 2.949939 -1.043489
s 0
usemtl Pared
f 33/82/23 34/83/23 36/84/23 35/85/23
f 36/86/24 40/87/24 44/88/24 41/89/24
f 39/90/25 40/91/25 38/92/25 37/93/25
f 37/94/26 38/95/26 34/83/26 33/82/26
f 35/96/27 39/97/27 37/98/27 33/99/27
f 40/87/24 36/86/24 34/100/24 38/101/24
f 42/102/28 41/103/28 44/104/28 43/105/28
f 42/106/27 35/96/27 46/107/27 48/108/27
f 40/91/25 39/90/25 43/109/25 44/110/25
f 39/97/27 35/96/27 42/106/27 43/111/27
f 46/93/23 45/92/23 47/112/23 48/113/23
f 35/114/26 36/115/26 45/116/26 46/117/26
f 41/103/28 42/102/28 48/118/28 47/119/28
f 36/86/24 41/89/24 47/120/24 45/121/24
o Pared1
v 14.000000 1.000000 101.009674
v 14.000000 16.000000 101.009674
v 16.000000 1.000000 101.009674
v 16.000000 16.000000 101.009674
v 16.000000 1.000000 100.990326
v 16.000000 16.000000 100.990326
v 14.000000 16.000000 99.009674
v 14.000000 1.000000 99.009674
v 60.894268 16.000000 100.990326
v 60.894268 1.000000 100.990326
v 60.894268 16.000000 99.009674
v 60.894268 1.000000 99.009674
vn -0.0000 -0.0000 -1.0000
vn -0.0000 1.0000 -0.0000
vn 1.0000 -0.0000 -0.0000
vn -0.0000 -0.0000 1.0000
vn 0.0441 -0.0000 0.9990
vn -1.0000 -0.0000 -0.0000
vn -0.0000 -1.0000 -0.0000
vt 2.883842 2.419211
vt -2.116158 2.419211
vt -2.116158 0.819869
vt 2.883842 0.819869
vt 2.670596 -0.781537
vt -2.116158 -0.781537
vt -2.116158 -0.992720
vt 2.883842 -0.992720
vt 2.883842 -0.779474
vt 2.670596 -0.779475
vt 2.681870 -1.205966
vt 1.082527 -1.205966
vt 1.082527 -1.208028
vt 2.681870 -1.208028
vt -0.516815 -1.205966
vt -0.516815 -1.419159
vt 1.082527 -1.419160
vt 2.669434 -0.779474
vt 2.674089 -0.779474
vt 2.674089 0.819869
vt 2.669434 0.819869
vt -2.116158 0.819868
vt -2.116158 -0.779474
vt -2.116158 -1.205966
vt -2.116158 -1.419211
vt -0.516815 -1.419211
vt -0.516815 -1.205966
vt 2.883842 -1.205966
vt 2.883842 -0.994782
vt -1.902912 -0.994782
vt -1.902912 -0.992720
vt -2.116158 -0.992720
s 0
usemtl Pared
f 55/122/29 59/123/29 60/124/29 56/125/29
f 54/126/30 57/127/30 59/128/30 55/129/30 50/130/30 52/131/30
f 53/132/31 54/133/31 52/134/31 51/135/31
f 51/133/32 52/136/32 50/137/32 49/138/32
f 58/139/33 60/140/33 59/141/33 57/142/33 54/143/33 53/144/33
f 50/145/34 55/146/34 56/147/34 49/148/34
f 56/145/35 60/149/35 58/150/35 53/151/35 51/152/35 49/153/35
o PisoCarros1
v -58.000000 1.050000 113.500000
v -58.000000 1.150000 113.500000
v -58.000000 1.050000 -103.500000
v -58.000000 1.150000 -103.500000
v -42.000000 1.050000 113.500000
v -42.000000 1.150000 113.500000
v -42.000000 1.050000 -103.500000
v -42.000000 1.150000 -103.500000
vn -1.0000 -0.0000 -0.0000
vn -0.0000 -0.0000 -1.0000
vn 1.0000 -0.0000 -0.0000
vn -0.0000 -0.0000 1.0000
vn -0.0000 -1.0000 -0.0000
vn -0.0000 1.0000 -0.0000
vt 0.441935 3.000000
vt 0.439631 3.000000
vt 0.439631 -2.000000
vt 0.441935 -2.000000
vt 0.446544 -1.631336
vt 0.444240 -1.631336
vt 0.444240 -2.000000
vt 0.446544 -2.000000
vt 0.444240 3.000000
vt 0.441936 3.000000
vt 0.441936 -2.000000
vt 0.444240 -2.000000
vt 0.446544 -1.262673
vt 0.444240 -1.262673
vt 0.070967 3.000000
vt -0.297696 3.000000
vt -0.297696 -2.000000
vt 0.070967 -2.000000
vt 0.439631 3.000000
vt 0.439631 -2.000000
s 0
usemtl PisoCarros
f 61/154/36 62/155/36 64/156/36 63/157/36
f 63/158/37 64/159/37 68/160/37 67/161/37
f 67/162/38 68/163/38 66/164/38 65/165/38
f 65/166/39 66/167/39 62/159/39 61/158/39
f 63/168/40 67/169/40 65/170/40 61/171/40
f 68/172/41 64/168/41 62/171/41 66/173/41
o PisoCarros2
v -42.000000 1.050000 -44.849998
v -42.000000 1.150000 -44.849998
v -42.000000 1.050000 -104.349998
v -42.000000 1.150000 -104.349998
v 59.000000 1.050000 -44.849998
v 59.000000 1.150000 -44.849998
v 59.000000 1.050000 -104.349998
v 59.000000 1.150000 -104.349998
vn -1.0000 -0.0000 -0.0000
vn -0.0000 -0.0000 -1.0000
vn 1.0000 -0.0000 -0.0000
vn -0.0000 -0.0000 1.0000
vn -0.0000 -1.0000 -0.0000
vn -0.0000 1.0000 -0.0000
vt -0.500000 0.500000
vt -0.500000 2.166667
vt -2.166667 2.166667
vt -2.166667 0.500000
vt 1.166667 0.500000
vt 1.166667 2.166667
vt -0.500000 2.166667
vt -0.500000 0.500000
vt -0.500000 -1.166666
vt -0.500000 0.500000
vt -2.166667 0.500000
vt -2.166667 -1.166666
vt 1.166667 -1.166666
vt 1.166666 0.500000
vt -0.500000 0.500000
vt -0.500000 -1.166667
vt 1.166667 0.500000
vt 2.833333 0.500000
vt 2.833333 2.166667
vt 1.166667 2.166667
vt 1.166667 -1.166667
vt 2.833333 -1.166667
vt 2.833333 0.500000
vt 1.166667 0.500000
s 0
usemtl PisoCarros
f 69/174/42 70/175/42 72/176/42 71/177/42
f 71/178/43 72/179/43 76/180/43 75/181/43
f 75/182/44 76/183/44 74/184/44 73/185/44
f 73/186/45 74/187/45 70/188/45 69/189/45
f 71/190/46 75/191/46 73/192/46 69/193/46
f 76/194/47 72/195/47 70/196/47 74/197/47
