# Blender 4.5.3 LTS
# www.blender.org
mtllib Agua.mtl
o Agua
v -2.598046 1.181732 8.489464
v -2.598046 1.321835 8.489464
v -2.316475 1.310098 8.397976
v -2.318332 1.302941 8.398582
v -2.322816 1.299978 8.400036
v -2.358528 1.310098 8.315445
v -2.360107 1.302941 8.316593
v -2.363921 1.299978 8.319363
v -2.424026 1.310098 8.249947
v -2.425173 1.302941 8.251526
v -2.427945 1.299978 8.255337
v -2.506558 1.310098 8.207893
v -2.507161 1.302941 8.209751
v -2.508618 1.299978 8.214233
v -2.598046 1.310098 8.193405
v -2.598046 1.302941 8.195354
v -2.598046 1.299978 8.200069
v -2.689533 1.310098 8.207893
v -2.688930 1.302941 8.209751
v -2.687474 1.299978 8.214233
v -2.772066 1.310098 8.249947
v -2.770918 1.302941 8.251526
v -2.768147 1.299978 8.255337
v -2.837563 1.310098 8.315445
v -2.835984 1.302941 8.316593
v -2.832170 1.299978 8.319363
v -2.879616 1.310098 8.397976
v -2.877758 1.302941 8.398582
v -2.873275 1.299978 8.400036
v -2.894106 1.310098 8.489464
v -2.892154 1.302941 8.489464
v -2.887439 1.299978 8.489464
v -2.879616 1.310098 8.580952
v -2.877758 1.302941 8.580349
v -2.873275 1.299978 8.578892
v -2.837563 1.310098 8.663486
v -2.835984 1.302941 8.662338
v -2.832170 1.299978 8.659569
v -2.772065 1.310098 8.728985
v -2.770917 1.302941 8.727402
v -2.768147 1.299978 8.723591
v -2.689533 1.310098 8.771034
v -2.688930 1.302941 8.769180
v -2.687474 1.299978 8.764694
v -2.598046 1.310098 8.785522
v -2.598046 1.302941 8.783573
v -2.598046 1.299978 8.778858
v -2.506558 1.310098 8.771034
v -2.507161 1.302941 8.769180
v -2.508618 1.299978 8.764694
v -2.424026 1.310098 8.728985
v -2.425174 1.302941 8.727402
v -2.427945 1.299978 8.723591
v -2.358528 1.310098 8.663486
v -2.360107 1.302941 8.662338
v -2.363921 1.299978 8.659569
v -2.316475 1.310098 8.580952
v -2.318332 1.302941 8.580349
v -2.322816 1.299978 8.578892
v -2.301986 1.310098 8.489464
v -2.303938 1.302941 8.489464
v -2.308653 1.299978 8.489464
v -2.318332 1.317254 8.398582
v -2.322816 1.320218 8.400036
v -2.360107 1.317254 8.316593
v -2.363921 1.320218 8.319363
v -2.425173 1.317254 8.251526
v -2.427945 1.320218 8.255337
v -2.507161 1.317254 8.209751
v -2.508618 1.320218 8.214233
v -2.598046 1.317254 8.195354
v -2.598046 1.320218 8.200069
v -2.688930 1.317254 8.209751
v -2.687474 1.320218 8.214233
v -2.770918 1.317254 8.251526
v -2.768147 1.320218 8.255337
v -2.835984 1.317254 8.316593
v -2.832170 1.320218 8.319363
v -2.877758 1.317254 8.398582
v -2.873275 1.320218 8.400036
v -2.892154 1.317254 8.489464
v -2.887439 1.320218 8.489464
v -2.877758 1.317254 8.580349
v -2.873275 1.320218 8.578892
v -2.835984 1.317254 8.662338
v -2.832170 1.320218 8.659569
v -2.770917 1.317254 8.727402
v -2.768147 1.320218 8.723591
v -2.688930 1.317254 8.769180
v -2.687474 1.320218 8.764694
v -2.598046 1.317254 8.783573
v -2.598046 1.320218 8.778858
v -2.507161 1.317254 8.769180
v -2.508618 1.320218 8.764694
v -2.425174 1.317254 8.727402
v -2.427945 1.320218 8.723591
v -2.360107 1.317254 8.662338
v -2.363921 1.320218 8.659569
v -2.318332 1.317254 8.580349
v -2.322816 1.320218 8.578892
v -2.303938 1.317254 8.489464
v -2.308653 1.320218 8.489464
vn 0.3114 -0.9230 -0.2262
vn 0.3661 -0.9230 -0.1189
vn -0.0000 -1.0000 -0.0000
vn 0.2262 -0.9230 -0.3114
vn 0.1190 -0.9230 -0.3661
vn -0.0000 -0.9230 -0.3849
vn -0.1190 -0.9229 -0.3661
vn -0.2262 -0.9230 -0.3114
vn -0.3114 -0.9230 -0.2262
vn -0.3661 -0.9230 -0.1189
vn -0.3849 -0.9229 -0.0000
vn -0.3661 -0.9229 0.1190
vn -0.3114 -0.9230 0.2262
vn -0.2262 -0.9230 0.3114
vn -0.1189 -0.9230 0.3661
vn -0.0000 -0.9230 0.3849
vn 0.1189 -0.9230 0.3661
vn 0.2262 -0.9230 0.3114
vn 0.3114 -0.9229 0.2263
vn 0.3661 -0.9230 0.1189
vn 0.3849 -0.9230 -0.0000
vn 0.0281 0.9996 -0.0091
vn 0.0239 0.9996 -0.0173
vn -0.0000 1.0000 -0.0000
vn 0.0173 0.9996 -0.0239
vn 0.0091 0.9996 -0.0281
vn -0.0000 0.9996 -0.0295
vn -0.0091 0.9996 -0.0281
vn -0.0173 0.9996 -0.0239
vn -0.0239 0.9996 -0.0173
vn -0.0281 0.9996 -0.0091
vn -0.0295 0.9996 -0.0000
vn -0.0281 0.9996 0.0091
vn -0.0239 0.9996 0.0173
vn -0.0174 0.9996 0.0239
vn -0.0091 0.9996 0.0281
vn -0.0000 0.9996 0.0295
vn 0.0091 0.9996 0.0281
vn 0.0173 0.9996 0.0239
vn 0.0239 0.9996 0.0174
vn 0.0281 0.9996 0.0091
vn 0.0295 0.9996 -0.0000
vn 0.9510 -0.0000 -0.3091
vn 0.9175 -0.2633 -0.2981
vn 0.7805 -0.2631 -0.5671
vn 0.8090 -0.0000 -0.5878
vn 0.5061 -0.8466 -0.1644
vn 0.4305 -0.8466 -0.3128
vn 0.5671 -0.2632 -0.7805
vn 0.5878 -0.0000 -0.8090
vn 0.3128 -0.8466 -0.4306
vn 0.2981 -0.2632 -0.9175
vn 0.3090 -0.0000 -0.9511
vn 0.1645 -0.8466 -0.5062
vn -0.0000 -0.2632 -0.9647
vn -0.0000 -0.0000 -1.0000
vn -0.0000 -0.8466 -0.5322
vn -0.2981 -0.2632 -0.9175
vn -0.3090 -0.0000 -0.9511
vn -0.1645 -0.8466 -0.5062
vn -0.5671 -0.2632 -0.7805
vn -0.5878 -0.0000 -0.8090
vn -0.3129 -0.8466 -0.4306
vn -0.7805 -0.2632 -0.5671
vn -0.8090 -0.0000 -0.5878
vn -0.4306 -0.8466 -0.3129
vn -0.9175 -0.2633 -0.2981
vn -0.9510 -0.0000 -0.3091
vn -0.5062 -0.8466 -0.1645
vn -0.9647 -0.2632 -0.0000
vn -1.0000 -0.0000 -0.0000
vn -0.5322 -0.8466 -0.0000
vn -0.9175 -0.2632 0.2981
vn -0.9511 -0.0000 0.3090
vn -0.5062 -0.8466 0.1645
vn -0.7805 -0.2633 0.5670
vn -0.8090 -0.0000 0.5878
vn -0.4306 -0.8466 0.3129
vn -0.5671 -0.2633 0.7805
vn -0.5878 -0.0000 0.8090
vn -0.3129 -0.8466 0.4306
vn -0.2981 -0.2631 0.9175
vn -0.3090 -0.0000 0.9511
vn -0.1645 -0.8466 0.5062
vn -0.0000 -0.2633 0.9647
vn -0.0000 -0.0000 1.0000
vn -0.0000 -0.8466 0.5323
vn 0.2981 -0.2632 0.9175
vn 0.3090 -0.0000 0.9511
vn 0.1645 -0.8466 0.5062
vn 0.5671 -0.2631 0.7805
vn 0.5878 -0.0000 0.8090
vn 0.3129 -0.8466 0.4306
vn 0.7805 -0.2633 0.5670
vn 0.8090 -0.0000 0.5878
vn 0.4306 -0.8466 0.3128
vn 0.9175 -0.2632 0.2981
vn 0.9511 -0.0000 0.3090
vn 0.5061 -0.8466 0.1645
vn 0.9647 -0.2633 -0.0000
vn 1.0000 -0.0000 -0.0000
vn 0.5322 -0.8466 -0.0000
vn 0.9175 0.2633 -0.2981
vn 0.9647 0.2633 -0.0000
vn 0.5063 0.8465 -0.1645
vn 0.5323 0.8465 -0.0000
vn 0.4307 0.8465 -0.3129
vn 0.7805 0.2632 -0.5671
vn 0.3129 0.8465 -0.4307
vn 0.5671 0.2632 -0.7805
vn 0.1645 0.8465 -0.5063
vn 0.2981 0.2633 -0.9175
vn -0.0000 0.8465 -0.5323
vn -0.0000 0.2633 -0.9647
vn -0.1644 0.8467 -0.5060
vn -0.2981 0.2633 -0.9175
vn -0.3129 0.8465 -0.4307
vn -0.5670 0.2632 -0.7805
vn -0.4307 0.8465 -0.3130
vn -0.7805 0.2632 -0.5671
vn -0.5064 0.8465 -0.1645
vn -0.9175 0.2633 -0.2981
vn -0.5324 0.8465 -0.0000
vn -0.9647 0.2632 -0.0000
vn -0.5063 0.8465 0.1645
vn -0.9175 0.2632 0.2981
vn -0.4307 0.8465 0.3129
vn -0.7805 0.2633 0.5670
vn -0.3130 0.8465 0.4307
vn -0.5670 0.2633 0.7805
vn -0.1644 0.8467 0.5060
vn -0.2981 0.2631 0.9175
vn -0.0000 0.8465 0.5325
vn -0.0000 0.2631 0.9648
vn 0.1644 0.8467 0.5060
vn 0.2981 0.2632 0.9175
vn 0.3130 0.8465 0.4307
vn 0.5670 0.2633 0.7805
vn 0.4304 0.8467 0.3127
vn 0.7805 0.2633 0.5670
vn 0.5063 0.8465 0.1645
vn 0.9175 0.2632 0.2981
vt 0.623562 0.066336
vt 0.645256 0.108913
vt 0.500000 0.150000
vt 0.589773 0.032547
vt 0.547197 0.010853
vt 0.500000 0.003378
vt 0.452803 0.010853
vt 0.410227 0.032547
vt 0.376438 0.066336
vt 0.354744 0.108913
vt 0.347269 0.156109
vt 0.354744 0.203306
vt 0.376438 0.245883
vt 0.410227 0.279671
vt 0.452803 0.301366
vt 0.500000 0.308841
vt 0.547197 0.301366
vt 0.589773 0.279671
vt 0.623562 0.245882
vt 0.645256 0.203306
vt 0.652731 0.156109
vt 0.683736 0.459424
vt 0.634100 0.556839
vt 0.351391 0.351439
vt 0.556791 0.634147
vt 0.459376 0.683783
vt 0.351391 0.700886
vt 0.243406 0.683783
vt 0.145991 0.634147
vt 0.068683 0.556839
vt 0.019048 0.459424
vt 0.001944 0.351439
vt 0.019048 0.243455
vt 0.068683 0.146040
vt 0.145992 0.068731
vt 0.243406 0.019095
vt 0.351391 0.001992
vt 0.459376 0.019095
vt 0.556791 0.068731
vt 0.634100 0.146040
vt 0.683735 0.243455
vt 0.700838 0.351439
vt 0.375000 0.500470
vt 0.375000 0.312500
vt 0.387500 0.312500
vt 0.387500 0.500470
vt 0.648603 0.107966
vt 0.626409 0.064408
vt 0.400000 0.312500
vt 0.400000 0.500470
vt 0.591842 0.029841
vt 0.412500 0.312500
vt 0.412500 0.500470
vt 0.548284 0.007647
vt 0.425000 0.312500
vt 0.425000 0.500470
vt 0.500000 -0.000000
vt 0.437500 0.312500
vt 0.437500 0.500470
vt 0.451716 0.007647
vt 0.450000 0.312500
vt 0.450000 0.500471
vt 0.408159 0.029841
vt 0.462500 0.312500
vt 0.462500 0.500470
vt 0.373591 0.064409
vt 0.475000 0.312500
vt 0.475000 0.500470
vt 0.351397 0.107966
vt 0.487500 0.312500
vt 0.487500 0.500471
vt 0.343750 0.156250
vt 0.500000 0.312500
vt 0.500000 0.500471
vt 0.351397 0.204534
vt 0.512500 0.312500
vt 0.512500 0.500471
vt 0.373591 0.248091
vt 0.525000 0.312500
vt 0.525000 0.500470
vt 0.408159 0.282659
vt 0.537500 0.312500
vt 0.537500 0.500470
vt 0.451716 0.304853
vt 0.550000 0.312500
vt 0.550000 0.500470
vt 0.562500 0.312500
vt 0.562500 0.500471
vt 0.548284 0.304853
vt 0.575000 0.312500
vt 0.575000 0.500470
vt 0.591841 0.282659
vt 0.587500 0.312500
vt 0.587500 0.500470
vt 0.626409 0.248091
vt 0.600000 0.312500
vt 0.600000 0.500470
vt 0.648603 0.204534
vt 0.612500 0.312500
vt 0.612500 0.500470
vt 0.656250 0.156250
vt 0.625000 0.312500
vt 0.625000 0.500470
vt 0.625000 0.688440
vt 0.612500 0.688440
vt 0.707879 0.179562
vt 0.812577 0.181322
vt 0.812577 0.289306
vt 0.707879 0.289306
vt 0.707879 0.080560
vt 0.812577 0.083907
vt 0.375000 0.688440
vt 0.387500 0.688440
vt 0.707879 0.001992
vt 0.812577 0.006598
vt 0.400000 0.688440
vt 0.869409 0.583862
vt 0.974107 0.580516
vt 0.974107 0.679517
vt 0.869409 0.681277
vt 0.412500 0.688440
vt 0.974107 0.789262
vt 0.869409 0.789262
vt 0.425000 0.688440
vt 0.974107 0.899006
vt 0.869409 0.897247
vt 0.437500 0.688440
vt 0.974107 0.998008
vt 0.869409 0.994662
vt 0.450000 0.688440
vt 0.924811 0.572014
vt 0.820113 0.576620
vt 0.820113 0.498052
vt 0.924811 0.494705
vt 0.462500 0.688440
vt 0.820113 0.399050
vt 0.924811 0.397290
vt 0.475000 0.688440
vt 0.820113 0.289306
vt 0.924811 0.289306
vt 0.487500 0.688440
vt 0.820113 0.179562
vt 0.924811 0.181321
vt 0.500000 0.688440
vt 0.820113 0.080560
vt 0.924811 0.083906
vt 0.512500 0.688440
vt 0.820113 0.001992
vt 0.924811 0.006597
vt 0.525000 0.688440
vt 0.766007 0.685213
vt 0.762661 0.580516
vt 0.861662 0.580516
vt 0.863421 0.685213
vt 0.537500 0.688440
vt 0.452803 0.698353
vt 0.451716 0.695147
vt 0.500000 0.687500
vt 0.500000 0.690878
vt 0.550000 0.688440
vt 0.548284 0.695147
vt 0.547197 0.698353
vt 0.562500 0.688440
vt 0.655912 0.809480
vt 0.657671 0.704782
vt 0.756672 0.704782
vt 0.753326 0.809480
vt 0.575000 0.688440
vt 0.812577 0.572015
vt 0.707879 0.576620
vt 0.707879 0.498052
vt 0.812577 0.494706
vt 0.587500 0.688440
vt 0.707879 0.399050
vt 0.812577 0.397291
vt 0.600000 0.688440
s 1
usemtl lambert2SG.002
f 8/1/1 5/2/2 1/3/3
f 11/4/4 8/1/1 1/3/3
f 14/5/5 11/4/4 1/3/3
f 17/6/6 14/5/5 1/3/3
f 20/7/7 17/6/6 1/3/3
f 23/8/8 20/7/7 1/3/3
f 26/9/9 23/8/8 1/3/3
f 29/10/10 26/9/9 1/3/3
f 32/11/11 29/10/10 1/3/3
f 35/12/12 32/11/11 1/3/3
f 38/13/13 35/12/12 1/3/3
f 41/14/14 38/13/13 1/3/3
f 44/15/15 41/14/14 1/3/3
f 47/16/16 44/15/15 1/3/3
f 50/17/17 47/16/16 1/3/3
f 53/18/18 50/17/17 1/3/3
f 56/19/19 53/18/18 1/3/3
f 59/20/20 56/19/19 1/3/3
f 62/21/21 59/20/20 1/3/3
f 5/2/2 62/21/21 1/3/3
f 64/22/22 66/23/23 2/24/24
f 66/23/23 68/25/25 2/24/24
f 68/25/25 70/26/26 2/24/24
f 70/26/26 72/27/27 2/24/24
f 72/27/27 74/28/28 2/24/24
f 74/28/28 76/29/29 2/24/24
f 76/29/29 78/30/30 2/24/24
f 78/30/30 80/31/31 2/24/24
f 80/31/31 82/32/32 2/24/24
f 82/32/32 84/33/33 2/24/24
f 84/33/33 86/34/34 2/24/24
f 86/34/34 88/35/35 2/24/24
f 88/35/35 90/36/36 2/24/24
f 90/36/36 92/37/37 2/24/24
f 92/37/37 94/38/38 2/24/24
f 94/38/38 96/39/39 2/24/24
f 96/39/39 98/40/40 2/24/24
f 98/40/40 100/41/41 2/24/24
f 100/41/41 102/42/42 2/24/24
f 102/42/42 64/22/22 2/24/24
f 3/43/43 4/44/44 7/45/45 6/46/46
f 4/47/47 5/2/2 8/1/1 7/48/48
f 6/46/46 7/45/45 10/49/49 9/50/50
f 7/48/48 8/1/1 11/4/4 10/51/51
f 9/50/50 10/49/49 13/52/52 12/53/53
f 10/51/51 11/4/4 14/5/5 13/54/54
f 12/53/53 13/52/52 16/55/55 15/56/56
f 13/54/54 14/5/5 17/6/6 16/57/57
f 15/56/56 16/55/55 19/58/58 18/59/59
f 16/57/57 17/6/6 20/7/7 19/60/60
f 18/59/59 19/58/58 22/61/61 21/62/62
f 19/60/60 20/7/7 23/8/8 22/63/63
f 21/62/62 22/61/61 25/64/64 24/65/65
f 22/63/63 23/8/8 26/9/9 25/66/66
f 24/65/65 25/64/64 28/67/67 27/68/68
f 25/66/66 26/9/9 29/10/10 28/69/69
f 27/68/68 28/67/67 31/70/70 30/71/71
f 28/69/69 29/10/10 32/11/11 31/72/72
f 30/71/71 31/70/70 34/73/73 33/74/74
f 31/72/72 32/11/11 35/12/12 34/75/75
f 33/74/74 34/73/73 37/76/76 36/77/77
f 34/75/75 35/12/12 38/13/13 37/78/78
f 36/77/77 37/76/76 40/79/79 39/80/80
f 37/78/78 38/13/13 41/14/14 40/81/81
f 39/80/80 40/79/79 43/82/82 42/83/83
f 40/81/81 41/14/14 44/15/15 43/84/84
f 42/83/83 43/82/82 46/85/85 45/86/86
f 43/84/84 44/15/15 47/16/16 46/73/87
f 45/86/86 46/85/85 49/87/88 48/88/89
f 46/73/87 47/16/16 50/17/17 49/89/90
f 48/88/89 49/87/88 52/90/91 51/91/92
f 49/89/90 50/17/17 53/18/18 52/92/93
f 51/91/92 52/90/91 55/93/94 54/94/95
f 52/92/93 53/18/18 56/19/19 55/95/96
f 54/94/95 55/93/94 58/96/97 57/97/98
f 55/95/96 56/19/19 59/20/20 58/98/99
f 57/97/98 58/96/97 61/99/100 60/100/101
f 58/98/99 59/20/20 62/21/21 61/101/102
f 5/2/2 4/47/47 61/101/102 62/21/21
f 4/102/44 3/103/43 60/100/101 61/99/100
f 3/103/43 63/104/103 101/105/104 60/100/101
f 63/106/105 64/107/22 102/108/42 101/109/106
f 64/107/22 63/106/105 65/110/107 66/111/23
f 63/112/103 3/43/43 6/46/46 65/113/108
f 66/111/23 65/110/107 67/114/109 68/115/25
f 65/113/108 6/46/46 9/50/50 67/116/110
f 68/117/25 67/118/109 69/119/111 70/120/26
f 67/116/110 9/50/50 12/53/53 69/121/112
f 70/120/26 69/119/111 71/122/113 72/123/27
f 69/121/112 12/53/53 15/56/56 71/124/114
f 72/123/27 71/122/113 73/125/115 74/126/28
f 71/124/114 15/56/56 18/59/59 73/127/116
f 74/126/28 73/125/115 75/128/117 76/129/29
f 73/127/116 18/59/59 21/62/62 75/130/118
f 76/131/29 75/132/117 77/133/119 78/134/30
f 75/130/118 21/62/62 24/65/65 77/135/120
f 78/134/30 77/133/119 79/136/121 80/137/31
f 77/135/120 24/65/65 27/68/68 79/138/122
f 80/137/31 79/136/121 81/139/123 82/140/32
f 79/138/122 27/68/68 30/71/71 81/141/124
f 82/140/32 81/139/123 83/142/125 84/143/33
f 81/141/124 30/71/71 33/74/74 83/144/126
f 84/143/33 83/142/125 85/145/127 86/146/34
f 83/144/126 33/74/74 36/77/77 85/147/128
f 86/146/34 85/145/127 87/148/129 88/149/35
f 85/147/128 36/77/77 39/80/80 87/150/130
f 88/151/35 87/152/129 89/153/131 90/154/36
f 87/150/130 39/80/80 42/83/83 89/155/132
f 90/156/36 89/157/131 91/158/133 92/159/37
f 89/155/132 42/83/83 45/86/86 91/160/134
f 92/159/37 91/158/133 93/161/135 94/162/38
f 91/160/134 45/86/86 48/88/89 93/163/136
f 94/164/38 93/165/135 95/166/137 96/167/39
f 93/163/136 48/88/89 51/91/92 95/168/138
f 96/169/39 95/170/137 97/171/139 98/172/40
f 95/168/138 51/91/92 54/94/95 97/173/140
f 98/172/40 97/171/139 99/174/141 100/175/41
f 97/173/140 54/94/95 57/97/98 99/176/142
f 100/175/41 99/174/141 101/109/106 102/108/42
f 99/176/142 57/97/98 60/100/101 101/105/104
