# Blender 4.5.3 LTS
# www.blender.org
mtllib carroPared.mtl
o Carro
v -6.066020 1.696522 8.669121
v -6.065937 1.699156 8.656376
v -6.048705 1.975967 8.702194
v -6.048623 1.978601 8.689457
v -6.053391 1.976936 8.702255
v -6.053309 1.979571 8.689507
v -6.070707 1.697490 8.669178
v -6.070623 1.700125 8.656433
v -6.064206 1.750386 8.428726
v -6.064125 1.753020 8.415985
v -6.048506 2.003779 8.458725
v -6.048422 2.006413 8.445980
v -6.053193 2.004746 8.458778
v -6.053109 2.007381 8.446037
v -6.068895 1.751354 8.428783
v -6.068811 1.753988 8.416042
v -6.068594 1.616327 9.047142
v -6.068513 1.618961 9.034401
v -6.060931 1.740002 9.061779
v -6.060849 1.742637 9.049042
v -6.065618 1.740971 9.061840
v -6.065536 1.743605 9.049095
v -6.073281 1.617296 9.047199
v -6.073200 1.619930 9.034454
v -6.584918 2.490114 7.992073
v -6.581812 2.538212 8.018475
v -6.579444 2.573189 8.054878
v -6.578051 2.591621 8.097710
v -6.577769 2.591706 8.142784
v -6.578619 2.573435 8.185684
v -6.580527 2.538594 8.222214
v -6.583303 2.490597 8.248795
v -6.586674 2.434139 8.262821
v -6.590308 2.374749 8.262928
v -6.593855 2.318240 8.249104
v -6.596965 2.270143 8.222698
v -6.599329 2.235166 8.186295
v -6.600722 2.216733 8.143459
v -6.601009 2.216649 8.098389
v -6.600153 2.234921 8.055489
v -6.598246 2.269760 8.018959
v -6.595469 2.317758 7.992382
v -6.592099 2.374215 7.978352
v -6.588465 2.433605 7.978241
v -6.009364 2.377722 7.986012
v -6.006256 2.425820 8.012421
v -6.003888 2.460797 8.048817
v -6.002495 2.479230 8.091652
v -6.002213 2.479315 8.136726
v -6.003065 2.461042 8.179623
v -6.004973 2.426202 8.216152
v -6.007747 2.378205 8.242733
v -6.011118 2.321748 8.256763
v -6.014753 2.262357 8.256870
v -6.034644 2.202716 8.242474
v -6.037754 2.154619 8.216064
v -6.040121 2.119643 8.179665
v -6.041513 2.101210 8.136829
v -6.041798 2.101126 8.091755
v -6.040943 2.119397 8.048859
v -6.039035 2.154237 8.012329
v -6.036261 2.202235 7.985752
v -6.032890 2.258691 7.971722
v -6.012909 2.321213 7.972187
v -6.589388 2.404177 8.120586
v -6.026377 2.361700 8.004719
v -6.023738 2.402583 8.027161
v -6.021726 2.432314 8.058105
v -6.020540 2.447982 8.094513
v -6.020300 2.448054 8.132828
v -6.021027 2.432522 8.169292
v -6.022647 2.402909 8.200340
v -6.025005 2.362110 8.222931
v -6.027870 2.314121 8.234856
v -6.030962 2.263640 8.234943
v -6.033976 2.215607 8.223194
v -6.036617 2.174726 8.200752
v -6.038630 2.144994 8.169807
v -6.039813 2.129327 8.133400
v -6.040053 2.129255 8.095085
v -6.039328 2.144786 8.058624
v -6.037705 2.174400 8.027573
v -6.035347 2.215197 8.004982
v -6.032483 2.263187 7.993057
v -6.029394 2.313668 7.992962
v -6.015387 2.481893 8.091808
v -6.016780 2.463460 8.048973
v -6.019147 2.428483 8.012569
v -6.022254 2.380386 7.986164
v -6.025800 2.323876 7.972336
v -6.045781 2.261355 7.971870
v -6.049152 2.204898 7.985901
v -6.051928 2.156900 8.012482
v -6.053834 2.122061 8.049011
v -6.054688 2.103788 8.091911
v -6.054404 2.103873 8.136982
v -6.053011 2.122305 8.179817
v -6.050644 2.157283 8.216217
v -6.047537 2.205380 8.242622
v -6.027647 2.265021 8.257023
v -6.024008 2.324410 8.256912
v -6.020638 2.380867 8.242882
v -6.017864 2.428865 8.216305
v -6.015956 2.463706 8.179779
v -6.015104 2.481977 8.136879
v -6.067202 1.658236 8.857384
v -6.067118 1.660871 8.844643
v -6.052403 1.897029 8.885651
v -6.052322 1.899663 8.872910
v -6.057092 1.897996 8.885708
v -6.057008 1.900631 8.872963
v -6.071888 1.659205 8.857441
v -6.071805 1.661839 8.844696
v -6.578153 2.183434 9.249073
v -6.570694 2.421321 8.098415
v -6.537904 2.853085 9.126709
v -6.533154 3.004578 8.393944
v -6.558081 2.857253 9.126949
v -6.553331 3.008746 8.394184
v -6.598330 2.187603 9.249313
v -6.590871 2.425490 8.098656
v -6.063044 1.793404 8.190628
v -6.062962 1.796038 8.177879
v -6.055380 1.917079 8.205265
v -6.055298 1.919713 8.192524
v -6.060067 1.918047 8.205322
v -6.059985 1.920681 8.192577
v -6.067730 1.794371 8.190681
v -6.067649 1.797007 8.177940
v -6.052173 1.962479 8.272934
v -6.051127 1.979341 8.274929
v -6.056831 1.813844 8.991879
v -6.055788 1.830706 8.993874
v -6.061539 1.814816 8.991936
v -6.060493 1.831678 8.993931
v -6.056880 1.963451 8.272987
v -6.055834 1.980313 8.274982
v -6.068343 1.626468 8.987461
v -6.068259 1.629102 8.974716
v -6.057276 1.805050 9.008598
v -6.057195 1.807685 8.995857
v -6.061963 1.806019 9.008659
v -6.061881 1.808653 8.995911
v -6.073030 1.627436 8.987514
v -6.072946 1.630070 8.974777
v -6.069286 1.915030 9.343079
v -6.069191 1.918115 9.328156
v -6.063202 2.013231 9.354710
v -6.063104 2.016316 9.339787
v -6.933161 2.192950 9.365021
v -6.933066 2.196035 9.350101
v -6.939248 2.094749 9.353397
v -6.939150 2.097833 9.338478
v -6.067728 1.642592 8.927025
v -6.067647 1.645226 8.914288
v -6.054721 1.852491 8.951870
v -6.054639 1.855126 8.939133
v -6.059410 1.853461 8.951931
v -6.059328 1.856095 8.939182
v -6.072414 1.643560 8.927082
v -6.072333 1.646194 8.914337
v -6.060125 1.845853 8.141708
v -6.059079 1.862716 8.143707
v -6.066269 1.649828 9.089886
v -6.065224 1.666690 9.091881
v -6.070978 1.650800 9.089939
v -6.069932 1.667661 9.091934
v -6.064830 1.846825 8.141766
v -6.063787 1.863688 8.143761
v -6.065271 1.720443 8.553410
v -6.065187 1.723077 8.540672
v -6.047954 1.999888 8.586491
v -6.047873 2.002522 8.573750
v -6.052640 2.000857 8.586548
v -6.052560 2.003492 8.573803
v -6.069957 1.721411 8.553471
v -6.069876 1.724045 8.540722
v -6.093875 1.486768 9.151047
v -6.086740 1.714394 8.050030
v -6.079778 1.483856 9.150879
v -6.072642 1.711481 8.049866
v -6.072608 1.599591 9.164581
v -6.065471 1.827216 8.063557
v -6.086706 1.602504 9.164745
v -6.079568 1.830128 8.063728
v -6.066575 1.674833 8.794174
v -6.066493 1.677467 8.781433
v -6.050875 1.928227 8.824169
v -6.050792 1.930861 8.811424
v -6.055562 1.929194 8.824223
v -6.055478 1.931829 8.811481
v -6.071262 1.675801 8.794231
v -6.071181 1.678436 8.781487
v -6.065650 1.708331 8.612000
v -6.065566 1.710965 8.599258
v -6.048334 1.987776 8.645081
v -6.048253 1.990410 8.632336
v -6.053020 1.988744 8.645134
v -6.052939 1.991379 8.632393
v -6.070337 1.709298 8.612057
v -6.070253 1.711933 8.599316
v -6.064043 1.758986 8.370064
v -6.063962 1.761621 8.357323
v -6.049246 1.997777 8.398331
v -6.049163 2.000412 8.385586
v -6.053934 1.998745 8.398384
v -6.053850 2.001380 8.385647
v -6.068730 1.759953 8.370121
v -6.068648 1.762588 8.357380
v -6.060791 2.199871 7.965744
v -6.060696 2.202955 7.950829
v -6.054707 2.298072 7.977371
v -6.054609 2.301157 7.962452
v -6.924666 2.477792 7.987686
v -6.924571 2.480876 7.972767
v -6.930753 2.379591 7.976067
v -6.930656 2.382675 7.961140
v -6.056011 1.908834 8.185024
v -6.054970 1.925622 8.187012
v -6.061702 1.727281 9.063194
v -6.060660 1.744069 9.065178
v -6.066389 1.728248 9.063248
v -6.065350 1.745038 9.065231
v -6.060698 1.909802 8.185078
v -6.059657 1.926590 8.187065
v -6.063689 1.771469 8.303650
v -6.063605 1.774103 8.290905
v -6.050682 1.981369 8.328495
v -6.050600 1.984004 8.315754
v -6.055368 1.982337 8.328552
v -6.055287 1.984972 8.315807
v -6.068376 1.772437 8.303707
v -6.068292 1.775071 8.290962
v -6.592064 2.262182 9.094574
v -6.588957 2.310279 9.120979
v -6.586590 2.345257 9.157387
v -6.585195 2.363689 9.200214
v -6.584913 2.363773 9.245293
v -6.585765 2.345501 9.288189
v -6.587673 2.310662 9.324718
v -6.590447 2.262664 9.351295
v -6.593821 2.206207 9.365326
v -6.597454 2.146816 9.365437
v -6.600999 2.090308 9.351608
v -6.604110 2.042211 9.325203
v -6.606475 2.007234 9.288799
v -6.607869 1.988801 9.245968
v -6.608153 1.988716 9.200897
v -6.607298 2.006989 9.157993
v -6.605391 2.041828 9.121464
v -6.602615 2.089826 9.094887
v -6.599246 2.146283 9.080856
v -6.595609 2.205673 9.080750
v -6.016510 2.149790 9.088516
v -6.013401 2.197887 9.114922
v -6.011034 2.232864 9.151325
v -6.009641 2.251297 9.194157
v -6.009356 2.251381 9.239231
v -6.010210 2.233109 9.282131
v -6.012119 2.198270 9.318657
v -6.014894 2.150271 9.345238
v -6.018264 2.093815 9.359268
v -6.021898 2.034425 9.359371
v -6.041791 1.974785 9.344978
v -6.044898 1.926688 9.318573
v -6.047265 1.891711 9.282166
v -6.048660 1.873277 9.239338
v -6.048942 1.873192 9.194263
v -6.048090 1.891466 9.151363
v -6.046179 1.926305 9.114834
v -6.043405 1.974303 9.088253
v -6.040034 2.030760 9.074226
v -6.020056 2.093281 9.074688
v -6.596531 2.176245 9.223091
v -6.033524 2.133768 9.107220
v -6.030882 2.174652 9.129665
v -6.028870 2.204381 9.160606
v -6.027687 2.220050 9.197018
v -6.027444 2.220121 9.235329
v -6.028171 2.204590 9.271793
v -6.029792 2.174976 9.302841
v -6.032151 2.134177 9.325436
v -6.035017 2.086190 9.337360
v -6.038108 2.035708 9.337452
v -6.041120 1.987675 9.325703
v -6.043764 1.946792 9.303253
v -6.045774 1.917062 9.272312
v -6.046957 1.901394 9.235909
v -6.047199 1.901322 9.197594
v -6.046473 1.916853 9.161129
v -6.044851 1.946467 9.130077
v -6.042495 1.987266 9.107487
v -6.039629 2.035254 9.095558
v -6.036538 2.085735 9.095467
v -6.022532 2.253959 9.194313
v -6.023928 2.235528 9.151478
v -6.026292 2.200551 9.115074
v -6.029400 2.152453 9.088669
v -6.032946 2.095944 9.074841
v -6.052927 2.033423 9.074375
v -6.056296 1.976966 9.088409
v -6.059072 1.928968 9.114990
v -6.060980 1.894128 9.151520
v -6.061835 1.875856 9.194416
v -6.061551 1.875940 9.239487
v -6.060158 1.894374 9.282322
v -6.057791 1.929350 9.318726
v -6.054681 1.977447 9.345131
v -6.034791 2.037088 9.359528
v -6.031156 2.096478 9.359421
v -6.027784 2.152935 9.345390
v -6.025010 2.200932 9.318813
v -6.023102 2.235773 9.282288
v -6.022250 2.254044 9.239384
v -6.066432 1.683776 8.728645
v -6.066349 1.686412 8.715897
v -6.049695 1.953908 8.760620
v -6.049612 1.956542 8.747875
v -6.054381 1.954875 8.760674
v -6.054300 1.957510 8.747932
v -6.071119 1.684745 8.728699
v -6.071038 1.687379 8.715958
v -6.997458 1.441654 9.001465
v -6.993804 1.537728 8.640614
v -6.731381 1.483516 8.637505
v -6.733206 1.387064 8.998333
v -6.992749 1.591884 8.274807
v -6.728497 1.537293 8.271675
v -6.722922 1.532794 7.872101
v -6.723983 1.537912 7.872688
v -6.724071 1.535167 7.885971
v -6.727260 1.669652 7.888142
v -6.707945 1.796727 7.903324
v -6.716895 1.511276 9.284046
v -6.736209 1.384202 9.268867
v -6.280540 1.293552 8.992966
v -6.667933 1.906695 7.916756
v -6.676881 1.621245 9.297478
v -6.994393 1.598820 7.939846
v -6.724833 1.543133 7.936649
v -6.611137 1.988794 7.927120
v -6.620087 1.703343 9.307838
v -6.285110 1.444485 7.880768
v -6.285025 1.447231 7.867489
v -6.543119 2.034986 7.933395
v -6.552069 1.749535 9.314117
v -6.275060 1.389247 8.632095
v -6.109186 1.354980 8.630127
v -6.470537 2.040749 7.934978
v -6.479486 1.755299 9.315697
v -6.400493 2.005522 7.931702
v -6.409443 1.720070 9.312428
v -6.268987 1.706046 7.898125
v -6.265712 1.574305 7.882671
v -6.274659 1.288854 9.263386
v -6.277936 1.420594 9.278847
v -6.294533 1.829557 7.912327
v -6.303482 1.544106 9.293049
v -6.339849 1.932750 7.923901
v -6.348795 1.647298 9.304619
v -6.275833 1.443780 8.266308
v -6.108128 1.409136 8.264320
v -6.995388 1.589080 7.875336
v -6.282786 1.451813 7.931412
v -7.002213 1.337903 9.260109
v -6.733675 1.282428 9.256924
v -6.063265 2.102452 8.654331
v -6.947888 2.285201 8.664822
v -6.063535 2.093901 8.695690
v -6.948153 2.276649 8.706181
v -6.062154 2.117376 8.686337
v -6.062018 2.121211 8.670147
v -6.061777 2.124623 8.675808
v -6.061826 2.123171 8.681934
v -6.946641 2.303959 8.680634
v -6.946774 2.300124 8.696827
v -6.946445 2.305920 8.692421
v -6.946397 2.307371 8.686295
v -6.112794 1.260076 8.986580
v -6.112965 1.259748 8.987942
v -6.113432 1.259516 8.989174
v -6.114154 1.259404 8.990150
v -6.115056 1.259423 8.990788
v -6.116053 1.259570 8.991016
v -6.117406 1.160214 9.247997
v -6.117746 1.159931 9.248856
v -6.118266 1.159754 9.249542
v -6.118911 1.159698 9.249981
v -6.119619 1.159770 9.250137
v -6.119722 1.158606 9.249828
v -6.119822 1.157653 9.249210
v -6.119908 1.157022 9.248363
v -6.119967 1.156788 9.247375
v -6.119994 1.156981 9.246368
v -6.119221 1.157017 9.246422
v -6.118498 1.157454 9.246532
v -6.117898 1.158249 9.246677
v -6.117476 1.159324 9.246853
v -6.117279 1.160573 9.247040
v -6.288915 1.195070 9.252182
v -6.289464 1.191992 9.248379
v -6.289464 1.191825 9.249382
v -6.289402 1.192105 9.250374
v -6.289276 1.192799 9.251236
v -6.289108 1.193828 9.251862
v -6.059161 2.276515 7.967815
v -6.058383 2.277602 7.968117
v -6.057680 2.278509 7.968697
v -6.057123 2.279141 7.969501
v -6.056768 2.279439 7.970451
v -6.056652 2.279369 7.971439
v -6.941503 2.458710 7.978271
v -6.941270 2.462109 7.981956
v -6.941277 2.462153 7.980957
v -6.941303 2.461777 7.980000
v -6.941355 2.461021 7.979176
v -6.941423 2.459962 7.978580
v -6.065559 1.995221 9.345810
v -6.065688 1.994892 9.346764
v -6.066055 1.994231 9.347588
v -6.066619 1.993308 9.348194
v -6.067330 1.992215 9.348522
v -6.068112 1.991064 9.348537
v -6.950179 2.177973 9.356262
v -6.950453 2.173254 9.358994
v -6.950373 2.174573 9.358986
v -6.950296 2.175821 9.358658
v -6.950238 2.176871 9.358051
v -6.950193 2.177614 9.357224
v -6.285479 1.445950 7.867523
v -6.285873 1.444764 7.867931
v -6.286157 1.443828 7.868660
v -6.286294 1.443265 7.869606
v -6.286264 1.443156 7.870617
v -6.112032 1.411438 7.865593
v -6.111399 1.411323 7.866062
v -6.110891 1.411254 7.866795
v -6.110563 1.411236 7.867718
v -6.110441 1.411272 7.868752
v -6.110635 1.409945 7.868641
v -6.111031 1.408790 7.868557
v -6.111590 1.407923 7.868507
v -6.112258 1.407427 7.868496
v -6.112971 1.407350 7.868523
v -6.112965 1.407444 7.867500
v -6.112931 1.408016 7.866570
v -6.112876 1.408989 7.865860
v -6.112805 1.410236 7.865471
v -6.112731 1.411585 7.865437
v -6.111986 1.416525 7.929604
v -6.111089 1.416328 7.930225
v -6.110377 1.416161 7.931206
v -6.109915 1.416040 7.932442
v -6.109752 1.415980 7.933819
v -6.112976 1.416733 7.929390
v -6.117574 1.159071 9.247765
v -6.117858 1.158991 9.248646
v -6.118392 1.158821 9.249355
v -6.119049 1.158605 9.249714
v -6.119249 1.157660 9.249165
v -6.119326 1.157012 9.248299
v -6.119256 1.156822 9.247353
v -6.118555 1.157248 9.247288
v -6.117945 1.158062 9.247440
v -6.118108 1.158071 9.248272
v -6.118632 1.157918 9.248970
v -6.118697 1.157277 9.248135
v -6.112151 1.410187 7.865593
v -6.111515 1.410282 7.866024
v -6.111001 1.410206 7.866779
v -6.110726 1.409984 7.867680
v -6.111077 1.408833 7.867760
v -6.111648 1.407933 7.867714
v -6.112302 1.407492 7.867546
v -6.112384 1.407998 7.866642
v -6.112328 1.408986 7.865929
v -6.111737 1.409192 7.866192
v -6.111233 1.409117 7.866928
v -6.111793 1.408234 7.866882
v -6.081639 1.697976 9.089516
v -6.076244 1.792148 9.029354
v -6.084099 1.705888 8.612999
v -6.087274 1.604578 9.103031
v -6.071618 1.877875 8.928440
v -6.062066 1.789218 9.029190
v -6.067461 1.695046 9.089344
v -6.069920 1.702959 8.612831
v -6.073094 1.601650 9.102863
v -6.057439 1.874946 8.928272
v -6.068213 1.946768 8.796646
v -6.054036 1.943839 8.796474
v -6.066366 1.992082 8.646873
v -6.052187 1.989153 8.646706
v -6.066251 2.009381 8.493790
v -6.052073 2.006451 8.493622
v -6.086633 1.650803 8.748802
v -6.086134 1.666681 8.672005
v -6.085944 1.672745 8.642670
v -6.085827 1.676493 8.624546
v -6.071956 1.663750 8.671837
v -6.072454 1.647875 8.748638
v -6.067884 1.996972 8.352371
v -6.085732 1.679525 8.609875
v -6.085636 1.682558 8.595215
v -6.085520 1.686306 8.577084
v -6.071765 1.669816 8.642506
v -6.085329 1.692369 8.547752
v -6.071648 1.673563 8.624374
v -6.053705 1.994043 8.352203
v -6.071553 1.676596 8.609711
v -6.071458 1.679627 8.595043
v -6.084831 1.708246 8.470951
v -6.071339 1.683377 8.576916
v -6.071150 1.689440 8.547577
v -6.071106 1.956069 8.236469
v -6.070654 1.705317 8.470787
v -6.074684 1.576765 9.092590
v -6.088860 1.579693 9.092758
v -6.056927 1.953140 8.236298
v -6.075596 1.890678 8.157421
v -6.061420 1.887748 8.157249
v -6.080922 1.807197 8.122963
v -6.066743 1.804269 8.122799
v -6.082603 1.779356 8.126991
v -6.068424 1.776428 8.126827
v -6.063507 1.780671 8.241585
v -6.063426 1.783305 8.228844
v -6.052443 1.959253 8.262730
v -6.052361 1.961887 8.249981
v -6.057129 1.960220 8.262779
v -6.057048 1.962856 8.250042
v -6.068194 1.781639 8.241642
v -6.068112 1.784273 8.228897
v -6.099060 1.214479 8.881599
v -6.095219 1.336997 8.288982
v -6.085322 1.436211 8.907845
v -6.081480 1.558729 8.315228
v -6.106309 1.440547 8.908092
v -6.102468 1.563065 8.315479
v -6.120050 1.218815 8.881851
v -6.116209 1.341333 8.289230
v -6.064763 1.734541 8.495697
v -6.064682 1.737175 8.482956
v -6.048024 2.004672 8.527672
v -6.047942 2.007306 8.514931
v -6.052711 2.005639 8.527729
v -6.052629 2.008274 8.514984
v -6.069449 1.735509 8.495754
v -6.069368 1.738143 8.483009
v -6.600068 2.101606 9.355316
v -6.591142 2.386372 7.977913
v -6.551890 2.903219 9.208847
v -6.546204 3.084566 8.331673
v -6.901494 2.975442 9.212990
v -6.895808 3.156788 8.335815
v -6.949672 2.173827 9.359463
v -6.940746 2.458593 7.982056
vn 0.9981 -0.0611 -0.0062
vn 0.2007 0.9591 0.1996
vn -0.9981 0.0611 0.0062
vn -0.2006 -0.9591 -0.1996
vn 0.0122 0.1168 -0.9931
vn -0.0117 -0.1168 0.9931
vn 0.2005 0.9591 0.1996
vn -0.9981 0.0611 0.0061
vn -0.2005 -0.9591 -0.1996
vn 0.0123 0.1168 -0.9931
vn -0.0125 -0.1168 0.9931
vn -0.9981 0.0611 0.0063
vn 0.0121 0.1168 -0.9931
vn -0.0123 -0.1168 0.9931
vn 0.0835 0.4754 -0.8758
vn 0.1076 0.5947 -0.7967
vn 0.1532 0.8158 -0.5577
vn 0.1536 0.8162 -0.5570
vn 0.1079 0.5954 -0.7961
vn 0.1852 0.9608 -0.2062
vn 0.1854 0.9609 -0.2057
vn 0.1896 0.9613 0.1999
vn 0.1899 0.9612 0.2000
vn 0.1651 0.8171 0.5524
vn 0.1654 0.8173 0.5520
vn 0.1247 0.5965 0.7929
vn 0.1250 0.5970 0.7924
vn 0.0793 0.3567 0.9308
vn 0.0796 0.3575 0.9305
vn 0.0336 0.1186 0.9924
vn 0.0338 0.1195 0.9923
vn -0.0126 -0.1164 0.9931
vn -0.0089 -0.0985 0.9951
vn -0.0604 -0.3477 0.9357
vn -0.0574 -0.3337 0.9409
vn -0.1134 -0.5944 0.7961
vn -0.1135 -0.5944 0.7961
vn -0.1617 -0.8147 0.5569
vn -0.1956 -0.9589 0.2057
vn -0.2005 -0.9592 -0.1996
vn -0.1750 -0.8156 -0.5515
vn -0.1325 -0.5959 -0.7920
vn -0.1323 -0.5959 -0.7921
vn -0.0847 -0.3567 -0.9304
vn -0.0852 -0.3567 -0.9303
vn -0.0346 -0.1119 -0.9931
vn -0.0317 -0.0981 -0.9947
vn 0.0121 0.1172 -0.9930
vn 0.0157 0.1351 -0.9907
vn 0.0594 0.3546 -0.9331
vn 0.0596 0.3555 -0.9328
vn 0.9979 -0.0647 0.0057
vn 0.9977 -0.0666 0.0088
vn 0.9975 -0.0699 0.0058
vn 0.9974 -0.0723 0.0016
vn 0.9973 -0.0736 -0.0034
vn 0.9973 -0.0736 -0.0087
vn 0.9973 -0.0724 -0.0138
vn 0.9974 -0.0700 -0.0181
vn 0.9975 -0.0667 -0.0211
vn 0.9978 -0.0630 -0.0227
vn 0.9979 -0.0617 -0.0189
vn 0.9980 -0.0617 -0.0110
vn 0.9980 -0.0628 -0.0018
vn 0.8510 -0.1906 0.4893
vn 0.8146 -0.2592 0.5189
vn 0.8352 -0.3705 0.4064
vn 0.8545 -0.4512 0.2574
vn 0.8662 -0.4925 0.0845
vn 0.8667 -0.4896 -0.0956
vn 0.8564 -0.4437 -0.2639
vn 0.8395 -0.3618 -0.4054
vn 0.8218 -0.2531 -0.5105
vn 0.8087 -0.1260 -0.5746
vn 0.8493 -0.0693 -0.5233
vn 0.9745 -0.0846 -0.2080
vn 0.9981 -0.0612 -0.0062
vn 0.9755 -0.1305 0.1772
vn 0.1956 0.9589 -0.2057
vn 0.1618 0.8147 -0.5568
vn 0.1135 0.5944 -0.7961
vn 0.0622 0.3548 -0.9329
vn 0.0160 0.1343 -0.9908
vn -0.0308 -0.0921 -0.9953
vn -0.0843 -0.3568 -0.9304
vn -0.1322 -0.5959 -0.7921
vn -0.1749 -0.8156 -0.5515
vn -0.2004 -0.9592 -0.1996
vn -0.1616 -0.8147 0.5568
vn -0.1136 -0.5944 0.7961
vn -0.0565 -0.3276 0.9431
vn -0.0087 -0.0993 0.9950
vn 0.0361 0.1189 0.9922
vn 0.0844 0.3567 0.9304
vn 0.1326 0.5959 0.7920
vn 0.1753 0.8156 0.5514
vn 0.2003 0.9592 0.1996
vn -0.2007 -0.9591 -0.1996
vn 0.0127 0.1168 -0.9931
vn -0.0130 -0.1168 0.9931
vn 0.2006 0.9591 0.1996
vn 0.0815 0.4463 -0.8912
vn 0.0483 0.1767 0.9831
vn 0.0119 0.1168 -0.9931
vn -0.0126 -0.1168 0.9931
vn -0.9981 0.0612 0.0062
vn 0.0129 0.1167 -0.9931
vn 0.2004 0.9592 0.1996
vn 0.2005 0.9592 0.1995
vn -0.2005 -0.9591 -0.1997
vn -0.0121 -0.1168 0.9931
vn -0.0124 -0.1168 0.9931
vn -0.2001 -0.9592 -0.1995
vn 0.0124 0.1168 -0.9931
vn -0.0126 -0.1167 0.9931
vn -0.0122 -0.1168 0.9931
vn 0.9981 -0.0611 -0.0061
vn 0.0128 0.1168 -0.9931
vn 0.2005 0.9592 0.1996
vn -0.2005 -0.9592 -0.1995
vn 0.0129 0.1168 -0.9931
vn -0.0127 -0.1168 0.9931
vn -0.2004 -0.9592 -0.1997
vn 0.2004 0.9592 0.1997
vn -0.0130 -0.1166 0.9931
vn -0.2003 -0.9592 -0.1996
vn 0.1535 0.8162 -0.5570
vn 0.1855 0.9609 -0.2057
vn 0.1896 0.9613 0.2000
vn 0.1898 0.9612 0.2000
vn 0.1246 0.5965 0.7929
vn 0.1249 0.5971 0.7924
vn 0.0339 0.1195 0.9923
vn -0.0087 -0.0985 0.9951
vn -0.1133 -0.5945 0.7961
vn -0.1617 -0.8147 0.5568
vn -0.1752 -0.8156 -0.5515
vn -0.1326 -0.5959 -0.7920
vn -0.0345 -0.1118 -0.9931
vn 0.0593 0.3545 -0.9332
vn 0.9977 -0.0667 0.0088
vn 0.9973 -0.0736 -0.0035
vn 0.9972 -0.0736 -0.0087
vn 0.9975 -0.0668 -0.0211
vn 0.9978 -0.0629 -0.0227
vn 0.9979 -0.0618 -0.0189
vn 0.8545 -0.4511 0.2576
vn 0.8662 -0.4925 0.0843
vn 0.8667 -0.4895 -0.0956
vn 0.8564 -0.4436 -0.2642
vn 0.8395 -0.3619 -0.4052
vn 0.9745 -0.0846 -0.2079
vn 0.9755 -0.1305 0.1773
vn 0.1616 0.8147 -0.5568
vn 0.1132 0.5944 -0.7961
vn 0.0623 0.3549 -0.9328
vn -0.1327 -0.5959 -0.7920
vn -0.1753 -0.8156 -0.5515
vn -0.1616 -0.8148 0.5568
vn -0.1132 -0.5945 0.7961
vn 0.0364 0.1189 0.9922
vn 0.0847 0.3567 0.9304
vn -0.1986 -0.9466 -0.2540
vn -0.2026 -0.9756 -0.0844
vn -0.2026 -0.9757 -0.0838
vn 0.9792 0.1974 0.0473
vn 0.9997 0.0236 0.0113
vn 0.9956 -0.0923 -0.0127
vn 0.9704 -0.2377 -0.0429
vn 0.9956 -0.0923 -0.0126
vn 0.8939 -0.4400 -0.0852
vn -0.2022 -0.9793 0.0085
vn -0.2022 -0.9793 0.0095
vn 0.7188 -0.6817 -0.1363
vn 0.3497 -0.9179 -0.1875
vn -0.6368 -0.7542 -0.1601
vn -0.9936 -0.1088 -0.0289
vn -0.9995 0.0301 -0.0003
vn -0.9995 0.0301 -0.0002
vn -0.9545 -0.2908 -0.0663
vn -0.8568 -0.5039 -0.1097
vn -0.2026 -0.9757 -0.0836
vn -0.2026 -0.9756 -0.0842
vn -0.1983 -0.9687 0.1493
vn 0.9997 0.0235 0.0113
vn -0.1962 -0.9322 -0.3043
vn -0.1923 -0.9096 -0.3684
vn -0.1962 -0.9323 -0.3038
vn 0.1330 0.6849 -0.7164
vn 0.1221 0.6350 -0.7628
vn 0.0863 0.3644 0.9272
vn 0.0972 0.4188 0.9029
vn 0.1325 0.5954 0.7924
vn 0.1996 0.9531 0.2274
vn 0.1677 0.8411 -0.5142
vn -0.1969 -0.9376 -0.2867
vn -0.1975 -0.9466 -0.2546
vn 0.0085 -0.9286 -0.3709
vn -0.1918 -0.9100 -0.3676
vn -0.1967 -0.9469 -0.2545
vn 0.2420 -0.9033 -0.3544
vn -0.1960 -0.9470 -0.2544
vn 0.5302 -0.7923 -0.3020
vn 0.6932 -0.6754 -0.2516
vn 0.8366 -0.5156 -0.1853
vn 0.9511 -0.2935 -0.0965
vn 0.9981 -0.0612 -0.0061
vn -0.2006 -0.9783 0.0519
vn -0.2013 -0.9786 0.0415
vn -0.1923 -0.9099 -0.3677
vn -0.1741 -0.8715 0.4585
vn -0.1767 -0.8790 0.4429
vn -0.1243 -0.6461 0.7530
vn -0.1282 -0.6605 0.7398
vn -0.0674 -0.3813 0.9220
vn -0.0717 -0.3980 0.9146
vn -0.0121 -0.1169 0.9931
vn -0.0124 -0.1169 0.9931
vn 0.1988 0.9483 0.2473
vn 0.1991 0.9723 -0.1222
vn 0.1979 0.9663 -0.1644
vn 0.1990 0.9483 0.2473
vn 0.1728 0.8640 -0.4729
vn 0.1652 0.8307 -0.5316
vn 0.1280 0.6616 -0.7389
vn 0.1160 0.6079 -0.7855
vn 0.2528 0.2998 -0.9199
vn 0.0636 0.3615 -0.9302
vn 0.0128 0.1171 -0.9930
vn 0.0124 0.1170 -0.9931
vn -0.0119 -0.1164 0.9931
vn 0.2147 0.0750 0.9738
vn 0.0377 0.1259 0.9913
vn -0.0121 -0.1165 0.9931
vn 0.0986 0.4271 0.8988
vn 0.0874 0.3716 0.9243
vn 0.1449 0.6593 0.7378
vn 0.1366 0.6164 0.7755
vn 0.1824 0.8557 0.4842
vn 0.1789 0.8364 0.5182
vn 0.2015 0.9683 0.1479
vn 0.2018 0.9682 0.1479
vn -0.1985 -0.9693 0.1448
vn -0.1956 -0.9283 -0.3163
vn -0.1941 -0.9256 -0.3249
vn -0.1980 -0.9694 0.1452
vn -0.1595 -0.7335 -0.6607
vn -0.1550 -0.7145 -0.6823
vn -0.1087 -0.4749 -0.8733
vn -0.1014 -0.4422 -0.8912
vn -0.0533 -0.2013 -0.9781
vn -0.0445 -0.1620 -0.9858
vn 0.0123 0.1167 -0.9931
vn 0.0126 0.1167 -0.9931
vn 0.0181 -0.9896 0.1425
vn -0.2022 -0.9792 -0.0191
vn -0.2023 -0.9793 -0.0041
vn 0.2654 -0.9560 0.1251
vn -0.2020 -0.9792 -0.0191
vn 0.5658 -0.8197 0.0893
vn -0.2018 -0.9792 -0.0192
vn 0.7260 -0.6846 0.0650
vn 0.9599 -0.2802 0.0061
vn 0.9981 -0.0611 -0.0063
vn 0.9583 -0.2854 0.0134
vn -0.1962 -0.9324 -0.3036
vn 0.2018 0.9682 0.1476
vn -0.2022 -0.9793 0.0080
vn 0.1988 0.9482 0.2476
vn -0.9888 0.1474 0.0241
vn -0.9888 0.1475 0.0241
vn -0.9403 0.3345 0.0631
vn -0.2025 -0.9791 -0.0193
vn 0.9775 -0.0360 -0.2079
vn 0.9700 -0.0317 -0.2412
vn 0.9092 -0.0071 -0.4163
vn 0.8839 0.0004 -0.4677
vn 0.7682 0.0282 -0.6396
vn 0.7141 0.0383 -0.6990
vn 0.4240 0.0804 -0.9021
vn 0.3968 -0.1323 0.9083
vn 0.6991 -0.1268 0.7037
vn 0.7545 -0.1231 0.6446
vn 0.8783 -0.1097 0.4653
vn 0.9032 -0.1052 0.4161
vn 0.9690 -0.0875 0.2312
vn 0.9760 -0.0843 0.2006
vn 0.9542 -0.2640 0.1406
vn 0.8718 -0.2928 0.3926
vn 0.6800 -0.3385 0.6505
vn 0.3412 -0.3863 0.8570
vn 0.2836 -0.6578 0.6977
vn 0.2601 -0.8815 0.3941
vn 0.2822 -0.9593 -0.0070
vn 0.6782 -0.7349 0.0043
vn 0.8758 -0.4787 0.0622
vn 0.8279 -0.4737 0.3004
vn 0.6033 -0.5480 0.5794
vn 0.6044 -0.7416 0.2911
vn 0.3699 -0.1569 -0.9157
vn 0.6996 -0.1546 -0.6976
vn 0.8800 -0.1704 -0.4433
vn 0.9582 -0.2000 -0.2045
vn 0.8954 -0.4003 -0.1948
vn 0.7281 -0.6504 -0.2166
vn 0.3415 -0.8971 -0.2803
vn 0.3050 -0.7043 -0.6410
vn 0.3162 -0.4296 -0.8458
vn 0.6302 -0.3515 -0.6923
vn 0.8443 -0.3432 -0.4115
vn 0.6443 -0.5876 -0.4895
vn -0.9981 0.0613 0.0062
vn 0.9981 -0.0610 -0.0061
vn 0.1442 0.6556 0.7412
vn 0.0854 0.3599 0.9291
vn 0.0855 0.3599 0.9291
vn 0.9981 -0.0610 -0.0062
vn 0.0173 0.0264 0.9995
vn 0.0175 0.0264 0.9995
vn 0.1753 0.8172 0.5491
vn -0.0668 -0.3771 0.9238
vn 0.1920 0.9082 0.3720
vn 0.1920 0.9081 0.3720
vn 0.2025 0.9792 0.0152
vn 0.1959 0.9595 -0.2025
vn 0.1958 0.9595 -0.2025
vn 0.1724 0.8620 -0.4768
vn 0.1140 0.5976 -0.7937
vn 0.1141 0.5976 -0.7937
vn 0.0424 0.2609 -0.9644
vn -0.0410 -0.1407 -0.9892
vn 0.0126 0.1168 -0.9931
vn 0.0816 0.4463 -0.8912
vn 0.0482 0.1767 0.9831
vt 0.375000 0.000000
vt 0.625000 0.000000
vt 0.625000 0.250000
vt 0.375000 0.250000
vt 0.625000 0.500000
vt 0.375000 0.500000
vt 0.625000 0.750000
vt 0.375000 0.750000
vt 0.625000 1.000000
vt 0.375000 1.000000
vt 0.875000 0.000000
vt 0.875000 0.250000
vt 0.125000 0.000000
vt 0.125000 0.250000
vt 0.375000 0.312500
vt 0.387500 0.312500
vt 0.387500 0.679773
vt 0.375000 0.679773
vt 0.400000 0.312500
vt 0.400000 0.679773
vt 0.412500 0.312500
vt 0.412500 0.679773
vt 0.425000 0.312500
vt 0.425000 0.679773
vt 0.437500 0.312500
vt 0.437500 0.679773
vt 0.450000 0.312500
vt 0.450000 0.679773
vt 0.462500 0.312500
vt 0.462500 0.679773
vt 0.475000 0.312500
vt 0.475000 0.679773
vt 0.487500 0.312500
vt 0.487500 0.679773
vt 0.500000 0.312500
vt 0.500000 0.679773
vt 0.512500 0.312500
vt 0.512500 0.679773
vt 0.525000 0.312500
vt 0.525000 0.679773
vt 0.537500 0.312500
vt 0.537500 0.679773
vt 0.550000 0.312500
vt 0.550000 0.679773
vt 0.562500 0.312500
vt 0.562500 0.679773
vt 0.575000 0.312500
vt 0.575000 0.679773
vt 0.587500 0.312500
vt 0.587500 0.679773
vt 0.600000 0.312500
vt 0.600000 0.679773
vt 0.612500 0.312500
vt 0.612500 0.679773
vt 0.625000 0.312500
vt 0.625000 0.679773
vt 0.626409 0.064408
vt 0.648603 0.107966
vt 0.500000 0.150000
vt 0.591842 0.029841
vt 0.548284 0.007647
vt 0.500000 -0.000000
vt 0.451716 0.007647
vt 0.408159 0.029841
vt 0.373591 0.064409
vt 0.351397 0.107966
vt 0.343750 0.156250
vt 0.351397 0.204534
vt 0.373591 0.248091
vt 0.408159 0.282659
vt 0.451716 0.304853
vt 0.548284 0.304853
vt 0.591841 0.282659
vt 0.626409 0.248091
vt 0.648603 0.204534
vt 0.656250 0.156250
vt 0.578125 0.840625
vt 0.574301 0.864767
vt 0.563204 0.886546
vt 0.545921 0.903829
vt 0.524142 0.914926
vt 0.500000 0.918750
vt 0.475858 0.914926
vt 0.454079 0.903829
vt 0.436796 0.886546
vt 0.425699 0.864767
vt 0.421875 0.840625
vt 0.425699 0.816483
vt 0.436796 0.794704
vt 0.454079 0.777421
vt 0.475858 0.766324
vt 0.500000 0.762500
vt 0.524142 0.766324
vt 0.545921 0.777421
vt 0.563205 0.794704
vt 0.574301 0.816483
vt 0.656250 0.843750
vt 0.648603 0.892034
vt 0.626409 0.935591
vt 0.591841 0.970159
vt 0.548284 0.992353
vt 0.500000 1.000000
vt 0.451716 0.992353
vt 0.408159 0.970159
vt 0.373591 0.935591
vt 0.351397 0.892034
vt 0.343750 0.843750
vt 0.351397 0.795466
vt 0.373591 0.751909
vt 0.408159 0.717341
vt 0.451716 0.695147
vt 0.500000 0.687500
vt 0.548284 0.695147
vt 0.591842 0.717341
vt 0.626409 0.751908
vt 0.648603 0.795466
vt 0.412500 0.688440
vt 0.400000 0.688440
vt 0.387500 0.688440
vt 0.375000 0.688440
vt 0.625000 0.688440
vt 0.612500 0.688440
vt 0.600000 0.688440
vt 0.587500 0.688440
vt 0.575000 0.688440
vt 0.562500 0.688440
vt 0.550000 0.688440
vt 0.537500 0.688440
vt 0.525000 0.688440
vt 0.512500 0.688440
vt 0.500000 0.688440
vt 0.487500 0.688440
vt 0.475000 0.688440
vt 0.462500 0.688440
vt 0.450000 0.688440
vt 0.437500 0.688440
vt 0.425000 0.688440
vt 0.437500 0.416714
vt 0.425000 0.416714
vt 0.425000 0.481154
vt 0.437500 0.481603
vt 0.412500 0.416714
vt 0.412500 0.481603
vt 0.438018 0.358242
vt 0.437500 0.358242
vt 0.437500 0.361280
vt 0.425000 0.358242
vt 0.412500 0.358242
vt 0.412500 0.674044
vt 0.425000 0.674044
vt 0.400000 0.358242
vt 0.400000 0.674044
vt 0.400000 0.416714
vt 0.400000 0.482907
vt 0.387500 0.358242
vt 0.387500 0.674044
vt 0.375000 0.358242
vt 0.375000 0.674044
vt 0.625000 0.358242
vt 0.612500 0.358242
vt 0.612500 0.674044
vt 0.625000 0.674044
vt 0.600000 0.358242
vt 0.600000 0.674044
vt 0.562500 0.358242
vt 0.550000 0.358242
vt 0.550000 0.674044
vt 0.562500 0.674044
vt 0.575000 0.358242
vt 0.575000 0.674044
vt 0.587500 0.358242
vt 0.587500 0.674044
vt 0.425000 0.593207
vt 0.412500 0.592758
vt 0.412500 0.633938
vt 0.425000 0.633938
vt 0.397028 0.416714
vt 0.397028 0.483619
vt 0.397666 0.483286
vt 0.434657 0.674044
vt 0.429916 0.613557
vt 0.427891 0.530456
vt 0.429916 0.447355
vt 0.435791 0.372388
vt 0.447586 0.482655
vt 0.447586 0.416714
vt 0.497627 0.500000
vt 0.497627 0.250000
vt 0.500030 0.250000
vt 0.500030 0.500000
vt 0.492541 0.250000
vt 0.494685 0.250000
vt 0.494685 0.500000
vt 0.492541 0.500000
vt 0.495605 0.250166
vt 0.495617 0.499235
vt 0.496688 0.250762
vt 0.496658 0.499364
vt 0.437500 0.633149
vt 0.437514 0.633434
vt 0.445816 0.625359
vt 0.447458 0.633334
vt 0.437512 0.633699
vt 0.444250 0.617989
vt 0.437500 0.633938
vt 0.442821 0.611658
vt 0.422884 0.026444
vt 0.423284 0.026480
vt 0.373795 0.016483
vt 0.371980 0.019122
vt 0.423685 0.026516
vt 0.375569 0.013913
vt 0.445838 0.625230
vt 0.447500 0.591715
vt 0.447458 0.591719
vt 0.444302 0.617741
vt 0.447543 0.591710
vt 0.442907 0.611297
vt 0.447586 0.591706
vt 0.371156 0.019004
vt 0.372765 0.016357
vt 0.326450 0.013196
vt 0.326395 0.012565
vt 0.374355 0.013737
vt 0.326505 0.013828
vt 0.624425 0.250000
vt 0.624713 0.249999
vt 0.624420 0.499797
vt 0.624420 0.500000
vt 0.624421 0.499595
vt 0.625194 0.249632
vt 0.874595 0.248807
vt 0.874393 0.248808
vt 0.625414 0.249237
vt 0.874797 0.248806
vt 0.625645 0.248828
vt 0.875000 0.248805
vt 0.374355 0.248828
vt 0.374693 0.249438
vt 0.125000 0.249402
vt 0.125000 0.248804
vt 0.375194 0.500000
vt 0.375301 0.249999
vt 0.375387 0.500000
vt 0.375575 0.250000
vt 0.375581 0.500000
vt 0.397198 0.590830
vt 0.397143 0.590801
vt 0.398173 0.629713
vt 0.397196 0.633384
vt 0.397087 0.590772
vt 0.398938 0.626633
vt 0.397028 0.590741
vt 0.399352 0.624521
vt 0.674715 0.002872
vt 0.674525 0.003548
vt 0.626362 0.006047
vt 0.627082 0.007854
vt 0.674331 0.004241
vt 0.625638 0.004226
vt 0.398833 0.628118
vt 0.400000 0.633423
vt 0.400000 0.633152
vt 0.399776 0.624786
vt 0.399999 0.633688
vt 0.399394 0.625128
vt 0.400000 0.633938
vt 0.626225 0.007944
vt 0.625319 0.006188
vt 0.613406 0.009357
vt 0.613802 0.009243
vt 0.624413 0.004459
vt 0.613011 0.009472
vt 0.437500 0.592758
vt 0.400000 0.591454
vt 0.397666 0.591075
vt 0.200890 0.012565
vt 0.198424 0.040837
vt 0.201616 0.077434
vt 0.210880 0.110448
vt 0.225308 0.136649
vt 0.243489 0.153470
vt 0.263643 0.159266
vt 0.283796 0.153470
vt 0.301977 0.136648
vt 0.316406 0.110448
vt 0.325669 0.077434
vt 0.328861 0.040837
vt 0.125000 0.012565
vt 0.671139 0.040837
vt 0.674331 0.077434
vt 0.683594 0.110448
vt 0.698023 0.136648
vt 0.716204 0.153470
vt 0.736357 0.159266
vt 0.756511 0.153470
vt 0.774692 0.136649
vt 0.789120 0.110448
vt 0.798384 0.077434
vt 0.801576 0.040837
vt 0.798384 0.004241
vt 0.798000 0.002872
vt 0.875000 0.002872
vt 0.488670 0.032372
vt 0.554455 0.026444
vt 0.437348 0.633938
vt 0.437424 0.633938
vt 0.540775 0.674044
vt 0.537500 0.358242
vt 0.537500 0.361280
vt 0.539208 0.372388
vt 0.545084 0.447355
vt 0.547108 0.530456
vt 0.545084 0.613557
vt 0.540403 0.673277
vt -0.000000 -0.000000
vt 0.540343 0.674044
vt 0.625000 0.501195
vt 0.625000 0.747127
vt 0.613802 0.740757
vt 0.554455 0.723556
vt 0.488670 0.717628
vt 0.422884 0.723556
vt 0.375000 0.737435
vt 0.375000 0.501196
vt 0.537238 0.358242
vt 0.536982 0.358242
vt 0.537029 0.358521
vt 0.537075 0.358790
vt 0.537120 0.359052
vt 0.400083 0.633938
vt 0.400167 0.633938
vt 0.624665 0.004399
vt 0.624908 0.004341
vt 0.625154 0.004289
vt 0.625398 0.004249
vt 0.374585 0.013769
vt 0.374816 0.013806
vt 0.375059 0.013845
vt 0.375314 0.013883
vt 0.373634 0.016395
vt 0.373575 0.016132
vt 0.373347 0.016112
vt 0.372975 0.016349
vt 0.371307 0.019025
vt 0.442891 0.611363
vt 0.434995 0.537363
vt 0.438909 0.568032
vt 0.434337 0.531855
vt 0.442836 0.611593
vt 0.371833 0.019101
vt 0.371669 0.019077
vt 0.371477 0.019050
vt 0.442873 0.611438
vt 0.411583 0.332810
vt 0.442853 0.611522
vt 0.626163 0.006052
vt 0.625880 0.005904
vt 0.625651 0.005932
vt 0.625513 0.006128
vt 0.626383 0.007927
vt 0.399386 0.625016
vt 0.429998 0.541170
vt 0.419699 0.569989
vt 0.430366 0.539903
vt 0.399359 0.624627
vt 0.626931 0.007870
vt 0.626759 0.007888
vt 0.626558 0.007909
vt 0.399378 0.624892
vt 0.504335 0.335870
vt 0.399368 0.624750
vt 0.500000 0.837500
vt 0.455703 0.166256
vt 0.480190 0.165373
vt 0.489543 0.165105
vt 0.495323 0.164998
vt 0.480190 0.824086
vt 0.455703 0.824970
vt 0.500000 0.164969
vt 0.504677 0.164998
vt 0.510457 0.165105
vt 0.489543 0.823819
vt 0.519810 0.165373
vt 0.495323 0.823712
vt 0.500000 0.823683
vt 0.504677 0.823712
vt 0.544297 0.166256
vt 0.510457 0.823819
vt 0.519810 0.824086
vt 0.544297 0.824970
vt 0.491226 0.688440
vt 0.491226 0.312500
vt 0.346030 0.170643
vt 0.346030 0.829357
vt 0.653970 0.170643
vt 0.653970 0.829357
vt 0.608774 0.312500
vt 0.608774 0.688440
vt 0.502870 0.594782
vt 0.500000 0.594782
vt 0.497130 0.594782
vt 0.493582 0.594782
vt 0.487842 0.594782
vt 0.472815 0.594782
vt 0.405507 0.594782
vt 0.405507 0.655218
vt 0.472815 0.655218
vt 0.487842 0.655218
vt 0.493582 0.655218
vt 0.497130 0.655218
vt 0.500000 0.655218
vt 0.502870 0.655218
vt 0.506418 0.655218
vt 0.512158 0.655218
vt 0.527185 0.655218
vt 0.594493 0.655218
vt 0.594493 0.594782
vt 0.527185 0.594782
vt 0.512158 0.594782
vt 0.506418 0.594782
vt 0.112663 0.431725
vt 0.857952 0.431725
vt 0.857952 0.724697
vt 0.112663 0.724697
vt 0.338705 0.001992
vt 0.668185 0.001992
vt 0.668185 0.331472
vt 0.338705 0.331472
vt 0.617659 0.335260
vt 0.947139 0.335260
vt 0.947139 0.664740
vt 0.617659 0.664740
vt 0.282356 0.335260
vt 0.611836 0.335260
vt 0.611836 0.664740
vt 0.282356 0.664740
vt 0.001890 0.668528
vt 0.331370 0.668528
vt 0.331370 0.998008
vt 0.001890 0.998008
vt 0.338705 0.668528
vt 0.668185 0.668528
vt 0.668185 0.998008
vt 0.338705 0.998008
s 1
usemtl fachada:lambert92SG.001
f 1/1/1 2/2/1 4/3/1 3/4/1
f 3/4/2 4/3/2 6/5/2 5/6/2
f 5/6/3 6/5/3 8/7/3 7/8/3
f 7/8/4 8/7/4 2/9/4 1/10/4
f 2/2/5 8/11/5 6/12/5 4/3/5
f 7/13/6 1/1/6 3/4/6 5/14/6
f 9/1/1 10/2/1 12/3/1 11/4/1
f 11/4/7 12/3/7 14/5/7 13/6/7
f 13/6/8 14/5/8 16/7/8 15/8/8
f 15/8/9 16/7/9 10/9/9 9/10/9
f 10/2/10 16/11/10 14/12/10 12/3/10
f 15/13/11 9/1/11 11/4/11 13/14/11
f 17/1/1 18/2/1 20/3/1 19/4/1
f 19/4/2 20/3/2 22/5/2 21/6/2
f 21/6/12 22/5/12 24/7/12 23/8/12
f 23/8/4 24/7/4 18/9/4 17/10/4
f 18/2/13 24/11/13 22/12/13 20/3/13
f 23/13/14 17/1/14 19/4/14 21/14/14
f 106/1/1 107/2/1 109/3/1 108/4/1
f 108/4/97 109/3/97 111/5/97 110/6/97
f 110/6/8 111/5/8 113/7/8 112/8/8
f 112/8/98 113/7/98 107/9/98 106/10/98
f 107/2/99 113/11/99 111/12/99 109/3/99
f 112/13/100 106/1/100 108/4/100 110/14/100
f 122/1/1 123/2/1 125/3/1 124/4/1
f 124/4/7 125/3/7 127/5/7 126/6/7
f 126/6/3 127/5/3 129/7/3 128/8/3
f 128/8/4 129/7/4 123/9/4 122/10/4
f 123/2/104 129/11/104 127/12/104 125/3/104
f 128/13/105 122/1/105 124/4/105 126/14/105
f 130/1/1 131/2/1 133/3/1 132/4/1
f 132/4/14 133/3/14 135/5/14 134/6/14
f 134/6/106 135/5/106 137/7/106 136/8/106
f 136/8/107 137/7/107 131/9/107 130/10/107
f 131/2/108 137/11/108 135/12/108 133/3/108
f 136/13/40 130/1/40 132/4/40 134/14/40
f 138/1/1 139/2/1 141/3/1 140/4/1
f 140/4/109 141/3/109 143/5/109 142/6/109
f 142/6/8 143/5/8 145/7/8 144/8/8
f 144/8/110 145/7/110 139/9/110 138/10/110
f 139/2/5 145/11/5 143/12/5 141/3/5
f 144/13/111 138/1/111 140/4/111 142/14/111
f 154/1/1 155/2/1 157/3/1 156/4/1
f 156/4/2 157/3/2 159/5/2 158/6/2
f 158/6/12 159/5/12 161/7/12 160/8/12
f 160/8/113 161/7/113 155/9/113 154/10/113
f 155/2/114 161/11/114 159/12/114 157/3/114
f 160/13/115 154/1/115 156/4/115 158/14/115
f 162/1/77 163/2/77 165/3/77 164/4/77
f 164/4/116 165/3/116 167/5/116 166/6/116
f 166/6/3 167/5/3 169/7/3 168/8/3
f 168/8/10 169/7/10 163/9/10 162/10/10
f 163/2/101 169/11/101 167/12/101 165/3/101
f 168/13/4 162/1/4 164/4/4 166/14/4
f 170/1/117 171/2/117 173/3/117 172/4/117
f 172/4/101 173/3/101 175/5/101 174/6/101
f 174/6/12 175/5/12 177/7/12 176/8/12
f 176/8/9 177/7/9 171/9/9 170/10/9
f 171/2/118 177/11/118 175/12/118 173/3/118
f 176/13/14 170/1/14 172/4/14 174/14/14
f 186/1/117 187/2/117 189/3/117 188/4/117
f 188/4/7 189/3/7 191/5/7 190/6/7
f 190/6/3 191/5/3 193/7/3 192/8/3
f 192/8/120 193/7/120 187/9/120 186/10/120
f 187/2/121 193/11/121 191/12/121 189/3/121
f 192/13/122 186/1/122 188/4/122 190/14/122
f 194/1/117 195/2/117 197/3/117 196/4/117
f 196/4/2 197/3/2 199/5/2 198/6/2
f 198/6/3 199/5/3 201/7/3 200/8/3
f 200/8/123 201/7/123 195/9/123 194/10/123
f 195/2/99 201/11/99 199/12/99 197/3/99
f 200/13/111 194/1/111 196/4/111 198/14/111
f 202/1/1 203/2/1 205/3/1 204/4/1
f 204/4/124 205/3/124 207/5/124 206/6/124
f 206/6/8 207/5/8 209/7/8 208/8/8
f 208/8/40 209/7/40 203/9/40 202/10/40
f 203/2/10 209/11/10 207/12/10 205/3/10
f 208/13/112 202/1/112 204/4/112 206/14/112
f 218/1/77 219/2/77 221/3/77 220/4/77
f 220/4/125 221/3/125 223/5/125 222/6/125
f 222/6/3 223/5/3 225/7/3 224/8/3
f 224/8/10 225/7/10 219/9/10 218/10/10
f 219/2/108 225/11/108 223/12/108 221/3/108
f 224/13/126 218/1/126 220/4/126 222/14/126
f 226/1/117 227/2/117 229/3/117 228/4/117
f 228/4/2 229/3/2 231/5/2 230/6/2
f 230/6/3 231/5/3 233/7/3 232/8/3
f 232/8/9 233/7/9 227/9/9 226/10/9
f 227/2/10 233/11/10 231/12/10 229/3/10
f 232/13/11 226/1/11 228/4/11 230/14/11
f 315/1/117 316/2/117 318/3/117 317/4/117
f 317/4/97 318/3/97 320/5/97 319/6/97
f 319/6/12 320/5/12 322/7/12 321/8/12
f 321/8/126 322/7/126 316/9/126 315/10/126
f 316/2/10 322/11/10 320/12/10 318/3/10
f 321/13/105 315/1/105 317/4/105 319/14/105
f 526/1/264 527/2/264 529/3/264 528/4/264
f 528/4/108 529/3/108 531/5/108 530/6/108
f 530/6/12 531/5/12 533/7/12 532/8/12
f 532/8/40 533/7/40 527/9/40 526/10/40
f 527/2/114 533/11/114 531/12/114 529/3/114
f 532/13/122 526/1/122 528/4/122 530/14/122
f 542/1/1 543/2/1 545/3/1 544/4/1
f 544/4/7 545/3/7 547/5/7 546/6/7
f 546/6/12 547/5/12 549/7/12 548/8/12
f 548/8/88 549/7/88 543/9/88 542/10/88
f 543/2/332 549/11/332 547/12/332 545/3/332
f 548/13/111 542/1/111 544/4/111 546/14/111
usemtl fachada:lambert90SG.001
f 25/15/15 26/16/15 88/17/15 89/18/15
f 26/16/16 27/19/17 87/20/18 88/17/19
f 27/19/17 28/21/20 86/22/21 87/20/18
f 28/21/20 29/23/22 105/24/23 86/22/21
f 29/23/22 30/25/24 104/26/25 105/24/23
f 30/25/24 31/27/26 103/28/27 104/26/25
f 31/27/26 32/29/28 102/30/29 103/28/27
f 32/29/28 33/31/30 101/32/31 102/30/29
f 33/31/30 34/33/32 100/34/33 101/32/31
f 34/33/32 35/35/34 99/36/35 100/34/33
f 35/35/34 36/37/36 98/38/37 99/36/35
f 36/37/36 37/39/38 97/40/38 98/38/37
f 37/39/38 38/41/39 96/42/39 97/40/38
f 38/41/39 39/43/9 95/44/40 96/42/39
f 39/43/9 40/45/41 94/46/41 95/44/40
f 40/45/41 41/47/42 93/48/43 94/46/41
f 41/47/42 42/49/44 92/50/45 93/48/43
f 42/49/44 43/51/46 91/52/47 92/50/45
f 43/51/46 44/53/48 90/54/49 91/52/47
f 44/53/48 25/55/50 89/56/51 90/54/49
f 26/57/3 25/58/8 65/59/3
f 27/60/3 26/57/3 65/59/3
f 28/61/8 27/60/3 65/59/3
f 29/62/3 28/61/8 65/59/3
f 30/63/3 29/62/3 65/59/3
f 31/64/3 30/63/3 65/59/3
f 32/65/3 31/64/3 65/59/3
f 33/66/3 32/65/3 65/59/3
f 34/67/3 33/66/3 65/59/3
f 35/68/3 34/67/3 65/59/3
f 36/69/3 35/68/3 65/59/3
f 37/70/8 36/69/3 65/59/3
f 38/71/3 37/70/8 65/59/3
f 39/35/3 38/71/3 65/59/3
f 40/72/3 39/35/3 65/59/3
f 41/73/3 40/72/3 65/59/3
f 42/74/8 41/73/3 65/59/3
f 43/75/3 42/74/8 65/59/3
f 44/76/3 43/75/3 65/59/3
f 25/58/8 44/76/3 65/59/3
f 234/15/15 235/16/15 297/17/15 298/18/15
f 235/16/16 236/19/17 296/20/127 297/17/19
f 236/19/17 237/21/20 295/22/128 296/20/127
f 237/21/20 238/23/129 314/24/130 295/22/128
f 238/23/129 239/25/24 313/26/25 314/24/130
f 239/25/24 240/27/131 312/28/132 313/26/25
f 240/27/131 241/29/28 311/30/29 312/28/132
f 241/29/28 242/31/30 310/32/133 311/30/29
f 242/31/30 243/33/32 309/34/134 310/32/133
f 243/33/32 244/35/34 308/36/35 309/34/134
f 244/35/34 245/37/36 307/38/135 308/36/35
f 245/37/36 246/39/38 306/40/136 307/38/135
f 246/39/38 247/41/39 305/42/39 306/40/136
f 247/41/39 248/43/9 304/44/9 305/42/39
f 248/43/9 249/45/41 303/46/137 304/44/9
f 249/45/41 250/47/42 302/48/138 303/46/137
f 250/47/42 251/49/44 301/50/44 302/48/138
f 251/49/44 252/51/139 300/52/47 301/50/44
f 252/51/139 253/53/48 299/54/49 300/52/47
f 253/53/48 234/55/140 298/56/51 299/54/49
f 235/57/3 234/58/3 274/59/3
f 236/60/3 235/57/3 274/59/3
f 237/61/3 236/60/3 274/59/3
f 238/62/3 237/61/3 274/59/3
f 239/63/3 238/62/3 274/59/3
f 240/64/3 239/63/3 274/59/3
f 241/65/3 240/64/3 274/59/3
f 242/66/8 241/65/3 274/59/3
f 243/67/3 242/66/8 274/59/3
f 244/68/3 243/67/3 274/59/3
f 245/69/3 244/68/3 274/59/3
f 246/70/3 245/69/3 274/59/3
f 247/71/3 246/70/3 274/59/3
f 248/35/3 247/71/3 274/59/3
f 249/72/3 248/35/3 274/59/3
f 250/73/3 249/72/3 274/59/3
f 251/74/3 250/73/3 274/59/3
f 252/75/3 251/74/3 274/59/3
f 253/76/3 252/75/3 274/59/3
f 234/58/3 253/76/3 274/59/3
f 323/138/163 324/139/163 325/140/163 326/141/163
f 324/139/9 327/142/164 328/143/165 325/140/9
f 329/144/166 330/145/167 331/146/167
f 332/147/168 333/148/169 334/149/169 335/150/170
f 333/148/169 337/151/171 338/152/171 334/149/169
f 327/142/164 339/153/172 340/154/173 328/143/165
f 337/151/171 341/155/174 342/156/174 338/152/171
f 341/155/174 345/157/175 346/158/175 342/156/174
f 345/159/175 349/160/9 350/161/9 346/162/175
f 349/160/9 351/163/176 352/164/176 350/161/9
f 353/165/177 354/166/178 355/167/179 356/168/177
f 357/169/180 353/165/177 356/168/177 358/170/180
f 351/163/176 359/171/181 360/172/181 352/164/176
f 359/171/181 357/169/180 358/170/180 360/172/181
f 347/173/9 361/174/182 362/175/183 348/176/9
f 339/153/172 363/177/184 329/178/184 331/179/184 340/154/173
f 330/145/167 332/147/168 335/150/170 366/180/185 326/181/185 325/182/185 328/183/185 340/184/185 331/146/167
f 326/141/186 366/185/187 365/186/187 323/138/188
f 375/187/189 372/188/189 367/189/190 368/190/190
f 369/191/191 371/192/192 376/193/192 370/194/191
f 371/192/192 374/195/193 377/196/193 376/193/192
f 374/195/194 373/197/194 378/198/194 377/196/194
f 373/197/195 372/188/189 375/187/189 378/198/195
f 384/199/196 383/200/197 395/201/198 394/202/199
f 383/200/197 382/203/200 396/204/201 395/201/198
f 382/203/200 381/205/202 397/206/203 396/204/201
f 381/207/202 380/208/204 398/209/205 397/210/203
f 380/208/206 379/211/1 399/212/207 398/209/205
f 394/202/199 393/213/208 402/214/209 401/215/210
f 393/213/208 392/216/211 403/217/212 402/214/209
f 392/216/211 391/218/213 404/219/214 403/217/212
f 391/220/213 390/221/215 405/222/216 404/223/214
f 390/221/215 389/224/217 400/225/218 405/222/216
f 411/226/219 410/227/220 414/228/221 413/229/222
f 410/227/220 409/3/223 415/230/224 414/228/221
f 409/3/223 408/231/225 416/232/226 415/233/224
f 408/231/225 407/234/227 417/235/228 416/232/226
f 407/234/227 406/236/229 412/237/230 417/235/228
f 423/238/231 422/239/232 426/240/233 425/241/234
f 422/239/232 421/4/235 427/14/236 426/240/233
f 421/4/235 420/4/237 428/242/238 427/6/236
f 420/4/237 419/243/239 429/244/240 428/242/238
f 419/243/239 418/245/241 424/246/242 429/244/240
f 434/247/243 433/248/244 445/249/245 444/250/246
f 433/248/244 432/251/247 446/252/248 445/249/245
f 432/251/247 431/253/249 447/254/250 446/252/248
f 431/255/249 430/256/251 448/257/252 447/258/250
f 430/256/251 344/259/253 449/260/254 448/257/252
f 444/250/246 443/261/255 450/262/256 455/263/257
f 443/261/255 442/264/258 451/265/259 450/262/256
f 442/264/258 441/266/260 452/267/261 451/265/259
f 441/268/260 440/269/262 453/270/262 452/271/261
f 440/269/263 439/272/264 454/273/1 453/270/265
f 384/199/196 394/202/199 401/215/210 336/274/266
f 418/245/241 369/191/267 370/194/267 424/246/242
f 364/275/268 343/276/184 434/247/243 444/250/246 455/263/257
f 366/277/14 335/278/14 334/279/14 338/280/14 342/281/14 346/282/14 350/283/14 352/284/14 360/285/14 358/286/14 356/287/14 355/288/14 400/225/218 389/224/217 423/238/231 425/241/234 365/289/14
f 449/260/254 344/259/253 354/290/10 353/291/10 357/292/10 359/293/10 351/294/10 349/295/10 345/296/10 341/297/10 337/298/10 333/299/10 332/300/10 330/301/10 329/302/10 363/303/10 412/237/230 406/236/229
f 367/189/269 411/226/219 413/229/222 368/190/269
f 371/192/1 369/191/1 418/245/117 399/212/207 379/211/1 348/304/1 362/305/1 454/273/1 439/272/264 411/226/264 367/189/1 372/188/1 373/197/1 374/195/1
f 336/274/266 347/173/9 348/176/9 379/306/163 380/307/163 381/205/202 382/203/200 383/200/197 384/199/196
f 400/308/270 355/167/179 354/166/178 344/309/271 343/310/270 364/311/270 361/312/270 347/313/270 336/314/270 401/315/270 402/316/270 403/316/270 404/317/270 405/316/270
f 424/246/3 370/194/3 376/193/3 377/196/3 378/198/3 375/187/3 368/190/3 413/229/3 414/228/3 415/230/3 416/316/3 417/316/3 412/318/3 363/319/3 339/320/3 327/321/3 324/322/3 323/323/3 365/324/3 425/325/3 426/316/3 427/6/3 428/242/3 429/244/3
f 430/326/272 431/327/272 432/328/272 433/329/272 434/330/272 343/310/270 344/309/271
f 450/262/256 451/265/259 452/267/261 453/331/273 454/332/273 362/175/183 361/174/182 364/275/268 455/263/257
f 410/227/274 411/226/264 439/272/264 438/333/275
f 409/3/276 410/227/274 438/333/275 437/334/277
f 408/231/278 409/3/276 437/334/277 436/335/279
f 406/236/229 407/234/227 435/336/280 449/260/254
f 407/234/227 408/231/278 436/335/279 435/336/280
f 389/224/217 388/337/281 422/239/232 423/238/231
f 388/337/281 387/338/282 421/4/283 422/239/232
f 387/338/282 386/339/284 420/4/285 421/4/283
f 386/339/284 385/340/286 419/243/287 420/4/285
f 385/340/286 399/212/207 418/245/117 419/243/287
f 398/209/205 399/212/207 385/340/286 456/341/288
f 456/341/288 385/340/286 386/339/284 457/342/289
f 457/342/289 386/339/284 387/338/282 458/343/290
f 458/343/290 387/338/282 388/337/281 459/344/291
f 388/337/281 389/224/217 390/221/215 459/344/291
f 459/344/291 390/221/215 391/220/213 460/345/292
f 460/346/292 391/218/213 392/216/211 461/347/293
f 461/347/293 392/216/211 393/213/208 462/348/294
f 393/213/208 394/202/199 395/201/198 462/348/294
f 462/348/294 395/201/198 396/204/201 463/349/295
f 463/349/295 396/204/201 397/206/203 464/350/296
f 464/351/296 397/210/203 398/209/205 456/341/288
f 464/351/296 456/341/288 457/342/289 465/352/297
f 465/352/297 457/342/289 458/343/290 466/353/298
f 458/343/290 459/344/291 460/345/292 466/353/298
f 466/354/298 460/346/292 461/347/293 467/355/299
f 461/347/293 462/348/294 463/349/295 467/355/299
f 467/355/299 463/349/295 464/350/296 465/356/297
f 465/356/297 466/354/298 467/355/299
f 448/257/252 449/260/254 435/336/280 468/357/300
f 468/357/300 435/336/280 436/335/279 469/358/301
f 469/358/301 436/335/279 437/334/277 470/359/302
f 470/359/302 437/334/277 438/333/275 471/360/303
f 438/333/275 439/272/264 440/269/263 471/360/303
f 471/360/303 440/269/263 441/268/260 472/361/304
f 472/362/304 441/266/260 442/264/258 473/363/305
f 473/363/305 442/264/258 443/261/255 474/364/306
f 443/261/255 444/250/246 445/249/245 474/364/306
f 474/364/306 445/249/245 446/252/248 475/365/307
f 475/365/307 446/252/248 447/254/250 476/366/308
f 476/367/308 447/258/250 448/257/252 468/357/300
f 476/367/308 468/357/300 469/358/301 477/368/309
f 477/368/309 469/358/301 470/359/302 478/369/310
f 470/359/302 471/360/303 472/361/304 478/369/310
f 478/370/310 472/362/304 473/363/305 479/371/311
f 473/363/305 474/364/306 475/365/307 479/371/311
f 479/371/311 475/365/307 476/366/308 477/372/309
f 477/372/309 478/370/310 479/371/311
f 550/1/1 551/2/1 553/3/1 552/4/1
f 552/4/7 553/3/7 555/5/7 554/6/7
f 554/6/3 555/5/3 557/7/3 556/8/3
f 556/8/9 557/7/9 551/9/9 550/10/9
f 551/2/333 557/11/333 555/12/333 553/3/333
f 556/13/334 550/1/334 552/4/334 554/14/334
usemtl fachada:lambert95SG.001
f 85/77/52 66/78/53 67/79/54 68/80/55 69/81/56 70/82/57 71/83/58 72/84/59 73/85/60 74/86/61 75/87/62 76/88/63 77/89/1 78/90/1 79/91/1 80/92/1 81/93/1 82/94/1 83/95/1 84/96/64
f 294/77/52 275/78/141 276/79/54 277/80/55 278/81/142 279/82/143 280/83/58 281/84/59 282/85/144 283/86/145 284/87/146 285/88/63 286/89/1 287/90/1 288/91/1 289/92/1 290/93/1 291/94/1 292/95/117 293/96/64
usemtl fachada:lambert91SG.001
f 64/97/65 45/98/66 66/78/53 85/77/52
f 45/98/66 46/99/67 67/79/54 66/78/53
f 46/99/67 47/100/68 68/80/55 67/79/54
f 47/100/68 48/101/69 69/81/56 68/80/55
f 48/101/69 49/102/70 70/82/57 69/81/56
f 49/102/70 50/103/71 71/83/58 70/82/57
f 50/103/71 51/104/72 72/84/59 71/83/58
f 51/104/72 52/105/73 73/85/60 72/84/59
f 52/105/73 53/106/74 74/86/61 73/85/60
f 53/106/74 54/107/75 75/87/62 74/86/61
f 54/107/75 55/108/76 76/88/63 75/87/62
f 55/108/76 56/109/1 77/89/1 76/88/63
f 56/109/1 57/110/1 78/90/1 77/89/1
f 57/110/1 58/111/1 79/91/1 78/90/1
f 58/111/1 59/112/77 80/92/1 79/91/1
f 59/112/77 60/113/1 81/93/1 80/92/1
f 60/113/1 61/114/1 82/94/1 81/93/1
f 61/114/1 62/115/1 83/95/1 82/94/1
f 62/115/1 63/116/78 84/96/64 83/95/1
f 63/116/78 64/97/65 85/77/52 84/96/64
f 87/20/18 86/22/21 48/117/79 47/118/80
f 88/17/19 87/20/18 47/118/80 46/119/81
f 89/18/51 88/17/19 46/119/81 45/120/82
f 90/54/49 89/56/51 45/121/82 64/122/83
f 91/52/47 90/54/49 64/122/83 63/123/84
f 92/50/45 91/52/47 63/123/84 62/124/85
f 93/48/43 92/50/45 62/124/85 61/125/86
f 94/46/41 93/48/43 61/125/86 60/126/87
f 95/44/40 94/46/41 60/126/87 59/127/88
f 96/42/39 95/44/40 59/127/88 58/128/39
f 97/40/38 96/42/39 58/128/39 57/129/89
f 98/38/37 97/40/38 57/129/89 56/130/90
f 99/36/35 98/38/37 56/130/90 55/131/91
f 100/34/33 99/36/35 55/131/91 54/132/92
f 101/32/31 100/34/33 54/132/92 53/133/93
f 102/30/29 101/32/31 53/133/93 52/134/94
f 103/28/27 102/30/29 52/134/94 51/135/95
f 104/26/25 103/28/27 51/135/95 50/136/96
f 105/24/23 104/26/25 50/136/96 49/137/7
f 86/22/21 105/24/23 49/137/7 48/117/79
f 273/97/65 254/98/66 275/78/141 294/77/52
f 254/98/66 255/99/67 276/79/54 275/78/141
f 255/99/67 256/100/147 277/80/55 276/79/54
f 256/100/147 257/101/148 278/81/142 277/80/55
f 257/101/148 258/102/149 279/82/143 278/81/142
f 258/102/149 259/103/150 280/83/58 279/82/143
f 259/103/150 260/104/151 281/84/59 280/83/58
f 260/104/151 261/105/73 282/85/144 281/84/59
f 261/105/73 262/106/74 283/86/145 282/85/144
f 262/106/74 263/107/75 284/87/146 283/86/145
f 263/107/75 264/108/152 285/88/63 284/87/146
f 264/108/152 265/109/1 286/89/1 285/88/63
f 265/109/1 266/110/1 287/90/1 286/89/1
f 266/110/1 267/111/1 288/91/1 287/90/1
f 267/111/1 268/112/77 289/92/1 288/91/1
f 268/112/77 269/113/1 290/93/1 289/92/1
f 269/113/1 270/114/117 291/94/1 290/93/1
f 270/114/117 271/115/117 292/95/117 291/94/1
f 271/115/117 272/116/153 293/96/64 292/95/117
f 272/116/153 273/97/65 294/77/52 293/96/64
f 296/20/127 295/22/128 257/117/79 256/118/154
f 297/17/19 296/20/127 256/118/154 255/119/155
f 298/18/51 297/17/19 255/119/155 254/120/156
f 299/54/49 298/56/51 254/121/156 273/122/83
f 300/52/47 299/54/49 273/122/83 272/123/84
f 301/50/44 300/52/47 272/123/84 271/124/44
f 302/48/138 301/50/44 271/124/44 270/125/157
f 303/46/137 302/48/138 270/125/157 269/126/158
f 304/44/9 303/46/137 269/126/158 268/127/4
f 305/42/39 304/44/9 268/127/4 267/128/39
f 306/40/136 305/42/39 267/128/39 266/129/159
f 307/38/135 306/40/136 266/129/159 265/130/160
f 308/36/35 307/38/135 265/130/160 264/131/91
f 309/34/134 308/36/35 264/131/91 263/132/92
f 310/32/133 309/34/134 263/132/92 262/133/161
f 311/30/29 310/32/133 262/133/161 261/134/162
f 312/28/132 311/30/29 261/134/162 260/135/95
f 313/26/25 312/28/132 260/135/95 259/136/96
f 314/24/130 313/26/25 259/136/96 258/137/7
f 295/22/128 314/24/130 258/137/7 257/117/79
usemtl fachada:lambert89SG.001
f 114/1/1 115/2/1 117/3/1 116/4/1
f 116/4/101 117/3/101 119/5/101 118/6/101
f 118/6/3 119/5/3 121/7/3 120/8/3
f 120/8/4 121/7/4 115/9/4 114/10/4
f 115/2/102 121/11/102 119/12/102 117/3/102
f 120/13/103 114/1/103 116/4/103 118/14/103
usemtl fachada:lambert87SG.001
f 146/1/1 147/2/1 149/3/1 148/4/1
f 148/4/7 149/3/7 151/5/7 150/6/7
f 150/6/3 151/5/3 153/7/3 152/8/3
f 152/8/88 153/7/88 147/9/88 146/10/88
f 147/2/10 153/11/10 151/12/10 149/3/10
f 152/13/112 146/1/112 148/4/112 150/14/112
f 178/1/9 179/2/9 181/3/9 180/4/9
f 180/4/1 181/3/1 183/5/1 182/6/1
f 182/6/119 183/5/119 185/7/119 184/8/119
f 184/8/3 185/7/3 179/9/3 178/10/3
f 179/2/13 185/11/13 183/12/13 181/3/13
f 184/13/14 178/1/14 180/4/14 182/14/14
f 210/1/1 211/2/1 213/3/1 212/4/1
f 212/4/101 213/3/101 215/5/101 214/6/101
f 214/6/3 215/5/3 217/7/3 216/8/3
f 216/8/9 217/7/9 211/9/9 210/10/9
f 211/2/10 217/11/10 215/12/10 213/3/10
f 216/13/112 210/1/112 212/4/112 214/14/112
f 480/66/3 481/65/3 482/59/3
f 483/67/3 480/66/3 482/59/3
f 481/65/3 484/64/3 482/59/3
f 485/105/1 486/106/1 487/373/1
f 486/106/1 488/107/1 487/373/1
f 489/104/1 485/105/1 487/373/1
f 484/64/3 490/63/3 482/59/3
f 491/103/1 489/104/1 487/373/1
f 490/63/3 492/62/3 482/59/3
f 493/102/1 491/103/1 487/373/1
f 492/62/3 494/61/3 482/59/3
f 495/101/1 493/102/1 487/373/1
f 496/374/3 482/59/3 497/375/312
f 497/375/312 482/59/3 498/376/8
f 498/376/8 482/59/3 499/377/3
f 500/378/313 487/373/1 501/379/77
f 494/61/3 502/60/3 482/59/3
f 499/377/3 482/59/3 503/380/8
f 503/380/8 482/59/3 504/381/3
f 504/381/3 482/59/3 505/382/8
f 506/383/117 487/373/1 500/378/313
f 481/29/314 480/31/315 486/133/316 485/134/314
f 505/382/8 482/59/3 507/384/3
f 508/385/1 487/373/1 506/383/117
f 509/100/1 495/101/1 487/373/1
f 510/386/1 487/373/1 508/385/1
f 511/387/117 487/373/1 510/386/1
f 507/384/3 482/59/3 512/388/3
f 513/389/317 487/373/1 511/387/117
f 480/31/315 483/33/318 488/132/319 486/133/316
f 484/27/320 481/29/314 485/134/314 489/135/320
f 514/390/1 487/373/1 513/389/317
f 502/60/3 515/57/3 482/59/3
f 516/391/1 487/373/1 514/390/1
f 517/392/321 488/132/319 483/33/318 518/393/321
f 519/99/1 509/100/1 487/373/1
f 515/57/3 520/58/3 482/59/3
f 490/25/322 484/27/320 489/135/320 491/136/323
f 521/98/1 519/99/1 487/373/1
f 520/58/3 522/76/3 482/59/3
f 523/97/1 521/98/1 487/373/1
f 492/23/7 490/25/322 491/136/323 493/137/7
f 518/394/3 483/67/3 482/59/3 496/374/3
f 501/379/77 487/373/1 488/107/1 517/395/77
f 494/21/324 492/23/7 493/137/7 495/117/324
f 502/19/325 494/21/324 495/117/324 509/118/326
f 515/16/327 502/19/325 509/118/326 519/119/327
f 512/388/3 482/59/3 522/76/3 524/396/3
f 525/397/1 523/97/1 487/373/1 516/391/1
f 520/15/328 515/16/327 519/119/327 521/120/329
f 522/53/330 520/55/328 521/121/329 523/122/330
f 524/398/331 522/53/330 523/122/330 525/399/331
f 511/400/9 510/401/9 508/402/9 506/403/9 500/404/9 501/405/9 517/406/9 518/407/9 496/408/9 497/409/9 498/410/9 499/411/9 503/412/9 504/413/9 505/414/9 507/415/9 512/416/9 524/417/9 525/418/9 516/419/9 514/420/9 513/421/9
usemtl fachada:lambert93SG.001
f 534/422/1 535/423/1 537/424/1 536/425/1
f 536/426/7 537/427/7 539/428/7 538/429/7
f 538/430/3 539/431/3 541/432/3 540/433/3
f 540/434/9 541/435/9 535/436/9 534/437/9
f 535/438/5 541/439/5 539/440/5 537/441/5
f 540/442/116 534/443/116 536/444/116 538/445/116
