# Blender 5.1.0
# www.blender.org
mtllib MesaG.mtl
o Cilindro.001
v 1.700000 3.520702 -0.750000
v 1.700000 4.320702 -0.750000
v 1.709755 3.520702 -0.749039
v 1.709755 4.320702 -0.749039
v 1.719134 3.520702 -0.746194
v 1.719134 4.320702 -0.746194
v 1.727779 3.520702 -0.741573
v 1.727779 4.320702 -0.741573
v 1.735355 3.520702 -0.735355
v 1.735355 4.320702 -0.735355
v 1.741574 3.520702 -0.727778
v 1.741574 4.320702 -0.727778
v 1.746194 3.520702 -0.719134
v 1.746194 4.320702 -0.719134
v 1.749039 3.520702 -0.709755
v 1.749039 4.320702 -0.709755
v 1.750000 3.520702 -0.700000
v 1.750000 4.320702 -0.700000
v 1.749039 3.520702 -0.690245
v 1.749039 4.320702 -0.690245
v 1.746194 3.520702 -0.680866
v 1.746194 4.320702 -0.680866
v 1.741574 3.520702 -0.672221
v 1.741574 4.320702 -0.672221
v 1.735355 3.520702 -0.664645
v 1.735355 4.320702 -0.664645
v 1.727779 3.520702 -0.658427
v 1.727779 4.320702 -0.658427
v 1.719134 3.520702 -0.653806
v 1.719134 4.320702 -0.653806
v 1.709755 3.520702 -0.650961
v 1.709755 4.320702 -0.650961
v 1.700000 3.520702 -0.650000
v 1.700000 4.320702 -0.650000
v 1.690246 3.520702 -0.650961
v 1.690246 4.320702 -0.650961
v 1.680866 3.520702 -0.653806
v 1.680866 4.320702 -0.653806
v 1.672222 3.520702 -0.658427
v 1.672222 4.320702 -0.658427
v 1.664645 3.520702 -0.664645
v 1.664645 4.320702 -0.664645
v 1.658427 3.520702 -0.672221
v 1.658427 4.320702 -0.672221
v 1.653806 3.520702 -0.680866
v 1.653806 4.320702 -0.680866
v 1.650961 3.520702 -0.690245
v 1.650961 4.320702 -0.690245
v 1.650000 3.520702 -0.700000
v 1.650000 4.320702 -0.700000
v 1.650961 3.520702 -0.709755
v 1.650961 4.320702 -0.709755
v 1.653806 3.520702 -0.719134
v 1.653806 4.320702 -0.719134
v 1.658427 3.520702 -0.727778
v 1.658427 4.320702 -0.727778
v 1.664645 3.520702 -0.735355
v 1.664645 4.320702 -0.735355
v 1.672222 3.520702 -0.741573
v 1.672222 4.320702 -0.741573
v 1.680866 3.520702 -0.746194
v 1.680866 4.320702 -0.746194
v 1.690246 3.520702 -0.749039
v 1.690246 4.320702 -0.749039
v 2.000000 4.359375 -1.000000
v 2.000000 4.339375 -1.000000
v 2.000000 4.359375 1.000000
v 2.000000 4.339375 1.000000
v -2.000000 4.359375 -1.000000
v -2.000000 4.339375 -1.000000
v -2.000000 4.359375 1.000000
v -2.000000 4.339375 1.000000
v -1.700000 3.520702 -0.750000
v -1.700000 4.320702 -0.750000
v -1.690245 3.520702 -0.749039
v -1.690245 4.320702 -0.749039
v -1.680866 3.520702 -0.746194
v -1.680866 4.320702 -0.746194
v -1.672221 3.520702 -0.741573
v -1.672221 4.320702 -0.741573
v -1.664645 3.520702 -0.735355
v -1.664645 4.320702 -0.735355
v -1.658427 3.520702 -0.727778
v -1.658427 4.320702 -0.727778
v -1.653806 3.520702 -0.719134
v -1.653806 4.320702 -0.719134
v -1.650961 3.520702 -0.709755
v -1.650961 4.320702 -0.709755
v -1.650000 3.520702 -0.700000
v -1.650000 4.320702 -0.700000
v -1.650961 3.520702 -0.690245
v -1.650961 4.320702 -0.690245
v -1.653806 3.520702 -0.680866
v -1.653806 4.320702 -0.680866
v -1.658427 3.520702 -0.672221
v -1.658427 4.320702 -0.672221
v -1.664645 3.520702 -0.664645
v -1.664645 4.320702 -0.664645
v -1.672221 3.520702 -0.658427
v -1.672221 4.320702 -0.658427
v -1.680866 3.520702 -0.653806
v -1.680866 4.320702 -0.653806
v -1.690245 3.520702 -0.650961
v -1.690245 4.320702 -0.650961
v -1.700000 3.520702 -0.650000
v -1.700000 4.320702 -0.650000
v -1.709754 3.520702 -0.650961
v -1.709754 4.320702 -0.650961
v -1.719134 3.520702 -0.653806
v -1.719134 4.320702 -0.653806
v -1.727779 3.520702 -0.658427
v -1.727779 4.320702 -0.658427
v -1.735355 3.520702 -0.664645
v -1.735355 4.320702 -0.664645
v -1.741573 3.520702 -0.672221
v -1.741573 4.320702 -0.672221
v -1.746194 3.520702 -0.680866
v -1.746194 4.320702 -0.680866
v -1.749039 3.520702 -0.690245
v -1.749039 4.320702 -0.690245
v -1.750000 3.520702 -0.700000
v -1.750000 4.320702 -0.700000
v -1.749039 3.520702 -0.709755
v -1.749039 4.320702 -0.709755
v -1.746194 3.520702 -0.719134
v -1.746194 4.320702 -0.719134
v -1.741573 3.520702 -0.727778
v -1.741573 4.320702 -0.727778
v -1.735355 3.520702 -0.735355
v -1.735355 4.320702 -0.735355
v -1.727779 3.520702 -0.741573
v -1.727779 4.320702 -0.741573
v -1.719134 3.520702 -0.746194
v -1.719134 4.320702 -0.746194
v -1.709754 3.520702 -0.749039
v -1.709754 4.320702 -0.749039
v -1.700000 3.520702 0.650000
v -1.700000 4.320702 0.650000
v -1.690245 3.520702 0.650961
v -1.690245 4.320702 0.650961
v -1.680866 3.520702 0.653806
v -1.680866 4.320702 0.653806
v -1.672221 3.520702 0.658426
v -1.672221 4.320702 0.658426
v -1.664645 3.520702 0.664645
v -1.664645 4.320702 0.664645
v -1.658427 3.520702 0.672221
v -1.658427 4.320702 0.672221
v -1.653806 3.520702 0.680866
v -1.653806 4.320702 0.680866
v -1.650961 3.520702 0.690245
v -1.650961 4.320702 0.690245
v -1.650000 3.520702 0.700000
v -1.650000 4.320702 0.700000
v -1.650961 3.520702 0.709755
v -1.650961 4.320702 0.709755
v -1.653806 3.520702 0.719134
v -1.653806 4.320702 0.719134
v -1.658427 3.520702 0.727779
v -1.658427 4.320702 0.727779
v -1.664645 3.520702 0.735355
v -1.664645 4.320702 0.735355
v -1.672221 3.520702 0.741574
v -1.672221 4.320702 0.741574
v -1.680866 3.520702 0.746194
v -1.680866 4.320702 0.746194
v -1.690245 3.520702 0.749039
v -1.690245 4.320702 0.749039
v -1.700000 3.520702 0.750000
v -1.700000 4.320702 0.750000
v -1.709754 3.520702 0.749039
v -1.709754 4.320702 0.749039
v -1.719134 3.520702 0.746194
v -1.719134 4.320702 0.746194
v -1.727779 3.520702 0.741574
v -1.727779 4.320702 0.741574
v -1.735355 3.520702 0.735355
v -1.735355 4.320702 0.735355
v -1.741573 3.520702 0.727779
v -1.741573 4.320702 0.727779
v -1.746194 3.520702 0.719134
v -1.746194 4.320702 0.719134
v -1.749039 3.520702 0.709755
v -1.749039 4.320702 0.709755
v -1.750000 3.520702 0.700000
v -1.750000 4.320702 0.700000
v -1.749039 3.520702 0.690245
v -1.749039 4.320702 0.690245
v -1.746194 3.520702 0.680866
v -1.746194 4.320702 0.680866
v -1.741573 3.520702 0.672221
v -1.741573 4.320702 0.672221
v -1.735355 3.520702 0.664645
v -1.735355 4.320702 0.664645
v -1.727779 3.520702 0.658426
v -1.727779 4.320702 0.658426
v -1.719134 3.520702 0.653806
v -1.719134 4.320702 0.653806
v -1.709754 3.520702 0.650961
v -1.709754 4.320702 0.650961
v 1.700000 3.520702 0.650000
v 1.700000 4.320702 0.650000
v 1.709755 3.520702 0.650961
v 1.709755 4.320702 0.650961
v 1.719134 3.520702 0.653806
v 1.719134 4.320702 0.653806
v 1.727779 3.520702 0.658426
v 1.727779 4.320702 0.658426
v 1.735355 3.520702 0.664645
v 1.735355 4.320702 0.664645
v 1.741574 3.520702 0.672221
v 1.741574 4.320702 0.672221
v 1.746194 3.520702 0.680866
v 1.746194 4.320702 0.680866
v 1.749039 3.520702 0.690245
v 1.749039 4.320702 0.690245
v 1.750000 3.520702 0.700000
v 1.750000 4.320702 0.700000
v 1.749039 3.520702 0.709755
v 1.749039 4.320702 0.709755
v 1.746194 3.520702 0.719134
v 1.746194 4.320702 0.719134
v 1.741574 3.520702 0.727779
v 1.741574 4.320702 0.727779
v 1.735355 3.520702 0.735355
v 1.735355 4.320702 0.735355
v 1.727779 3.520702 0.741574
v 1.727779 4.320702 0.741574
v 1.719134 3.520702 0.746194
v 1.719134 4.320702 0.746194
v 1.709755 3.520702 0.749039
v 1.709755 4.320702 0.749039
v 1.700000 3.520702 0.750000
v 1.700000 4.320702 0.750000
v 1.690246 3.520702 0.749039
v 1.690246 4.320702 0.749039
v 1.680866 3.520702 0.746194
v 1.680866 4.320702 0.746194
v 1.672222 3.520702 0.741574
v 1.672222 4.320702 0.741574
v 1.664645 3.520702 0.735355
v 1.664645 4.320702 0.735355
v 1.658427 3.520702 0.727779
v 1.658427 4.320702 0.727779
v 1.653806 3.520702 0.719134
v 1.653806 4.320702 0.719134
v 1.650961 3.520702 0.709755
v 1.650961 4.320702 0.709755
v 1.650000 3.520702 0.700000
v 1.650000 4.320702 0.700000
v 1.650961 3.520702 0.690245
v 1.650961 4.320702 0.690245
v 1.653806 3.520702 0.680866
v 1.653806 4.320702 0.680866
v 1.658427 3.520702 0.672221
v 1.658427 4.320702 0.672221
v 1.664645 3.520702 0.664645
v 1.664645 4.320702 0.664645
v 1.672222 3.520702 0.658426
v 1.672222 4.320702 0.658426
v 1.680866 3.520702 0.653806
v 1.680866 4.320702 0.653806
v 1.690246 3.520702 0.650961
v 1.690246 4.320702 0.650961
vn 0.0980 -0.0000 -0.9952
vn 0.2903 -0.0000 -0.9569
vn 0.4714 -0.0000 -0.8819
vn 0.6344 -0.0000 -0.7730
vn 0.7730 -0.0000 -0.6344
vn 0.8819 -0.0000 -0.4714
vn 0.9569 -0.0000 -0.2903
vn 0.9952 -0.0000 -0.0980
vn 0.9952 -0.0000 0.0980
vn 0.9569 -0.0000 0.2903
vn 0.8819 -0.0000 0.4714
vn 0.7730 -0.0000 0.6344
vn 0.6344 -0.0000 0.7730
vn 0.4714 -0.0000 0.8819
vn 0.2903 -0.0000 0.9569
vn 0.0980 -0.0000 0.9952
vn -0.0980 -0.0000 0.9952
vn -0.2903 -0.0000 0.9569
vn -0.4714 -0.0000 0.8819
vn -0.6344 -0.0000 0.7730
vn -0.7730 -0.0000 0.6344
vn -0.8819 -0.0000 0.4714
vn -0.9569 -0.0000 0.2903
vn -0.9952 -0.0000 0.0980
vn -0.9952 -0.0000 -0.0980
vn -0.9569 -0.0000 -0.2903
vn -0.8819 -0.0000 -0.4714
vn -0.7730 -0.0000 -0.6344
vn -0.6344 -0.0000 -0.7730
vn -0.4714 -0.0000 -0.8819
vn -0.0000 1.0000 -0.0000
vn -0.2903 -0.0000 -0.9569
vn -0.0980 -0.0000 -0.9952
vn -0.0000 -1.0000 -0.0000
vn -0.0000 -0.0000 1.0000
vn -1.0000 -0.0000 -0.0000
vn 1.0000 -0.0000 -0.0000
vn -0.0000 -0.0000 -1.0000
vt 1.000000 0.500000
vt 1.000000 1.000000
vt 0.968750 1.000000
vt 0.968750 0.500000
vt 0.937500 1.000000
vt 0.937500 0.500000
vt 0.906250 1.000000
vt 0.906250 0.500000
vt 0.875000 1.000000
vt 0.875000 0.500000
vt 0.843750 1.000000
vt 0.843750 0.500000
vt 0.812500 1.000000
vt 0.812500 0.500000
vt 0.781250 1.000000
vt 0.781250 0.500000
vt 0.750000 1.000000
vt 0.750000 0.500000
vt 0.718750 1.000000
vt 0.718750 0.500000
vt 0.687500 1.000000
vt 0.687500 0.500000
vt 0.656250 1.000000
vt 0.656250 0.500000
vt 0.625000 1.000000
vt 0.625000 0.500000
vt 0.593750 1.000000
vt 0.593750 0.500000
vt 0.562500 1.000000
vt 0.562500 0.500000
vt 0.531250 1.000000
vt 0.531250 0.500000
vt 0.500000 1.000000
vt 0.500000 0.500000
vt 0.468750 1.000000
vt 0.468750 0.500000
vt 0.437500 1.000000
vt 0.437500 0.500000
vt 0.406250 1.000000
vt 0.406250 0.500000
vt 0.375000 1.000000
vt 0.375000 0.500000
vt 0.343750 1.000000
vt 0.343750 0.500000
vt 0.312500 1.000000
vt 0.312500 0.500000
vt 0.281250 1.000000
vt 0.281250 0.500000
vt 0.250000 1.000000
vt 0.250000 0.500000
vt 0.218750 1.000000
vt 0.218750 0.500000
vt 0.187500 1.000000
vt 0.187500 0.500000
vt 0.156250 1.000000
vt 0.156250 0.500000
vt 0.125000 1.000000
vt 0.125000 0.500000
vt 0.093750 1.000000
vt 0.093750 0.500000
vt 0.062500 1.000000
vt 0.062500 0.500000
vt 0.296822 0.485388
vt 0.250000 0.490000
vt 0.203178 0.485388
vt 0.158156 0.471731
vt 0.116663 0.449553
vt 0.080294 0.419706
vt 0.050447 0.383337
vt 0.028269 0.341844
vt 0.014612 0.296822
vt 0.010000 0.250000
vt 0.014612 0.203178
vt 0.028269 0.158156
vt 0.050447 0.116663
vt 0.080294 0.080294
vt 0.116663 0.050447
vt 0.158156 0.028269
vt 0.203178 0.014612
vt 0.250000 0.010000
vt 0.296822 0.014612
vt 0.341844 0.028269
vt 0.383337 0.050447
vt 0.419706 0.080294
vt 0.449553 0.116663
vt 0.471731 0.158156
vt 0.485388 0.203178
vt 0.490000 0.250000
vt 0.485388 0.296822
vt 0.471731 0.341844
vt 0.449553 0.383337
vt 0.419706 0.419706
vt 0.383337 0.449553
vt 0.341844 0.471731
vt 0.031250 1.000000
vt 0.031250 0.500000
vt 0.000000 1.000000
vt 0.000000 0.500000
vt 0.750000 0.490000
vt 0.796822 0.485388
vt 0.841844 0.471731
vt 0.883337 0.449553
vt 0.919706 0.419706
vt 0.949553 0.383337
vt 0.971731 0.341844
vt 0.985388 0.296822
vt 0.990000 0.250000
vt 0.985388 0.203178
vt 0.971731 0.158156
vt 0.949553 0.116663
vt 0.919706 0.080294
vt 0.883337 0.050447
vt 0.841844 0.028269
vt 0.796822 0.014612
vt 0.750000 0.010000
vt 0.703178 0.014612
vt 0.658156 0.028269
vt 0.616663 0.050447
vt 0.580294 0.080294
vt 0.550447 0.116663
vt 0.528269 0.158156
vt 0.514612 0.203178
vt 0.510000 0.250000
vt 0.514612 0.296822
vt 0.528269 0.341844
vt 0.550447 0.383337
vt 0.580294 0.419706
vt 0.616663 0.449553
vt 0.658156 0.471731
vt 0.703178 0.485388
vt 0.000000 0.000000
s 0
usemtl Material.001
f 1/1/1 2/2/1 4/3/1 3/4/1
f 3/4/2 4/3/2 6/5/2 5/6/2
f 5/6/3 6/5/3 8/7/3 7/8/3
f 7/8/4 8/7/4 10/9/4 9/10/4
f 9/10/5 10/9/5 12/11/5 11/12/5
f 11/12/6 12/11/6 14/13/6 13/14/6
f 13/14/7 14/13/7 16/15/7 15/16/7
f 15/16/8 16/15/8 18/17/8 17/18/8
f 17/18/9 18/17/9 20/19/9 19/20/9
f 19/20/10 20/19/10 22/21/10 21/22/10
f 21/22/11 22/21/11 24/23/11 23/24/11
f 23/24/12 24/23/12 26/25/12 25/26/12
f 25/26/13 26/25/13 28/27/13 27/28/13
f 27/28/14 28/27/14 30/29/14 29/30/14
f 29/30/15 30/29/15 32/31/15 31/32/15
f 31/32/16 32/31/16 34/33/16 33/34/16
f 33/34/17 34/33/17 36/35/17 35/36/17
f 35/36/18 36/35/18 38/37/18 37/38/18
f 37/38/19 38/37/19 40/39/19 39/40/19
f 39/40/20 40/39/20 42/41/20 41/42/20
f 41/42/21 42/41/21 44/43/21 43/44/21
f 43/44/22 44/43/22 46/45/22 45/46/22
f 45/46/23 46/45/23 48/47/23 47/48/23
f 47/48/24 48/47/24 50/49/24 49/50/24
f 49/50/25 50/49/25 52/51/25 51/52/25
f 51/52/26 52/51/26 54/53/26 53/54/26
f 53/54/27 54/53/27 56/55/27 55/56/27
f 55/56/28 56/55/28 58/57/28 57/58/28
f 57/58/29 58/57/29 60/59/29 59/60/29
f 59/60/30 60/59/30 62/61/30 61/62/30
f 4/63/31 2/64/31 64/65/31 62/66/31 60/67/31 58/68/31 56/69/31 54/70/31 52/71/31 50/72/31 48/73/31 46/74/31 44/75/31 42/76/31 40/77/31 38/78/31 36/79/31 34/80/31 32/81/31 30/82/31 28/83/31 26/84/31 24/85/31 22/86/31 20/87/31 18/88/31 16/89/31 14/90/31 12/91/31 10/92/31 8/93/31 6/94/31
f 61/62/32 62/61/32 64/95/32 63/96/32
f 63/96/33 64/95/33 2/97/33 1/98/33
f 1/99/34 3/100/34 5/101/34 7/102/34 9/103/34 11/104/34 13/105/34 15/106/34 17/107/34 19/108/34 21/109/34 23/110/34 25/111/34 27/112/34 29/113/34 31/114/34 33/115/34 35/116/34 37/117/34 39/118/34 41/119/34 43/120/34 45/121/34 47/122/34 49/123/34 51/124/34 53/125/34 55/126/34 57/127/34 59/128/34 61/129/34 63/130/34
f 73/1/1 74/2/1 76/3/1 75/4/1
f 75/4/2 76/3/2 78/5/2 77/6/2
f 77/6/3 78/5/3 80/7/3 79/8/3
f 79/8/4 80/7/4 82/9/4 81/10/4
f 81/10/5 82/9/5 84/11/5 83/12/5
f 83/12/6 84/11/6 86/13/6 85/14/6
f 85/14/7 86/13/7 88/15/7 87/16/7
f 87/16/8 88/15/8 90/17/8 89/18/8
f 89/18/9 90/17/9 92/19/9 91/20/9
f 91/20/10 92/19/10 94/21/10 93/22/10
f 93/22/11 94/21/11 96/23/11 95/24/11
f 95/24/12 96/23/12 98/25/12 97/26/12
f 97/26/13 98/25/13 100/27/13 99/28/13
f 99/28/14 100/27/14 102/29/14 101/30/14
f 101/30/15 102/29/15 104/31/15 103/32/15
f 103/32/16 104/31/16 106/33/16 105/34/16
f 105/34/17 106/33/17 108/35/17 107/36/17
f 107/36/18 108/35/18 110/37/18 109/38/18
f 109/38/19 110/37/19 112/39/19 111/40/19
f 111/40/20 112/39/20 114/41/20 113/42/20
f 113/42/21 114/41/21 116/43/21 115/44/21
f 115/44/22 116/43/22 118/45/22 117/46/22
f 117/46/23 118/45/23 120/47/23 119/48/23
f 119/48/24 120/47/24 122/49/24 121/50/24
f 121/50/25 122/49/25 124/51/25 123/52/25
f 123/52/26 124/51/26 126/53/26 125/54/26
f 125/54/27 126/53/27 128/55/27 127/56/27
f 127/56/28 128/55/28 130/57/28 129/58/28
f 129/58/29 130/57/29 132/59/29 131/60/29
f 131/60/30 132/59/30 134/61/30 133/62/30
f 76/63/31 74/64/31 136/65/31 134/66/31 132/67/31 130/68/31 128/69/31 126/70/31 124/71/31 122/72/31 120/73/31 118/74/31 116/75/31 114/76/31 112/77/31 110/78/31 108/79/31 106/80/31 104/81/31 102/82/31 100/83/31 98/84/31 96/85/31 94/86/31 92/87/31 90/88/31 88/89/31 86/90/31 84/91/31 82/92/31 80/93/31 78/94/31
f 133/62/32 134/61/32 136/95/32 135/96/32
f 135/96/33 136/95/33 74/97/33 73/98/33
f 73/99/34 75/100/34 77/101/34 79/102/34 81/103/34 83/104/34 85/105/34 87/106/34 89/107/34 91/108/34 93/109/34 95/110/34 97/111/34 99/112/34 101/113/34 103/114/34 105/115/34 107/116/34 109/117/34 111/118/34 113/119/34 115/120/34 117/121/34 119/122/34 121/123/34 123/124/34 125/125/34 127/126/34 129/127/34 131/128/34 133/129/34 135/130/34
f 137/1/1 138/2/1 140/3/1 139/4/1
f 139/4/2 140/3/2 142/5/2 141/6/2
f 141/6/3 142/5/3 144/7/3 143/8/3
f 143/8/4 144/7/4 146/9/4 145/10/4
f 145/10/5 146/9/5 148/11/5 147/12/5
f 147/12/6 148/11/6 150/13/6 149/14/6
f 149/14/7 150/13/7 152/15/7 151/16/7
f 151/16/8 152/15/8 154/17/8 153/18/8
f 153/18/9 154/17/9 156/19/9 155/20/9
f 155/20/10 156/19/10 158/21/10 157/22/10
f 157/22/11 158/21/11 160/23/11 159/24/11
f 159/24/12 160/23/12 162/25/12 161/26/12
f 161/26/13 162/25/13 164/27/13 163/28/13
f 163/28/14 164/27/14 166/29/14 165/30/14
f 165/30/15 166/29/15 168/31/15 167/32/15
f 167/32/16 168/31/16 170/33/16 169/34/16
f 169/34/17 170/33/17 172/35/17 171/36/17
f 171/36/18 172/35/18 174/37/18 173/38/18
f 173/38/19 174/37/19 176/39/19 175/40/19
f 175/40/20 176/39/20 178/41/20 177/42/20
f 177/42/21 178/41/21 180/43/21 179/44/21
f 179/44/22 180/43/22 182/45/22 181/46/22
f 181/46/23 182/45/23 184/47/23 183/48/23
f 183/48/24 184/47/24 186/49/24 185/50/24
f 185/50/25 186/49/25 188/51/25 187/52/25
f 187/52/26 188/51/26 190/53/26 189/54/26
f 189/54/27 190/53/27 192/55/27 191/56/27
f 191/56/28 192/55/28 194/57/28 193/58/28
f 193/58/29 194/57/29 196/59/29 195/60/29
f 195/60/30 196/59/30 198/61/30 197/62/30
f 140/63/31 138/64/31 200/65/31 198/66/31 196/67/31 194/68/31 192/69/31 190/70/31 188/71/31 186/72/31 184/73/31 182/74/31 180/75/31 178/76/31 176/77/31 174/78/31 172/79/31 170/80/31 168/81/31 166/82/31 164/83/31 162/84/31 160/85/31 158/86/31 156/87/31 154/88/31 152/89/31 150/90/31 148/91/31 146/92/31 144/93/31 142/94/31
f 197/62/32 198/61/32 200/95/32 199/96/32
f 199/96/33 200/95/33 138/97/33 137/98/33
f 137/99/34 139/100/34 141/101/34 143/102/34 145/103/34 147/104/34 149/105/34 151/106/34 153/107/34 155/108/34 157/109/34 159/110/34 161/111/34 163/112/34 165/113/34 167/114/34 169/115/34 171/116/34 173/117/34 175/118/34 177/119/34 179/120/34 181/121/34 183/122/34 185/123/34 187/124/34 189/125/34 191/126/34 193/127/34 195/128/34 197/129/34 199/130/34
f 201/1/1 202/2/1 204/3/1 203/4/1
f 203/4/2 204/3/2 206/5/2 205/6/2
f 205/6/3 206/5/3 208/7/3 207/8/3
f 207/8/4 208/7/4 210/9/4 209/10/4
f 209/10/5 210/9/5 212/11/5 211/12/5
f 211/12/6 212/11/6 214/13/6 213/14/6
f 213/14/7 214/13/7 216/15/7 215/16/7
f 215/16/8 216/15/8 218/17/8 217/18/8
f 217/18/9 218/17/9 220/19/9 219/20/9
f 219/20/10 220/19/10 222/21/10 221/22/10
f 221/22/11 222/21/11 224/23/11 223/24/11
f 223/24/12 224/23/12 226/25/12 225/26/12
f 225/26/13 226/25/13 228/27/13 227/28/13
f 227/28/14 228/27/14 230/29/14 229/30/14
f 229/30/15 230/29/15 232/31/15 231/32/15
f 231/32/16 232/31/16 234/33/16 233/34/16
f 233/34/17 234/33/17 236/35/17 235/36/17
f 235/36/18 236/35/18 238/37/18 237/38/18
f 237/38/19 238/37/19 240/39/19 239/40/19
f 239/40/20 240/39/20 242/41/20 241/42/20
f 241/42/21 242/41/21 244/43/21 243/44/21
f 243/44/22 244/43/22 246/45/22 245/46/22
f 245/46/23 246/45/23 248/47/23 247/48/23
f 247/48/24 248/47/24 250/49/24 249/50/24
f 249/50/25 250/49/25 252/51/25 251/52/25
f 251/52/26 252/51/26 254/53/26 253/54/26
f 253/54/27 254/53/27 256/55/27 255/56/27
f 255/56/28 256/55/28 258/57/28 257/58/28
f 257/58/29 258/57/29 260/59/29 259/60/29
f 259/60/30 260/59/30 262/61/30 261/62/30
f 204/63/31 202/64/31 264/65/31 262/66/31 260/67/31 258/68/31 256/69/31 254/70/31 252/71/31 250/72/31 248/73/31 246/74/31 244/75/31 242/76/31 240/77/31 238/78/31 236/79/31 234/80/31 232/81/31 230/82/31 228/83/31 226/84/31 224/85/31 222/86/31 220/87/31 218/88/31 216/89/31 214/90/31 212/91/31 210/92/31 208/93/31 206/94/31
f 261/62/32 262/61/32 264/95/32 263/96/32
f 263/96/33 264/95/33 202/97/33 201/98/33
f 201/99/34 203/100/34 205/101/34 207/102/34 209/103/34 211/104/34 213/105/34 215/106/34 217/107/34 219/108/34 221/109/34 223/110/34 225/111/34 227/112/34 229/113/34 231/114/34 233/115/34 235/116/34 237/117/34 239/118/34 241/119/34 243/120/34 245/121/34 247/122/34 249/123/34 251/124/34 253/125/34 255/126/34 257/127/34 259/128/34 261/129/34 263/130/34
usemtl Material
f 65/131/31 69/131/31 71/131/31 67/131/31
f 68/131/35 67/131/35 71/131/35 72/131/35
f 72/131/36 71/131/36 69/131/36 70/131/36
f 70/131/34 66/131/34 68/131/34 72/131/34
f 66/131/37 65/131/37 67/131/37 68/131/37
f 70/131/38 69/131/38 65/131/38 66/131/38
