# Blender 5.1.0
# www.blender.org
mtllib ZonaFI.mtl
o Cuarto
v 7.457549 -0.082128 11.341607
v 7.457549 0.082128 11.341607
v -7.457549 -0.082128 11.341607
v 7.457549 -0.082128 11.119783
v -7.457549 -0.082128 11.119783
v 7.457549 0.082128 11.119783
v -7.457549 5.507242 11.119783
v -7.457549 5.507242 11.341607
v 7.457549 5.507242 11.341607
v 7.457549 5.507242 11.119783
v -7.457549 5.507242 11.119783
v -7.457549 5.507242 11.341607
v 7.457549 5.507242 11.341607
v 7.457549 5.507242 11.119783
v 7.457549 5.576876 11.341607
v 7.457549 5.576876 11.119783
v -7.457549 5.919436 11.119783
v 7.457549 5.919436 11.341607
v 7.457549 5.919436 11.119783
v 7.457549 5.778382 11.341607
v 7.457549 5.778382 11.119783
v -7.457549 5.778382 11.119783
v 7.457549 5.919436 3.881541
v -7.457549 5.919436 3.881541
v -7.457549 5.778382 3.881541
v 7.457549 5.778382 3.881541
v 7.457549 5.919436 -7.436320
v -7.457549 5.919436 -7.436320
v -7.457549 5.778382 -7.436320
v 7.457549 5.778382 -7.436320
v 7.457549 5.919436 -9.728028
v -7.457549 5.919436 -9.728028
v -7.457549 5.778382 -9.728028
v 7.457549 5.778382 -9.728028
v 7.457549 5.919436 -11.245709
v -7.457549 5.919436 -11.245709
v -7.457549 5.778382 -11.245709
v 7.457549 5.778382 -11.245709
v -0.145614 -0.082128 11.341607
v -0.145614 0.082128 11.341607
v -0.145614 0.082128 11.119783
v -0.145614 -0.082128 11.119783
v -0.145614 5.507242 11.341607
v -0.145614 5.507242 11.119783
v -0.145614 5.507242 11.341607
v -0.145614 5.507242 11.119783
v -0.145614 5.576876 11.341607
v -0.145614 5.576876 11.119783
v -0.145614 5.919436 11.341607
v -0.145614 5.919436 11.119783
v -0.145614 5.778382 11.341607
v -0.145614 5.778382 11.119783
v -0.145614 5.919436 3.881541
v -0.145614 5.778382 3.881541
v -0.145614 5.919436 -7.436320
v -0.145614 5.778382 -7.436320
v -0.145614 5.919436 -9.728028
v -0.145614 5.778382 -9.728028
v -0.145614 5.919436 -11.245709
v -0.145614 5.778382 -11.245709
vn -0.0000 -1.0000 -0.0000
vn 1.0000 -0.0000 -0.0000
vn -0.0000 1.0000 -0.0000
vn -0.0000 -0.0000 -1.0000
vn -1.0000 -0.0000 -0.0000
vn -0.0000 -0.0000 1.0000
vt 0.752441 0.747555
vt 0.752441 0.750000
vt 0.875000 0.750000
vt 0.875000 0.747555
vt 0.375000 0.747555
vt 0.375000 0.750000
vt 0.625000 0.750000
vt 0.625000 0.747555
vt 0.247559 0.747555
vt 0.375000 0.000000
vt 0.375000 0.002445
vt 0.375000 0.877441
vt 0.375000 1.000000
vt 0.375000 0.747555
vt 0.247559 0.750000
vt 0.247559 0.747555
vt 0.125000 0.747555
vt 0.125000 0.747555
vt 0.625000 0.877441
s 0
usemtl Material.011
f 42/1/1 39/2/1 3/3/1 5/4/1
f 6/5/2 10/5/2 9/6/2 2/6/2
f 6/5/2 2/6/2 1/7/2 4/8/2
f 10/5/3 14/5/3 13/6/3 9/6/3
f 41/9/4 44/9/4 10/5/4 6/5/4
f 46/9/4 48/9/4 16/5/4 14/5/4
f 8/10/3 12/10/3 11/11/3 7/11/3
f 44/9/3 46/9/3 14/5/3 10/5/3
f 43/12/3 45/12/3 12/13/3 8/13/3
f 21/14/2 19/5/2 18/6/2 20/6/2
f 14/5/2 16/5/2 15/6/2 13/6/2
f 50/9/3 49/15/3 18/6/3 19/5/3
f 21/14/2 26/14/2 23/5/2 19/5/2
f 48/9/4 52/16/4 21/14/4 16/5/4
f 16/5/2 21/14/2 20/6/2 15/6/2
f 26/14/2 30/14/2 27/5/2 23/5/2
f 50/9/3 53/9/3 24/17/3 17/17/3
f 17/11/5 24/11/5 25/11/5 22/11/5
f 52/16/1 54/16/1 26/14/1 21/14/1
f 56/16/1 58/16/1 34/14/1 30/14/1
f 53/9/3 55/9/3 28/17/3 24/17/3
f 54/16/1 56/16/1 30/14/1 26/14/1
f 24/11/5 28/11/5 29/11/5 25/11/5
f 34/14/2 38/14/2 35/5/2 31/5/2
f 28/11/5 32/11/5 33/11/5 29/11/5
f 30/14/2 34/14/2 31/5/2 27/5/2
f 55/9/3 57/9/3 32/17/3 28/17/3
f 60/16/4 59/9/4 35/5/4 38/14/4
f 57/9/3 59/9/3 36/17/3 32/17/3
f 58/16/1 60/16/1 38/14/1 34/14/1
f 32/11/5 36/11/5 37/11/5 33/11/5
f 33/18/1 37/18/1 60/16/1 58/16/1
f 31/5/3 35/5/3 59/9/3 57/9/3
f 37/18/4 36/17/4 59/9/4 60/16/4
f 27/5/3 31/5/3 57/9/3 55/9/3
f 25/18/1 29/18/1 56/16/1 54/16/1
f 23/5/3 27/5/3 55/9/3 53/9/3
f 29/18/1 33/18/1 58/16/1 56/16/1
f 22/18/1 25/18/1 54/16/1 52/16/1
f 19/5/3 23/5/3 53/9/3 50/9/3
f 15/6/6 20/6/6 51/12/6 47/12/6
f 20/6/6 18/6/6 49/12/6 51/12/6
f 13/6/6 15/6/6 47/12/6 45/12/6
f 9/6/3 13/6/3 45/12/3 43/12/3
f 7/17/3 11/17/3 46/9/3 44/9/3
f 2/6/6 9/6/6 43/12/6 40/12/6
f 2/6/6 40/12/6 39/19/6 1/7/6
f 4/8/1 1/7/1 39/2/1 42/1/1
o Escalera
v -3.528470 0.064775 -10.600058
v -3.528470 0.282446 -10.600058
v -3.528470 0.064775 -5.483391
v -3.528470 0.282446 -5.483391
v 2.082991 0.064775 -10.600058
v 2.082991 0.282446 -10.600058
v 2.082991 0.064775 -5.483391
v 2.082991 0.282446 -5.483391
v -3.528470 0.064775 -5.845884
v -3.528470 0.282446 -5.845884
v 2.082991 0.064775 -5.845884
v 2.082991 0.282446 -5.845884
v -3.528470 0.064775 -6.228755
v 2.082991 0.282446 -6.228755
v -3.528470 0.282446 -6.228755
v 2.082991 0.064775 -6.228755
v -3.528470 0.064775 -6.603818
v 2.082991 0.282446 -6.603818
v -3.528470 0.282446 -6.603818
v 2.082991 0.064775 -6.603818
v -3.528470 0.064775 -6.949491
v 2.082991 0.282446 -6.949491
v -3.528470 0.282446 -6.949491
v 2.082991 0.064775 -6.949491
v -3.528470 0.064775 -7.305098
v 2.082991 0.282446 -7.305098
v -3.528470 0.282446 -7.305098
v 2.082991 0.064775 -7.305098
v -3.528470 0.064775 -7.716192
v 2.082991 0.282446 -7.716192
v -3.528470 0.282446 -7.716192
v 2.082991 0.064775 -7.716192
v -3.528470 0.064775 -8.124737
v 2.082991 0.282446 -8.124737
v -3.528470 0.282446 -8.124737
v 2.082991 0.064775 -8.124737
v -3.528470 0.064775 -8.503632
v 2.082991 0.282446 -8.503632
v -3.528470 0.282446 -8.503631
v 2.082991 0.064775 -8.503631
v -3.528470 0.064775 -8.883177
v 2.082991 0.282446 -8.883177
v -3.528470 0.282446 -8.883177
v 2.082991 0.064775 -8.883177
v -3.528470 0.064775 -9.260968
v 2.082991 0.282446 -9.260968
v -3.528470 0.282446 -9.260968
v 2.082991 0.064775 -9.260968
v -3.528470 0.585617 -5.845884
v -3.528470 0.585617 -5.483391
v 2.082991 0.585617 -5.483391
v 2.082991 0.585617 -5.845884
v -3.528470 0.891192 -6.228755
v -3.528470 0.891192 -5.845884
v 2.082991 0.891192 -5.845884
v 2.082991 0.891192 -6.228755
v -3.528470 1.184065 -6.603818
v -3.528470 1.184065 -6.228755
v 2.082991 1.184065 -6.228755
v 2.082991 1.184065 -6.603818
v -3.528470 1.491838 -6.949491
v -3.528470 1.491838 -6.603818
v 2.082991 1.491838 -6.603818
v 2.082991 1.491838 -6.949491
v -3.528470 1.787783 -7.305098
v -3.528470 1.787783 -6.949491
v 2.082991 1.787783 -6.949491
v 2.082991 1.787783 -7.305098
v -3.528470 2.084009 -7.716192
v -3.528470 2.084009 -7.305098
v 2.082991 2.084009 -7.305098
v 2.082991 2.084009 -7.716192
v -3.528470 2.484931 -8.124737
v -3.528470 2.484931 -7.716192
v 2.082991 2.484931 -7.716192
v 2.082991 2.484931 -8.124737
v -3.528470 2.682421 -8.503631
v -3.528470 2.682421 -8.124737
v 2.082991 2.682421 -8.124737
v 2.082991 2.682421 -8.503632
v -3.528470 2.983676 -8.883177
v -3.528470 2.983676 -8.503631
v 2.082991 2.983676 -8.503632
v 2.082991 2.983676 -8.883177
v -3.528470 3.284117 -9.260968
v -3.528470 3.284117 -8.883177
v 2.082991 3.284117 -8.883177
v 2.082991 3.284117 -9.260968
v 2.082991 3.591775 -9.260968
v 2.082991 3.591775 -10.600058
v -3.528470 3.591775 -10.600058
v -3.528470 3.591775 -9.260968
v 3.872894 0.282446 -9.260968
v 3.872894 0.282446 -10.600058
v 3.872894 3.591775 -9.260968
v 3.872894 3.591775 -10.600058
v 4.744479 0.282446 -9.260968
v 4.744479 0.282446 -10.600058
v 4.744479 3.591775 -9.260968
v 4.744479 3.591775 -10.600058
v 6.453195 0.282446 -9.260968
v 6.453195 0.282446 -10.600058
v 6.453195 3.591775 -9.260968
v 6.453195 3.591775 -10.600058
v -3.528470 0.064775 -10.471948
v 2.082991 0.282446 -10.471948
v 2.082991 0.064775 -10.471948
v 2.082991 3.591775 -10.471948
v -3.528470 3.591775 -10.471948
v 3.872894 0.282446 -10.471948
v 3.872894 3.591775 -10.471948
v 4.744479 0.282446 -10.471948
v 4.744479 3.591775 -10.471948
v 6.453195 0.282446 -10.471948
v 6.453195 3.591775 -10.471948
v 2.082991 4.071143 -10.600058
v -3.528470 4.071143 -10.600058
v 3.872894 4.071143 -10.600058
v 4.744479 4.071143 -10.600058
v 6.453195 4.071143 -10.600058
vn -0.0000 -0.0000 1.0000
vn -0.0000 -0.0000 -1.0000
vn -0.0000 -1.0000 -0.0000
vn -0.0000 1.0000 -0.0000
vt 0.854345 0.004381
vt 0.854345 0.262059
vt 0.844349 0.262059
vt 0.844349 0.004381
vt 0.188353 0.205061
vt 0.188353 0.462739
vt 0.178358 0.462739
vt 0.178358 0.205061
vt 0.426190 0.004381
vt 0.432072 0.004381
vt 0.432072 0.262059
vt 0.426190 0.262059
vt 0.830428 0.262059
vt 0.830428 0.004381
vt 0.197115 0.004381
vt 0.213760 0.004381
vt 0.213760 0.262059
vt 0.197115 0.262059
vt 0.780159 0.995619
vt 0.752206 0.995619
vt 0.752206 0.737941
vt 0.780160 0.737941
vt 0.231342 0.004381
vt 0.231342 0.262059
vt 0.248565 0.004381
vt 0.248565 0.262059
vt 0.264438 0.004381
vt 0.264438 0.262059
vt 0.280768 0.004381
vt 0.280768 0.262059
vt 0.299645 0.004381
vt 0.299645 0.262059
vt 0.318406 0.004381
vt 0.318405 0.262059
vt 0.335804 0.004381
vt 0.335804 0.262059
vt 0.421618 0.729179
vt 0.297577 0.729179
vt 0.297577 0.471501
vt 0.421618 0.471501
vt 0.353233 0.004381
vt 0.353233 0.262059
vt 0.370581 0.004381
vt 0.370581 0.262059
vt 0.889449 0.537261
vt 0.906095 0.537261
vt 0.906095 0.794939
vt 0.889449 0.794939
vt 0.929481 0.794939
vt 0.915559 0.794939
vt 0.915559 0.537261
vt 0.929481 0.537261
vt 0.863106 0.004381
vt 0.880688 0.004381
vt 0.880688 0.262059
vt 0.863106 0.262059
vt 0.816875 0.995619
vt 0.788921 0.995619
vt 0.788921 0.737941
vt 0.816875 0.737941
vt 0.889449 0.270821
vt 0.906672 0.270821
vt 0.906672 0.528499
vt 0.889449 0.528499
vt 0.693280 0.995619
vt 0.651878 0.995619
vt 0.651878 0.737941
vt 0.693281 0.737941
vt 0.743444 0.995619
vt 0.702042 0.995619
vt 0.702042 0.737941
vt 0.743444 0.737941
vt 0.915559 0.270821
vt 0.931432 0.270821
vt 0.931432 0.528499
vt 0.915559 0.528499
vt 0.508567 0.995619
vt 0.453032 0.995619
vt 0.453032 0.737941
vt 0.508567 0.737941
vt 0.572864 0.995619
vt 0.517329 0.995619
vt 0.517329 0.737941
vt 0.572864 0.737941
vt 0.915559 0.004381
vt 0.931888 0.004381
vt 0.931888 0.262059
vt 0.915559 0.262059
vt 0.366384 0.995619
vt 0.297259 0.995619
vt 0.297259 0.737941
vt 0.366384 0.737941
vt 0.444271 0.995619
vt 0.375145 0.995619
vt 0.375145 0.737941
vt 0.444271 0.737941
vt 0.849305 0.528499
vt 0.830428 0.528499
vt 0.830428 0.270821
vt 0.849305 0.270821
vt 0.197008 0.995619
vt 0.114280 0.995619
vt 0.114280 0.737941
vt 0.197008 0.737941
vt 0.288498 0.995619
vt 0.205770 0.995619
vt 0.205770 0.737941
vt 0.288498 0.737941
vt 0.849188 0.794939
vt 0.830428 0.794939
vt 0.830428 0.537261
vt 0.849188 0.537261
vt 0.821666 0.729179
vt 0.720528 0.729179
vt 0.720528 0.471501
vt 0.821666 0.471501
vt 0.105519 0.995619
vt 0.004381 0.995619
vt 0.004381 0.737941
vt 0.105519 0.737941
vt 0.880505 0.794939
vt 0.863106 0.794939
vt 0.863106 0.537261
vt 0.880505 0.537261
vt 0.711767 0.262059
vt 0.601560 0.262059
vt 0.601560 0.004381
vt 0.711767 0.004381
vt 0.711767 0.528499
vt 0.601560 0.528499
vt 0.601560 0.270821
vt 0.711767 0.270821
vt 0.880535 0.528499
vt 0.863106 0.528499
vt 0.863106 0.270821
vt 0.880535 0.270821
vt 0.554420 0.729179
vt 0.430379 0.729179
vt 0.430379 0.471501
vt 0.554420 0.471501
vt 0.906797 0.262059
vt 0.889449 0.262059
vt 0.889449 0.004381
vt 0.906797 0.004381
vt 0.142218 0.729179
vt 0.004381 0.729179
vt 0.004381 0.471501
vt 0.142218 0.471501
vt 0.288816 0.729179
vt 0.150979 0.729179
vt 0.150979 0.471501
vt 0.288816 0.471501
vt 0.592798 0.262059
vt 0.440834 0.262059
vt 0.440834 0.004381
vt 0.592798 0.004381
vt 0.026393 0.462739
vt 0.026393 0.205061
vt 0.026393 0.122868
vt 0.178358 0.122868
vt 0.637234 0.737941
vt 0.637234 0.820133
vt 0.581626 0.820133
vt 0.581626 0.737941
vt 0.637234 0.860156
vt 0.637234 0.938621
vt 0.581626 0.938621
vt 0.581626 0.860156
vt 0.026393 0.082845
vt 0.178358 0.082845
vt 0.026393 0.004381
vt 0.178358 0.004381
vt 0.004381 0.082845
vt 0.004381 0.004381
vt 0.720528 0.082845
vt 0.720528 0.004381
vt 0.776136 0.004381
vt 0.776136 0.082845
vt 0.720528 0.122868
vt 0.776136 0.122868
vt 0.643117 0.820133
vt 0.643117 0.860156
vt 0.643117 0.938621
vt 0.643117 0.737941
vt 0.720528 0.205061
vt 0.776136 0.205061
vt 0.776136 0.462739
vt 0.720528 0.462739
vt 0.004381 0.462739
vt 0.004381 0.205061
vt 0.004381 0.122868
s 0
usemtl Escalera
f 63/20/7 67/21/7 68/22/7 64/23/7
f 65/24/8 61/25/8 62/26/8 66/27/8
f 165/28/9 61/29/9 65/30/9 167/31/9
f 68/22/7 111/32/7 110/33/7 64/23/7
f 63/34/9 69/35/9 71/36/9 67/37/9
f 72/38/7 115/39/7 114/40/7 70/41/7
f 69/35/9 73/42/9 76/43/9 71/36/9
f 73/42/9 77/44/9 80/45/9 76/43/9
f 77/44/9 81/46/9 84/47/9 80/45/9
f 81/46/9 85/48/9 88/49/9 84/47/9
f 85/48/9 89/50/9 92/51/9 88/49/9
f 89/50/9 93/52/9 96/53/9 92/51/9
f 93/52/9 97/54/9 100/55/9 96/53/9
f 98/56/7 143/57/7 142/58/7 99/59/7
f 97/54/9 101/60/9 104/61/9 100/55/9
f 101/60/9 105/62/9 108/63/9 104/61/9
f 111/64/10 112/65/10 109/66/10 110/67/10
f 70/68/8 109/69/8 112/70/8 72/71/8
f 115/72/10 116/73/10 113/74/10 114/75/10
f 75/76/8 113/77/8 116/78/8 74/79/8
f 119/80/10 120/81/10 117/82/10 118/83/10
f 74/84/7 119/85/7 118/86/7 75/87/7
f 79/88/8 117/89/8 120/90/8 78/91/8
f 123/92/10 124/93/10 121/94/10 122/95/10
f 83/96/8 121/97/8 124/98/8 82/99/8
f 78/100/7 123/101/7 122/102/7 79/103/7
f 127/104/10 128/105/10 125/106/10 126/107/10
f 87/108/8 125/109/8 128/110/8 86/111/8
f 82/112/7 127/113/7 126/114/7 83/115/7
f 131/116/10 132/117/10 129/118/10 130/119/10
f 86/120/7 131/121/7 130/122/7 87/123/7
f 91/124/8 129/125/8 132/126/8 90/127/8
f 135/128/10 136/129/10 133/130/10 134/131/10
f 95/132/8 133/133/8 136/134/8 94/135/8
f 90/136/7 135/137/7 134/138/7 91/139/7
f 139/140/10 140/141/10 137/142/10 138/143/10
f 99/144/8 137/145/8 140/146/8 98/147/8
f 94/148/7 139/149/7 138/150/7 95/151/7
f 143/152/10 144/153/10 141/154/10 142/155/10
f 103/156/8 141/157/8 144/158/8 102/159/8
f 147/160/10 148/161/10 145/162/10 146/163/10
f 107/164/8 145/165/8 148/166/8 106/167/8
f 102/168/7 147/169/7 146/170/7 103/171/7
f 106/172/7 149/173/7 152/174/7 107/175/7
f 62/26/8 151/176/8 150/177/8 66/27/8
f 150/177/8 156/178/8 154/179/8 66/27/8
f 166/180/9 170/181/9 153/182/9 106/183/9
f 172/184/9 174/185/9 161/186/9 157/187/9
f 170/181/9 172/184/9 157/187/9 153/182/9
f 156/178/8 160/188/8 158/189/8 154/179/8
f 160/188/8 164/190/8 162/191/8 158/189/8
f 160/188/8 179/192/8 180/193/8 164/190/8
f 159/194/10 163/195/10 175/196/10 173/197/10
f 155/198/10 159/194/10 173/197/10 171/199/10
f 154/200/9 158/201/9 172/184/9 170/181/9
f 158/201/9 162/202/9 174/185/9 172/184/9
f 66/203/9 154/200/9 170/181/9 166/180/9
f 149/204/10 155/198/10 171/199/10 168/205/10
f 149/204/10 168/205/10 169/206/10 152/207/10
f 105/62/9 165/28/9 167/31/9 108/63/9
f 151/176/8 177/208/8 176/209/8 150/177/8
f 150/177/8 176/209/8 178/210/8 156/178/8
f 156/178/8 178/210/8 179/192/8 160/188/8
o Cilindro.002
v -2.014207 0.162874 1.247238
v -2.014207 5.863658 1.247238
v -2.173437 0.162874 1.254825
v -2.173437 5.863658 1.254825
v -2.326548 0.162874 1.277296
v -2.326548 5.863658 1.277296
v -2.467656 0.162874 1.313787
v -2.467656 5.863658 1.313787
v -2.591339 0.162874 1.362895
v -2.591339 5.863658 1.362895
v -2.692842 0.162874 1.422733
v -2.692842 5.863658 1.422733
v -2.768266 0.162874 1.491002
v -2.768266 5.863658 1.491002
v -2.814712 0.162874 1.565078
v -2.814712 5.863658 1.565078
v -2.830395 0.162874 1.642115
v -2.830395 5.863658 1.642115
v -2.814712 0.162874 1.719151
v -2.814712 5.863658 1.719151
v -2.768266 0.162874 1.793227
v -2.768266 5.863658 1.793227
v -2.692842 0.162874 1.861496
v -2.692842 5.863658 1.861496
v -2.591338 0.162874 1.921334
v -2.591338 5.863658 1.921334
v -2.467656 0.162874 1.970442
v -2.467656 5.863658 1.970442
v -2.326548 0.162874 2.006933
v -2.326548 5.863658 2.006933
v -2.173437 0.162874 2.029403
v -2.173437 5.863658 2.029403
v -2.014206 0.162874 2.036991
v -2.014206 5.863658 2.036991
v -1.854976 0.162874 2.029403
v -1.854976 5.863658 2.029403
v -1.701865 0.162874 2.006932
v -1.701865 5.863658 2.006932
v -1.560756 0.162874 1.970442
v -1.560756 5.863658 1.970442
v -1.437074 0.162874 1.921334
v -1.437074 5.863658 1.921334
v -1.335571 0.162874 1.861496
v -1.335571 5.863658 1.861496
v -1.260147 0.162874 1.793227
v -1.260147 5.863658 1.793227
v -1.213701 0.162874 1.719151
v -1.213701 5.863658 1.719151
v -1.198018 0.162874 1.642114
v -1.198018 5.863658 1.642114
v -1.213701 0.162874 1.565077
v -1.213701 5.863658 1.565077
v -1.260147 0.162874 1.491001
v -1.260147 5.863658 1.491001
v -1.335571 0.162874 1.422732
v -1.335571 5.863658 1.422732
v -1.437074 0.162874 1.362894
v -1.437074 5.863658 1.362894
v -1.560757 0.162874 1.313786
v -1.560757 5.863658 1.313786
v -1.701865 0.162874 1.277296
v -1.701865 5.863658 1.277296
v -1.854976 0.162874 1.254825
v -1.854976 5.863658 1.254825
vn -0.0476 -0.0000 -0.9989
vn -0.1452 -0.0000 -0.9894
vn -0.2504 -0.0000 -0.9682
vn -0.3690 -0.0000 -0.9294
vn -0.5078 -0.0000 -0.8615
vn -0.6711 -0.0000 -0.7414
vn -0.8472 -0.0000 -0.5312
vn -0.9799 -0.0000 -0.1995
vn -0.9799 -0.0000 0.1995
vn -0.8472 -0.0000 0.5312
vn -0.6711 -0.0000 0.7414
vn -0.5078 -0.0000 0.8615
vn -0.3690 -0.0000 0.9294
vn -0.2504 -0.0000 0.9682
vn -0.1452 -0.0000 0.9894
vn -0.0476 -0.0000 0.9989
vn 0.0476 -0.0000 0.9989
vn 0.1452 -0.0000 0.9894
vn 0.2504 -0.0000 0.9682
vn 0.3690 -0.0000 0.9294
vn 0.5078 -0.0000 0.8615
vn 0.6711 -0.0000 0.7414
vn 0.8472 -0.0000 0.5312
vn 0.9799 -0.0000 0.1995
vn 0.9799 -0.0000 -0.1995
vn 0.8472 -0.0000 -0.5312
vn 0.6711 -0.0000 -0.7414
vn 0.5078 -0.0000 -0.8615
vn 0.3690 -0.0000 -0.9294
vn 0.2504 -0.0000 -0.9682
vn -0.0000 1.0000 -0.0000
vn 0.1452 -0.0000 -0.9894
vn 0.0476 -0.0000 -0.9989
vn -0.0000 -1.0000 -0.0000
vt 1.000000 0.500000
vt 1.000000 1.000000
vt 0.968750 1.000000
vt 0.968750 0.500000
vt 0.937500 1.000000
vt 0.937500 0.500000
vt 0.906250 1.000000
vt 0.906250 0.500000
vt 0.875000 1.000000
vt 0.875000 0.500000
vt 0.843750 1.000000
vt 0.843750 0.500000
vt 0.812500 1.000000
vt 0.812500 0.500000
vt 0.781250 1.000000
vt 0.781250 0.500000
vt 0.750000 1.000000
vt 0.750000 0.500000
vt 0.718750 1.000000
vt 0.718750 0.500000
vt 0.687500 1.000000
vt 0.687500 0.500000
vt 0.656250 1.000000
vt 0.656250 0.500000
vt 0.625000 1.000000
vt 0.625000 0.500000
vt 0.593750 1.000000
vt 0.593750 0.500000
vt 0.562500 1.000000
vt 0.562500 0.500000
vt 0.531250 1.000000
vt 0.531250 0.500000
vt 0.500000 1.000000
vt 0.500000 0.500000
vt 0.468750 1.000000
vt 0.468750 0.500000
vt 0.437500 1.000000
vt 0.437500 0.500000
vt 0.406250 1.000000
vt 0.406250 0.500000
vt 0.375000 1.000000
vt 0.375000 0.500000
vt 0.343750 1.000000
vt 0.343750 0.500000
vt 0.312500 1.000000
vt 0.312500 0.500000
vt 0.281250 1.000000
vt 0.281250 0.500000
vt 0.250000 1.000000
vt 0.250000 0.500000
vt 0.218750 1.000000
vt 0.218750 0.500000
vt 0.187500 1.000000
vt 0.187500 0.500000
vt 0.156250 1.000000
vt 0.156250 0.500000
vt 0.125000 1.000000
vt 0.125000 0.500000
vt 0.093750 1.000000
vt 0.093750 0.500000
vt 0.062500 1.000000
vt 0.062500 0.500000
vt 0.296822 0.485388
vt 0.250000 0.490000
vt 0.203178 0.485388
vt 0.158156 0.471731
vt 0.116663 0.449553
vt 0.080294 0.419706
vt 0.050447 0.383337
vt 0.028269 0.341844
vt 0.014612 0.296822
vt 0.010000 0.250000
vt 0.014612 0.203178
vt 0.028269 0.158156
vt 0.050447 0.116663
vt 0.080294 0.080294
vt 0.116663 0.050447
vt 0.158156 0.028269
vt 0.203178 0.014612
vt 0.250000 0.010000
vt 0.296822 0.014612
vt 0.341844 0.028269
vt 0.383337 0.050447
vt 0.419706 0.080294
vt 0.449553 0.116663
vt 0.471731 0.158156
vt 0.485388 0.203178
vt 0.490000 0.250000
vt 0.485388 0.296822
vt 0.471731 0.341844
vt 0.449553 0.383337
vt 0.419706 0.419706
vt 0.383337 0.449553
vt 0.341844 0.471731
vt 0.031250 1.000000
vt 0.031250 0.500000
vt 0.000000 1.000000
vt 0.000000 0.500000
vt 0.750000 0.490000
vt 0.796822 0.485388
vt 0.841844 0.471731
vt 0.883337 0.449553
vt 0.919706 0.419706
vt 0.949553 0.383337
vt 0.971731 0.341844
vt 0.985388 0.296822
vt 0.990000 0.250000
vt 0.985388 0.203178
vt 0.971731 0.158156
vt 0.949553 0.116663
vt 0.919706 0.080294
vt 0.883337 0.050447
vt 0.841844 0.028269
vt 0.796822 0.014612
vt 0.750000 0.010000
vt 0.703178 0.014612
vt 0.658156 0.028269
vt 0.616663 0.050447
vt 0.580294 0.080294
vt 0.550447 0.116663
vt 0.528269 0.158156
vt 0.514612 0.203178
vt 0.510000 0.250000
vt 0.514612 0.296822
vt 0.528269 0.341844
vt 0.550447 0.383337
vt 0.580294 0.419706
vt 0.616663 0.449553
vt 0.658156 0.471731
vt 0.703178 0.485388
s 0
usemtl Material.003
f 181/211/11 183/214/11 184/213/11 182/212/11
f 183/214/12 185/216/12 186/215/12 184/213/12
f 185/216/13 187/218/13 188/217/13 186/215/13
f 187/218/14 189/220/14 190/219/14 188/217/14
f 189/220/15 191/222/15 192/221/15 190/219/15
f 191/222/16 193/224/16 194/223/16 192/221/16
f 193/224/17 195/226/17 196/225/17 194/223/17
f 195/226/18 197/228/18 198/227/18 196/225/18
f 197/228/19 199/230/19 200/229/19 198/227/19
f 199/230/20 201/232/20 202/231/20 200/229/20
f 201/232/21 203/234/21 204/233/21 202/231/21
f 203/234/22 205/236/22 206/235/22 204/233/22
f 205/236/23 207/238/23 208/237/23 206/235/23
f 207/238/24 209/240/24 210/239/24 208/237/24
f 209/240/25 211/242/25 212/241/25 210/239/25
f 211/242/26 213/244/26 214/243/26 212/241/26
f 213/244/27 215/246/27 216/245/27 214/243/27
f 215/246/28 217/248/28 218/247/28 216/245/28
f 217/248/29 219/250/29 220/249/29 218/247/29
f 219/250/30 221/252/30 222/251/30 220/249/30
f 221/252/31 223/254/31 224/253/31 222/251/31
f 223/254/32 225/256/32 226/255/32 224/253/32
f 225/256/33 227/258/33 228/257/33 226/255/33
f 227/258/34 229/260/34 230/259/34 228/257/34
f 229/260/35 231/262/35 232/261/35 230/259/35
f 231/262/36 233/264/36 234/263/36 232/261/36
f 233/264/37 235/266/37 236/265/37 234/263/37
f 235/266/38 237/268/38 238/267/38 236/265/38
f 237/268/39 239/270/39 240/269/39 238/267/39
f 239/270/40 241/272/40 242/271/40 240/269/40
f 184/273/41 186/304/41 188/303/41 190/302/41 192/301/41 194/300/41 196/299/41 198/298/41 200/297/41 202/296/41 204/295/41 206/294/41 208/293/41 210/292/41 212/291/41 214/290/41 216/289/41 218/288/41 220/287/41 222/286/41 224/285/41 226/284/41 228/283/41 230/282/41 232/281/41 234/280/41 236/279/41 238/278/41 240/277/41 242/276/41 244/275/41 182/274/41
f 241/272/42 243/306/42 244/305/42 242/271/42
f 243/306/43 181/308/43 182/307/43 244/305/43
f 181/309/44 243/340/44 241/339/44 239/338/44 237/337/44 235/336/44 233/335/44 231/334/44 229/333/44 227/332/44 225/331/44 223/330/44 221/329/44 219/328/44 217/327/44 215/326/44 213/325/44 211/324/44 209/323/44 207/322/44 205/321/44 203/320/44 201/319/44 199/318/44 197/317/44 195/316/44 193/315/44 191/314/44 189/313/44 187/312/44 185/311/44 183/310/44
o Cilindro.001
v -6.597697 0.099613 1.648073
v -6.597697 5.800397 1.648073
v -6.605284 0.099613 1.488843
v -6.605284 5.800397 1.488843
v -6.627755 0.099613 1.335732
v -6.627755 5.800397 1.335732
v -6.664246 0.099613 1.194623
v -6.664246 5.800397 1.194623
v -6.713354 0.099613 1.070941
v -6.713354 5.800397 1.070941
v -6.773192 0.099613 0.969438
v -6.773192 5.800397 0.969438
v -6.841461 0.099613 0.894014
v -6.841461 5.800397 0.894014
v -6.915537 0.099613 0.847568
v -6.915537 5.800397 0.847568
v -6.992573 0.099613 0.831885
v -6.992573 5.800397 0.831885
v -7.069610 0.099613 0.847568
v -7.069610 5.800397 0.847568
v -7.143686 0.099613 0.894014
v -7.143686 5.800397 0.894014
v -7.211955 0.099613 0.969438
v -7.211955 5.800397 0.969438
v -7.271793 0.099613 1.070941
v -7.271793 5.800397 1.070941
v -7.320901 0.099613 1.194623
v -7.320901 5.800397 1.194623
v -7.357391 0.099613 1.335732
v -7.357391 5.800397 1.335732
v -7.379862 0.099613 1.488843
v -7.379862 5.800397 1.488843
v -7.387450 0.099613 1.648073
v -7.387450 5.800397 1.648073
v -7.379862 0.099613 1.807304
v -7.379862 5.800397 1.807304
v -7.357391 0.099613 1.960415
v -7.357391 5.800397 1.960415
v -7.320901 0.099613 2.101523
v -7.320901 5.800397 2.101523
v -7.271793 0.099613 2.225205
v -7.271793 5.800397 2.225205
v -7.211955 0.099613 2.326709
v -7.211955 5.800397 2.326709
v -7.143686 0.099613 2.402133
v -7.143686 5.800397 2.402133
v -7.069610 0.099613 2.448578
v -7.069610 5.800397 2.448578
v -6.992573 0.099613 2.464261
v -6.992573 5.800397 2.464261
v -6.915537 0.099613 2.448578
v -6.915537 5.800397 2.448578
v -6.841461 0.099613 2.402133
v -6.841461 5.800397 2.402133
v -6.773191 0.099613 2.326709
v -6.773191 5.800397 2.326709
v -6.713354 0.099613 2.225205
v -6.713354 5.800397 2.225205
v -6.664246 0.099613 2.101523
v -6.664246 5.800397 2.101523
v -6.627755 0.099613 1.960415
v -6.627755 5.800397 1.960415
v -6.605284 0.099613 1.807304
v -6.605284 5.800397 1.807304
vn 0.9989 -0.0000 -0.0476
vn 0.9894 -0.0000 -0.1452
vn 0.9682 -0.0000 -0.2504
vn 0.9294 -0.0000 -0.3690
vn 0.8615 -0.0000 -0.5078
vn 0.7414 -0.0000 -0.6711
vn 0.5312 -0.0000 -0.8472
vn 0.1995 -0.0000 -0.9799
vn -0.1995 -0.0000 -0.9799
vn -0.5312 -0.0000 -0.8472
vn -0.7414 -0.0000 -0.6711
vn -0.8615 -0.0000 -0.5078
vn -0.9294 -0.0000 -0.3690
vn -0.9682 -0.0000 -0.2504
vn -0.9894 -0.0000 -0.1452
vn -0.9989 -0.0000 -0.0476
vn -0.9989 -0.0000 0.0476
vn -0.9894 -0.0000 0.1452
vn -0.9682 -0.0000 0.2504
vn -0.9294 -0.0000 0.3690
vn -0.8615 -0.0000 0.5078
vn -0.7414 -0.0000 0.6711
vn -0.5312 -0.0000 0.8472
vn -0.1995 -0.0000 0.9799
vn 0.1995 -0.0000 0.9799
vn 0.5312 -0.0000 0.8472
vn 0.7414 -0.0000 0.6711
vn 0.8615 -0.0000 0.5078
vn 0.9294 -0.0000 0.3690
vn 0.9682 -0.0000 0.2504
vn -0.0000 1.0000 -0.0000
vn 0.9894 -0.0000 0.1452
vn 0.9989 -0.0000 0.0476
vn -0.0000 -1.0000 -0.0000
vt 1.000000 0.500000
vt 1.000000 1.000000
vt 0.968750 1.000000
vt 0.968750 0.500000
vt 0.937500 1.000000
vt 0.937500 0.500000
vt 0.906250 1.000000
vt 0.906250 0.500000
vt 0.875000 1.000000
vt 0.875000 0.500000
vt 0.843750 1.000000
vt 0.843750 0.500000
vt 0.812500 1.000000
vt 0.812500 0.500000
vt 0.781250 1.000000
vt 0.781250 0.500000
vt 0.750000 1.000000
vt 0.750000 0.500000
vt 0.718750 1.000000
vt 0.718750 0.500000
vt 0.687500 1.000000
vt 0.687500 0.500000
vt 0.656250 1.000000
vt 0.656250 0.500000
vt 0.625000 1.000000
vt 0.625000 0.500000
vt 0.593750 1.000000
vt 0.593750 0.500000
vt 0.562500 1.000000
vt 0.562500 0.500000
vt 0.531250 1.000000
vt 0.531250 0.500000
vt 0.500000 1.000000
vt 0.500000 0.500000
vt 0.468750 1.000000
vt 0.468750 0.500000
vt 0.437500 1.000000
vt 0.437500 0.500000
vt 0.406250 1.000000
vt 0.406250 0.500000
vt 0.375000 1.000000
vt 0.375000 0.500000
vt 0.343750 1.000000
vt 0.343750 0.500000
vt 0.312500 1.000000
vt 0.312500 0.500000
vt 0.281250 1.000000
vt 0.281250 0.500000
vt 0.250000 1.000000
vt 0.250000 0.500000
vt 0.218750 1.000000
vt 0.218750 0.500000
vt 0.187500 1.000000
vt 0.187500 0.500000
vt 0.156250 1.000000
vt 0.156250 0.500000
vt 0.125000 1.000000
vt 0.125000 0.500000
vt 0.093750 1.000000
vt 0.093750 0.500000
vt 0.062500 1.000000
vt 0.062500 0.500000
vt 0.296822 0.485388
vt 0.250000 0.490000
vt 0.203178 0.485388
vt 0.158156 0.471731
vt 0.116663 0.449553
vt 0.080294 0.419706
vt 0.050447 0.383337
vt 0.028269 0.341844
vt 0.014612 0.296822
vt 0.010000 0.250000
vt 0.014612 0.203178
vt 0.028269 0.158156
vt 0.050447 0.116663
vt 0.080294 0.080294
vt 0.116663 0.050447
vt 0.158156 0.028269
vt 0.203178 0.014612
vt 0.250000 0.010000
vt 0.296822 0.014612
vt 0.341844 0.028269
vt 0.383337 0.050447
vt 0.419706 0.080294
vt 0.449553 0.116663
vt 0.471731 0.158156
vt 0.485388 0.203178
vt 0.490000 0.250000
vt 0.485388 0.296822
vt 0.471731 0.341844
vt 0.449553 0.383337
vt 0.419706 0.419706
vt 0.383337 0.449553
vt 0.341844 0.471731
vt 0.031250 1.000000
vt 0.031250 0.500000
vt 0.000000 1.000000
vt 0.000000 0.500000
vt 0.750000 0.490000
vt 0.796822 0.485388
vt 0.841844 0.471731
vt 0.883337 0.449553
vt 0.919706 0.419706
vt 0.949553 0.383337
vt 0.971731 0.341844
vt 0.985388 0.296822
vt 0.990000 0.250000
vt 0.985388 0.203178
vt 0.971731 0.158156
vt 0.949553 0.116663
vt 0.919706 0.080294
vt 0.883337 0.050447
vt 0.841844 0.028269
vt 0.796822 0.014612
vt 0.750000 0.010000
vt 0.703178 0.014612
vt 0.658156 0.028269
vt 0.616663 0.050447
vt 0.580294 0.080294
vt 0.550447 0.116663
vt 0.528269 0.158156
vt 0.514612 0.203178
vt 0.510000 0.250000
vt 0.514612 0.296822
vt 0.528269 0.341844
vt 0.550447 0.383337
vt 0.580294 0.419706
vt 0.616663 0.449553
vt 0.658156 0.471731
vt 0.703178 0.485388
s 0
usemtl Material.002
f 245/341/45 247/344/45 248/343/45 246/342/45
f 247/344/46 249/346/46 250/345/46 248/343/46
f 249/346/47 251/348/47 252/347/47 250/345/47
f 251/348/48 253/350/48 254/349/48 252/347/48
f 253/350/49 255/352/49 256/351/49 254/349/49
f 255/352/50 257/354/50 258/353/50 256/351/50
f 257/354/51 259/356/51 260/355/51 258/353/51
f 259/356/52 261/358/52 262/357/52 260/355/52
f 261/358/53 263/360/53 264/359/53 262/357/53
f 263/360/54 265/362/54 266/361/54 264/359/54
f 265/362/55 267/364/55 268/363/55 266/361/55
f 267/364/56 269/366/56 270/365/56 268/363/56
f 269/366/57 271/368/57 272/367/57 270/365/57
f 271/368/58 273/370/58 274/369/58 272/367/58
f 273/370/59 275/372/59 276/371/59 274/369/59
f 275/372/60 277/374/60 278/373/60 276/371/60
f 277/374/61 279/376/61 280/375/61 278/373/61
f 279/376/62 281/378/62 282/377/62 280/375/62
f 281/378/63 283/380/63 284/379/63 282/377/63
f 283/380/64 285/382/64 286/381/64 284/379/64
f 285/382/65 287/384/65 288/383/65 286/381/65
f 287/384/66 289/386/66 290/385/66 288/383/66
f 289/386/67 291/388/67 292/387/67 290/385/67
f 291/388/68 293/390/68 294/389/68 292/387/68
f 293/390/69 295/392/69 296/391/69 294/389/69
f 295/392/70 297/394/70 298/393/70 296/391/70
f 297/394/71 299/396/71 300/395/71 298/393/71
f 299/396/72 301/398/72 302/397/72 300/395/72
f 301/398/73 303/400/73 304/399/73 302/397/73
f 303/400/74 305/402/74 306/401/74 304/399/74
f 248/403/75 250/434/75 252/433/75 254/432/75 256/431/75 258/430/75 260/429/75 262/428/75 264/427/75 266/426/75 268/425/75 270/424/75 272/423/75 274/422/75 276/421/75 278/420/75 280/419/75 282/418/75 284/417/75 286/416/75 288/415/75 290/414/75 292/413/75 294/412/75 296/411/75 298/410/75 300/409/75 302/408/75 304/407/75 306/406/75 308/405/75 246/404/75
f 305/402/76 307/436/76 308/435/76 306/401/76
f 307/436/77 245/438/77 246/437/77 308/435/77
f 245/439/78 307/470/78 305/469/78 303/468/78 301/467/78 299/466/78 297/465/78 295/464/78 293/463/78 291/462/78 289/461/78 287/460/78 285/459/78 283/458/78 281/457/78 279/456/78 277/455/78 275/454/78 273/453/78 271/452/78 269/451/78 267/450/78 265/449/78 263/448/78 261/447/78 259/446/78 257/445/78 255/444/78 253/443/78 251/442/78 249/441/78 247/440/78
o Cilindro.003
v 3.645868 0.087189 0.895829
v 3.645868 5.787973 0.895829
v 3.486637 0.087189 0.903416
v 3.486637 5.787973 0.903416
v 3.333526 0.087189 0.925887
v 3.333526 5.787973 0.925887
v 3.192418 0.087189 0.962378
v 3.192418 5.787973 0.962378
v 3.068736 0.087189 1.011486
v 3.068736 5.787973 1.011486
v 2.967232 0.087189 1.071324
v 2.967232 5.787973 1.071324
v 2.891808 0.087189 1.139593
v 2.891808 5.787973 1.139593
v 2.845363 0.087189 1.213669
v 2.845363 5.787973 1.213669
v 2.829680 0.087189 1.290705
v 2.829680 5.787973 1.290705
v 2.845363 0.087189 1.367742
v 2.845363 5.787973 1.367742
v 2.891809 0.087189 1.441818
v 2.891809 5.787973 1.441818
v 2.967232 0.087189 1.510087
v 2.967232 5.787973 1.510087
v 3.068736 0.087189 1.569925
v 3.068736 5.787973 1.569925
v 3.192418 0.087189 1.619033
v 3.192418 5.787973 1.619033
v 3.333526 0.087189 1.655524
v 3.333526 5.787973 1.655524
v 3.486638 0.087189 1.677994
v 3.486638 5.787973 1.677994
v 3.645868 0.087189 1.685582
v 3.645868 5.787973 1.685582
v 3.805098 0.087189 1.677994
v 3.805098 5.787973 1.677994
v 3.958210 0.087189 1.655523
v 3.958210 5.787973 1.655523
v 4.099318 0.087189 1.619033
v 4.099318 5.787973 1.619033
v 4.223000 0.087189 1.569925
v 4.223000 5.787973 1.569925
v 4.324503 0.087189 1.510087
v 4.324503 5.787973 1.510087
v 4.399927 0.087189 1.441818
v 4.399927 5.787973 1.441818
v 4.446373 0.087189 1.367741
v 4.446373 5.787973 1.367741
v 4.462056 0.087189 1.290705
v 4.462056 5.787973 1.290705
v 4.446373 0.087189 1.213668
v 4.446373 5.787973 1.213668
v 4.399927 0.087189 1.139592
v 4.399927 5.787973 1.139592
v 4.324503 0.087189 1.071323
v 4.324503 5.787973 1.071323
v 4.223000 0.087189 1.011485
v 4.223000 5.787973 1.011485
v 4.099318 0.087189 0.962377
v 4.099318 5.787973 0.962377
v 3.958210 0.087189 0.925887
v 3.958210 5.787973 0.925887
v 3.805098 0.087189 0.903416
v 3.805098 5.787973 0.903416
vn -0.0476 -0.0000 -0.9989
vn -0.1452 -0.0000 -0.9894
vn -0.2504 -0.0000 -0.9682
vn -0.3690 -0.0000 -0.9294
vn -0.5078 -0.0000 -0.8615
vn -0.6711 -0.0000 -0.7414
vn -0.8472 -0.0000 -0.5312
vn -0.9799 -0.0000 -0.1995
vn -0.9799 -0.0000 0.1995
vn -0.8472 -0.0000 0.5312
vn -0.6711 -0.0000 0.7414
vn -0.5078 -0.0000 0.8615
vn -0.3690 -0.0000 0.9294
vn -0.2504 -0.0000 0.9682
vn -0.1452 -0.0000 0.9894
vn -0.0476 -0.0000 0.9989
vn 0.0476 -0.0000 0.9989
vn 0.1452 -0.0000 0.9894
vn 0.2504 -0.0000 0.9682
vn 0.3690 -0.0000 0.9294
vn 0.5078 -0.0000 0.8615
vn 0.6711 -0.0000 0.7414
vn 0.8472 -0.0000 0.5312
vn 0.9799 -0.0000 0.1995
vn 0.9799 -0.0000 -0.1995
vn 0.8472 -0.0000 -0.5312
vn 0.6711 -0.0000 -0.7414
vn 0.5078 -0.0000 -0.8615
vn 0.3690 -0.0000 -0.9294
vn 0.2504 -0.0000 -0.9682
vn -0.0000 1.0000 -0.0000
vn 0.1452 -0.0000 -0.9894
vn 0.0476 -0.0000 -0.9989
vn -0.0000 -1.0000 -0.0000
vt 1.000000 0.500000
vt 1.000000 1.000000
vt 0.968750 1.000000
vt 0.968750 0.500000
vt 0.937500 1.000000
vt 0.937500 0.500000
vt 0.906250 1.000000
vt 0.906250 0.500000
vt 0.875000 1.000000
vt 0.875000 0.500000
vt 0.843750 1.000000
vt 0.843750 0.500000
vt 0.812500 1.000000
vt 0.812500 0.500000
vt 0.781250 1.000000
vt 0.781250 0.500000
vt 0.750000 1.000000
vt 0.750000 0.500000
vt 0.718750 1.000000
vt 0.718750 0.500000
vt 0.687500 1.000000
vt 0.687500 0.500000
vt 0.656250 1.000000
vt 0.656250 0.500000
vt 0.625000 1.000000
vt 0.625000 0.500000
vt 0.593750 1.000000
vt 0.593750 0.500000
vt 0.562500 1.000000
vt 0.562500 0.500000
vt 0.531250 1.000000
vt 0.531250 0.500000
vt 0.500000 1.000000
vt 0.500000 0.500000
vt 0.468750 1.000000
vt 0.468750 0.500000
vt 0.437500 1.000000
vt 0.437500 0.500000
vt 0.406250 1.000000
vt 0.406250 0.500000
vt 0.375000 1.000000
vt 0.375000 0.500000
vt 0.343750 1.000000
vt 0.343750 0.500000
vt 0.312500 1.000000
vt 0.312500 0.500000
vt 0.281250 1.000000
vt 0.281250 0.500000
vt 0.250000 1.000000
vt 0.250000 0.500000
vt 0.218750 1.000000
vt 0.218750 0.500000
vt 0.187500 1.000000
vt 0.187500 0.500000
vt 0.156250 1.000000
vt 0.156250 0.500000
vt 0.125000 1.000000
vt 0.125000 0.500000
vt 0.093750 1.000000
vt 0.093750 0.500000
vt 0.062500 1.000000
vt 0.062500 0.500000
vt 0.296822 0.485388
vt 0.250000 0.490000
vt 0.203178 0.485388
vt 0.158156 0.471731
vt 0.116663 0.449553
vt 0.080294 0.419706
vt 0.050447 0.383337
vt 0.028269 0.341844
vt 0.014612 0.296822
vt 0.010000 0.250000
vt 0.014612 0.203178
vt 0.028269 0.158156
vt 0.050447 0.116663
vt 0.080294 0.080294
vt 0.116663 0.050447
vt 0.158156 0.028269
vt 0.203178 0.014612
vt 0.250000 0.010000
vt 0.296822 0.014612
vt 0.341844 0.028269
vt 0.383337 0.050447
vt 0.419706 0.080294
vt 0.449553 0.116663
vt 0.471731 0.158156
vt 0.485388 0.203178
vt 0.490000 0.250000
vt 0.485388 0.296822
vt 0.471731 0.341844
vt 0.449553 0.383337
vt 0.419706 0.419706
vt 0.383337 0.449553
vt 0.341844 0.471731
vt 0.031250 1.000000
vt 0.031250 0.500000
vt 0.000000 1.000000
vt 0.000000 0.500000
vt 0.750000 0.490000
vt 0.796822 0.485388
vt 0.841844 0.471731
vt 0.883337 0.449553
vt 0.919706 0.419706
vt 0.949553 0.383337
vt 0.971731 0.341844
vt 0.985388 0.296822
vt 0.990000 0.250000
vt 0.985388 0.203178
vt 0.971731 0.158156
vt 0.949553 0.116663
vt 0.919706 0.080294
vt 0.883337 0.050447
vt 0.841844 0.028269
vt 0.796822 0.014612
vt 0.750000 0.010000
vt 0.703178 0.014612
vt 0.658156 0.028269
vt 0.616663 0.050447
vt 0.580294 0.080294
vt 0.550447 0.116663
vt 0.528269 0.158156
vt 0.514612 0.203178
vt 0.510000 0.250000
vt 0.514612 0.296822
vt 0.528269 0.341844
vt 0.550447 0.383337
vt 0.580294 0.419706
vt 0.616663 0.449553
vt 0.658156 0.471731
vt 0.703178 0.485388
s 0
usemtl Material.004
f 309/471/79 311/474/79 312/473/79 310/472/79
f 311/474/80 313/476/80 314/475/80 312/473/80
f 313/476/81 315/478/81 316/477/81 314/475/81
f 315/478/82 317/480/82 318/479/82 316/477/82
f 317/480/83 319/482/83 320/481/83 318/479/83
f 319/482/84 321/484/84 322/483/84 320/481/84
f 321/484/85 323/486/85 324/485/85 322/483/85
f 323/486/86 325/488/86 326/487/86 324/485/86
f 325/488/87 327/490/87 328/489/87 326/487/87
f 327/490/88 329/492/88 330/491/88 328/489/88
f 329/492/89 331/494/89 332/493/89 330/491/89
f 331/494/90 333/496/90 334/495/90 332/493/90
f 333/496/91 335/498/91 336/497/91 334/495/91
f 335/498/92 337/500/92 338/499/92 336/497/92
f 337/500/93 339/502/93 340/501/93 338/499/93
f 339/502/94 341/504/94 342/503/94 340/501/94
f 341/504/95 343/506/95 344/505/95 342/503/95
f 343/506/96 345/508/96 346/507/96 344/505/96
f 345/508/97 347/510/97 348/509/97 346/507/97
f 347/510/98 349/512/98 350/511/98 348/509/98
f 349/512/99 351/514/99 352/513/99 350/511/99
f 351/514/100 353/516/100 354/515/100 352/513/100
f 353/516/101 355/518/101 356/517/101 354/515/101
f 355/518/102 357/520/102 358/519/102 356/517/102
f 357/520/103 359/522/103 360/521/103 358/519/103
f 359/522/104 361/524/104 362/523/104 360/521/104
f 361/524/105 363/526/105 364/525/105 362/523/105
f 363/526/106 365/528/106 366/527/106 364/525/106
f 365/528/107 367/530/107 368/529/107 366/527/107
f 367/530/108 369/532/108 370/531/108 368/529/108
f 312/533/109 314/564/109 316/563/109 318/562/109 320/561/109 322/560/109 324/559/109 326/558/109 328/557/109 330/556/109 332/555/109 334/554/109 336/553/109 338/552/109 340/551/109 342/550/109 344/549/109 346/548/109 348/547/109 350/546/109 352/545/109 354/544/109 356/543/109 358/542/109 360/541/109 362/540/109 364/539/109 366/538/109 368/537/109 370/536/109 372/535/109 310/534/109
f 369/532/110 371/566/110 372/565/110 370/531/110
f 371/566/111 309/568/111 310/567/111 372/565/111
f 309/569/112 371/600/112 369/599/112 367/598/112 365/597/112 363/596/112 361/595/112 359/594/112 357/593/112 355/592/112 353/591/112 351/590/112 349/589/112 347/588/112 345/587/112 343/586/112 341/585/112 339/584/112 337/583/112 335/582/112 333/581/112 331/580/112 329/579/112 327/578/112 325/577/112 323/576/112 321/575/112 319/574/112 317/573/112 315/572/112 313/571/112 311/570/112
o plancha
v 4.478821 -0.082021 11.198283
v 4.478821 0.175549 11.198283
v 4.478821 -0.082021 0.486687
v 4.478821 0.175549 0.486687
v -7.518881 -0.082021 11.198283
v -7.518881 0.175549 11.198283
v -7.518881 -0.082021 0.486687
v -7.518881 0.175549 0.486687
vn 1.0000 -0.0000 -0.0000
vn -0.0000 -0.0000 -1.0000
vn -1.0000 -0.0000 -0.0000
vn -0.0000 -0.0000 1.0000
vn -0.0000 -1.0000 -0.0000
vn -0.0000 1.0000 -0.0000
vt 0.375000 0.000000
vt 0.625000 0.000000
vt 0.625000 0.250000
vt 0.375000 0.250000
vt 0.625000 0.500000
vt 0.375000 0.500000
vt 0.625000 0.750000
vt 0.375000 0.750000
vt 0.625000 1.000000
vt 0.375000 1.000000
vt 0.125000 0.500000
vt 0.125000 0.750000
vt 0.875000 0.500000
vt 0.875000 0.750000
s 0
usemtl Material.001
f 373/601/113 375/604/113 376/603/113 374/602/113
f 375/604/114 379/606/114 380/605/114 376/603/114
f 379/606/115 377/608/115 378/607/115 380/605/115
f 377/608/116 373/610/116 374/609/116 378/607/116
f 375/611/117 373/612/117 377/608/117 379/606/117
f 380/605/118 378/607/118 374/614/118 376/613/118
o Cilindro.004
v 3.608695 0.087119 8.658422
v 3.608695 5.787904 8.658422
v 3.449465 0.087119 8.666010
v 3.449465 5.787904 8.666010
v 3.296354 0.087119 8.688480
v 3.296354 5.787904 8.688480
v 3.155246 0.087119 8.724972
v 3.155246 5.787904 8.724972
v 3.031563 0.087119 8.774079
v 3.031563 5.787904 8.774079
v 2.930060 0.087119 8.833918
v 2.930060 5.787904 8.833918
v 2.854636 0.087119 8.902186
v 2.854636 5.787904 8.902186
v 2.808190 0.087119 8.976263
v 2.808190 5.787904 8.976263
v 2.792507 0.087119 9.053299
v 2.792507 5.787904 9.053299
v 2.808190 0.087119 9.130336
v 2.808190 5.787904 9.130336
v 2.854636 0.087119 9.204412
v 2.854636 5.787904 9.204412
v 2.930060 0.087119 9.272680
v 2.930060 5.787904 9.272680
v 3.031564 0.087119 9.332519
v 3.031564 5.787904 9.332519
v 3.155246 0.087119 9.381627
v 3.155246 5.787904 9.381627
v 3.296354 0.087119 9.418118
v 3.296354 5.787904 9.418118
v 3.449465 0.087119 9.440588
v 3.449465 5.787904 9.440588
v 3.608696 0.087119 9.448175
v 3.608696 5.787904 9.448175
v 3.767926 0.087119 9.440588
v 3.767926 5.787904 9.440588
v 3.921037 0.087119 9.418118
v 3.921037 5.787904 9.418118
v 4.062145 0.087119 9.381626
v 4.062145 5.787904 9.381626
v 4.185828 0.087119 9.332519
v 4.185828 5.787904 9.332519
v 4.287331 0.087119 9.272680
v 4.287331 5.787904 9.272680
v 4.362755 0.087119 9.204412
v 4.362755 5.787904 9.204412
v 4.409201 0.087119 9.130335
v 4.409201 5.787904 9.130335
v 4.424884 0.087119 9.053299
v 4.424884 5.787904 9.053299
v 4.409201 0.087119 8.976262
v 4.409201 5.787904 8.976262
v 4.362755 0.087119 8.902186
v 4.362755 5.787904 8.902186
v 4.287331 0.087119 8.833918
v 4.287331 5.787904 8.833918
v 4.185827 0.087119 8.774079
v 4.185827 5.787904 8.774079
v 4.062145 0.087119 8.724971
v 4.062145 5.787904 8.724971
v 3.921037 0.087119 8.688480
v 3.921037 5.787904 8.688480
v 3.767926 0.087119 8.666010
v 3.767926 5.787904 8.666010
vn -0.0476 -0.0000 -0.9989
vn -0.1452 -0.0000 -0.9894
vn -0.2504 -0.0000 -0.9682
vn -0.3690 -0.0000 -0.9294
vn -0.5078 -0.0000 -0.8615
vn -0.6711 -0.0000 -0.7414
vn -0.8472 -0.0000 -0.5312
vn -0.9799 -0.0000 -0.1995
vn -0.9799 -0.0000 0.1995
vn -0.8472 -0.0000 0.5312
vn -0.6711 -0.0000 0.7414
vn -0.5078 -0.0000 0.8615
vn -0.3690 -0.0000 0.9294
vn -0.2504 -0.0000 0.9682
vn -0.1452 -0.0000 0.9894
vn -0.0476 -0.0000 0.9989
vn 0.0476 -0.0000 0.9989
vn 0.1452 -0.0000 0.9894
vn 0.2504 -0.0000 0.9682
vn 0.3690 -0.0000 0.9294
vn 0.5078 -0.0000 0.8615
vn 0.6711 -0.0000 0.7414
vn 0.8472 -0.0000 0.5312
vn 0.9799 -0.0000 0.1995
vn 0.9799 -0.0000 -0.1995
vn 0.8472 -0.0000 -0.5312
vn 0.6711 -0.0000 -0.7414
vn 0.5078 -0.0000 -0.8615
vn 0.3690 -0.0000 -0.9294
vn 0.2504 -0.0000 -0.9682
vn -0.0000 1.0000 -0.0000
vn 0.1452 -0.0000 -0.9894
vn 0.0476 -0.0000 -0.9989
vn -0.0000 -1.0000 -0.0000
vt 1.000000 0.500000
vt 1.000000 1.000000
vt 0.968750 1.000000
vt 0.968750 0.500000
vt 0.937500 1.000000
vt 0.937500 0.500000
vt 0.906250 1.000000
vt 0.906250 0.500000
vt 0.875000 1.000000
vt 0.875000 0.500000
vt 0.843750 1.000000
vt 0.843750 0.500000
vt 0.812500 1.000000
vt 0.812500 0.500000
vt 0.781250 1.000000
vt 0.781250 0.500000
vt 0.750000 1.000000
vt 0.750000 0.500000
vt 0.718750 1.000000
vt 0.718750 0.500000
vt 0.687500 1.000000
vt 0.687500 0.500000
vt 0.656250 1.000000
vt 0.656250 0.500000
vt 0.625000 1.000000
vt 0.625000 0.500000
vt 0.593750 1.000000
vt 0.593750 0.500000
vt 0.562500 1.000000
vt 0.562500 0.500000
vt 0.531250 1.000000
vt 0.531250 0.500000
vt 0.500000 1.000000
vt 0.500000 0.500000
vt 0.468750 1.000000
vt 0.468750 0.500000
vt 0.437500 1.000000
vt 0.437500 0.500000
vt 0.406250 1.000000
vt 0.406250 0.500000
vt 0.375000 1.000000
vt 0.375000 0.500000
vt 0.343750 1.000000
vt 0.343750 0.500000
vt 0.312500 1.000000
vt 0.312500 0.500000
vt 0.281250 1.000000
vt 0.281250 0.500000
vt 0.250000 1.000000
vt 0.250000 0.500000
vt 0.218750 1.000000
vt 0.218750 0.500000
vt 0.187500 1.000000
vt 0.187500 0.500000
vt 0.156250 1.000000
vt 0.156250 0.500000
vt 0.125000 1.000000
vt 0.125000 0.500000
vt 0.093750 1.000000
vt 0.093750 0.500000
vt 0.062500 1.000000
vt 0.062500 0.500000
vt 0.296822 0.485388
vt 0.250000 0.490000
vt 0.203178 0.485388
vt 0.158156 0.471731
vt 0.116663 0.449553
vt 0.080294 0.419706
vt 0.050447 0.383337
vt 0.028269 0.341844
vt 0.014612 0.296822
vt 0.010000 0.250000
vt 0.014612 0.203178
vt 0.028269 0.158156
vt 0.050447 0.116663
vt 0.080294 0.080294
vt 0.116663 0.050447
vt 0.158156 0.028269
vt 0.203178 0.014612
vt 0.250000 0.010000
vt 0.296822 0.014612
vt 0.341844 0.028269
vt 0.383337 0.050447
vt 0.419706 0.080294
vt 0.449553 0.116663
vt 0.471731 0.158156
vt 0.485388 0.203178
vt 0.490000 0.250000
vt 0.485388 0.296822
vt 0.471731 0.341844
vt 0.449553 0.383337
vt 0.419706 0.419706
vt 0.383337 0.449553
vt 0.341844 0.471731
vt 0.031250 1.000000
vt 0.031250 0.500000
vt 0.000000 1.000000
vt 0.000000 0.500000
vt 0.750000 0.490000
vt 0.796822 0.485388
vt 0.841844 0.471731
vt 0.883337 0.449553
vt 0.919706 0.419706
vt 0.949553 0.383337
vt 0.971731 0.341844
vt 0.985388 0.296822
vt 0.990000 0.250000
vt 0.985388 0.203178
vt 0.971731 0.158156
vt 0.949553 0.116663
vt 0.919706 0.080294
vt 0.883337 0.050447
vt 0.841844 0.028269
vt 0.796822 0.014612
vt 0.750000 0.010000
vt 0.703178 0.014612
vt 0.658156 0.028269
vt 0.616663 0.050447
vt 0.580294 0.080294
vt 0.550447 0.116663
vt 0.528269 0.158156
vt 0.514612 0.203178
vt 0.510000 0.250000
vt 0.514612 0.296822
vt 0.528269 0.341844
vt 0.550447 0.383337
vt 0.580294 0.419706
vt 0.616663 0.449553
vt 0.658156 0.471731
vt 0.703178 0.485388
s 0
usemtl Material.005
f 381/615/119 383/618/119 384/617/119 382/616/119
f 383/618/120 385/620/120 386/619/120 384/617/120
f 385/620/121 387/622/121 388/621/121 386/619/121
f 387/622/122 389/624/122 390/623/122 388/621/122
f 389/624/123 391/626/123 392/625/123 390/623/123
f 391/626/124 393/628/124 394/627/124 392/625/124
f 393/628/125 395/630/125 396/629/125 394/627/125
f 395/630/126 397/632/126 398/631/126 396/629/126
f 397/632/127 399/634/127 400/633/127 398/631/127
f 399/634/128 401/636/128 402/635/128 400/633/128
f 401/636/129 403/638/129 404/637/129 402/635/129
f 403/638/130 405/640/130 406/639/130 404/637/130
f 405/640/131 407/642/131 408/641/131 406/639/131
f 407/642/132 409/644/132 410/643/132 408/641/132
f 409/644/133 411/646/133 412/645/133 410/643/133
f 411/646/134 413/648/134 414/647/134 412/645/134
f 413/648/135 415/650/135 416/649/135 414/647/135
f 415/650/136 417/652/136 418/651/136 416/649/136
f 417/652/137 419/654/137 420/653/137 418/651/137
f 419/654/138 421/656/138 422/655/138 420/653/138
f 421/656/139 423/658/139 424/657/139 422/655/139
f 423/658/140 425/660/140 426/659/140 424/657/140
f 425/660/141 427/662/141 428/661/141 426/659/141
f 427/662/142 429/664/142 430/663/142 428/661/142
f 429/664/143 431/666/143 432/665/143 430/663/143
f 431/666/144 433/668/144 434/667/144 432/665/144
f 433/668/145 435/670/145 436/669/145 434/667/145
f 435/670/146 437/672/146 438/671/146 436/669/146
f 437/672/147 439/674/147 440/673/147 438/671/147
f 439/674/148 441/676/148 442/675/148 440/673/148
f 384/677/149 386/708/149 388/707/149 390/706/149 392/705/149 394/704/149 396/703/149 398/702/149 400/701/149 402/700/149 404/699/149 406/698/149 408/697/149 410/696/149 412/695/149 414/694/149 416/693/149 418/692/149 420/691/149 422/690/149 424/689/149 426/688/149 428/687/149 430/686/149 432/685/149 434/684/149 436/683/149 438/682/149 440/681/149 442/680/149 444/679/149 382/678/149
f 441/676/150 443/710/150 444/709/150 442/675/150
f 443/710/151 381/712/151 382/711/151 444/709/151
f 381/713/152 443/744/152 441/743/152 439/742/152 437/741/152 435/740/152 433/739/152 431/738/152 429/737/152 427/736/152 425/735/152 423/734/152 421/733/152 419/732/152 417/731/152 415/730/152 413/729/152 411/728/152 409/727/152 407/726/152 405/725/152 403/724/152 401/723/152 399/722/152 397/721/152 395/720/152 393/719/152 391/718/152 389/717/152 387/716/152 385/715/152 383/714/152
o Cilindro.005
v -2.262946 0.121477 8.772982
v -2.262946 5.822261 8.772982
v -2.422176 0.121477 8.780569
v -2.422176 5.822261 8.780569
v -2.575287 0.121477 8.803040
v -2.575287 5.822261 8.803040
v -2.716396 0.121477 8.839531
v -2.716396 5.822261 8.839531
v -2.840078 0.121477 8.888638
v -2.840078 5.822261 8.888638
v -2.941581 0.121477 8.948477
v -2.941581 5.822261 8.948477
v -3.017005 0.121477 9.016746
v -3.017005 5.822261 9.016746
v -3.063451 0.121477 9.090822
v -3.063451 5.822261 9.090822
v -3.079134 0.121477 9.167858
v -3.079134 5.822261 9.167858
v -3.063451 0.121477 9.244895
v -3.063451 5.822261 9.244895
v -3.017005 0.121477 9.318971
v -3.017005 5.822261 9.318971
v -2.941581 0.121477 9.387239
v -2.941581 5.822261 9.387239
v -2.840078 0.121477 9.447078
v -2.840078 5.822261 9.447078
v -2.716395 0.121477 9.496186
v -2.716395 5.822261 9.496186
v -2.575287 0.121477 9.532677
v -2.575287 5.822261 9.532677
v -2.422176 0.121477 9.555147
v -2.422176 5.822261 9.555147
v -2.262945 0.121477 9.562735
v -2.262945 5.822261 9.562735
v -2.103715 0.121477 9.555147
v -2.103715 5.822261 9.555147
v -1.950604 0.121477 9.532677
v -1.950604 5.822261 9.532677
v -1.809496 0.121477 9.496185
v -1.809496 5.822261 9.496185
v -1.685813 0.121477 9.447078
v -1.685813 5.822261 9.447078
v -1.584310 0.121477 9.387239
v -1.584310 5.822261 9.387239
v -1.508886 0.121477 9.318971
v -1.508886 5.822261 9.318971
v -1.462440 0.121477 9.244894
v -1.462440 5.822261 9.244894
v -1.446758 0.121477 9.167858
v -1.446758 5.822261 9.167858
v -1.462440 0.121477 9.090821
v -1.462440 5.822261 9.090821
v -1.508886 0.121477 9.016746
v -1.508886 5.822261 9.016746
v -1.584310 0.121477 8.948477
v -1.584310 5.822261 8.948477
v -1.685814 0.121477 8.888638
v -1.685814 5.822261 8.888638
v -1.809496 0.121477 8.839530
v -1.809496 5.822261 8.839530
v -1.950604 0.121477 8.803040
v -1.950604 5.822261 8.803040
v -2.103715 0.121477 8.780569
v -2.103715 5.822261 8.780569
vn -0.0476 -0.0000 -0.9989
vn -0.1452 -0.0000 -0.9894
vn -0.2504 -0.0000 -0.9682
vn -0.3690 -0.0000 -0.9294
vn -0.5078 -0.0000 -0.8615
vn -0.6711 -0.0000 -0.7414
vn -0.8472 -0.0000 -0.5312
vn -0.9799 -0.0000 -0.1995
vn -0.9799 -0.0000 0.1995
vn -0.8472 -0.0000 0.5312
vn -0.6711 -0.0000 0.7414
vn -0.5078 -0.0000 0.8615
vn -0.3690 -0.0000 0.9294
vn -0.2504 -0.0000 0.9682
vn -0.1452 -0.0000 0.9894
vn -0.0476 -0.0000 0.9989
vn 0.0476 -0.0000 0.9989
vn 0.1452 -0.0000 0.9894
vn 0.2504 -0.0000 0.9682
vn 0.3690 -0.0000 0.9294
vn 0.5078 -0.0000 0.8615
vn 0.6711 -0.0000 0.7414
vn 0.8472 -0.0000 0.5312
vn 0.9799 -0.0000 0.1995
vn 0.9799 -0.0000 -0.1995
vn 0.8472 -0.0000 -0.5312
vn 0.6711 -0.0000 -0.7414
vn 0.5078 -0.0000 -0.8615
vn 0.3690 -0.0000 -0.9294
vn 0.2504 -0.0000 -0.9682
vn -0.0000 1.0000 -0.0000
vn 0.1452 -0.0000 -0.9894
vn 0.0476 -0.0000 -0.9989
vn -0.0000 -1.0000 -0.0000
vt 1.000000 0.500000
vt 1.000000 1.000000
vt 0.968750 1.000000
vt 0.968750 0.500000
vt 0.937500 1.000000
vt 0.937500 0.500000
vt 0.906250 1.000000
vt 0.906250 0.500000
vt 0.875000 1.000000
vt 0.875000 0.500000
vt 0.843750 1.000000
vt 0.843750 0.500000
vt 0.812500 1.000000
vt 0.812500 0.500000
vt 0.781250 1.000000
vt 0.781250 0.500000
vt 0.750000 1.000000
vt 0.750000 0.500000
vt 0.718750 1.000000
vt 0.718750 0.500000
vt 0.687500 1.000000
vt 0.687500 0.500000
vt 0.656250 1.000000
vt 0.656250 0.500000
vt 0.625000 1.000000
vt 0.625000 0.500000
vt 0.593750 1.000000
vt 0.593750 0.500000
vt 0.562500 1.000000
vt 0.562500 0.500000
vt 0.531250 1.000000
vt 0.531250 0.500000
vt 0.500000 1.000000
vt 0.500000 0.500000
vt 0.468750 1.000000
vt 0.468750 0.500000
vt 0.437500 1.000000
vt 0.437500 0.500000
vt 0.406250 1.000000
vt 0.406250 0.500000
vt 0.375000 1.000000
vt 0.375000 0.500000
vt 0.343750 1.000000
vt 0.343750 0.500000
vt 0.312500 1.000000
vt 0.312500 0.500000
vt 0.281250 1.000000
vt 0.281250 0.500000
vt 0.250000 1.000000
vt 0.250000 0.500000
vt 0.218750 1.000000
vt 0.218750 0.500000
vt 0.187500 1.000000
vt 0.187500 0.500000
vt 0.156250 1.000000
vt 0.156250 0.500000
vt 0.125000 1.000000
vt 0.125000 0.500000
vt 0.093750 1.000000
vt 0.093750 0.500000
vt 0.062500 1.000000
vt 0.062500 0.500000
vt 0.296822 0.485388
vt 0.250000 0.490000
vt 0.203178 0.485388
vt 0.158156 0.471731
vt 0.116663 0.449553
vt 0.080294 0.419706
vt 0.050447 0.383337
vt 0.028269 0.341844
vt 0.014612 0.296822
vt 0.010000 0.250000
vt 0.014612 0.203178
vt 0.028269 0.158156
vt 0.050447 0.116663
vt 0.080294 0.080294
vt 0.116663 0.050447
vt 0.158156 0.028269
vt 0.203178 0.014612
vt 0.250000 0.010000
vt 0.296822 0.014612
vt 0.341844 0.028269
vt 0.383337 0.050447
vt 0.419706 0.080294
vt 0.449553 0.116663
vt 0.471731 0.158156
vt 0.485388 0.203178
vt 0.490000 0.250000
vt 0.485388 0.296822
vt 0.471731 0.341844
vt 0.449553 0.383337
vt 0.419706 0.419706
vt 0.383337 0.449553
vt 0.341844 0.471731
vt 0.031250 1.000000
vt 0.031250 0.500000
vt 0.000000 1.000000
vt 0.000000 0.500000
vt 0.750000 0.490000
vt 0.796822 0.485388
vt 0.841844 0.471731
vt 0.883337 0.449553
vt 0.919706 0.419706
vt 0.949553 0.383337
vt 0.971731 0.341844
vt 0.985388 0.296822
vt 0.990000 0.250000
vt 0.985388 0.203178
vt 0.971731 0.158156
vt 0.949553 0.116663
vt 0.919706 0.080294
vt 0.883337 0.050447
vt 0.841844 0.028269
vt 0.796822 0.014612
vt 0.750000 0.010000
vt 0.703178 0.014612
vt 0.658156 0.028269
vt 0.616663 0.050447
vt 0.580294 0.080294
vt 0.550447 0.116663
vt 0.528269 0.158156
vt 0.514612 0.203178
vt 0.510000 0.250000
vt 0.514612 0.296822
vt 0.528269 0.341844
vt 0.550447 0.383337
vt 0.580294 0.419706
vt 0.616663 0.449553
vt 0.658156 0.471731
vt 0.703178 0.485388
s 0
usemtl Material.006
f 445/745/153 447/748/153 448/747/153 446/746/153
f 447/748/154 449/750/154 450/749/154 448/747/154
f 449/750/155 451/752/155 452/751/155 450/749/155
f 451/752/156 453/754/156 454/753/156 452/751/156
f 453/754/157 455/756/157 456/755/157 454/753/157
f 455/756/158 457/758/158 458/757/158 456/755/158
f 457/758/159 459/760/159 460/759/159 458/757/159
f 459/760/160 461/762/160 462/761/160 460/759/160
f 461/762/161 463/764/161 464/763/161 462/761/161
f 463/764/162 465/766/162 466/765/162 464/763/162
f 465/766/163 467/768/163 468/767/163 466/765/163
f 467/768/164 469/770/164 470/769/164 468/767/164
f 469/770/165 471/772/165 472/771/165 470/769/165
f 471/772/166 473/774/166 474/773/166 472/771/166
f 473/774/167 475/776/167 476/775/167 474/773/167
f 475/776/168 477/778/168 478/777/168 476/775/168
f 477/778/169 479/780/169 480/779/169 478/777/169
f 479/780/170 481/782/170 482/781/170 480/779/170
f 481/782/171 483/784/171 484/783/171 482/781/171
f 483/784/172 485/786/172 486/785/172 484/783/172
f 485/786/173 487/788/173 488/787/173 486/785/173
f 487/788/174 489/790/174 490/789/174 488/787/174
f 489/790/175 491/792/175 492/791/175 490/789/175
f 491/792/176 493/794/176 494/793/176 492/791/176
f 493/794/177 495/796/177 496/795/177 494/793/177
f 495/796/178 497/798/178 498/797/178 496/795/178
f 497/798/179 499/800/179 500/799/179 498/797/179
f 499/800/180 501/802/180 502/801/180 500/799/180
f 501/802/181 503/804/181 504/803/181 502/801/181
f 503/804/182 505/806/182 506/805/182 504/803/182
f 448/807/183 450/838/183 452/837/183 454/836/183 456/835/183 458/834/183 460/833/183 462/832/183 464/831/183 466/830/183 468/829/183 470/828/183 472/827/183 474/826/183 476/825/183 478/824/183 480/823/183 482/822/183 484/821/183 486/820/183 488/819/183 490/818/183 492/817/183 494/816/183 496/815/183 498/814/183 500/813/183 502/812/183 504/811/183 506/810/183 508/809/183 446/808/183
f 505/806/184 507/840/184 508/839/184 506/805/184
f 507/840/185 445/842/185 446/841/185 508/839/185
f 445/843/186 507/874/186 505/873/186 503/872/186 501/871/186 499/870/186 497/869/186 495/868/186 493/867/186 491/866/186 489/865/186 487/864/186 485/863/186 483/862/186 481/861/186 479/860/186 477/859/186 475/858/186 473/857/186 471/856/186 469/855/186 467/854/186 465/853/186 463/852/186 461/851/186 459/850/186 457/849/186 455/848/186 453/847/186 451/846/186 449/845/186 447/844/186
o Cilindro.006
v -6.566915 0.173053 9.050855
v -6.566915 5.873837 9.050855
v -6.574502 0.173053 8.891624
v -6.574502 5.873837 8.891624
v -6.596973 0.173053 8.738513
v -6.596973 5.873837 8.738513
v -6.633463 0.173053 8.597404
v -6.633463 5.873837 8.597404
v -6.682571 0.173053 8.473722
v -6.682571 5.873837 8.473722
v -6.742410 0.173053 8.372219
v -6.742410 5.873837 8.372219
v -6.810678 0.173053 8.296795
v -6.810678 5.873837 8.296795
v -6.884755 0.173053 8.250349
v -6.884755 5.873837 8.250349
v -6.961791 0.173053 8.234667
v -6.961791 5.873837 8.234667
v -7.038827 0.173053 8.250349
v -7.038827 5.873837 8.250349
v -7.112904 0.173053 8.296795
v -7.112904 5.873837 8.296795
v -7.181173 0.173053 8.372219
v -7.181173 5.873837 8.372219
v -7.241011 0.173053 8.473722
v -7.241011 5.873837 8.473722
v -7.290119 0.173053 8.597404
v -7.290119 5.873837 8.597404
v -7.326609 0.173053 8.738513
v -7.326609 5.873837 8.738513
v -7.349080 0.173053 8.891624
v -7.349080 5.873837 8.891624
v -7.356668 0.173053 9.050855
v -7.356668 5.873837 9.050855
v -7.349080 0.173053 9.210085
v -7.349080 5.873837 9.210085
v -7.326609 0.173053 9.363196
v -7.326609 5.873837 9.363196
v -7.290119 0.173053 9.504305
v -7.290119 5.873837 9.504305
v -7.241011 0.173053 9.627987
v -7.241011 5.873837 9.627987
v -7.181172 0.173053 9.729490
v -7.181172 5.873837 9.729490
v -7.112904 0.173053 9.804914
v -7.112904 5.873837 9.804914
v -7.038827 0.173053 9.851360
v -7.038827 5.873837 9.851360
v -6.961791 0.173053 9.867043
v -6.961791 5.873837 9.867043
v -6.884755 0.173053 9.851360
v -6.884755 5.873837 9.851360
v -6.810678 0.173053 9.804914
v -6.810678 5.873837 9.804914
v -6.742409 0.173053 9.729490
v -6.742409 5.873837 9.729490
v -6.682571 0.173053 9.627987
v -6.682571 5.873837 9.627987
v -6.633463 0.173053 9.504305
v -6.633463 5.873837 9.504305
v -6.596973 0.173053 9.363196
v -6.596973 5.873837 9.363196
v -6.574502 0.173053 9.210085
v -6.574502 5.873837 9.210085
vn 0.9989 -0.0000 -0.0476
vn 0.9894 -0.0000 -0.1452
vn 0.9682 -0.0000 -0.2504
vn 0.9294 -0.0000 -0.3690
vn 0.8615 -0.0000 -0.5078
vn 0.7414 -0.0000 -0.6711
vn 0.5312 -0.0000 -0.8472
vn 0.1995 -0.0000 -0.9799
vn -0.1995 -0.0000 -0.9799
vn -0.5312 -0.0000 -0.8472
vn -0.7414 -0.0000 -0.6711
vn -0.8615 -0.0000 -0.5078
vn -0.9294 -0.0000 -0.3690
vn -0.9682 -0.0000 -0.2504
vn -0.9894 -0.0000 -0.1452
vn -0.9989 -0.0000 -0.0476
vn -0.9989 -0.0000 0.0476
vn -0.9894 -0.0000 0.1452
vn -0.9682 -0.0000 0.2504
vn -0.9294 -0.0000 0.3690
vn -0.8615 -0.0000 0.5078
vn -0.7414 -0.0000 0.6711
vn -0.5312 -0.0000 0.8472
vn -0.1995 -0.0000 0.9799
vn 0.1995 -0.0000 0.9799
vn 0.5312 -0.0000 0.8472
vn 0.7414 -0.0000 0.6711
vn 0.8615 -0.0000 0.5078
vn 0.9294 -0.0000 0.3690
vn 0.9682 -0.0000 0.2504
vn -0.0000 1.0000 -0.0000
vn 0.9894 -0.0000 0.1452
vn 0.9989 -0.0000 0.0476
vn -0.0000 -1.0000 -0.0000
vt 1.000000 0.500000
vt 1.000000 1.000000
vt 0.968750 1.000000
vt 0.968750 0.500000
vt 0.937500 1.000000
vt 0.937500 0.500000
vt 0.906250 1.000000
vt 0.906250 0.500000
vt 0.875000 1.000000
vt 0.875000 0.500000
vt 0.843750 1.000000
vt 0.843750 0.500000
vt 0.812500 1.000000
vt 0.812500 0.500000
vt 0.781250 1.000000
vt 0.781250 0.500000
vt 0.750000 1.000000
vt 0.750000 0.500000
vt 0.718750 1.000000
vt 0.718750 0.500000
vt 0.687500 1.000000
vt 0.687500 0.500000
vt 0.656250 1.000000
vt 0.656250 0.500000
vt 0.625000 1.000000
vt 0.625000 0.500000
vt 0.593750 1.000000
vt 0.593750 0.500000
vt 0.562500 1.000000
vt 0.562500 0.500000
vt 0.531250 1.000000
vt 0.531250 0.500000
vt 0.500000 1.000000
vt 0.500000 0.500000
vt 0.468750 1.000000
vt 0.468750 0.500000
vt 0.437500 1.000000
vt 0.437500 0.500000
vt 0.406250 1.000000
vt 0.406250 0.500000
vt 0.375000 1.000000
vt 0.375000 0.500000
vt 0.343750 1.000000
vt 0.343750 0.500000
vt 0.312500 1.000000
vt 0.312500 0.500000
vt 0.281250 1.000000
vt 0.281250 0.500000
vt 0.250000 1.000000
vt 0.250000 0.500000
vt 0.218750 1.000000
vt 0.218750 0.500000
vt 0.187500 1.000000
vt 0.187500 0.500000
vt 0.156250 1.000000
vt 0.156250 0.500000
vt 0.125000 1.000000
vt 0.125000 0.500000
vt 0.093750 1.000000
vt 0.093750 0.500000
vt 0.062500 1.000000
vt 0.062500 0.500000
vt 0.296822 0.485388
vt 0.250000 0.490000
vt 0.203178 0.485388
vt 0.158156 0.471731
vt 0.116663 0.449553
vt 0.080294 0.419706
vt 0.050447 0.383337
vt 0.028269 0.341844
vt 0.014612 0.296822
vt 0.010000 0.250000
vt 0.014612 0.203178
vt 0.028269 0.158156
vt 0.050447 0.116663
vt 0.080294 0.080294
vt 0.116663 0.050447
vt 0.158156 0.028269
vt 0.203178 0.014612
vt 0.250000 0.010000
vt 0.296822 0.014612
vt 0.341844 0.028269
vt 0.383337 0.050447
vt 0.419706 0.080294
vt 0.449553 0.116663
vt 0.471731 0.158156
vt 0.485388 0.203178
vt 0.490000 0.250000
vt 0.485388 0.296822
vt 0.471731 0.341844
vt 0.449553 0.383337
vt 0.419706 0.419706
vt 0.383337 0.449553
vt 0.341844 0.471731
vt 0.031250 1.000000
vt 0.031250 0.500000
vt 0.000000 1.000000
vt 0.000000 0.500000
vt 0.750000 0.490000
vt 0.796822 0.485388
vt 0.841844 0.471731
vt 0.883337 0.449553
vt 0.919706 0.419706
vt 0.949553 0.383337
vt 0.971731 0.341844
vt 0.985388 0.296822
vt 0.990000 0.250000
vt 0.985388 0.203178
vt 0.971731 0.158156
vt 0.949553 0.116663
vt 0.919706 0.080294
vt 0.883337 0.050447
vt 0.841844 0.028269
vt 0.796822 0.014612
vt 0.750000 0.010000
vt 0.703178 0.014612
vt 0.658156 0.028269
vt 0.616663 0.050447
vt 0.580294 0.080294
vt 0.550447 0.116663
vt 0.528269 0.158156
vt 0.514612 0.203178
vt 0.510000 0.250000
vt 0.514612 0.296822
vt 0.528269 0.341844
vt 0.550447 0.383337
vt 0.580294 0.419706
vt 0.616663 0.449553
vt 0.658156 0.471731
vt 0.703178 0.485388
s 0
usemtl Material.007
f 509/875/187 511/878/187 512/877/187 510/876/187
f 511/878/188 513/880/188 514/879/188 512/877/188
f 513/880/189 515/882/189 516/881/189 514/879/189
f 515/882/190 517/884/190 518/883/190 516/881/190
f 517/884/191 519/886/191 520/885/191 518/883/191
f 519/886/192 521/888/192 522/887/192 520/885/192
f 521/888/193 523/890/193 524/889/193 522/887/193
f 523/890/194 525/892/194 526/891/194 524/889/194
f 525/892/195 527/894/195 528/893/195 526/891/195
f 527/894/196 529/896/196 530/895/196 528/893/196
f 529/896/197 531/898/197 532/897/197 530/895/197
f 531/898/198 533/900/198 534/899/198 532/897/198
f 533/900/199 535/902/199 536/901/199 534/899/199
f 535/902/200 537/904/200 538/903/200 536/901/200
f 537/904/201 539/906/201 540/905/201 538/903/201
f 539/906/202 541/908/202 542/907/202 540/905/202
f 541/908/203 543/910/203 544/909/203 542/907/203
f 543/910/204 545/912/204 546/911/204 544/909/204
f 545/912/205 547/914/205 548/913/205 546/911/205
f 547/914/206 549/916/206 550/915/206 548/913/206
f 549/916/207 551/918/207 552/917/207 550/915/207
f 551/918/208 553/920/208 554/919/208 552/917/208
f 553/920/209 555/922/209 556/921/209 554/919/209
f 555/922/210 557/924/210 558/923/210 556/921/210
f 557/924/211 559/926/211 560/925/211 558/923/211
f 559/926/212 561/928/212 562/927/212 560/925/212
f 561/928/213 563/930/213 564/929/213 562/927/213
f 563/930/214 565/932/214 566/931/214 564/929/214
f 565/932/215 567/934/215 568/933/215 566/931/215
f 567/934/216 569/936/216 570/935/216 568/933/216
f 512/937/217 514/968/217 516/967/217 518/966/217 520/965/217 522/964/217 524/963/217 526/962/217 528/961/217 530/960/217 532/959/217 534/958/217 536/957/217 538/956/217 540/955/217 542/954/217 544/953/217 546/952/217 548/951/217 550/950/217 552/949/217 554/948/217 556/947/217 558/946/217 560/945/217 562/944/217 564/943/217 566/942/217 568/941/217 570/940/217 572/939/217 510/938/217
f 569/936/218 571/970/218 572/969/218 570/935/218
f 571/970/219 509/972/219 510/971/219 572/969/219
f 509/973/220 571/1004/220 569/1003/220 567/1002/220 565/1001/220 563/1000/220 561/999/220 559/998/220 557/997/220 555/996/220 553/995/220 551/994/220 549/993/220 547/992/220 545/991/220 543/990/220 541/989/220 539/988/220 537/987/220 535/986/220 533/985/220 531/984/220 529/983/220 527/982/220 525/981/220 523/980/220 521/979/220 519/978/220 517/977/220 515/976/220 513/975/220 511/974/220
o Cilindro.007
v 3.993957 0.067271 -4.916629
v 3.993957 5.768055 -4.916629
v 3.834727 0.067271 -4.909041
v 3.834727 5.768055 -4.909041
v 3.681615 0.067271 -4.886570
v 3.681615 5.768055 -4.886570
v 3.540507 0.067271 -4.850080
v 3.540507 5.768055 -4.850080
v 3.416825 0.067271 -4.800972
v 3.416825 5.768055 -4.800972
v 3.315321 0.067271 -4.741134
v 3.315321 5.768055 -4.741134
v 3.239897 0.067271 -4.672865
v 3.239897 5.768055 -4.672865
v 3.193452 0.067271 -4.598789
v 3.193452 5.768055 -4.598789
v 3.177769 0.067271 -4.521752
v 3.177769 5.768055 -4.521752
v 3.193452 0.067271 -4.444715
v 3.193452 5.768055 -4.444715
v 3.239898 0.067271 -4.370639
v 3.239898 5.768055 -4.370639
v 3.315321 0.067271 -4.302371
v 3.315321 5.768055 -4.302371
v 3.416825 0.067271 -4.242532
v 3.416825 5.768055 -4.242532
v 3.540507 0.067271 -4.193424
v 3.540507 5.768055 -4.193424
v 3.681615 0.067271 -4.156934
v 3.681615 5.768055 -4.156934
v 3.834727 0.067271 -4.134463
v 3.834727 5.768055 -4.134463
v 3.993957 0.067271 -4.126876
v 3.993957 5.768055 -4.126876
v 4.153188 0.067271 -4.134463
v 4.153188 5.768055 -4.134463
v 4.306299 0.067271 -4.156934
v 4.306299 5.768055 -4.156934
v 4.447407 0.067271 -4.193425
v 4.447407 5.768055 -4.193425
v 4.571089 0.067271 -4.242533
v 4.571089 5.768055 -4.242533
v 4.672593 0.067271 -4.302371
v 4.672593 5.768055 -4.302371
v 4.748016 0.067271 -4.370640
v 4.748016 5.768055 -4.370640
v 4.794462 0.067271 -4.444716
v 4.794462 5.768055 -4.444716
v 4.810145 0.067271 -4.521753
v 4.810145 5.768055 -4.521753
v 4.794462 0.067271 -4.598789
v 4.794462 5.768055 -4.598789
v 4.748016 0.067271 -4.672865
v 4.748016 5.768055 -4.672865
v 4.672593 0.067271 -4.741134
v 4.672593 5.768055 -4.741134
v 4.571089 0.067271 -4.800972
v 4.571089 5.768055 -4.800972
v 4.447407 0.067271 -4.850080
v 4.447407 5.768055 -4.850080
v 4.306299 0.067271 -4.886571
v 4.306299 5.768055 -4.886571
v 4.153187 0.067271 -4.909041
v 4.153187 5.768055 -4.909041
vn -0.0476 -0.0000 -0.9989
vn -0.1452 -0.0000 -0.9894
vn -0.2504 -0.0000 -0.9682
vn -0.3690 -0.0000 -0.9294
vn -0.5078 -0.0000 -0.8615
vn -0.6711 -0.0000 -0.7414
vn -0.8472 -0.0000 -0.5312
vn -0.9799 -0.0000 -0.1995
vn -0.9799 -0.0000 0.1995
vn -0.8472 -0.0000 0.5312
vn -0.6711 -0.0000 0.7414
vn -0.5078 -0.0000 0.8615
vn -0.3690 -0.0000 0.9294
vn -0.2504 -0.0000 0.9682
vn -0.1452 -0.0000 0.9894
vn -0.0476 -0.0000 0.9989
vn 0.0476 -0.0000 0.9989
vn 0.1452 -0.0000 0.9894
vn 0.2504 -0.0000 0.9682
vn 0.3690 -0.0000 0.9294
vn 0.5078 -0.0000 0.8615
vn 0.6711 -0.0000 0.7414
vn 0.8472 -0.0000 0.5312
vn 0.9799 -0.0000 0.1995
vn 0.9799 -0.0000 -0.1995
vn 0.8472 -0.0000 -0.5312
vn 0.6711 -0.0000 -0.7414
vn 0.5078 -0.0000 -0.8615
vn 0.3690 -0.0000 -0.9294
vn 0.2504 -0.0000 -0.9682
vn -0.0000 1.0000 -0.0000
vn 0.1452 -0.0000 -0.9894
vn 0.0476 -0.0000 -0.9989
vn -0.0000 -1.0000 -0.0000
vt 1.000000 0.500000
vt 1.000000 1.000000
vt 0.968750 1.000000
vt 0.968750 0.500000
vt 0.937500 1.000000
vt 0.937500 0.500000
vt 0.906250 1.000000
vt 0.906250 0.500000
vt 0.875000 1.000000
vt 0.875000 0.500000
vt 0.843750 1.000000
vt 0.843750 0.500000
vt 0.812500 1.000000
vt 0.812500 0.500000
vt 0.781250 1.000000
vt 0.781250 0.500000
vt 0.750000 1.000000
vt 0.750000 0.500000
vt 0.718750 1.000000
vt 0.718750 0.500000
vt 0.687500 1.000000
vt 0.687500 0.500000
vt 0.656250 1.000000
vt 0.656250 0.500000
vt 0.625000 1.000000
vt 0.625000 0.500000
vt 0.593750 1.000000
vt 0.593750 0.500000
vt 0.562500 1.000000
vt 0.562500 0.500000
vt 0.531250 1.000000
vt 0.531250 0.500000
vt 0.500000 1.000000
vt 0.500000 0.500000
vt 0.468750 1.000000
vt 0.468750 0.500000
vt 0.437500 1.000000
vt 0.437500 0.500000
vt 0.406250 1.000000
vt 0.406250 0.500000
vt 0.375000 1.000000
vt 0.375000 0.500000
vt 0.343750 1.000000
vt 0.343750 0.500000
vt 0.312500 1.000000
vt 0.312500 0.500000
vt 0.281250 1.000000
vt 0.281250 0.500000
vt 0.250000 1.000000
vt 0.250000 0.500000
vt 0.218750 1.000000
vt 0.218750 0.500000
vt 0.187500 1.000000
vt 0.187500 0.500000
vt 0.156250 1.000000
vt 0.156250 0.500000
vt 0.125000 1.000000
vt 0.125000 0.500000
vt 0.093750 1.000000
vt 0.093750 0.500000
vt 0.062500 1.000000
vt 0.062500 0.500000
vt 0.296822 0.485388
vt 0.250000 0.490000
vt 0.203178 0.485388
vt 0.158156 0.471731
vt 0.116663 0.449553
vt 0.080294 0.419706
vt 0.050447 0.383337
vt 0.028269 0.341844
vt 0.014612 0.296822
vt 0.010000 0.250000
vt 0.014612 0.203178
vt 0.028269 0.158156
vt 0.050447 0.116663
vt 0.080294 0.080294
vt 0.116663 0.050447
vt 0.158156 0.028269
vt 0.203178 0.014612
vt 0.250000 0.010000
vt 0.296822 0.014612
vt 0.341844 0.028269
vt 0.383337 0.050447
vt 0.419706 0.080294
vt 0.449553 0.116663
vt 0.471731 0.158156
vt 0.485388 0.203178
vt 0.490000 0.250000
vt 0.485388 0.296822
vt 0.471731 0.341844
vt 0.449553 0.383337
vt 0.419706 0.419706
vt 0.383337 0.449553
vt 0.341844 0.471731
vt 0.031250 1.000000
vt 0.031250 0.500000
vt 0.000000 1.000000
vt 0.000000 0.500000
vt 0.750000 0.490000
vt 0.796822 0.485388
vt 0.841844 0.471731
vt 0.883337 0.449553
vt 0.919706 0.419706
vt 0.949553 0.383337
vt 0.971731 0.341844
vt 0.985388 0.296822
vt 0.990000 0.250000
vt 0.985388 0.203178
vt 0.971731 0.158156
vt 0.949553 0.116663
vt 0.919706 0.080294
vt 0.883337 0.050447
vt 0.841844 0.028269
vt 0.796822 0.014612
vt 0.750000 0.010000
vt 0.703178 0.014612
vt 0.658156 0.028269
vt 0.616663 0.050447
vt 0.580294 0.080294
vt 0.550447 0.116663
vt 0.528269 0.158156
vt 0.514612 0.203178
vt 0.510000 0.250000
vt 0.514612 0.296822
vt 0.528269 0.341844
vt 0.550447 0.383337
vt 0.580294 0.419706
vt 0.616663 0.449553
vt 0.658156 0.471731
vt 0.703178 0.485388
s 0
usemtl Material.008
f 573/1005/221 575/1008/221 576/1007/221 574/1006/221
f 575/1008/222 577/1010/222 578/1009/222 576/1007/222
f 577/1010/223 579/1012/223 580/1011/223 578/1009/223
f 579/1012/224 581/1014/224 582/1013/224 580/1011/224
f 581/1014/225 583/1016/225 584/1015/225 582/1013/225
f 583/1016/226 585/1018/226 586/1017/226 584/1015/226
f 585/1018/227 587/1020/227 588/1019/227 586/1017/227
f 587/1020/228 589/1022/228 590/1021/228 588/1019/228
f 589/1022/229 591/1024/229 592/1023/229 590/1021/229
f 591/1024/230 593/1026/230 594/1025/230 592/1023/230
f 593/1026/231 595/1028/231 596/1027/231 594/1025/231
f 595/1028/232 597/1030/232 598/1029/232 596/1027/232
f 597/1030/233 599/1032/233 600/1031/233 598/1029/233
f 599/1032/234 601/1034/234 602/1033/234 600/1031/234
f 601/1034/235 603/1036/235 604/1035/235 602/1033/235
f 603/1036/236 605/1038/236 606/1037/236 604/1035/236
f 605/1038/237 607/1040/237 608/1039/237 606/1037/237
f 607/1040/238 609/1042/238 610/1041/238 608/1039/238
f 609/1042/239 611/1044/239 612/1043/239 610/1041/239
f 611/1044/240 613/1046/240 614/1045/240 612/1043/240
f 613/1046/241 615/1048/241 616/1047/241 614/1045/241
f 615/1048/242 617/1050/242 618/1049/242 616/1047/242
f 617/1050/243 619/1052/243 620/1051/243 618/1049/243
f 619/1052/244 621/1054/244 622/1053/244 620/1051/244
f 621/1054/245 623/1056/245 624/1055/245 622/1053/245
f 623/1056/246 625/1058/246 626/1057/246 624/1055/246
f 625/1058/247 627/1060/247 628/1059/247 626/1057/247
f 627/1060/248 629/1062/248 630/1061/248 628/1059/248
f 629/1062/249 631/1064/249 632/1063/249 630/1061/249
f 631/1064/250 633/1066/250 634/1065/250 632/1063/250
f 576/1067/251 578/1098/251 580/1097/251 582/1096/251 584/1095/251 586/1094/251 588/1093/251 590/1092/251 592/1091/251 594/1090/251 596/1089/251 598/1088/251 600/1087/251 602/1086/251 604/1085/251 606/1084/251 608/1083/251 610/1082/251 612/1081/251 614/1080/251 616/1079/251 618/1078/251 620/1077/251 622/1076/251 624/1075/251 626/1074/251 628/1073/251 630/1072/251 632/1071/251 634/1070/251 636/1069/251 574/1068/251
f 633/1066/252 635/1100/252 636/1099/252 634/1065/252
f 635/1100/253 573/1102/253 574/1101/253 636/1099/253
f 573/1103/254 635/1134/254 633/1133/254 631/1132/254 629/1131/254 627/1130/254 625/1129/254 623/1128/254 621/1127/254 619/1126/254 617/1125/254 615/1124/254 613/1123/254 611/1122/254 609/1121/254 607/1120/254 605/1119/254 603/1118/254 601/1117/254 599/1116/254 597/1115/254 595/1114/254 593/1113/254 591/1112/254 589/1111/254 587/1110/254 585/1109/254 583/1108/254 581/1107/254 579/1106/254 577/1105/254 575/1104/254
o Cilindro.008
v -5.052481 0.075135 -5.049763
v -5.052481 5.775920 -5.049763
v -5.211711 0.075135 -5.042176
v -5.211711 5.775920 -5.042176
v -5.364822 0.075135 -5.019705
v -5.364822 5.775920 -5.019705
v -5.505930 0.075135 -4.983214
v -5.505930 5.775920 -4.983214
v -5.629613 0.075135 -4.934106
v -5.629613 5.775920 -4.934106
v -5.731116 0.075135 -4.874268
v -5.731116 5.775920 -4.874268
v -5.806540 0.075135 -4.805999
v -5.806540 5.775920 -4.805999
v -5.852986 0.075135 -4.731923
v -5.852986 5.775920 -4.731923
v -5.868669 0.075135 -4.654886
v -5.868669 5.775920 -4.654886
v -5.852986 0.075135 -4.577850
v -5.852986 5.775920 -4.577850
v -5.806540 0.075135 -4.503774
v -5.806540 5.775920 -4.503774
v -5.731116 0.075135 -4.435505
v -5.731116 5.775920 -4.435505
v -5.629613 0.075135 -4.375667
v -5.629613 5.775920 -4.375667
v -5.505930 0.075135 -4.326559
v -5.505930 5.775920 -4.326559
v -5.364822 0.075135 -4.290069
v -5.364822 5.775920 -4.290069
v -5.211711 0.075135 -4.267598
v -5.211711 5.775920 -4.267598
v -5.052481 0.075135 -4.260010
v -5.052481 5.775920 -4.260010
v -4.893250 0.075135 -4.267598
v -4.893250 5.775920 -4.267598
v -4.740139 0.075135 -4.290069
v -4.740139 5.775920 -4.290069
v -4.599031 0.075135 -4.326559
v -4.599031 5.775920 -4.326559
v -4.475348 0.075135 -4.375667
v -4.475348 5.775920 -4.375667
v -4.373845 0.075135 -4.435505
v -4.373845 5.775920 -4.435505
v -4.298421 0.075135 -4.503774
v -4.298421 5.775920 -4.503774
v -4.251976 0.075135 -4.577850
v -4.251976 5.775920 -4.577850
v -4.236293 0.075135 -4.654887
v -4.236293 5.775920 -4.654887
v -4.251976 0.075135 -4.731924
v -4.251976 5.775920 -4.731924
v -4.298421 0.075135 -4.806000
v -4.298421 5.775920 -4.806000
v -4.373845 0.075135 -4.874269
v -4.373845 5.775920 -4.874269
v -4.475348 0.075135 -4.934107
v -4.475348 5.775920 -4.934107
v -4.599031 0.075135 -4.983214
v -4.599031 5.775920 -4.983214
v -4.740139 0.075135 -5.019705
v -4.740139 5.775920 -5.019705
v -4.893250 0.075135 -5.042176
v -4.893250 5.775920 -5.042176
vn -0.0476 -0.0000 -0.9989
vn -0.1452 -0.0000 -0.9894
vn -0.2504 -0.0000 -0.9682
vn -0.3690 -0.0000 -0.9294
vn -0.5078 -0.0000 -0.8615
vn -0.6711 -0.0000 -0.7414
vn -0.8472 -0.0000 -0.5312
vn -0.9799 -0.0000 -0.1995
vn -0.9799 -0.0000 0.1995
vn -0.8472 -0.0000 0.5312
vn -0.6711 -0.0000 0.7414
vn -0.5078 -0.0000 0.8615
vn -0.3690 -0.0000 0.9294
vn -0.2504 -0.0000 0.9682
vn -0.1452 -0.0000 0.9894
vn -0.0476 -0.0000 0.9989
vn 0.0476 -0.0000 0.9989
vn 0.1452 -0.0000 0.9894
vn 0.2504 -0.0000 0.9682
vn 0.3690 -0.0000 0.9294
vn 0.5078 -0.0000 0.8615
vn 0.6711 -0.0000 0.7414
vn 0.8472 -0.0000 0.5312
vn 0.9799 -0.0000 0.1995
vn 0.9799 -0.0000 -0.1995
vn 0.8472 -0.0000 -0.5312
vn 0.6711 -0.0000 -0.7414
vn 0.5078 -0.0000 -0.8615
vn 0.3690 -0.0000 -0.9294
vn 0.2504 -0.0000 -0.9682
vn -0.0000 1.0000 -0.0000
vn 0.1452 -0.0000 -0.9894
vn 0.0476 -0.0000 -0.9989
vn -0.0000 -1.0000 -0.0000
vt 1.000000 0.500000
vt 1.000000 1.000000
vt 0.968750 1.000000
vt 0.968750 0.500000
vt 0.937500 1.000000
vt 0.937500 0.500000
vt 0.906250 1.000000
vt 0.906250 0.500000
vt 0.875000 1.000000
vt 0.875000 0.500000
vt 0.843750 1.000000
vt 0.843750 0.500000
vt 0.812500 1.000000
vt 0.812500 0.500000
vt 0.781250 1.000000
vt 0.781250 0.500000
vt 0.750000 1.000000
vt 0.750000 0.500000
vt 0.718750 1.000000
vt 0.718750 0.500000
vt 0.687500 1.000000
vt 0.687500 0.500000
vt 0.656250 1.000000
vt 0.656250 0.500000
vt 0.625000 1.000000
vt 0.625000 0.500000
vt 0.593750 1.000000
vt 0.593750 0.500000
vt 0.562500 1.000000
vt 0.562500 0.500000
vt 0.531250 1.000000
vt 0.531250 0.500000
vt 0.500000 1.000000
vt 0.500000 0.500000
vt 0.468750 1.000000
vt 0.468750 0.500000
vt 0.437500 1.000000
vt 0.437500 0.500000
vt 0.406250 1.000000
vt 0.406250 0.500000
vt 0.375000 1.000000
vt 0.375000 0.500000
vt 0.343750 1.000000
vt 0.343750 0.500000
vt 0.312500 1.000000
vt 0.312500 0.500000
vt 0.281250 1.000000
vt 0.281250 0.500000
vt 0.250000 1.000000
vt 0.250000 0.500000
vt 0.218750 1.000000
vt 0.218750 0.500000
vt 0.187500 1.000000
vt 0.187500 0.500000
vt 0.156250 1.000000
vt 0.156250 0.500000
vt 0.125000 1.000000
vt 0.125000 0.500000
vt 0.093750 1.000000
vt 0.093750 0.500000
vt 0.062500 1.000000
vt 0.062500 0.500000
vt 0.296822 0.485388
vt 0.250000 0.490000
vt 0.203178 0.485388
vt 0.158156 0.471731
vt 0.116663 0.449553
vt 0.080294 0.419706
vt 0.050447 0.383337
vt 0.028269 0.341844
vt 0.014612 0.296822
vt 0.010000 0.250000
vt 0.014612 0.203178
vt 0.028269 0.158156
vt 0.050447 0.116663
vt 0.080294 0.080294
vt 0.116663 0.050447
vt 0.158156 0.028269
vt 0.203178 0.014612
vt 0.250000 0.010000
vt 0.296822 0.014612
vt 0.341844 0.028269
vt 0.383337 0.050447
vt 0.419706 0.080294
vt 0.449553 0.116663
vt 0.471731 0.158156
vt 0.485388 0.203178
vt 0.490000 0.250000
vt 0.485388 0.296822
vt 0.471731 0.341844
vt 0.449553 0.383337
vt 0.419706 0.419706
vt 0.383337 0.449553
vt 0.341844 0.471731
vt 0.031250 1.000000
vt 0.031250 0.500000
vt 0.000000 1.000000
vt 0.000000 0.500000
vt 0.750000 0.490000
vt 0.796822 0.485388
vt 0.841844 0.471731
vt 0.883337 0.449553
vt 0.919706 0.419706
vt 0.949553 0.383337
vt 0.971731 0.341844
vt 0.985388 0.296822
vt 0.990000 0.250000
vt 0.985388 0.203178
vt 0.971731 0.158156
vt 0.949553 0.116663
vt 0.919706 0.080294
vt 0.883337 0.050447
vt 0.841844 0.028269
vt 0.796822 0.014612
vt 0.750000 0.010000
vt 0.703178 0.014612
vt 0.658156 0.028269
vt 0.616663 0.050447
vt 0.580294 0.080294
vt 0.550447 0.116663
vt 0.528269 0.158156
vt 0.514612 0.203178
vt 0.510000 0.250000
vt 0.514612 0.296822
vt 0.528269 0.341844
vt 0.550447 0.383337
vt 0.580294 0.419706
vt 0.616663 0.449553
vt 0.658156 0.471731
vt 0.703178 0.485388
s 0
usemtl Material.009
f 637/1135/255 639/1138/255 640/1137/255 638/1136/255
f 639/1138/256 641/1140/256 642/1139/256 640/1137/256
f 641/1140/257 643/1142/257 644/1141/257 642/1139/257
f 643/1142/258 645/1144/258 646/1143/258 644/1141/258
f 645/1144/259 647/1146/259 648/1145/259 646/1143/259
f 647/1146/260 649/1148/260 650/1147/260 648/1145/260
f 649/1148/261 651/1150/261 652/1149/261 650/1147/261
f 651/1150/262 653/1152/262 654/1151/262 652/1149/262
f 653/1152/263 655/1154/263 656/1153/263 654/1151/263
f 655/1154/264 657/1156/264 658/1155/264 656/1153/264
f 657/1156/265 659/1158/265 660/1157/265 658/1155/265
f 659/1158/266 661/1160/266 662/1159/266 660/1157/266
f 661/1160/267 663/1162/267 664/1161/267 662/1159/267
f 663/1162/268 665/1164/268 666/1163/268 664/1161/268
f 665/1164/269 667/1166/269 668/1165/269 666/1163/269
f 667/1166/270 669/1168/270 670/1167/270 668/1165/270
f 669/1168/271 671/1170/271 672/1169/271 670/1167/271
f 671/1170/272 673/1172/272 674/1171/272 672/1169/272
f 673/1172/273 675/1174/273 676/1173/273 674/1171/273
f 675/1174/274 677/1176/274 678/1175/274 676/1173/274
f 677/1176/275 679/1178/275 680/1177/275 678/1175/275
f 679/1178/276 681/1180/276 682/1179/276 680/1177/276
f 681/1180/277 683/1182/277 684/1181/277 682/1179/277
f 683/1182/278 685/1184/278 686/1183/278 684/1181/278
f 685/1184/279 687/1186/279 688/1185/279 686/1183/279
f 687/1186/280 689/1188/280 690/1187/280 688/1185/280
f 689/1188/281 691/1190/281 692/1189/281 690/1187/281
f 691/1190/282 693/1192/282 694/1191/282 692/1189/282
f 693/1192/283 695/1194/283 696/1193/283 694/1191/283
f 695/1194/284 697/1196/284 698/1195/284 696/1193/284
f 640/1197/285 642/1228/285 644/1227/285 646/1226/285 648/1225/285 650/1224/285 652/1223/285 654/1222/285 656/1221/285 658/1220/285 660/1219/285 662/1218/285 664/1217/285 666/1216/285 668/1215/285 670/1214/285 672/1213/285 674/1212/285 676/1211/285 678/1210/285 680/1209/285 682/1208/285 684/1207/285 686/1206/285 688/1205/285 690/1204/285 692/1203/285 694/1202/285 696/1201/285 698/1200/285 700/1199/285 638/1198/285
f 697/1196/286 699/1230/286 700/1229/286 698/1195/286
f 699/1230/287 637/1232/287 638/1231/287 700/1229/287
f 637/1233/288 699/1264/288 697/1263/288 695/1262/288 693/1261/288 691/1260/288 689/1259/288 687/1258/288 685/1257/288 683/1256/288 681/1255/288 679/1254/288 677/1253/288 675/1252/288 673/1251/288 671/1250/288 669/1249/288 667/1248/288 665/1247/288 663/1246/288 661/1245/288 659/1244/288 657/1243/288 655/1242/288 653/1241/288 651/1240/288 649/1239/288 647/1238/288 645/1237/288 643/1236/288 641/1235/288 639/1234/288
o ParedAuditorio
v 7.457549 -0.082128 -11.341607
v 7.457549 0.082128 -11.341607
v -7.457549 -0.082128 -11.341607
v -7.457549 0.082128 -11.341607
v -7.457549 -0.082128 -11.175232
v 7.457549 0.082128 -11.175232
v -7.457549 0.082128 -11.175232
v 7.457549 -0.082128 -11.175232
v 7.457549 4.857536 -11.341607
v -7.457549 4.857536 -11.341607
v 7.457549 4.857536 -11.175232
v -7.457549 4.857536 -11.175232
v 7.457549 5.627878 -11.341607
v -7.457549 5.627878 -11.341607
v 7.457549 5.627878 -11.175232
v -7.457549 5.627878 -11.175232
v 7.457549 5.850699 -11.341607
v -7.457549 5.850699 -11.341607
v 7.457549 5.850699 -11.175232
v -7.457549 5.850699 -11.175232
vn -1.0000 -0.0000 -0.0000
vn -0.0000 -0.0000 -1.0000
vn -0.0000 -1.0000 -0.0000
vn 1.0000 -0.0000 -0.0000
vn -0.0000 -0.0000 1.0000
vn -0.0000 1.0000 -0.0000
vt 0.375000 0.248166
vt 0.625000 0.248166
vt 0.625000 0.250000
vt 0.375000 0.250000
vt 0.625000 0.500000
vt 0.375000 0.500000
vt 0.875000 0.500000
vt 0.875000 0.501834
vt 0.625000 0.501834
vt 0.375000 0.501834
vt 0.125000 0.501834
vt 0.125000 0.500000
s 0
usemtl MaterialParedA
f 707/1265/289 704/1268/289 703/1267/289 705/1266/289
f 704/1268/290 702/1270/290 701/1269/290 703/1267/290
f 701/1269/291 708/1273/291 705/1272/291 703/1271/291
f 704/1268/290 710/1268/290 709/1270/290 702/1270/290
f 702/1270/292 706/1274/292 708/1273/292 701/1269/292
f 712/1265/289 716/1265/289 714/1268/289 710/1268/289
f 707/1265/289 712/1265/289 710/1268/289 704/1268/289
f 706/1274/293 711/1274/293 712/1275/293 707/1275/293
f 702/1270/292 709/1270/292 711/1274/292 706/1274/292
f 715/1274/293 719/1274/293 720/1275/293 716/1275/293
f 710/1268/290 714/1268/290 713/1270/290 709/1270/290
f 711/1274/293 715/1274/293 716/1275/293 712/1275/293
f 709/1270/292 713/1270/292 715/1274/292 711/1274/292
f 718/1276/294 720/1275/294 719/1274/294 717/1270/294
f 713/1270/292 717/1270/292 719/1274/292 715/1274/292
f 716/1265/289 720/1265/289 718/1268/289 714/1268/289
f 714/1268/290 718/1268/290 717/1270/290 713/1270/290
o PisoBase
v -7.457549 0.082128 11.119783
v 7.457549 -0.082128 11.119783
v -7.457549 -0.082128 11.119783
v 7.457549 0.082128 11.119783
v -7.457549 -0.082128 -11.175232
v 7.457549 0.082128 -11.175232
v -7.457549 0.082128 -11.175232
v 7.457549 -0.082128 -11.175232
vn 1.0000 -0.0000 -0.0000
vn -0.0000 1.0000 -0.0000
vn -0.0000 -1.0000 -0.0000
vn -1.0000 -0.0000 -0.0000
vt 0.375000 0.501834
vt 0.625000 0.501834
vt 0.625000 0.747555
vt 0.375000 0.747555
vt 0.125000 0.501834
vt 0.125000 0.747555
vt 0.875000 0.501834
vt 0.875000 0.747555
vt 0.375000 0.002445
vt 0.625000 0.002445
vt 0.625000 0.248166
vt 0.375000 0.248166
s 0
usemtl MaterialCil
f 726/1277/295 724/1280/295 722/1279/295 728/1278/295
f 727/1281/296 721/1282/296 724/1280/296 726/1277/296
f 728/1278/297 722/1279/297 723/1284/297 725/1283/297
f 721/1285/298 727/1288/298 725/1287/298 723/1286/298
o EscalerBlanc
v -3.528470 0.064775 -10.600058
v -3.528470 0.282446 -10.600058
v -3.528470 0.064775 -5.483391
v -3.528470 0.282446 -5.483391
v 2.082991 0.064775 -10.600058
v 2.082991 0.282446 -10.600058
v 2.082991 0.064775 -5.483391
v 2.082991 0.282446 -5.483391
v -3.528470 0.064775 -5.845884
v -3.528470 0.282446 -5.845884
v 2.082991 0.064775 -5.845884
v 2.082991 0.282446 -5.845884
v -3.528470 0.064775 -6.228755
v 2.082991 0.282446 -6.228755
v -3.528470 0.282446 -6.228755
v 2.082991 0.064775 -6.228755
v -3.528470 0.064775 -6.603818
v 2.082991 0.282446 -6.603818
v -3.528470 0.282446 -6.603818
v 2.082991 0.064775 -6.603818
v -3.528470 0.064775 -6.949491
v 2.082991 0.282446 -6.949491
v -3.528470 0.282446 -6.949491
v 2.082991 0.064775 -6.949491
v -3.528470 0.064775 -7.305098
v 2.082991 0.282446 -7.305098
v -3.528470 0.282446 -7.305098
v 2.082991 0.064775 -7.305098
v -3.528470 0.064775 -7.716192
v 2.082991 0.282446 -7.716192
v -3.528470 0.282446 -7.716192
v 2.082991 0.064775 -7.716192
v -3.528470 0.064775 -8.124737
v 2.082991 0.282446 -8.124737
v -3.528470 0.282446 -8.124737
v 2.082991 0.064775 -8.124737
v -3.528470 0.064775 -8.503632
v 2.082991 0.282446 -8.503632
v -3.528470 0.282446 -8.503631
v 2.082991 0.064775 -8.503631
v -3.528470 0.064775 -8.883177
v 2.082991 0.282446 -8.883177
v -3.528470 0.282446 -8.883177
v 2.082991 0.064775 -8.883177
v -3.528470 0.064775 -9.260968
v 2.082991 0.282446 -9.260968
v -3.528470 0.282446 -9.260968
v 2.082991 0.064775 -9.260968
v -3.528470 0.585617 -5.845884
v -3.528470 0.585617 -5.483391
v 2.082991 0.585617 -5.483391
v 2.082991 0.585617 -5.845884
v -3.528470 0.891192 -6.228755
v -3.528470 0.891192 -5.845884
v 2.082991 0.891192 -5.845884
v 2.082991 0.891192 -6.228755
v -3.528470 1.184065 -6.603818
v -3.528470 1.184065 -6.228755
v 2.082991 1.184065 -6.228755
v 2.082991 1.184065 -6.603818
v -3.528470 1.491838 -6.949491
v -3.528470 1.491838 -6.603818
v 2.082991 1.491838 -6.603818
v 2.082991 1.491838 -6.949491
v -3.528470 1.787783 -7.305098
v -3.528470 1.787783 -6.949491
v 2.082991 1.787783 -6.949491
v 2.082991 1.787783 -7.305098
v -3.528470 2.084009 -7.716192
v -3.528470 2.084009 -7.305098
v 2.082991 2.084009 -7.305098
v 2.082991 2.084009 -7.716192
v -3.528470 2.484931 -8.124737
v -3.528470 2.484931 -7.716192
v 2.082991 2.484931 -7.716192
v 2.082991 2.484931 -8.124737
v -3.528470 2.682421 -8.503631
v -3.528470 2.682421 -8.124737
v 2.082991 2.682421 -8.124737
v 2.082991 2.682421 -8.503632
v -3.528470 2.983676 -8.883177
v -3.528470 2.983676 -8.503631
v 2.082991 2.983676 -8.503632
v 2.082991 2.983676 -8.883177
v -3.528470 3.284117 -9.260968
v -3.528470 3.284117 -8.883177
v 2.082991 3.284117 -8.883177
v 2.082991 3.284117 -9.260968
v 2.082991 3.591775 -9.260968
v -3.528470 3.591775 -10.600058
v -3.528470 3.591775 -9.260968
v 3.872894 0.282446 -9.260968
v 3.872894 3.591775 -9.260968
v 4.744479 0.282446 -9.260968
v 4.744479 3.591775 -9.260968
v 6.453195 0.282446 -9.260968
v 6.453195 0.282446 -10.600058
v 6.453195 3.591775 -9.260968
v 6.453195 3.591775 -10.600058
v -3.528470 0.064775 -10.471948
v 2.082991 0.282446 -10.471948
v -3.528470 0.282446 -10.471948
v 2.082991 0.064775 -10.471948
v 2.082991 3.591775 -10.471948
v -3.528470 3.591775 -10.471948
v 3.872894 3.591775 -10.471948
v 4.744479 3.591775 -10.471948
v 6.453195 0.282446 -10.471948
v 6.453195 3.591775 -10.471948
v 2.082991 4.071143 -10.471948
v 2.082991 4.071143 -10.600058
v -3.528470 4.071143 -10.600058
v 3.872894 4.071143 -10.471948
v 3.872894 4.071143 -10.600058
v 4.744479 4.071143 -10.471948
v 4.744479 4.071143 -10.600058
v 6.453195 4.071143 -10.471948
v 6.453195 4.071143 -10.600058
v -3.528470 4.071143 -10.471948
vn -1.0000 -0.0000 -0.0000
vn 1.0000 -0.0000 -0.0000
vn -0.0000 -0.0000 1.0000
vn -0.0000 1.0000 -0.0000
vt 0.375000 0.232289
vt 0.625000 0.232289
vt 0.625000 0.250000
vt 0.375000 0.250000
vt 0.375000 0.743741
vt 0.625000 0.743741
vt 0.625000 0.750000
vt 0.375000 0.750000
vt 0.625000 0.006259
vt 0.625000 0.000000
vt 0.625000 0.006259
vt 0.375000 0.500000
vt 0.625000 0.500000
vt 0.625000 0.517711
vt 0.375000 0.517711
vt 0.375000 0.213582
vt 0.625000 0.213582
vt 0.375000 0.195256
vt 0.625000 0.195256
vt 0.625000 0.536418
vt 0.375000 0.536418
vt 0.375000 0.178366
vt 0.625000 0.178366
vt 0.625000 0.554744
vt 0.375000 0.554744
vt 0.375000 0.160992
vt 0.625000 0.160991
vt 0.625000 0.571634
vt 0.375000 0.571634
vt 0.375000 0.140905
vt 0.625000 0.140905
vt 0.625000 0.589009
vt 0.375000 0.589009
vt 0.375000 0.120944
vt 0.625000 0.120944
vt 0.625000 0.609095
vt 0.375000 0.609095
vt 0.375000 0.102431
vt 0.625000 0.102431
vt 0.625000 0.629056
vt 0.375000 0.629056
vt 0.375000 0.083887
vt 0.625000 0.083887
vt 0.625000 0.647569
vt 0.375000 0.647569
vt 0.375000 0.065428
vt 0.625000 0.065428
vt 0.625000 0.666113
vt 0.375000 0.666113
vt 0.375000 0.006259
vt 0.625000 0.684572
vt 0.375000 0.684572
vt 0.875000 0.743741
vt 0.375000 0.000000
vt 0.875000 0.750000
s 0
f 737/1289/299 731/1292/299 732/1291/299 738/1290/299
f 831/1293/300 733/1296/300 734/1295/300 829/1294/300
f 830/1297/299 833/1299/299 818/1298/299 730/1298/299
f 735/1300/300 739/1303/300 740/1302/300 736/1301/300
f 741/1304/299 737/1289/299 738/1290/299 743/1305/299
f 745/1306/299 741/1304/299 743/1305/299 747/1307/299
f 739/1303/300 744/1309/300 742/1308/300 740/1302/300
f 749/1310/299 745/1306/299 747/1307/299 751/1311/299
f 746/1312/300 788/1312/300 787/1308/300 742/1308/300
f 744/1309/300 748/1313/300 746/1312/300 742/1308/300
f 753/1314/299 749/1310/299 751/1311/299 755/1315/299
f 747/1307/299 790/1307/299 789/1311/299 751/1311/299
f 748/1313/300 752/1317/300 750/1316/300 746/1312/300
f 757/1318/299 753/1314/299 755/1315/299 759/1319/299
f 751/1311/299 794/1311/299 793/1315/299 755/1315/299
f 752/1317/300 756/1321/300 754/1320/300 750/1316/300
f 761/1322/299 757/1318/299 759/1319/299 763/1323/299
f 758/1324/300 800/1324/300 799/1320/300 754/1320/300
f 756/1321/300 760/1325/300 758/1324/300 754/1320/300
f 765/1326/299 761/1322/299 763/1323/299 767/1327/299
f 759/1319/299 802/1319/299 801/1323/299 763/1323/299
f 760/1325/300 764/1329/300 762/1328/300 758/1324/300
f 769/1330/299 765/1326/299 767/1327/299 771/1331/299
f 763/1323/299 806/1323/299 805/1327/299 767/1327/299
f 764/1329/300 768/1333/300 766/1332/300 762/1328/300
f 773/1334/299 769/1330/299 771/1331/299 775/1335/299
f 768/1333/300 772/1337/300 770/1336/300 766/1332/300
f 828/1338/299 773/1334/299 775/1335/299 830/1297/299
f 771/1331/299 814/1331/299 813/1335/299 775/1335/299
f 772/1337/300 776/1340/300 774/1339/300 770/1336/300
f 740/1302/300 780/1302/300 779/1301/300 736/1301/300
f 732/1291/299 778/1291/299 777/1290/299 738/1290/299
f 742/1308/300 784/1308/300 783/1302/300 740/1302/300
f 738/1290/299 782/1290/299 781/1305/299 743/1305/299
f 743/1305/299 786/1305/299 785/1307/299 747/1307/299
f 750/1316/300 792/1316/300 791/1312/300 746/1312/300
f 754/1320/300 796/1320/300 795/1316/300 750/1316/300
f 755/1315/299 798/1315/299 797/1319/299 759/1319/299
f 762/1328/300 804/1328/300 803/1324/300 758/1324/300
f 766/1332/300 808/1332/300 807/1328/300 762/1328/300
f 767/1327/299 810/1327/299 809/1331/299 771/1331/299
f 770/1336/300 812/1336/300 811/1332/300 766/1332/300
f 774/1339/300 816/1339/300 815/1336/300 770/1336/300
f 832/1294/301 838/1294/301 847/1341/301 833/1341/301
f 837/1294/301 845/1294/301 843/1294/301 835/1294/301
f 820/1339/301 822/1339/301 823/1339/301 821/1339/301
f 774/1339/301 820/1339/301 821/1339/301 817/1339/301
f 833/1299/299 847/1299/299 840/1298/299 818/1298/299
f 836/1294/300 837/1294/300 826/1339/300 824/1339/300
f 822/1339/301 824/1339/301 826/1339/301 823/1339/301
f 825/1295/300 827/1295/300 837/1294/300 836/1294/300
f 729/1342/299 828/1338/299 830/1297/299 730/1298/299
f 775/1335/299 819/1335/299 833/1299/299 830/1297/299
f 776/1340/300 831/1293/300 829/1294/300 774/1339/300
f 838/1294/302 839/1295/302 840/1343/302 847/1341/302
f 838/1294/302 841/1294/302 842/1295/302 839/1295/302
f 841/1294/302 843/1294/302 844/1295/302 842/1295/302
f 843/1294/302 845/1294/302 846/1295/302 844/1295/302
f 827/1295/300 846/1295/300 845/1294/300 837/1294/300
f 835/1294/301 843/1294/301 841/1294/301 834/1294/301
f 834/1294/301 841/1294/301 838/1294/301 832/1294/301
o Paredpiedra
v -7.457549 -0.082128 11.341607
v -7.457549 0.082128 11.341607
v -7.457549 0.082128 11.119783
v -7.457549 -0.082128 11.119783
v -7.457549 5.507242 11.119783
v -7.457549 5.507242 11.341607
v -7.457549 5.507242 11.119783
v -7.457549 5.507242 11.341607
v -7.457549 5.576876 11.119783
v -7.457549 5.576876 11.341607
v -7.457549 5.919436 11.119783
v -7.457549 5.919436 11.341607
v -7.457549 5.778382 11.119783
v -7.457549 5.778382 11.341607
v -0.145614 -0.082128 11.341607
v -0.145614 0.082128 11.341607
v -0.145614 0.082128 11.119783
v -0.145614 5.507242 11.341607
v -0.145614 5.507242 11.119783
v -0.145614 5.507242 11.341607
v -0.145614 5.507242 11.119783
v -0.145614 5.576876 11.341607
v -0.145614 5.576876 11.119783
v -0.145614 5.919436 11.341607
v -0.145614 5.919436 11.119783
v -0.145614 5.778382 11.341607
v -0.145614 5.778382 11.119783
vn -0.0000 -0.0000 1.0000
vn -1.0000 -0.0000 -0.0000
vn -0.0000 -0.0000 -1.0000
vn -0.0000 1.0000 -0.0000
vt 0.375000 0.877441
vt 0.375000 1.000000
vt 0.625000 1.000000
vt 0.625000 0.877441
vt 0.375000 0.000000
vt 0.375000 0.002445
vt 0.625000 0.002445
vt 0.625000 0.000000
vt 0.125000 0.747555
vt 0.125000 0.747555
vt 0.247559 0.747555
vt 0.247559 0.747555
vt 0.125000 0.750000
vt 0.247559 0.750000
s 0
usemtl Material.011
f 863/1344/303 849/1345/303 848/1346/303 862/1347/303
f 849/1348/304 850/1349/304 851/1350/304 848/1351/304
f 849/1348/304 853/1348/304 852/1349/304 850/1349/304
f 863/1344/303 865/1344/303 853/1345/303 849/1345/303
f 867/1344/303 869/1344/303 857/1345/303 855/1345/303
f 855/1348/304 857/1348/304 856/1349/304 854/1349/304
f 861/1348/304 859/1348/304 858/1349/304 860/1349/304
f 873/1344/303 871/1344/303 859/1345/303 861/1345/303
f 869/1344/303 873/1344/303 861/1345/303 857/1345/303
f 857/1348/304 861/1348/304 860/1349/304 856/1349/304
f 856/1352/305 860/1353/305 874/1354/305 870/1355/305
f 858/1352/306 859/1356/306 871/1357/306 872/1355/306
f 854/1352/305 856/1352/305 870/1355/305 868/1355/305
usemtl Material.012
f 850/1352/305 852/1352/305 866/1355/305 864/1355/305
o escalera2
v 1.441487 3.654648 -9.849722
v 1.441487 5.542417 -5.801387
v 1.441487 3.916056 -9.971619
v 1.441487 5.803825 -5.923284
v 6.283512 3.654648 -9.849722
v 6.283512 5.542417 -5.801387
v 6.283512 3.916056 -9.971619
v 6.283512 5.803825 -5.923284
vn -1.0000 -0.0000 -0.0000
vn -0.0000 0.9063 -0.4226
vn 1.0000 -0.0000 -0.0000
vn -0.0000 -0.9063 0.4226
vn -0.0000 -0.4226 -0.9063
vn -0.0000 0.4226 0.9063
vt 0.375000 0.000000
vt 0.625000 0.000000
vt 0.625000 0.250000
vt 0.375000 0.250000
vt 0.625000 0.500000
vt 0.375000 0.500000
vt 0.625000 0.750000
vt 0.375000 0.750000
vt 0.625000 1.000000
vt 0.375000 1.000000
vt 0.125000 0.500000
vt 0.125000 0.750000
vt 0.875000 0.500000
vt 0.875000 0.750000
s 0
usemtl Escalera
f 875/1358/307 876/1359/307 878/1360/307 877/1361/307
f 877/1361/308 878/1360/308 882/1362/308 881/1363/308
f 881/1363/309 882/1362/309 880/1364/309 879/1365/309
f 879/1365/310 880/1364/310 876/1366/310 875/1367/310
f 877/1368/311 881/1363/311 879/1365/311 875/1369/311
f 882/1362/312 878/1370/312 876/1371/312 880/1364/312
