# Blender 4.5.3 LTS
# www.blender.org
mtllib cuadros2.mtl
o Cuadros2
v -0.378143 2.548734 11.721962
v -1.273968 2.548733 11.755884
v -0.378143 1.635741 11.721962
v -1.273968 1.635742 11.755884
v -0.378245 1.635741 11.665749
v -1.274070 1.635742 11.699671
v -0.378245 2.548734 11.665749
v -1.274070 2.548733 11.699671
v -1.628826 2.548734 11.721962
v -2.524651 2.548733 11.755884
v -1.628826 1.635741 11.721962
v -2.524651 1.635742 11.755884
v -1.628928 1.635741 11.665749
v -2.524753 1.635742 11.699671
v -1.628928 2.548734 11.665749
v -2.524753 2.548733 11.699671
v 0.831780 2.548734 11.721962
v -0.064045 2.548733 11.755884
v 0.831780 1.635741 11.721962
v -0.064045 1.635742 11.755884
v 0.831678 1.635741 11.665749
v -0.064147 1.635742 11.699671
v 0.831678 2.548734 11.665749
v -0.064147 2.548733 11.699671
vn 0.0378 -0.0000 0.9993
vn -0.0000 -1.0000 -0.0000
vn -1.0000 -0.0000 0.0018
vn -0.0378 -0.0000 -0.9993
vn -0.0000 1.0000 -0.0000
vn 1.0000 -0.0000 -0.0018
vt 0.375000 0.000000
vt 0.625000 0.000000
vt 0.625000 0.250000
vt 0.375000 0.250000
vt 1.000850 -0.002052
vt -0.000850 -0.002052
vt 0.875000 0.000000
vt 0.875000 0.250000
vt 1.000850 0.997456
vt -0.000850 0.997456
vt 0.625000 1.000000
vt 0.375000 1.000000
vt 0.125000 0.000000
vt 0.125000 0.250000
s 1
usemtl casa1:pasted__lambert35SG.005
f 1/1/1 2/2/1 4/3/1 3/4/1
usemtl casa1:lambert59SG.003
f 3/4/2 4/3/2 6/5/2 5/6/2
f 2/2/3 8/7/3 6/8/3 4/3/3
usemtl lambert3SG.004
f 5/6/4 6/5/4 8/9/4 7/10/4
usemtl casa1:initialShadingGroup6.001
f 7/10/5 8/9/5 2/11/5 1/12/5
f 7/13/6 1/1/6 3/4/6 5/14/6
usemtl casa2:pasted__lambert35SG.003
f 9/1/1 10/2/1 12/3/1 11/4/1
usemtl casa2:lambert59SG.003
f 11/4/2 12/3/2 14/5/2 13/6/2
f 10/2/3 16/7/3 14/8/3 12/3/3
usemtl lambert4SG.003
f 13/6/4 14/5/4 16/9/4 15/10/4
usemtl casa2:initialShadingGroup6.001
f 15/10/5 16/9/5 10/11/5 9/12/5
f 15/13/6 9/1/6 11/4/6 13/14/6
usemtl casa3:pasted__lambert35SG.003
f 17/1/1 18/2/1 20/3/1 19/4/1
usemtl casa3:lambert59SG.003
f 19/4/2 20/3/2 22/5/2 21/6/2
f 18/2/3 24/7/3 22/8/3 20/3/3
usemtl lambert5SG.003
f 21/6/4 22/5/4 24/9/4 23/10/4
usemtl casa3:initialShadingGroup6.001
f 23/10/5 24/9/5 18/11/5 17/12/5
f 23/13/6 17/1/6 19/4/6 21/14/6
