# Blender 4.5.3 LTS
# www.blender.org
mtllib barra.mtl
g barra_Malla
v -1.104622 0.020625 -2.309924
v 1.786695 0.020625 -2.309924
v -1.104622 0.774545 -2.309924
v 1.786695 0.774545 -2.309924
v -1.104622 0.774545 -2.642326
v 1.786695 0.774545 -2.642326
v -1.104622 0.020625 -2.642326
v 1.786695 0.020625 -2.642326
v -1.104622 0.764702 -2.149130
v 1.786695 0.764702 -2.149130
v -1.104622 0.864964 -2.149130
v 1.786695 0.864964 -2.149130
v -1.104622 0.864964 -2.803120
v 1.786695 0.864964 -2.803120
v -1.104622 0.764702 -2.803120
v 1.786695 0.764702 -2.803120
vn -0.0000 -0.0000 1.0000
vn -0.0000 1.0000 -0.0000
vn -0.0000 -0.0000 -1.0000
vn -0.0000 -1.0000 -0.0000
vn 1.0000 -0.0000 -0.0000
vn -1.0000 -0.0000 -0.0000
vt 0.625000 0.000000
vt 0.375000 0.250000
vt 0.375000 0.000000
vt 0.625000 0.250000
vt 0.375000 0.500000
vt 0.625000 0.500000
vt 0.375000 0.750000
vt 0.625000 0.750000
vt 0.375000 1.000000
vt 0.875000 0.000000
vt 0.125000 0.250000
vt 0.125000 0.000000
vt 0.625000 1.000000
vt 0.875000 0.250000
s 1
g barra_barra:lambert68SG
usemtl barra:lambert68SG
f 2/1/1 3/2/1 1/3/1
f 4/4/2 5/5/2 3/2/2
f 6/6/3 7/7/3 5/5/3
f 8/8/4 1/9/4 7/7/4
f 8/10/5 4/4/5 2/1/5
f 1/3/6 5/11/6 7/12/6
f 2/1/1 4/4/1 3/2/1
f 4/4/2 6/6/2 5/5/2
f 6/6/3 8/8/3 7/7/3
f 8/8/4 2/13/4 1/9/4
f 8/10/5 6/14/5 4/4/5
f 1/3/6 3/2/6 5/11/6
g barra_lambert3SG
usemtl lambert3SG
f 10/1/1 11/2/1 9/3/1
f 12/4/2 13/5/2 11/2/2
f 14/6/3 15/7/3 13/5/3
f 16/8/4 9/9/4 15/7/4
f 16/10/5 12/4/5 10/1/5
f 9/3/6 13/11/6 15/12/6
f 10/1/1 12/4/1 11/2/1
f 12/4/2 14/6/2 13/5/2
f 14/6/3 16/8/3 15/7/3
f 16/8/4 10/13/4 9/9/4
f 16/10/5 14/14/5 12/4/5
f 9/3/6 11/2/6 13/11/6
