# Blender 5.1.1
# www.blender.org
mtllib Estatua.mtl
o Cube
v -0.288226 2.157992 -0.739265
v -0.283009 2.174246 0.850013
v -0.312870 0.338852 -0.729762
v -0.307653 0.355105 0.859516
v -0.030952 2.172646 -0.739724
v -0.025735 2.188899 0.849554
v -0.055596 0.353506 -0.730222
v -0.050379 0.369759 0.859056
vn -0.9999 0.0136 0.0031
vn 0.0569 -0.9983 0.0100
vn 0.9999 -0.0136 -0.0031
vn -0.0569 0.9983 -0.0100
vn -0.0015 -0.0052 -1.0000
vn 0.0015 0.0052 1.0000
vt 0.023687 0.033387
vt 0.023681 0.999043
vt 0.997220 0.999043
vt 0.997220 0.033387
vt -0.949852 0.033387
vt -0.949852 0.999043
vt 0.023681 0.033387
vt 0.023687 -0.932270
vt 0.997220 -0.932270
vt -0.949852 -0.932270
vt 0.023681 -0.932270
vt -1.923387 0.999043
vt -1.923387 0.033387
vt -1.923387 -0.932270
s 1
usemtl Base
f 1/1/1 3/2/1 4/3/1 2/4/1
f 3/5/2 7/6/2 8/2/2 4/7/2
f 7/8/3 5/7/3 6/4/3 8/9/3
f 5/10/4 1/5/4 2/7/4 6/11/4
f 3/12/5 1/6/5 5/5/5 7/13/5
f 8/13/6 6/5/6 2/10/6 4/14/6
o Cube.001
v 0.394790 0.416847 -0.683560
v 0.155476 0.416847 -0.683560
v 0.394790 -1.102554 -0.683560
v 0.155476 -1.102554 -0.683560
v 0.394790 0.416847 -0.962693
v 0.155476 0.416847 -0.962693
v 0.394790 -1.102554 -0.962693
v 0.155476 -1.102554 -0.962693
vn -0.0000 -0.0000 1.0000
vn -0.0000 -1.0000 -0.0000
vn -0.0000 -0.0000 -1.0000
vn -0.0000 1.0000 -0.0000
vn 1.0000 -0.0000 -0.0000
vn -1.0000 -0.0000 -0.0000
vt 0.335937 0.500000
vt 0.125000 0.500000
vt 0.125000 0.000000
vt 0.335938 0.000000
vt 0.546875 0.500000
vt 0.335938 0.500000
vt 0.546875 0.000000
vt 0.335937 1.000000
vt 0.125000 1.000000
vt 0.546875 1.000000
vt 0.335938 1.000000
vt 0.757812 0.000000
vt 0.757812 0.500000
vt 0.757812 1.000000
s 1
usemtl Base.001
f 9/15/7 10/16/7 12/17/7 11/18/7
f 11/19/8 12/20/8 16/18/8 15/21/8
f 15/22/9 16/23/9 14/16/9 13/20/9
f 13/24/10 14/25/10 10/20/10 9/19/10
f 11/26/11 15/27/11 13/19/11 9/21/11
f 16/27/12 12/28/12 10/24/12 14/19/12
o Cube.002
v -0.748208 0.416847 -0.683560
v -0.987522 0.416847 -0.683560
v -0.748208 -1.102554 -0.683560
v -0.987522 -1.102554 -0.683560
v -0.748208 0.416847 -0.962693
v -0.987522 0.416847 -0.962693
v -0.748208 -1.102554 -0.962693
v -0.987522 -1.102554 -0.962693
vn -0.0000 -0.0000 1.0000
vn -0.0000 -1.0000 -0.0000
vn -0.0000 -0.0000 -1.0000
vn -0.0000 1.0000 -0.0000
vn 1.0000 -0.0000 -0.0000
vn -1.0000 -0.0000 -0.0000
vt 0.335937 0.500000
vt 0.125000 0.500000
vt 0.125000 0.000000
vt 0.335938 0.000000
vt 0.546875 0.500000
vt 0.335938 0.500000
vt 0.546875 0.000000
vt 0.335937 1.000000
vt 0.125000 1.000000
vt 0.546875 1.000000
vt 0.335938 1.000000
vt 0.757812 0.000000
vt 0.757812 0.500000
vt 0.757812 1.000000
s 1
usemtl Base.003
f 17/29/13 18/30/13 20/31/13 19/32/13
f 19/33/14 20/34/14 24/32/14 23/35/14
f 23/36/15 24/37/15 22/30/15 21/34/15
f 21/38/16 22/39/16 18/34/16 17/33/16
f 19/40/17 23/41/17 21/33/17 17/35/17
f 24/41/18 20/42/18 18/38/18 22/33/18
o Cube.003
v -0.986035 0.644946 -0.687785
v -0.986560 0.405636 -0.689134
v 0.403663 0.641845 -0.678000
v 0.403139 0.402535 -0.679349
v -0.984067 0.646515 -0.966905
v -0.984591 0.407205 -0.968254
v 0.405632 0.643413 -0.957120
v 0.405108 0.404104 -0.958469
vn -0.0071 -0.0056 1.0000
vn 1.0000 -0.0022 0.0070
vn 0.0071 0.0056 -1.0000
vn -1.0000 0.0022 -0.0070
vn 0.0022 1.0000 0.0056
vn -0.0022 -1.0000 -0.0056
vt 0.335937 0.500000
vt 0.125000 0.500000
vt 0.125000 0.000000
vt 0.335938 0.000000
vt 0.546875 0.500000
vt 0.335938 0.500000
vt 0.546875 0.000000
vt 0.335937 1.000000
vt 0.125000 1.000000
vt 0.546875 1.000000
vt 0.335938 1.000000
vt 0.757812 0.000000
vt 0.757812 0.500000
vt 0.757812 1.000000
s 1
usemtl Base.005
f 25/43/19 26/44/19 28/45/19 27/46/19
f 27/47/20 28/48/20 32/46/20 31/49/20
f 31/50/21 32/51/21 30/44/21 29/48/21
f 29/52/22 30/53/22 26/48/22 25/47/22
f 27/54/23 31/55/23 29/47/23 25/49/23
f 32/55/24 28/56/24 26/52/24 30/47/24
o Cube.004
v -0.554374 2.157992 -0.739265
v -0.549157 2.174246 0.850013
v -0.579018 0.338852 -0.729762
v -0.573801 0.355106 0.859516
v -0.297100 2.172646 -0.739724
v -0.291883 2.188899 0.849554
v -0.321744 0.353506 -0.730222
v -0.316527 0.369759 0.859056
vn -0.9999 0.0136 0.0031
vn 0.0569 -0.9983 0.0100
vn 0.9999 -0.0136 -0.0031
vn -0.0569 0.9983 -0.0100
vn -0.0015 -0.0052 -1.0000
vn 0.0015 0.0052 1.0000
vt 1.094071 0.499483
vt 1.094069 0.995513
vt 1.435230 0.995513
vt 1.435230 0.499483
vt 0.752910 0.499483
vt 0.752910 0.995513
vt 1.094069 0.499483
vt 1.094071 0.003452
vt 1.435230 0.003452
vt 0.752910 0.003452
vt 1.094069 0.003452
vt 0.411750 0.995513
vt 0.411750 0.499483
vt 0.411750 0.003452
s 1
usemtl Base.001
f 33/57/25 35/58/25 36/59/25 34/60/25
f 35/61/26 39/62/26 40/58/26 36/63/26
f 39/64/27 37/63/27 38/60/27 40/65/27
f 37/66/28 33/61/28 34/63/28 38/67/28
f 35/68/29 33/62/29 37/61/29 39/69/29
f 40/69/30 38/61/30 34/66/30 36/70/30
