# Blender 5.1.1
# www.blender.org
mtllib Mampara.mtl
o Plano
v -0.504060 -0.022408 0.000000
v 0.502088 -0.022408 0.000000
v -0.504060 1.836801 -0.000000
v 0.502088 1.836801 -0.000000
v -0.453753 0.070553 -0.000000
v 0.451781 0.070553 -0.000000
v 0.451781 1.743840 -0.000000
v -0.453753 1.743840 -0.000000
vn -0.0000 -0.0000 1.0000
vt 0.050000 0.050000
vt 0.950000 0.050000
vt 0.950000 0.950000
vt 0.050000 0.950000
vt 0.000000 0.000000
vt 1.000000 0.000000
vt 1.000000 1.000000
vt 0.000000 1.000000
s 1
usemtl Blanco
f 5/1/1 6/2/1 7/3/1 8/4/1
usemtl Metal.002
f 6/2/1 5/1/1 1/5/1 2/6/1
f 7/3/1 6/2/1 2/6/1 4/7/1
f 8/4/1 7/3/1 4/7/1 3/8/1
f 5/1/1 8/4/1 3/8/1 1/5/1
o Plano.001
v -1.511746 -0.022408 0.000000
v -0.505597 -0.022408 0.000000
v -1.511746 1.836801 -0.000000
v -0.505597 1.836801 -0.000000
v -1.461438 0.070553 -0.000000
v -0.555904 0.070553 -0.000000
v -0.555904 1.743840 -0.000000
v -1.461438 1.743840 -0.000000
vn -0.0000 -0.0000 1.0000
vt 0.050000 0.950000
vt 0.050000 0.050000
vt 0.950000 0.050000
vt 0.950000 0.950000
vt 0.000000 1.000000
vt 0.000000 0.000000
vt 1.000000 0.000000
vt 1.000000 1.000000
s 1
usemtl Blanco
f 13/9/2 14/10/2 15/11/2 16/12/2
usemtl Metal.002
f 14/10/2 13/9/2 9/13/2 10/14/2
f 15/11/2 14/10/2 10/14/2 12/15/2
f 16/12/2 15/11/2 12/15/2 11/16/2
f 13/9/2 16/12/2 11/16/2 9/13/2
o Plano.002
v -2.518774 -0.022408 0.000000
v -1.512625 -0.022408 0.000000
v -2.518774 1.836801 -0.000000
v -1.512625 1.836801 -0.000000
v -2.468466 0.070553 -0.000000
v -1.562932 0.070553 -0.000000
v -1.562932 1.743840 -0.000000
v -2.468466 1.743840 -0.000000
vn -0.0000 -0.0000 1.0000
vt 0.050000 0.050000
vt 0.950000 0.050000
vt 0.950000 0.950000
vt 0.050000 0.950000
vt 0.000000 0.000000
vt 1.000000 0.000000
vt 1.000000 1.000000
vt 0.000000 1.000000
s 1
usemtl Blanco
f 21/17/3 22/18/3 23/19/3 24/20/3
usemtl Metal.002
f 22/18/3 21/17/3 17/21/3 18/22/3
f 23/19/3 22/18/3 18/22/3 20/23/3
f 24/20/3 23/19/3 20/23/3 19/24/3
f 21/17/3 24/20/3 19/24/3 17/21/3
o Plano.003
v 0.496972 -0.022408 0.573138
v 0.502168 -0.022408 -0.000895
v 0.496971 1.836801 0.573138
v 0.502168 1.836801 -0.000895
v 0.497231 0.070553 0.544436
v 0.501908 0.070553 0.027807
v 0.501908 1.743840 0.027807
v 0.497231 1.743840 0.544436
vn -1.0000 -0.0000 -0.0090
vn -1.0000 -0.0000 -0.0091
vt 0.050000 0.050000
vt 0.050000 0.950000
vt 0.950000 0.950000
vt 0.950000 0.050000
vt 1.000000 0.000000
vt 0.000000 0.000000
vt 1.000000 1.000000
vt 0.000000 1.000000
s 1
usemtl Blanco
f 29/25/4 32/26/4 31/27/5 30/28/5
usemtl Metal.002
f 30/28/5 26/29/5 25/30/4 29/25/4
f 31/27/5 28/31/5 26/29/5 30/28/5
f 32/26/4 27/32/5 28/31/5 31/27/5
f 29/25/4 25/30/4 27/32/5 32/26/4
o Plano.004
v -2.525018 -0.022408 0.573138
v -2.519822 -0.022408 -0.000895
v -2.525018 1.836801 0.573138
v -2.519822 1.836801 -0.000895
v -2.524759 0.070553 0.544436
v -2.520082 0.070553 0.027807
v -2.520082 1.743840 0.027807
v -2.524759 1.743840 0.544436
vn -1.0000 -0.0000 -0.0090
vn -1.0000 -0.0000 -0.0091
vt 0.050000 0.050000
vt 0.050000 0.950000
vt 0.950000 0.950000
vt 0.950000 0.050000
vt 1.000000 0.000000
vt 0.000000 0.000000
vt 1.000000 1.000000
vt 0.000000 1.000000
s 1
usemtl Blanco
f 37/33/6 40/34/6 39/35/7 38/36/7
usemtl Metal.002
f 38/36/7 34/37/7 33/38/6 37/33/6
f 39/35/7 36/39/7 34/37/7 38/36/7
f 40/34/6 35/40/6 36/39/7 39/35/7
f 37/33/6 33/38/6 35/40/6 40/34/6
