# Blender 5.1.1
# www.blender.org
mtllib MesaG.mtl
o Cilindro.001
o Cilindro.002
v 1.700000 0.301009 -0.750000
v 1.700000 1.101009 -0.750000
v 1.709755 0.301009 -0.749039
v 1.709755 1.101009 -0.749039
v 1.719134 0.301009 -0.746194
v 1.719134 1.101009 -0.746194
v 1.727779 0.301009 -0.741573
v 1.727779 1.101009 -0.741573
v 1.735355 0.301009 -0.735355
v 1.735355 1.101009 -0.735355
v 1.741574 0.301009 -0.727778
v 1.741574 1.101009 -0.727778
v 1.746194 0.301009 -0.719134
v 1.746194 1.101009 -0.719134
v 1.749039 0.301009 -0.709755
v 1.749039 1.101009 -0.709755
v 1.750000 0.301009 -0.700000
v 1.750000 1.101009 -0.700000
v 1.749039 0.301009 -0.690245
v 1.749039 1.101009 -0.690245
v 1.746194 0.301009 -0.680866
v 1.746194 1.101009 -0.680866
v 1.741574 0.301009 -0.672221
v 1.741574 1.101009 -0.672221
v 1.735355 0.301009 -0.664645
v 1.735355 1.101009 -0.664645
v 1.727779 0.301009 -0.658427
v 1.727779 1.101009 -0.658427
v 1.719134 0.301009 -0.653806
v 1.719134 1.101009 -0.653806
v 1.709755 0.301009 -0.650961
v 1.709755 1.101009 -0.650961
v 1.700000 0.301009 -0.650000
v 1.700000 1.101009 -0.650000
v 1.690246 0.301009 -0.650961
v 1.690246 1.101009 -0.650961
v 1.680866 0.301009 -0.653806
v 1.680866 1.101009 -0.653806
v 1.672222 0.301009 -0.658427
v 1.672222 1.101009 -0.658427
v 1.664645 0.301009 -0.664645
v 1.664645 1.101009 -0.664645
v 1.658427 0.301009 -0.672221
v 1.658427 1.101009 -0.672221
v 1.653806 0.301009 -0.680866
v 1.653806 1.101009 -0.680866
v 1.650961 0.301009 -0.690245
v 1.650961 1.101009 -0.690245
v 1.650000 0.301009 -0.700000
v 1.650000 1.101009 -0.700000
v 1.650961 0.301009 -0.709755
v 1.650961 1.101009 -0.709755
v 1.653806 0.301009 -0.719134
v 1.653806 1.101009 -0.719134
v 1.658427 0.301009 -0.727778
v 1.658427 1.101009 -0.727778
v 1.664645 0.301009 -0.735355
v 1.664645 1.101009 -0.735355
v 1.672222 0.301009 -0.741573
v 1.672222 1.101009 -0.741573
v 1.680866 0.301009 -0.746194
v 1.680866 1.101009 -0.746194
v 1.690246 0.301009 -0.749039
v 1.690246 1.101009 -0.749039
v 2.000000 1.139682 -1.000000
v 2.000000 1.119682 -1.000000
v 2.000000 1.139682 1.000000
v 2.000000 1.119682 1.000000
v -2.000000 1.139682 -1.000000
v -2.000000 1.119682 -1.000000
v -2.000000 1.139682 1.000000
v -2.000000 1.119682 1.000000
v -1.700000 0.301009 -0.750000
v -1.700000 1.101009 -0.750000
v -1.690245 0.301009 -0.749039
v -1.690245 1.101009 -0.749039
v -1.680866 0.301009 -0.746194
v -1.680866 1.101009 -0.746194
v -1.672221 0.301009 -0.741573
v -1.672221 1.101009 -0.741573
v -1.664645 0.301009 -0.735355
v -1.664645 1.101009 -0.735355
v -1.658427 0.301009 -0.727778
v -1.658427 1.101009 -0.727778
v -1.653806 0.301009 -0.719134
v -1.653806 1.101009 -0.719134
v -1.650961 0.301009 -0.709755
v -1.650961 1.101009 -0.709755
v -1.650000 0.301009 -0.700000
v -1.650000 1.101009 -0.700000
v -1.650961 0.301009 -0.690245
v -1.650961 1.101009 -0.690245
v -1.653806 0.301009 -0.680866
v -1.653806 1.101009 -0.680866
v -1.658427 0.301009 -0.672221
v -1.658427 1.101009 -0.672221
v -1.664645 0.301009 -0.664645
v -1.664645 1.101009 -0.664645
v -1.672221 0.301009 -0.658427
v -1.672221 1.101009 -0.658427
v -1.680866 0.301009 -0.653806
v -1.680866 1.101009 -0.653806
v -1.690245 0.301009 -0.650961
v -1.690245 1.101009 -0.650961
v -1.700000 0.301009 -0.650000
v -1.700000 1.101009 -0.650000
v -1.709754 0.301009 -0.650961
v -1.709754 1.101009 -0.650961
v -1.719134 0.301009 -0.653806
v -1.719134 1.101009 -0.653806
v -1.727779 0.301009 -0.658427
v -1.727779 1.101009 -0.658427
v -1.735355 0.301009 -0.664645
v -1.735355 1.101009 -0.664645
v -1.741573 0.301009 -0.672221
v -1.741573 1.101009 -0.672221
v -1.746194 0.301009 -0.680866
v -1.746194 1.101009 -0.680866
v -1.749039 0.301009 -0.690245
v -1.749039 1.101009 -0.690245
v -1.750000 0.301009 -0.700000
v -1.750000 1.101009 -0.700000
v -1.749039 0.301009 -0.709755
v -1.749039 1.101009 -0.709755
v -1.746194 0.301009 -0.719134
v -1.746194 1.101009 -0.719134
v -1.741573 0.301009 -0.727778
v -1.741573 1.101009 -0.727778
v -1.735355 0.301009 -0.735355
v -1.735355 1.101009 -0.735355
v -1.727779 0.301009 -0.741573
v -1.727779 1.101009 -0.741573
v -1.719134 0.301009 -0.746194
v -1.719134 1.101009 -0.746194
v -1.709754 0.301009 -0.749039
v -1.709754 1.101009 -0.749039
v -1.700000 0.301009 0.650000
v -1.700000 1.101009 0.650000
v -1.690245 0.301009 0.650961
v -1.690245 1.101009 0.650961
v -1.680866 0.301009 0.653806
v -1.680866 1.101009 0.653806
v -1.672221 0.301009 0.658426
v -1.672221 1.101009 0.658426
v -1.664645 0.301009 0.664645
v -1.664645 1.101009 0.664645
v -1.658427 0.301009 0.672221
v -1.658427 1.101009 0.672221
v -1.653806 0.301009 0.680866
v -1.653806 1.101009 0.680866
v -1.650961 0.301009 0.690245
v -1.650961 1.101009 0.690245
v -1.650000 0.301009 0.700000
v -1.650000 1.101009 0.700000
v -1.650961 0.301009 0.709755
v -1.650961 1.101009 0.709755
v -1.653806 0.301009 0.719134
v -1.653806 1.101009 0.719134
v -1.658427 0.301009 0.727779
v -1.658427 1.101009 0.727779
v -1.664645 0.301009 0.735355
v -1.664645 1.101009 0.735355
v -1.672221 0.301009 0.741574
v -1.672221 1.101009 0.741574
v -1.680866 0.301009 0.746194
v -1.680866 1.101009 0.746194
v -1.690245 0.301009 0.749039
v -1.690245 1.101009 0.749039
v -1.700000 0.301009 0.750000
v -1.700000 1.101009 0.750000
v -1.709754 0.301009 0.749039
v -1.709754 1.101009 0.749039
v -1.719134 0.301009 0.746194
v -1.719134 1.101009 0.746194
v -1.727779 0.301009 0.741574
v -1.727779 1.101009 0.741574
v -1.735355 0.301009 0.735355
v -1.735355 1.101009 0.735355
v -1.741573 0.301009 0.727779
v -1.741573 1.101009 0.727779
v -1.746194 0.301009 0.719134
v -1.746194 1.101009 0.719134
v -1.749039 0.301009 0.709755
v -1.749039 1.101009 0.709755
v -1.750000 0.301009 0.700000
v -1.750000 1.101009 0.700000
v -1.749039 0.301009 0.690245
v -1.749039 1.101009 0.690245
v -1.746194 0.301009 0.680866
v -1.746194 1.101009 0.680866
v -1.741573 0.301009 0.672221
v -1.741573 1.101009 0.672221
v -1.735355 0.301009 0.664645
v -1.735355 1.101009 0.664645
v -1.727779 0.301009 0.658426
v -1.727779 1.101009 0.658426
v -1.719134 0.301009 0.653806
v -1.719134 1.101009 0.653806
v -1.709754 0.301009 0.650961
v -1.709754 1.101009 0.650961
v 1.700000 0.301009 0.650000
v 1.700000 1.101009 0.650000
v 1.709755 0.301009 0.650961
v 1.709755 1.101009 0.650961
v 1.719134 0.301009 0.653806
v 1.719134 1.101009 0.653806
v 1.727779 0.301009 0.658426
v 1.727779 1.101009 0.658426
v 1.735355 0.301009 0.664645
v 1.735355 1.101009 0.664645
v 1.741574 0.301009 0.672221
v 1.741574 1.101009 0.672221
v 1.746194 0.301009 0.680866
v 1.746194 1.101009 0.680866
v 1.749039 0.301009 0.690245
v 1.749039 1.101009 0.690245
v 1.750000 0.301009 0.700000
v 1.750000 1.101009 0.700000
v 1.749039 0.301009 0.709755
v 1.749039 1.101009 0.709755
v 1.746194 0.301009 0.719134
v 1.746194 1.101009 0.719134
v 1.741574 0.301009 0.727779
v 1.741574 1.101009 0.727779
v 1.735355 0.301009 0.735355
v 1.735355 1.101009 0.735355
v 1.727779 0.301009 0.741574
v 1.727779 1.101009 0.741574
v 1.719134 0.301009 0.746194
v 1.719134 1.101009 0.746194
v 1.709755 0.301009 0.749039
v 1.709755 1.101009 0.749039
v 1.700000 0.301009 0.750000
v 1.700000 1.101009 0.750000
v 1.690246 0.301009 0.749039
v 1.690246 1.101009 0.749039
v 1.680866 0.301009 0.746194
v 1.680866 1.101009 0.746194
v 1.672222 0.301009 0.741574
v 1.672222 1.101009 0.741574
v 1.664645 0.301009 0.735355
v 1.664645 1.101009 0.735355
v 1.658427 0.301009 0.727779
v 1.658427 1.101009 0.727779
v 1.653806 0.301009 0.719134
v 1.653806 1.101009 0.719134
v 1.650961 0.301009 0.709755
v 1.650961 1.101009 0.709755
v 1.650000 0.301009 0.700000
v 1.650000 1.101009 0.700000
v 1.650961 0.301009 0.690245
v 1.650961 1.101009 0.690245
v 1.653806 0.301009 0.680866
v 1.653806 1.101009 0.680866
v 1.658427 0.301009 0.672221
v 1.658427 1.101009 0.672221
v 1.664645 0.301009 0.664645
v 1.664645 1.101009 0.664645
v 1.672222 0.301009 0.658426
v 1.672222 1.101009 0.658426
v 1.680866 0.301009 0.653806
v 1.680866 1.101009 0.653806
v 1.690246 0.301009 0.650961
v 1.690246 1.101009 0.650961
vn 0.0980 -0.0000 -0.9952
vn 0.0981 -0.0000 -0.9952
vn 0.2903 -0.0000 -0.9569
vn 0.4714 -0.0000 -0.8819
vn 0.6344 -0.0000 -0.7730
vn 0.7730 -0.0000 -0.6344
vn 0.8819 -0.0000 -0.4714
vn 0.9569 -0.0000 -0.2903
vn 0.9952 -0.0000 -0.0980
vn 0.9952 -0.0000 0.0980
vn 0.9569 -0.0000 0.2903
vn 0.8820 -0.0000 0.4713
vn 0.7729 -0.0000 0.6345
vn 0.6344 -0.0000 0.7730
vn 0.4714 -0.0000 0.8819
vn 0.2903 -0.0000 0.9569
vn 0.0981 -0.0000 0.9952
vn 0.0980 -0.0000 0.9952
vn -0.0980 -0.0000 0.9952
vn -0.0981 -0.0000 0.9952
vn -0.2903 -0.0000 0.9569
vn -0.2902 -0.0000 0.9570
vn -0.4715 -0.0000 0.8819
vn -0.6344 -0.0000 0.7730
vn -0.7730 -0.0000 0.6344
vn -0.8819 -0.0000 0.4714
vn -0.9569 -0.0000 0.2903
vn -0.9952 -0.0000 0.0980
vn -0.9952 -0.0000 -0.0980
vn -0.9569 -0.0000 -0.2903
vn -0.8819 -0.0000 -0.4715
vn -0.8819 -0.0000 -0.4714
vn -0.7730 -0.0000 -0.6344
vn -0.6344 -0.0000 -0.7730
vn -0.4715 -0.0000 -0.8819
vn -0.0000 1.0000 -0.0000
vn -0.2902 -0.0000 -0.9570
vn -0.2903 -0.0000 -0.9569
vn -0.0981 -0.0000 -0.9952
vn -0.0980 -0.0000 -0.9952
vn -0.0000 -1.0000 -0.0000
vn 0.8819 -0.0000 -0.4715
vn 0.8819 -0.0000 0.4714
vn 0.7730 -0.0000 0.6344
vn -0.4714 -0.0000 0.8819
vn -0.4714 -0.0000 -0.8819
vn 0.4713 -0.0000 -0.8820
vn 0.6345 -0.0000 -0.7729
vn 0.6345 -0.0000 0.7729
vn 0.4713 -0.0000 0.8820
vn -0.4713 -0.0000 0.8820
vn -0.6345 -0.0000 0.7729
vn -0.6345 -0.0000 -0.7729
vn -0.4713 -0.0000 -0.8820
vn 0.7729 -0.0000 -0.6345
vn 0.8820 -0.0000 -0.4713
vn -0.0000 -0.0000 1.0000
vn -1.0000 -0.0000 -0.0000
vn 1.0000 -0.0000 -0.0000
vn -0.0000 -0.0000 -1.0000
vn -0.0000 1.0000 0.0001
vn -0.0000 1.0000 0.0004
vn -0.0000 1.0000 -0.0001
vn -0.0000 1.0000 -0.0004
vn -0.0000 1.0000 -0.0002
vn -0.0000 1.0000 0.0002
vn -0.0000 -1.0000 0.0004
vn -0.0000 -1.0000 0.0002
vn -0.0000 -1.0000 0.0001
vn -0.0000 -1.0000 -0.0002
vn -0.0000 -1.0000 -0.0004
vn -0.0000 -1.0000 -0.0001
vt 1.000000 1.000000
vt 0.968750 0.500000
vt 1.000000 0.500000
vt 0.968750 1.000000
vt 0.937500 0.500000
vt 0.937500 1.000000
vt 0.906250 0.500000
vt 0.906250 1.000000
vt 0.875000 0.500000
vt 0.875000 1.000000
vt 0.843750 0.500000
vt 0.843750 1.000000
vt 0.812500 0.500000
vt 0.812500 1.000000
vt 0.781250 0.500000
vt 0.781250 1.000000
vt 0.750000 0.500000
vt 0.750000 1.000000
vt 0.718750 0.500000
vt 0.718750 1.000000
vt 0.687500 0.500000
vt 0.687500 1.000000
vt 0.656250 0.500000
vt 0.656250 1.000000
vt 0.625000 0.500000
vt 0.625000 1.000000
vt 0.593750 0.500000
vt 0.593750 1.000000
vt 0.562500 0.500000
vt 0.562500 1.000000
vt 0.531250 0.500000
vt 0.531250 1.000000
vt 0.500000 0.500000
vt 0.500000 1.000000
vt 0.468750 0.500000
vt 0.468750 1.000000
vt 0.437500 0.500000
vt 0.437500 1.000000
vt 0.406250 0.500000
vt 0.406250 1.000000
vt 0.375000 0.500000
vt 0.375000 1.000000
vt 0.343750 0.500000
vt 0.343750 1.000000
vt 0.312500 0.500000
vt 0.312500 1.000000
vt 0.281250 0.500000
vt 0.281250 1.000000
vt 0.250000 0.500000
vt 0.250000 1.000000
vt 0.218750 0.500000
vt 0.218750 1.000000
vt 0.187500 0.500000
vt 0.187500 1.000000
vt 0.156250 0.500000
vt 0.156250 1.000000
vt 0.125000 0.500000
vt 0.125000 1.000000
vt 0.093750 0.500000
vt 0.093750 1.000000
vt 0.062500 0.500000
vt 0.158156 0.028269
vt 0.471731 0.158156
vt 0.341844 0.471731
vt 0.062500 1.000000
vt 0.031250 0.500000
vt 0.031250 1.000000
vt 0.000000 0.500000
vt 0.796822 0.014612
vt 0.514612 0.203178
vt 0.703178 0.485388
vt 0.000000 0.000000
vt 0.296822 0.485388
vt 0.250000 0.490000
vt 0.203178 0.485388
vt 0.158156 0.471731
vt 0.116663 0.449553
vt 0.080294 0.419706
vt 0.050447 0.383337
vt 0.028269 0.341844
vt 0.014612 0.296822
vt 0.010000 0.250000
vt 0.014612 0.203178
vt 0.028269 0.158156
vt 0.050447 0.116663
vt 0.080294 0.080294
vt 0.116663 0.050447
vt 0.203178 0.014612
vt 0.250000 0.010000
vt 0.296822 0.014612
vt 0.341844 0.028269
vt 0.383337 0.050447
vt 0.419706 0.080294
vt 0.449553 0.116663
vt 0.485388 0.203178
vt 0.490000 0.250000
vt 0.485388 0.296822
vt 0.471731 0.341844
vt 0.449553 0.383337
vt 0.419706 0.419706
vt 0.383337 0.449553
vt 0.000000 1.000000
vt 0.750000 0.490000
vt 0.796822 0.485388
vt 0.841844 0.471731
vt 0.883337 0.449553
vt 0.919706 0.419706
vt 0.949553 0.383337
vt 0.971731 0.341844
vt 0.985388 0.296822
vt 0.990000 0.250000
vt 0.985388 0.203178
vt 0.971731 0.158156
vt 0.949553 0.116663
vt 0.919706 0.080294
vt 0.883337 0.050447
vt 0.841844 0.028269
vt 0.750000 0.010000
vt 0.703178 0.014612
vt 0.658156 0.028269
vt 0.616663 0.050447
vt 0.580294 0.080294
vt 0.550447 0.116663
vt 0.528269 0.158156
vt 0.510000 0.250000
vt 0.514612 0.296822
vt 0.528269 0.341844
vt 0.550447 0.383337
vt 0.580294 0.419706
vt 0.616663 0.449553
vt 0.658156 0.471731
s 1
g Cilindro.002_Material.001
usemtl Material.001
f 2/1/1 3/2/2 1/3/2
f 4/4/3 5/5/3 3/2/3
f 6/6/4 7/7/4 5/5/4
f 8/8/5 9/9/5 7/7/5
f 10/10/6 11/11/6 9/9/6
f 12/12/7 13/13/7 11/11/7
f 14/14/8 15/15/8 13/13/8
f 16/16/9 17/17/9 15/15/9
f 18/18/10 19/19/10 17/17/10
f 20/20/11 21/21/11 19/19/11
f 22/22/12 23/23/12 21/21/12
f 24/24/13 25/25/13 23/23/13
f 26/26/14 27/27/14 25/25/14
f 28/28/15 29/29/15 27/27/15
f 30/30/16 31/31/16 29/29/16
f 32/32/17 33/33/18 31/31/18
f 34/34/19 35/35/20 33/33/20
f 36/36/21 37/37/22 35/35/22
f 38/38/23 39/39/23 37/37/23
f 40/40/24 41/41/24 39/39/24
f 42/42/25 43/43/25 41/41/25
f 44/44/26 45/45/26 43/43/26
f 46/46/27 47/47/27 45/45/27
f 48/48/28 49/49/28 47/47/28
f 50/50/29 51/51/29 49/49/29
f 52/52/30 53/53/30 51/51/30
f 54/54/31 55/55/32 53/53/32
f 56/56/33 57/57/33 55/55/33
f 58/58/34 59/59/34 57/57/34
f 60/60/35 61/61/35 59/59/35
f 38/62/36 22/63/36 6/64/36
f 62/65/37 63/66/38 61/61/38
f 64/67/39 1/68/40 63/66/40
f 31/69/41 47/70/41 63/71/41
f 74/1/1 75/2/2 73/3/2
f 76/4/3 77/5/3 75/2/3
f 78/6/4 79/7/4 77/5/4
f 80/8/5 81/9/5 79/7/5
f 82/10/6 83/11/6 81/9/6
f 84/12/7 85/13/42 83/11/42
f 86/14/8 87/15/8 85/13/8
f 88/16/9 89/17/9 87/15/9
f 90/18/10 91/19/10 89/17/10
f 92/20/11 93/21/11 91/19/11
f 94/22/43 95/23/43 93/21/43
f 96/24/44 97/25/44 95/23/44
f 98/26/14 99/27/14 97/25/14
f 100/28/15 101/29/15 99/27/15
f 102/30/16 103/31/16 101/29/16
f 104/32/17 105/33/18 103/31/18
f 106/34/19 107/35/20 105/33/20
f 108/36/21 109/37/22 107/35/22
f 110/38/45 111/39/45 109/37/45
f 112/40/24 113/41/24 111/39/24
f 114/42/25 115/43/25 113/41/25
f 116/44/26 117/45/26 115/43/26
f 118/46/27 119/47/27 117/45/27
f 120/48/28 121/49/28 119/47/28
f 122/50/29 123/51/29 121/49/29
f 124/52/30 125/53/30 123/51/30
f 126/54/31 127/55/32 125/53/32
f 128/56/33 129/57/33 127/55/33
f 130/58/34 131/59/34 129/57/34
f 132/60/46 133/61/46 131/59/46
f 110/62/36 94/63/36 78/64/36
f 134/65/37 135/66/38 133/61/38
f 136/67/39 73/68/40 135/66/40
f 103/69/41 119/70/41 135/71/41
f 138/1/1 139/2/2 137/3/2
f 140/4/3 141/5/3 139/2/3
f 142/6/47 143/7/47 141/5/47
f 144/8/48 145/9/48 143/7/48
f 146/10/6 147/11/6 145/9/6
f 148/12/7 149/13/7 147/11/7
f 150/14/8 151/15/8 149/13/8
f 152/16/9 153/17/9 151/15/9
f 154/18/10 155/19/10 153/17/10
f 156/20/11 157/21/11 155/19/11
f 158/22/43 159/23/43 157/21/43
f 160/24/44 161/25/44 159/23/44
f 162/26/49 163/27/49 161/25/49
f 164/28/50 165/29/50 163/27/50
f 166/30/16 167/31/16 165/29/16
f 168/32/17 169/33/18 167/31/18
f 170/34/19 171/35/20 169/33/20
f 172/36/21 173/37/22 171/35/22
f 174/38/51 175/39/51 173/37/51
f 176/40/52 177/41/52 175/39/52
f 178/42/25 179/43/25 177/41/25
f 180/44/26 181/45/26 179/43/26
f 182/46/27 183/47/27 181/45/27
f 184/48/28 185/49/28 183/47/28
f 186/50/29 187/51/29 185/49/29
f 188/52/30 189/53/30 187/51/30
f 190/54/32 191/55/32 189/53/32
f 192/56/33 193/57/33 191/55/33
f 194/58/53 195/59/53 193/57/53
f 196/60/54 197/61/54 195/59/54
f 174/62/36 158/63/36 142/64/36
f 198/65/37 199/66/38 197/61/38
f 200/67/39 137/68/40 199/66/40
f 167/69/41 183/70/41 199/71/41
f 202/1/1 203/2/2 201/3/2
f 204/4/3 205/5/3 203/2/3
f 206/6/47 207/7/47 205/5/47
f 208/8/48 209/9/48 207/7/48
f 210/10/55 211/11/55 209/9/55
f 212/12/56 213/13/56 211/11/56
f 214/14/8 215/15/8 213/13/8
f 216/16/9 217/17/9 215/15/9
f 218/18/10 219/19/10 217/17/10
f 220/20/11 221/21/11 219/19/11
f 222/22/12 223/23/12 221/21/12
f 224/24/13 225/25/13 223/23/13
f 226/26/49 227/27/49 225/25/49
f 228/28/50 229/29/50 227/27/50
f 230/30/16 231/31/16 229/29/16
f 232/32/17 233/33/18 231/31/18
f 234/34/19 235/35/20 233/33/20
f 236/36/21 237/37/22 235/35/22
f 238/38/45 239/39/45 237/37/45
f 240/40/24 241/41/24 239/39/24
f 242/42/25 243/43/25 241/41/25
f 244/44/26 245/45/26 243/43/26
f 246/46/27 247/47/27 245/45/27
f 248/48/28 249/49/28 247/47/28
f 250/50/29 251/51/29 249/49/29
f 252/52/30 253/53/30 251/51/30
f 254/54/32 255/55/32 253/53/32
f 256/56/33 257/57/33 255/55/33
f 258/58/34 259/59/34 257/57/34
f 260/60/46 261/61/46 259/59/46
f 238/62/36 222/63/36 206/64/36
f 262/65/37 263/66/38 261/61/38
f 264/67/39 201/68/40 263/66/40
f 231/69/41 247/70/41 263/71/41
f 2/1/1 4/4/1 3/2/2
f 4/4/3 6/6/3 5/5/3
f 6/6/4 8/8/4 7/7/4
f 8/8/5 10/10/5 9/9/5
f 10/10/6 12/12/6 11/11/6
f 12/12/7 14/14/7 13/13/7
f 14/14/8 16/16/8 15/15/8
f 16/16/9 18/18/9 17/17/9
f 18/18/10 20/20/10 19/19/10
f 20/20/11 22/22/11 21/21/11
f 22/22/12 24/24/12 23/23/12
f 24/24/13 26/26/13 25/25/13
f 26/26/14 28/28/14 27/27/14
f 28/28/15 30/30/15 29/29/15
f 30/30/16 32/32/16 31/31/16
f 32/32/17 34/34/17 33/33/18
f 34/34/19 36/36/19 35/35/20
f 36/36/21 38/38/21 37/37/22
f 38/38/23 40/40/23 39/39/23
f 40/40/24 42/42/24 41/41/24
f 42/42/25 44/44/25 43/43/25
f 44/44/26 46/46/26 45/45/26
f 46/46/27 48/48/27 47/47/27
f 48/48/28 50/50/28 49/49/28
f 50/50/29 52/52/29 51/51/29
f 52/52/30 54/54/30 53/53/30
f 54/54/31 56/56/31 55/55/32
f 56/56/33 58/58/33 57/57/33
f 58/58/34 60/60/34 59/59/34
f 60/60/35 62/65/35 61/61/35
f 6/64/36 4/73/36 2/74/61
f 2/74/61 64/75/36 62/76/36
f 62/76/36 60/77/62 58/78/36
f 58/78/36 56/79/36 54/80/36
f 54/80/36 52/81/63 50/82/36
f 50/82/36 48/83/61 46/84/36
f 46/84/36 44/85/36 42/86/36
f 42/86/36 40/87/64 38/62/36
f 38/62/36 36/88/36 34/89/63
f 34/89/63 32/90/36 30/91/36
f 30/91/36 28/92/36 26/93/36
f 26/93/36 24/94/65 22/63/36
f 22/63/36 20/95/61 18/96/36
f 18/96/36 16/97/63 14/98/36
f 14/98/36 12/99/66 10/100/36
f 10/100/36 8/101/36 6/64/36
f 6/64/36 2/74/61 62/76/36
f 62/76/36 58/78/36 54/80/36
f 54/80/36 50/82/36 46/84/36
f 46/84/36 42/86/36 38/62/36
f 38/62/36 34/89/63 30/91/36
f 30/91/36 26/93/36 22/63/36
f 22/63/36 18/96/36 14/98/36
f 14/98/36 10/100/36 6/64/36
f 6/64/36 62/76/36 54/80/36
f 54/80/36 46/84/36 38/62/36
f 38/62/36 30/91/36 22/63/36
f 22/63/36 14/98/36 6/64/36
f 6/64/36 54/80/36 38/62/36
f 62/65/37 64/67/37 63/66/38
f 64/67/39 2/102/39 1/68/40
f 63/71/41 1/103/67 3/104/41
f 3/104/41 5/105/68 7/106/41
f 7/106/41 9/107/68 11/108/41
f 11/108/41 13/109/69 15/110/41
f 15/110/41 17/111/41 19/112/41
f 19/112/41 21/113/70 23/114/41
f 23/114/41 25/115/70 27/116/69
f 27/116/69 29/117/41 31/69/41
f 31/69/41 33/118/71 35/119/41
f 35/119/41 37/120/70 39/121/41
f 39/121/41 41/122/70 43/123/41
f 43/123/41 45/124/41 47/70/41
f 47/70/41 49/125/41 51/126/41
f 51/126/41 53/127/41 55/128/41
f 55/128/41 57/129/68 59/130/72
f 59/130/72 61/131/41 63/71/41
f 63/71/41 3/104/41 7/106/41
f 7/106/41 11/108/41 15/110/41
f 15/110/41 19/112/41 23/114/41
f 23/114/41 27/116/69 31/69/41
f 31/69/41 35/119/41 39/121/41
f 39/121/41 43/123/41 47/70/41
f 47/70/41 51/126/41 55/128/41
f 55/128/41 59/130/72 63/71/41
f 63/71/41 7/106/41 15/110/41
f 15/110/41 23/114/41 31/69/41
f 31/69/41 39/121/41 47/70/41
f 47/70/41 55/128/41 63/71/41
f 63/71/41 15/110/41 31/69/41
f 74/1/1 76/4/1 75/2/2
f 76/4/3 78/6/3 77/5/3
f 78/6/4 80/8/4 79/7/4
f 80/8/5 82/10/5 81/9/5
f 82/10/6 84/12/6 83/11/6
f 84/12/7 86/14/7 85/13/42
f 86/14/8 88/16/8 87/15/8
f 88/16/9 90/18/9 89/17/9
f 90/18/10 92/20/10 91/19/10
f 92/20/11 94/22/11 93/21/11
f 94/22/43 96/24/43 95/23/43
f 96/24/44 98/26/44 97/25/44
f 98/26/14 100/28/14 99/27/14
f 100/28/15 102/30/15 101/29/15
f 102/30/16 104/32/16 103/31/16
f 104/32/17 106/34/17 105/33/18
f 106/34/19 108/36/19 107/35/20
f 108/36/21 110/38/21 109/37/22
f 110/38/45 112/40/45 111/39/45
f 112/40/24 114/42/24 113/41/24
f 114/42/25 116/44/25 115/43/25
f 116/44/26 118/46/26 117/45/26
f 118/46/27 120/48/27 119/47/27
f 120/48/28 122/50/28 121/49/28
f 122/50/29 124/52/29 123/51/29
f 124/52/30 126/54/30 125/53/30
f 126/54/31 128/56/31 127/55/32
f 128/56/33 130/58/33 129/57/33
f 130/58/34 132/60/34 131/59/34
f 132/60/46 134/65/46 133/61/46
f 78/64/36 76/73/36 74/74/61
f 74/74/61 136/75/36 134/76/36
f 134/76/36 132/77/36 130/78/36
f 130/78/36 128/79/36 126/80/36
f 126/80/36 124/81/63 122/82/36
f 122/82/36 120/83/61 118/84/36
f 118/84/36 116/85/36 114/86/36
f 114/86/36 112/87/36 110/62/36
f 110/62/36 108/88/36 106/89/63
f 106/89/63 104/90/36 102/91/36
f 102/91/36 100/92/36 98/93/36
f 98/93/36 96/94/36 94/63/36
f 94/63/36 92/95/61 90/96/36
f 90/96/36 88/97/63 86/98/36
f 86/98/36 84/99/36 82/100/36
f 82/100/36 80/101/36 78/64/36
f 78/64/36 74/74/61 134/76/36
f 134/76/36 130/78/36 126/80/36
f 126/80/36 122/82/36 118/84/36
f 118/84/36 114/86/36 110/62/36
f 110/62/36 106/89/63 102/91/36
f 102/91/36 98/93/36 94/63/36
f 94/63/36 90/96/36 86/98/36
f 86/98/36 82/100/36 78/64/36
f 78/64/36 134/76/36 126/80/36
f 126/80/36 118/84/36 110/62/36
f 110/62/36 102/91/36 94/63/36
f 94/63/36 86/98/36 78/64/36
f 78/64/36 126/80/36 110/62/36
f 134/65/37 136/67/37 135/66/38
f 136/67/39 74/102/39 73/68/40
f 135/71/41 73/103/41 75/104/41
f 75/104/41 77/105/68 79/106/41
f 79/106/41 81/107/68 83/108/41
f 83/108/41 85/109/41 87/110/41
f 87/110/41 89/111/41 91/112/41
f 91/112/41 93/113/41 95/114/41
f 95/114/41 97/115/70 99/116/69
f 99/116/69 101/117/41 103/69/41
f 103/69/41 105/118/41 107/119/69
f 107/119/69 109/120/70 111/121/41
f 111/121/41 113/122/70 115/123/41
f 115/123/41 117/124/72 119/70/41
f 119/70/41 121/125/41 123/126/41
f 123/126/41 125/127/68 127/128/41
f 127/128/41 129/129/68 131/130/41
f 131/130/41 133/131/41 135/71/41
f 135/71/41 75/104/41 79/106/41
f 79/106/41 83/108/41 87/110/41
f 87/110/41 91/112/41 95/114/41
f 95/114/41 99/116/69 103/69/41
f 103/69/41 107/119/69 111/121/41
f 111/121/41 115/123/41 119/70/41
f 119/70/41 123/126/41 127/128/41
f 127/128/41 131/130/41 135/71/41
f 135/71/41 79/106/41 87/110/41
f 87/110/41 95/114/41 103/69/41
f 103/69/41 111/121/41 119/70/41
f 119/70/41 127/128/41 135/71/41
f 135/71/41 87/110/41 103/69/41
f 138/1/1 140/4/1 139/2/2
f 140/4/3 142/6/3 141/5/3
f 142/6/47 144/8/47 143/7/47
f 144/8/48 146/10/48 145/9/48
f 146/10/6 148/12/6 147/11/6
f 148/12/7 150/14/7 149/13/7
f 150/14/8 152/16/8 151/15/8
f 152/16/9 154/18/9 153/17/9
f 154/18/10 156/20/10 155/19/10
f 156/20/11 158/22/11 157/21/11
f 158/22/43 160/24/43 159/23/43
f 160/24/44 162/26/44 161/25/44
f 162/26/49 164/28/49 163/27/49
f 164/28/50 166/30/50 165/29/50
f 166/30/16 168/32/16 167/31/16
f 168/32/17 170/34/17 169/33/18
f 170/34/19 172/36/19 171/35/20
f 172/36/21 174/38/21 173/37/22
f 174/38/51 176/40/51 175/39/51
f 176/40/52 178/42/52 177/41/52
f 178/42/25 180/44/25 179/43/25
f 180/44/26 182/46/26 181/45/26
f 182/46/27 184/48/27 183/47/27
f 184/48/28 186/50/28 185/49/28
f 186/50/29 188/52/29 187/51/29
f 188/52/30 190/54/30 189/53/30
f 190/54/32 192/56/32 191/55/32
f 192/56/33 194/58/33 193/57/33
f 194/58/53 196/60/53 195/59/53
f 196/60/54 198/65/54 197/61/54
f 142/64/36 140/73/36 138/74/61
f 138/74/61 200/75/36 198/76/36
f 198/76/36 196/77/36 194/78/36
f 194/78/36 192/79/36 190/80/36
f 190/80/36 188/81/63 186/82/36
f 186/82/36 184/83/61 182/84/36
f 182/84/36 180/85/36 178/86/36
f 178/86/36 176/87/36 174/62/36
f 174/62/36 172/88/36 170/89/63
f 170/89/63 168/90/36 166/91/36
f 166/91/36 164/92/36 162/93/36
f 162/93/36 160/94/36 158/63/36
f 158/63/36 156/95/61 154/96/36
f 154/96/36 152/97/63 150/98/36
f 150/98/36 148/99/36 146/100/36
f 146/100/36 144/101/36 142/64/36
f 142/64/36 138/74/61 198/76/36
f 198/76/36 194/78/36 190/80/36
f 190/80/36 186/82/36 182/84/36
f 182/84/36 178/86/36 174/62/36
f 174/62/36 170/89/63 166/91/36
f 166/91/36 162/93/36 158/63/36
f 158/63/36 154/96/36 150/98/36
f 150/98/36 146/100/36 142/64/36
f 142/64/36 198/76/36 190/80/36
f 190/80/36 182/84/36 174/62/36
f 174/62/36 166/91/36 158/63/36
f 158/63/36 150/98/36 142/64/36
f 142/64/36 190/80/36 174/62/36
f 198/65/37 200/67/37 199/66/38
f 200/67/39 138/102/39 137/68/40
f 199/71/41 137/103/41 139/104/41
f 139/104/41 141/105/68 143/106/41
f 143/106/41 145/107/68 147/108/41
f 147/108/41 149/109/41 151/110/41
f 151/110/41 153/111/41 155/112/41
f 155/112/41 157/113/41 159/114/41
f 159/114/41 161/115/70 163/116/69
f 163/116/69 165/117/41 167/69/41
f 167/69/41 169/118/41 171/119/69
f 171/119/69 173/120/70 175/121/41
f 175/121/41 177/122/70 179/123/41
f 179/123/41 181/124/72 183/70/41
f 183/70/41 185/125/41 187/126/41
f 187/126/41 189/127/68 191/128/41
f 191/128/41 193/129/68 195/130/41
f 195/130/41 197/131/41 199/71/41
f 199/71/41 139/104/41 143/106/41
f 143/106/41 147/108/41 151/110/41
f 151/110/41 155/112/41 159/114/41
f 159/114/41 163/116/69 167/69/41
f 167/69/41 171/119/69 175/121/41
f 175/121/41 179/123/41 183/70/41
f 183/70/41 187/126/41 191/128/41
f 191/128/41 195/130/41 199/71/41
f 199/71/41 143/106/41 151/110/41
f 151/110/41 159/114/41 167/69/41
f 167/69/41 175/121/41 183/70/41
f 183/70/41 191/128/41 199/71/41
f 199/71/41 151/110/41 167/69/41
f 202/1/1 204/4/1 203/2/2
f 204/4/3 206/6/3 205/5/3
f 206/6/47 208/8/47 207/7/47
f 208/8/48 210/10/48 209/9/48
f 210/10/55 212/12/55 211/11/55
f 212/12/56 214/14/56 213/13/56
f 214/14/8 216/16/8 215/15/8
f 216/16/9 218/18/9 217/17/9
f 218/18/10 220/20/10 219/19/10
f 220/20/11 222/22/11 221/21/11
f 222/22/12 224/24/12 223/23/12
f 224/24/13 226/26/13 225/25/13
f 226/26/49 228/28/49 227/27/49
f 228/28/50 230/30/50 229/29/50
f 230/30/16 232/32/16 231/31/16
f 232/32/17 234/34/17 233/33/18
f 234/34/19 236/36/19 235/35/20
f 236/36/21 238/38/21 237/37/22
f 238/38/45 240/40/45 239/39/45
f 240/40/24 242/42/24 241/41/24
f 242/42/25 244/44/25 243/43/25
f 244/44/26 246/46/26 245/45/26
f 246/46/27 248/48/27 247/47/27
f 248/48/28 250/50/28 249/49/28
f 250/50/29 252/52/29 251/51/29
f 252/52/30 254/54/30 253/53/30
f 254/54/32 256/56/32 255/55/32
f 256/56/33 258/58/33 257/57/33
f 258/58/34 260/60/34 259/59/34
f 260/60/46 262/65/46 261/61/46
f 206/64/36 204/73/36 202/74/61
f 202/74/61 264/75/36 262/76/36
f 262/76/36 260/77/62 258/78/36
f 258/78/36 256/79/36 254/80/36
f 254/80/36 252/81/63 250/82/36
f 250/82/36 248/83/61 246/84/36
f 246/84/36 244/85/36 242/86/36
f 242/86/36 240/87/64 238/62/36
f 238/62/36 236/88/36 234/89/63
f 234/89/63 232/90/36 230/91/36
f 230/91/36 228/92/36 226/93/36
f 226/93/36 224/94/65 222/63/36
f 222/63/36 220/95/61 218/96/36
f 218/96/36 216/97/63 214/98/36
f 214/98/36 212/99/66 210/100/36
f 210/100/36 208/101/36 206/64/36
f 206/64/36 202/74/61 262/76/36
f 262/76/36 258/78/36 254/80/36
f 254/80/36 250/82/36 246/84/36
f 246/84/36 242/86/36 238/62/36
f 238/62/36 234/89/63 230/91/36
f 230/91/36 226/93/36 222/63/36
f 222/63/36 218/96/36 214/98/36
f 214/98/36 210/100/36 206/64/36
f 206/64/36 262/76/36 254/80/36
f 254/80/36 246/84/36 238/62/36
f 238/62/36 230/91/36 222/63/36
f 222/63/36 214/98/36 206/64/36
f 206/64/36 254/80/36 238/62/36
f 262/65/37 264/67/37 263/66/38
f 264/67/39 202/102/39 201/68/40
f 263/71/41 201/103/67 203/104/41
f 203/104/41 205/105/68 207/106/41
f 207/106/41 209/107/68 211/108/41
f 211/108/41 213/109/69 215/110/41
f 215/110/41 217/111/41 219/112/41
f 219/112/41 221/113/70 223/114/41
f 223/114/41 225/115/70 227/116/69
f 227/116/69 229/117/41 231/69/41
f 231/69/41 233/118/71 235/119/41
f 235/119/41 237/120/70 239/121/41
f 239/121/41 241/122/70 243/123/41
f 243/123/41 245/124/41 247/70/41
f 247/70/41 249/125/41 251/126/41
f 251/126/41 253/127/41 255/128/41
f 255/128/41 257/129/68 259/130/72
f 259/130/72 261/131/41 263/71/41
f 263/71/41 203/104/41 207/106/41
f 207/106/41 211/108/41 215/110/41
f 215/110/41 219/112/41 223/114/41
f 223/114/41 227/116/69 231/69/41
f 231/69/41 235/119/41 239/121/41
f 239/121/41 243/123/41 247/70/41
f 247/70/41 251/126/41 255/128/41
f 255/128/41 259/130/72 263/71/41
f 263/71/41 207/106/41 215/110/41
f 215/110/41 223/114/41 231/69/41
f 231/69/41 239/121/41 247/70/41
f 247/70/41 255/128/41 263/71/41
f 263/71/41 215/110/41 231/69/41
g Cilindro.002_Material.002
usemtl Material.002
f 69/72/36 67/72/36 65/72/36
f 67/72/57 72/72/57 68/72/57
f 71/72/58 70/72/58 72/72/58
f 66/72/41 72/72/41 70/72/41
f 65/72/59 68/72/59 66/72/59
f 69/72/60 66/72/60 70/72/60
f 69/72/36 71/72/36 67/72/36
f 67/72/57 71/72/57 72/72/57
f 71/72/58 69/72/58 70/72/58
f 66/72/41 68/72/41 72/72/41
f 65/72/59 67/72/59 68/72/59
f 69/72/60 65/72/60 66/72/60
